<svg xmlns="http://www.w3.org/2000/svg" width="375" viewBox="0 0 375 375" height="375" version="1.0"><defs><clipPath id="a"><path d="M 71.351562 58.261719 L 303.851562 58.261719 L 303.851562 290.761719 L 71.351562 290.761719 Z M 71.351562 58.261719"/></clipPath></defs><g clip-path="url(#a)"><path fill="#84521A" d="M 148.898438 174.503906 C 148.898438 153.121094 166.230469 135.789062 187.609375 135.789062 C 208.992188 135.789062 226.324219 153.121094 226.324219 174.503906 C 226.324219 195.882812 208.992188 213.214844 187.609375 213.214844 C 166.230469 213.214844 148.898438 195.882812 148.898438 174.503906 Z M 187.609375 58.261719 C 123.394531 58.261719 71.351562 110.300781 71.351562 174.503906 C 71.351562 238.71875 123.394531 290.761719 187.609375 290.761719 C 251.8125 290.761719 303.851562 238.71875 303.851562 174.503906 C 303.851562 110.300781 251.8125 58.261719 187.609375 58.261719"/></g><path fill="#84521A" d="M 187.609375 213.214844 C 166.230469 213.214844 148.898438 195.882812 148.898438 174.503906 C 148.898438 153.121094 166.230469 135.789062 187.609375 135.789062 C 208.992188 135.789062 226.324219 153.121094 226.324219 174.503906 C 226.324219 195.882812 208.992188 213.214844 187.609375 213.214844 Z M 274.296875 151.132812 C 274.296875 124.160156 253.328125 102.089844 226.800781 100.324219 C 217.511719 90.675781 204.503906 84.660156 190.0625 84.660156 C 175.675781 84.660156 162.695312 90.636719 153.425781 100.21875 C 152.910156 100.210938 152.394531 100.195312 151.859375 100.195312 C 123.734375 100.195312 100.921875 122.992188 100.921875 151.132812 C 100.921875 159.167969 102.785156 166.769531 106.089844 173.519531 C 102.785156 180.277344 100.921875 187.875 100.921875 195.914062 C 100.921875 223.976562 123.621094 246.734375 151.660156 246.847656 C 161 257.574219 174.738281 264.363281 190.0625 264.363281 C 205.539062 264.363281 219.382812 257.453125 228.730469 246.570312 C 254.332031 243.890625 274.296875 222.230469 274.296875 195.914062 C 274.296875 187.875 272.429688 180.277344 269.105469 173.519531 C 272.429688 166.769531 274.296875 159.167969 274.296875 151.132812"/><g fill="#84521A"><g><g><path d="M 8.164062 7.320312 L 9.277344 8.4375 L 11.058594 9.753906 L 12.714844 10.675781 L 13.351562 10.804688 L 13.996094 11.066406 L 14.566406 11.222656 L 16.457031 11.390625 L 17.699219 11.292969 L 18.863281 11.046875 L 20.105469 10.613281 L 22.285156 9.328125 L 22.507812 8.773438 L 22.296875 8.054688 L 20.875 7 L 20.457031 6.519531 L 19.957031 6.132812 L 19.5 5.699219 L 18.703125 5.515625 L 17.992188 5.574219 L 17.363281 5.824219 L 16.28125 5.972656 L 15.613281 5.980469 L 15.128906 5.816406 L 13.902344 5.554688 L 12.574219 4.542969 L 11.941406 3.875 L 11.34375 2.828125 L 10.875 1.679688 L 10.714844 0.464844 L 10.90625 -0.824219 L 11.148438 -1.445312 L 11.265625 -1.925781 L 11.515625 -2.457031 L 11.894531 -3.046875 L 13.144531 -4.507812 L 14.128906 -5.320312 L 15.226562 -5.875 L 15.855469 -6.125 L 17.003906 -6.304688 L 17.96875 -6.265625 L 18.921875 -6.070312 L 20.707031 -4.914062 L 21.695312 -3.988281 L 22.253906 -3.136719 L 22.542969 -2.601562 L 22.652344 -2.050781 L 22.75 -0.761719 L 22.707031 -0.179688 L 22.773438 0.664062 L 23.097656 1.398438 L 23.570312 1.722656 L 24.050781 2.175781 L 24.550781 2.5625 L 25.160156 3.207031 L 25.9375 3.75 L 26.507812 3.90625 L 27.085938 3.570312 L 27.394531 2.921875 L 27.59375 2.347656 L 27.882812 1.722656 L 27.945312 1.113281 L 28.058594 0.546875 L 28.070312 -0.148438 L 28.195312 -0.828125 L 28.121094 -2.09375 L 27.375 -4.515625 L 25.730469 -7.25 L 25.296875 -7.664062 L 24.878906 -8.144531 L 23.417969 -9.4375 L 20.707031 -10.96875 L 18.21875 -11.648438 L 17.074219 -11.714844 L 15.246094 -11.664062 L 13.902344 -11.402344 L 12.855469 -11.097656 L 11.109375 -10.269531 L 10.03125 -9.492188 L 8.03125 -7.640625 L 6.679688 -5.769531 L 5.847656 -4.117188 L 5.09375 -1.15625 L 5.171875 0.738281 L 5.453125 2.59375 L 6.007812 4.023438 L 6.699219 5.398438 L 7.046875 5.863281 L 7.382812 6.441406 L 7.730469 6.90625 Z M 8.164062 7.320312" transform="translate(78.581 283.691)"/></g></g></g><g fill="#84521A"><g><g><path d="M 2.433594 0.371094 L 2.46875 1.078125 L 2.816406 1.675781 L 3.378906 1.960938 L 4.441406 2.636719 L 5.046875 2.910156 L 6.183594 3.59375 L 6.945312 3.589844 L 7.460938 3.195312 L 7.8125 2.707031 L 8.097656 2.074219 L 10.855469 -2.773438 L 11.429688 -3.207031 L 12.207031 -3.234375 L 15.453125 -1.421875 L 15.980469 -1.015625 L 16.476562 -0.734375 L 16.824219 -0.136719 L 16.800781 0.539062 L 13.382812 6.605469 L 13.4375 7.214844 L 14.027344 8.023438 L 15.449219 8.832031 L 16.03125 9.089844 L 17.105469 9.8125 L 17.828125 9.75 L 18.421875 9.472656 L 19.785156 6.949219 L 20.367188 6.121094 L 20.53125 5.636719 L 28.382812 -8.089844 L 28.464844 -8.804688 L 28.042969 -9.335938 L 24.910156 -11.15625 L 24.007812 -11.414062 L 23.359375 -10.914062 L 22.738281 -9.890625 L 22.527344 -9.394531 L 21.835938 -8.300781 L 21.621094 -7.734375 L 20.378906 -5.617188 L 19.765625 -5.238281 L 19.046875 -5.25 L 18.574219 -5.628906 L 17.441406 -6.125 L 16.898438 -6.507812 L 16.375 -6.734375 L 14.777344 -7.679688 L 14.394531 -8.222656 L 14.417969 -8.898438 L 14.734375 -9.515625 L 15.0625 -10.09375 L 15.316406 -10.601562 L 16.558594 -12.71875 L 16.957031 -13.292969 L 17.476562 -14.335938 L 17.527344 -14.996094 L 17.125 -15.625 L 16.488281 -15.914062 L 13.8125 -17.511719 L 13.054688 -17.578125 L 12.46875 -17.1875 L 12.070312 -16.617188 L 10.910156 -14.449219 L 10.542969 -13.933594 L 10.011719 -12.75 L 9.367188 -11.738281 L 9.019531 -11.066406 L 8.652344 -10.550781 L 3.992188 -2.367188 L 3.792969 -1.828125 Z M 2.433594 0.371094" transform="translate(101.572 302.587)"/></g></g></g><g fill="#84521A"><g><g><path d="M 11.847656 4.398438 L 14.597656 5.019531 L 15.851562 5.039062 L 18.910156 4.734375 L 21.671875 3.433594 L 22.238281 3.027344 L 24.09375 1.355469 L 24.492188 0.855469 L 24.78125 0.289062 L 25.121094 -0.128906 L 25.460938 -0.746094 L 26.3125 -2.785156 L 26.851562 -4.898438 L 26.980469 -6.082031 L 26.953125 -6.789062 L 27.035156 -7.527344 L 26.828125 -8.691406 L 26.796875 -9.300781 L 26.578125 -9.9375 L 26.339844 -10.417969 L 26.132812 -11.085938 L 25.238281 -12.679688 L 24.035156 -14.144531 L 20.53125 -16.679688 L 19.136719 -17.179688 L 17.003906 -17.757812 L 16.367188 -17.839844 L 15.710938 -17.859375 L 15.09375 -17.800781 L 13.859375 -17.882812 L 12.015625 -17.4375 L 11.476562 -17.21875 L 10.300781 -16.882812 L 9.195312 -16.253906 L 7.679688 -15.101562 L 7.238281 -14.683594 L 6.121094 -13.230469 L 5.453125 -12.027344 L 4.175781 -8.601562 L 3.875 -6.609375 L 3.980469 -5.445312 L 3.949219 -4.757812 L 4.070312 -4.117188 L 4.832031 -1.738281 L 5.398438 -0.652344 L 5.636719 -0.0742188 L 7.308594 1.683594 L 7.796875 2.113281 L 10.085938 3.707031 Z M 12.773438 -1.140625 L 12.246094 -1.546875 L 11.726562 -1.789062 L 10.890625 -2.667969 L 10.234375 -3.78125 L 10.074219 -4.300781 L 9.828125 -4.847656 L 9.820312 -6.710938 L 10.171875 -8.253906 L 10.5 -9.140625 L 11.078125 -10.175781 L 11.4375 -10.65625 L 11.9375 -10.953125 L 12.375 -11.371094 L 12.925781 -11.71875 L 13.503906 -11.957031 L 14.570312 -12.265625 L 15.195312 -12.351562 L 15.875 -12.292969 L 17.289062 -11.953125 L 18.691406 -11.382812 L 20.042969 -10.164062 L 20.742188 -9.167969 L 21.085938 -7.921875 L 21.148438 -7.304688 L 21.125 -6.648438 L 21.15625 -6.039062 L 20.84375 -4.714844 L 20.164062 -3.28125 L 19.488281 -2.148438 L 19.007812 -1.808594 L 18.589844 -1.453125 L 18.050781 -1.035156 L 16.886719 -0.625 L 16.265625 -0.566406 L 15.699219 -0.457031 L 15.140625 -0.578125 L 14.523438 -0.621094 Z M 12.773438 -1.140625" transform="translate(126.86 316.46)"/></g></g></g><g fill="#84521A"><g><g><path d="M 10.84375 1.617188 L 12.390625 1.9375 L 14.597656 2.058594 L 16.492188 1.914062 L 17.09375 1.671875 L 17.777344 1.535156 L 18.339844 1.351562 L 20.007812 0.449219 L 20.992188 -0.316406 L 21.828125 -1.160156 L 22.628906 -2.203125 L 23.738281 -4.476562 L 23.621094 -5.0625 L 23.046875 -5.550781 L 21.28125 -5.644531 L 20.667969 -5.816406 L 20.039062 -5.863281 L 19.417969 -5.972656 L 18.652344 -5.6875 L 18.089844 -5.25 L 17.703125 -4.695312 L 16.882812 -3.972656 L 16.324219 -3.601562 L 15.832031 -3.472656 L 14.664062 -3.015625 L 12.996094 -3.128906 L 12.101562 -3.335938 L 11.027344 -3.882812 L 10.003906 -4.585938 L 9.199219 -5.511719 L 8.652344 -6.691406 L 8.511719 -7.34375 L 8.347656 -7.808594 L 8.261719 -8.390625 L 8.253906 -9.089844 L 8.492188 -10.996094 L 8.867188 -12.21875 L 9.480469 -13.285156 L 9.867188 -13.839844 L 10.726562 -14.621094 L 11.550781 -15.121094 L 12.453125 -15.484375 L 14.582031 -15.5 L 15.917969 -15.269531 L 16.851562 -14.867188 L 17.386719 -14.578125 L 17.78125 -14.179688 L 18.574219 -13.160156 L 18.859375 -12.648438 L 19.378906 -11.976562 L 20.054688 -11.542969 L 20.625 -11.535156 L 21.277344 -11.421875 L 21.90625 -11.375 L 22.769531 -11.171875 L 23.71875 -11.148438 L 24.28125 -11.332031 L 24.578125 -11.929688 L 24.476562 -12.640625 L 24.332031 -13.230469 L 24.226562 -13.910156 L 23.945312 -14.453125 L 23.726562 -14.988281 L 23.355469 -15.574219 L 23.085938 -16.210938 L 22.324219 -17.226562 L 20.367188 -18.839844 L 17.492188 -20.214844 L 16.902344 -20.320312 L 16.289062 -20.492188 L 14.355469 -20.769531 L 11.25 -20.554688 L 8.800781 -19.753906 L 7.808594 -19.179688 L 6.308594 -18.128906 L 5.332031 -17.171875 L 4.625 -16.339844 L 3.625 -14.6875 L 3.148438 -13.445312 L 2.5 -10.796875 L 2.402344 -8.492188 L 2.613281 -6.65625 L 3.617188 -3.769531 L 4.726562 -2.230469 L 5.976562 -0.835938 L 7.230469 0.0507812 L 8.5625 0.820312 L 9.109375 1.019531 L 9.707031 1.316406 L 10.253906 1.511719 Z M 10.84375 1.617188" transform="translate(156.523 325.716)"/></g></g></g><g fill="#84521A"><g><g><path d="M 12.628906 -0.511719 L 15.402344 -1 L 16.570312 -1.464844 L 19.273438 -2.925781 L 21.320312 -5.191406 L 21.6875 -5.785156 L 22.753906 -8.042969 L 22.929688 -8.65625 L 22.976562 -9.292969 L 23.128906 -9.808594 L 23.203125 -10.507812 L 23.199219 -12.71875 L 22.882812 -14.875 L 22.546875 -16.019531 L 22.25 -16.660156 L 22.039062 -17.371094 L 21.398438 -18.367188 L 21.136719 -18.917969 L 20.6875 -19.421875 L 20.285156 -19.769531 L 19.835938 -20.304688 L 18.394531 -21.433594 L 16.71875 -22.320312 L 12.507812 -23.308594 L 11.03125 -23.230469 L 8.839844 -22.945312 L 8.21875 -22.773438 L 7.605469 -22.539062 L 7.058594 -22.246094 L 5.886719 -21.84375 L 4.359375 -20.722656 L 3.945312 -20.3125 L 2.992188 -19.546875 L 2.214844 -18.542969 L 1.257812 -16.894531 L 1.015625 -16.339844 L 0.546875 -14.570312 L 0.394531 -13.199219 L 0.535156 -9.546875 L 1.023438 -7.59375 L 1.574219 -6.558594 L 1.808594 -5.914062 L 2.164062 -5.371094 L 3.789062 -3.46875 L 4.730469 -2.683594 L 5.171875 -2.242188 L 7.394531 -1.265625 L 8.007812 -1.058594 L 10.734375 -0.46875 Z M 11.34375 -5.976562 L 10.699219 -6.152344 L 10.128906 -6.171875 L 9.019531 -6.660156 L 7.984375 -7.4375 L 7.636719 -7.855469 L 7.195312 -8.265625 L 6.472656 -9.980469 L 6.199219 -11.539062 L 6.160156 -12.484375 L 6.296875 -13.664062 L 6.445312 -14.242188 L 6.789062 -14.710938 L 7.03125 -15.265625 L 7.402344 -15.796875 L 7.84375 -16.238281 L 8.710938 -16.933594 L 9.253906 -17.257812 L 9.902344 -17.464844 L 11.339844 -17.695312 L 12.855469 -17.710938 L 14.574219 -17.109375 L 15.597656 -16.460938 L 16.398438 -15.445312 L 16.691406 -14.898438 L 16.925781 -14.28125 L 17.1875 -13.734375 L 17.414062 -12.390625 L 17.339844 -10.804688 L 17.152344 -9.496094 L 16.839844 -9 L 16.589844 -8.507812 L 16.253906 -7.917969 L 15.335938 -7.089844 L 14.789062 -6.796875 L 14.308594 -6.480469 L 13.746094 -6.375 L 13.160156 -6.171875 Z M 11.34375 -5.976562" transform="translate(186.204 328.925)"/></g></g></g><g fill="#84521A"><g><g><path d="M 2.046875 -1.683594 L 2.457031 -0.941406 L 3.117188 -0.785156 L 3.742188 -0.875 L 5.003906 -1.289062 L 6.210938 -1.527344 L 7.355469 -1.882812 L 7.957031 -1.933594 L 8.613281 -2.164062 L 14.671875 -3.65625 L 15.175781 -4.105469 L 15.273438 -5.136719 L 14.621094 -7.605469 L 14.117188 -8.453125 L 13.472656 -8.679688 L 12.847656 -8.457031 L 12.296875 -8.191406 L 11.632812 -8.121094 L 10.386719 -7.773438 L 9.746094 -7.742188 L 9.21875 -7.515625 L 8.011719 -7.277344 L 7.386719 -7.054688 L 6.714844 -7.144531 L 6.316406 -7.695312 L 3.742188 -18.058594 L 3.5 -18.777344 L 3.253906 -20.011719 L 2.722656 -21.730469 L 2.605469 -22.320312 L 2.132812 -22.914062 L 1.429688 -23.128906 L 0.238281 -22.828125 L -0.34375 -22.550781 L -1.59375 -22.367188 L -2.152344 -22.128906 L -2.730469 -21.722656 L -2.839844 -20.984375 L -1.761719 -16.707031 L -1.679688 -16.109375 L -1.464844 -15.515625 L -1.269531 -14.363281 L -1.070312 -13.695312 L -0.863281 -13.132812 Z M 2.046875 -1.683594" transform="translate(216.829 325.845)"/></g></g></g><g fill="#84521A"><g><g><path d="M 17.0625 -7.371094 L 18.121094 -7.933594 L 18.695312 -8.117188 L 19.578125 -8.535156 L 20.324219 -9.03125 L 20.105469 -9.761719 L 19.617188 -10.339844 L 18.714844 -11.21875 L 17.28125 -12.378906 L 16.414062 -13.273438 L 15.382812 -14.058594 L 13.136719 -16.210938 L 12.660156 -16.515625 L 12.132812 -16.9375 L 11.683594 -17.5 L 11.234375 -17.820312 L 10.859375 -18.207031 L 9.789062 -19.007812 L 9.320312 -19.527344 L 5.664062 -22.710938 L 5.238281 -23.210938 L 4.695312 -23.59375 L 4.296875 -24.039062 L 3.308594 -24.808594 L 2.589844 -25.113281 L 1.511719 -24.988281 L 0.726562 -24.269531 L 0.417969 -23.550781 L 0.375 -22.945312 L 0.421875 -22.28125 L 0.339844 -21.761719 L 0.34375 -18.601562 L 0.214844 -18.03125 L 0.320312 -17.390625 L 0.242188 -16.703125 L 0.296875 -16.109375 L 0.046875 -8.644531 L 0.148438 -7.933594 L 0.0507812 -7.375 L 0.0976562 -6.710938 L -0.0195312 -5.558594 L 0.0507812 -4.214844 L -0.0898438 -3.671875 L -0.0078125 -3.089844 L -0.0820312 -1.683594 L -0.00390625 -1.03125 L 0.457031 -0.371094 L 1.109375 -0.449219 L 2.210938 -1 L 2.8125 -1.191406 L 4.40625 -1.953125 L 4.980469 -2.445312 L 5.304688 -3.207031 L 5.40625 -4.386719 L 5.71875 -5.171875 L 6.183594 -5.753906 L 6.769531 -5.90625 L 7.933594 -6.550781 L 8.492188 -6.691406 L 11.308594 -7.953125 L 11.851562 -8.125 L 12.449219 -8.488281 L 13.222656 -8.445312 L 13.972656 -8.222656 L 14.472656 -7.789062 L 14.875 -7.34375 L 15.640625 -7.164062 L 16.429688 -7.164062 Z M 7.371094 -11.703125 L 6.742188 -11.566406 L 6.105469 -11.21875 L 5.554688 -11.21875 L 5.285156 -11.753906 L 5.285156 -15.464844 L 5.488281 -15.863281 L 5.992188 -15.808594 L 8.734375 -13.222656 L 8.847656 -12.65625 L 8.515625 -12.234375 Z M 7.371094 -11.703125" transform="translate(238.514 320.181)"/></g></g></g><g fill="#84521A"><g><g><path d="M 6.917969 -4.441406 L 8.652344 -5.648438 L 9.246094 -6.410156 L 9.027344 -7.320312 L 8.210938 -8.746094 L 7.476562 -9.695312 L 7.167969 -10.285156 L 6.453125 -11.320312 L 6.195312 -11.832031 L 5.738281 -12.359375 L 3.015625 -16.640625 L 2.578125 -17.144531 L 1.15625 -19.488281 L 0.851562 -20.417969 L 1.148438 -21.0625 L 2.140625 -21.785156 L 3.203125 -22.292969 L 3.707031 -22.734375 L 4.195312 -23.015625 L 4.457031 -23.597656 L 4.394531 -24.386719 L 2.785156 -26.910156 L 2.148438 -27.246094 L 1.425781 -27.261719 L -0.210938 -26.195312 L -0.746094 -25.921875 L -1.25 -25.480469 L -1.785156 -25.207031 L -3.851562 -23.707031 L -4.449219 -23.464844 L -4.964844 -23.164062 L -5.46875 -22.726562 L -6.082031 -22.398438 L -6.488281 -21.984375 L -8.097656 -21.046875 L -8.863281 -20.433594 L -10.777344 -19.332031 L -11.105469 -18.742188 L -11.027344 -17.929688 L -10.65625 -17.417969 L -9.847656 -16.066406 L -9.261719 -15.28125 L -8.714844 -14.964844 L -8.066406 -15.007812 L -7.574219 -15.40625 L -5.035156 -16.988281 L -4.359375 -17.054688 L -3.726562 -16.714844 L -3.226562 -15.835938 L -2.695312 -15.132812 L -2.339844 -14.535156 L -1.96875 -14.023438 L -1.539062 -13.25 L 1.105469 -9.371094 L 1.394531 -8.8125 L 2.765625 -6.65625 L 3.179688 -6.136719 L 4.152344 -4.589844 L 4.425781 -4.054688 L 5.148438 -3.699219 L 6.082031 -3.933594 Z M 6.917969 -4.441406" transform="translate(264.204 308.242)"/></g></g></g><g fill="#84521A"><g><g><path d="M 8.242188 -7.230469 L 11.558594 -10.277344 L 11.863281 -10.929688 L 11.683594 -11.652344 L 9.5625 -14.027344 L 8.886719 -14.265625 L 8.203125 -14.035156 L 7.703125 -13.507812 L 7.195312 -13.179688 L 5.976562 -12.132812 L 5.285156 -11.347656 L 4.773438 -10.972656 L 4.277344 -10.488281 L 3.765625 -10.160156 L 3.292969 -9.652344 L 2.589844 -9.445312 L 2.023438 -9.703125 L 0.699219 -11.183594 L 0.472656 -11.863281 L 0.664062 -12.5 L 1.347656 -13.152344 L 2.164062 -13.753906 L 3.015625 -14.597656 L 4 -15.433594 L 4.425781 -15.902344 L 4.988281 -16.359375 L 5.289062 -16.96875 L 5.035156 -17.585938 L 3.21875 -19.761719 L 2.394531 -20.210938 L 1.582031 -20.035156 L 0.195312 -18.796875 L -0.253906 -18.308594 L -1.304688 -17.496094 L -2.625 -16.234375 L -3.308594 -16.003906 L -4.148438 -16.566406 L -4.796875 -17.292969 L -4.984375 -17.929688 L -4.636719 -18.578125 L -4.167969 -18.953125 L -3.804688 -19.445312 L -0.402344 -22.398438 L 0.0234375 -22.820312 L 0.265625 -23.542969 L 0.121094 -24.175781 L -0.320312 -24.625 L -0.71875 -25.117188 L -2.023438 -26.484375 L -2.632812 -26.742188 L -3.269531 -26.511719 L -3.765625 -26.070312 L -4.269531 -25.785156 L -6.152344 -24.0625 L -6.628906 -23.554688 L -7.140625 -23.183594 L -7.519531 -22.804688 L -8.03125 -22.429688 L -9.917969 -20.664062 L -10.449219 -20.3125 L -10.8125 -19.820312 L -11.277344 -19.492188 L -11.703125 -19.023438 L -12.195312 -18.628906 L -12.519531 -18 L -12.339844 -17.277344 L -11.496094 -16.425781 L -10.707031 -15.398438 L -10.171875 -14.945312 L -8.164062 -12.597656 L -7.652344 -12.167969 L -7.300781 -11.679688 L -5.605469 -9.734375 L -5.15625 -9.371094 L -1.78125 -5.542969 L -1.429688 -5.054688 L -0.941406 -4.648438 L 0.4375 -2.964844 L 0.945312 -2.488281 L 1.699219 -2.023438 L 2.675781 -2.347656 L 4.390625 -3.832031 L 4.863281 -4.34375 L 5.308594 -4.695312 L 6.207031 -5.625 L 6.738281 -5.929688 L 7.300781 -6.390625 L 7.730469 -6.855469 Z M 8.242188 -7.230469" transform="translate(283.17 295.407)"/></g></g></g></svg>