<svg xmlns="http://www.w3.org/2000/svg" width="375" viewBox="0 0 375 375" height="375" version="1.0"><defs><clipPath id="a"><path d="M 49.84375 49.84375 L 325.09375 49.84375 L 325.09375 325.09375 L 49.84375 325.09375 Z M 49.84375 49.84375"/></clipPath></defs><g clip-path="url(#a)"><path fill="#84521A" d="M 141.648438 187.460938 C 141.648438 162.148438 162.167969 141.628906 187.476562 141.628906 C 212.789062 141.628906 233.308594 162.148438 233.308594 187.460938 C 233.308594 212.773438 212.789062 233.289062 187.476562 233.289062 C 162.167969 233.289062 141.648438 212.773438 141.648438 187.460938 Z M 187.476562 49.84375 C 111.453125 49.84375 49.84375 111.453125 49.84375 187.460938 C 49.84375 263.484375 111.453125 325.09375 187.476562 325.09375 C 263.484375 325.09375 325.09375 263.484375 325.09375 187.460938 C 325.09375 111.453125 263.484375 49.84375 187.476562 49.84375"/></g><path fill="#84521A" d="M 187.476562 233.289062 C 162.167969 233.289062 141.648438 212.773438 141.648438 187.460938 C 141.648438 162.148438 162.167969 141.628906 187.476562 141.628906 C 212.789062 141.628906 233.308594 162.148438 233.308594 187.460938 C 233.308594 212.773438 212.789062 233.289062 187.476562 233.289062 Z M 290.105469 159.792969 C 290.105469 127.859375 265.277344 101.730469 233.871094 99.644531 C 222.878906 88.21875 207.476562 81.097656 190.382812 81.097656 C 173.347656 81.097656 157.980469 88.175781 147.007812 99.519531 C 146.398438 99.507812 145.789062 99.492188 145.152344 99.492188 C 111.855469 99.492188 84.851562 126.480469 84.851562 159.792969 C 84.851562 169.308594 87.054688 178.304688 90.96875 186.296875 C 87.054688 194.296875 84.851562 203.292969 84.851562 212.808594 C 84.851562 246.03125 111.722656 272.972656 144.917969 273.109375 C 155.976562 285.804688 172.238281 293.839844 190.382812 293.839844 C 208.703125 293.839844 225.09375 285.660156 236.15625 272.777344 C 266.46875 269.605469 290.105469 243.960938 290.105469 212.808594 C 290.105469 203.292969 287.890625 194.296875 283.957031 186.296875 C 287.890625 178.304688 290.105469 169.308594 290.105469 159.792969"/></svg>