<svg xmlns="http://www.w3.org/2000/svg" width="375" viewBox="0 0 375 375" height="375" version="1.0"><defs><clipPath id="a"><path d="M 71.351562 58.261719 L 303.851562 58.261719 L 303.851562 290.761719 L 71.351562 290.761719 Z M 71.351562 58.261719"/></clipPath></defs><g clip-path="url(#a)"><path fill="#FCBAA4" d="M 148.898438 174.503906 C 148.898438 153.121094 166.230469 135.789062 187.609375 135.789062 C 208.992188 135.789062 226.324219 153.121094 226.324219 174.503906 C 226.324219 195.882812 208.992188 213.214844 187.609375 213.214844 C 166.230469 213.214844 148.898438 195.882812 148.898438 174.503906 Z M 187.609375 58.261719 C 123.394531 58.261719 71.351562 110.300781 71.351562 174.503906 C 71.351562 238.71875 123.394531 290.761719 187.609375 290.761719 C 251.8125 290.761719 303.851562 238.71875 303.851562 174.503906 C 303.851562 110.300781 251.8125 58.261719 187.609375 58.261719"/></g><path fill="#FCBAA4" d="M 187.609375 213.214844 C 166.230469 213.214844 148.898438 195.882812 148.898438 174.503906 C 148.898438 153.121094 166.230469 135.789062 187.609375 135.789062 C 208.992188 135.789062 226.324219 153.121094 226.324219 174.503906 C 226.324219 195.882812 208.992188 213.214844 187.609375 213.214844 Z M 274.296875 151.132812 C 274.296875 124.160156 253.328125 102.089844 226.800781 100.324219 C 217.511719 90.675781 204.503906 84.660156 190.0625 84.660156 C 175.675781 84.660156 162.695312 90.636719 153.425781 100.21875 C 152.910156 100.210938 152.394531 100.195312 151.859375 100.195312 C 123.734375 100.195312 100.921875 122.992188 100.921875 151.132812 C 100.921875 159.167969 102.785156 166.769531 106.089844 173.519531 C 102.785156 180.277344 100.921875 187.875 100.921875 195.914062 C 100.921875 223.976562 123.621094 246.734375 151.660156 246.847656 C 161 257.574219 174.738281 264.363281 190.0625 264.363281 C 205.539062 264.363281 219.382812 257.453125 228.730469 246.570312 C 254.332031 243.890625 274.296875 222.230469 274.296875 195.914062 C 274.296875 187.875 272.429688 180.277344 269.105469 173.519531 C 272.429688 166.769531 274.296875 159.167969 274.296875 151.132812"/><g fill="#FCBAA4"><g><g><path d="M 5.71875 6.261719 L 7.410156 8.085938 L 7.894531 8.492188 L 8.449219 8.832031 L 8.957031 9.214844 L 9.578125 9.492188 L 10.019531 9.851562 L 10.640625 10.082031 L 13.058594 10.714844 L 14.375 10.707031 L 14.910156 10.625 L 15.648438 10.386719 L 16.1875 10.125 L 16.699219 9.886719 L 17.960938 8.921875 L 18.636719 8.171875 L 19.613281 6.558594 L 19.730469 5.957031 L 19.835938 4.710938 L 19.800781 3.953125 L 19.628906 3.417969 L 19.480469 2.769531 L 18.304688 0.484375 L 17.933594 -0.03125 L 17.515625 -0.503906 L 17.140625 -1.066406 L 16.503906 -1.71875 L 15.585938 -3.15625 L 15.175781 -4.386719 L 15.164062 -5.03125 L 15.75 -5.785156 L 16.46875 -6.265625 L 17.027344 -6.28125 L 17.605469 -6.183594 L 18.160156 -6.023438 L 18.644531 -5.703125 L 19.371094 -5.003906 L 19.984375 -4.195312 L 20.269531 -3.679688 L 20.394531 -3.011719 L 20.453125 -2.320312 L 20.332031 -1.542969 L 20.523438 -0.757812 L 21.648438 0.210938 L 22.199219 0.863281 L 22.636719 1.316406 L 22.988281 1.765625 L 23.722656 1.882812 L 24.28125 1.691406 L 24.621094 1.183594 L 25.007812 0.71875 L 25.5625 -1.054688 L 25.753906 -2.210938 L 25.339844 -4.710938 L 24.535156 -6.390625 L 23.855469 -7.445312 L 22.207031 -9.226562 L 21.585938 -9.589844 L 21.125 -10.019531 L 20.660156 -10.359375 L 19.554688 -10.949219 L 18.355469 -11.277344 L 16.554688 -11.632812 L 14.726562 -11.386719 L 13.089844 -10.582031 L 11.917969 -9.570312 L 11.242188 -8.867188 L 10.496094 -7.828125 L 10.058594 -6.695312 L 9.835938 -4.851562 L 10.5 -2.503906 L 11.019531 -1.429688 L 14.070312 2.503906 L 14.480469 3.691406 L 14.496094 4.246094 L 14.0625 4.933594 L 13.324219 5.304688 L 12.699219 5.339844 L 11.613281 4.90625 L 10.886719 4.25 L 10.421875 3.910156 L 9.414062 2.652344 L 9.242188 2.070312 L 9.117188 1.445312 L 9.199219 -0.0898438 L 8.941406 -0.71875 L 8.5 -1.078125 L 8.148438 -1.574219 L 6.363281 -3.222656 L 5.789062 -3.449219 L 5.136719 -3.167969 L 4.753906 -2.660156 L 4.390625 -2.132812 L 4.117188 -1.601562 L 3.703125 -0.355469 L 3.71875 0.246094 L 3.664062 0.867188 L 3.941406 2.140625 L 3.910156 2.785156 L 4.125 3.414062 L 4.429688 3.996094 L 4.972656 5.183594 Z M 5.71875 6.261719" transform="translate(70.533 274.722)"/></g></g></g><g fill="#FCBAA4"><g><g><path d="M 6.558594 4.957031 L 8.289062 6.167969 L 9.210938 6.460938 L 9.988281 5.941406 L 11.042969 4.683594 L 11.679688 3.667969 L 12.128906 3.171875 L 12.855469 2.144531 L 13.242188 1.726562 L 13.582031 1.113281 L 16.660156 -2.917969 L 16.976562 -3.503906 L 18.691406 -5.648438 L 19.457031 -6.253906 L 20.160156 -6.199219 L 21.183594 -5.515625 L 22.027344 -4.695312 L 22.613281 -4.375 L 23.050781 -4.011719 L 23.6875 -3.972656 L 24.402344 -4.300781 L 26.214844 -6.683594 L 26.3125 -7.394531 L 26.078125 -8.082031 L 24.511719 -9.246094 L 24.066406 -9.65625 L 23.480469 -9.972656 L 23.039062 -10.382812 L 20.914062 -11.804688 L 20.484375 -12.28125 L 20.023438 -12.664062 L 19.4375 -12.984375 L 18.917969 -13.445312 L 18.386719 -13.683594 L 16.953125 -14.871094 L 16.113281 -15.375 L 14.421875 -16.792969 L 13.75 -16.898438 L 13.015625 -16.542969 L 12.664062 -16.019531 L 11.675781 -14.792969 L 11.140625 -13.972656 L 11.03125 -13.347656 L 11.296875 -12.757812 L 11.839844 -12.429688 L 14.203125 -10.59375 L 14.496094 -9.984375 L 14.398438 -9.273438 L 13.746094 -8.5 L 13.269531 -7.753906 L 12.832031 -7.21875 L 12.480469 -6.695312 L 11.902344 -6.023438 L 9.175781 -2.203125 L 8.75 -1.734375 L 7.203125 0.292969 L 6.859375 0.863281 L 5.742188 2.308594 L 5.335938 2.75 L 5.25 3.550781 L 5.792969 4.351562 Z M 6.558594 4.957031" transform="translate(88.69 292.567)"/></g></g></g><g fill="#FCBAA4"><g><g><path d="M 2.691406 -0.0664062 L 2.523438 0.945312 L 3.148438 1.730469 L 3.75 1.933594 L 4.605469 2.480469 L 5.082031 2.65625 L 5.921875 3.089844 L 6.960938 3.269531 L 7.632812 2.589844 L 8.121094 1.636719 L 8.4375 1.160156 L 8.65625 0.53125 L 9.636719 -1.234375 L 10.179688 -1.664062 L 10.867188 -1.695312 L 12.378906 -0.636719 L 12.691406 0.128906 L 12.738281 0.863281 L 12.703125 1.480469 L 12.859375 2.625 L 12.871094 3.90625 L 12.960938 4.484375 L 12.898438 5.160156 L 12.960938 5.796875 L 13.316406 6.617188 L 14.136719 7.359375 L 16.363281 8.472656 L 16.867188 8.800781 L 17.804688 9.25 L 18.46875 9.273438 L 18.953125 8.742188 L 18.964844 7.96875 L 18.828125 7.402344 L 18.878906 6.757812 L 18.664062 4.835938 L 18.671875 4.203125 L 18.527344 2.285156 L 18.40625 1.691406 L 18.726562 1.007812 L 19.292969 0.519531 L 19.902344 0.300781 L 20.46875 0.167969 L 22.570312 -1.226562 L 23.773438 -2.664062 L 24.625 -4.457031 L 24.828125 -5.0625 L 25.148438 -6.917969 L 25.171875 -7.507812 L 25.09375 -8.113281 L 24.363281 -10.617188 L 23.65625 -11.65625 L 22.78125 -12.566406 L 21.371094 -13.753906 L 20.492188 -14.242188 L 19.652344 -14.605469 L 17.972656 -15.472656 L 17.46875 -15.871094 L 16.910156 -16.160156 L 16.332031 -16.28125 L 15.773438 -16.570312 L 15.269531 -16.972656 L 14.667969 -17.316406 L 12.945312 -18.027344 L 12.296875 -18.007812 L 11.554688 -17.398438 L 8.277344 -10.972656 L 8.046875 -10.382812 L 7.382812 -9.304688 L 7.09375 -8.675781 L 6.804688 -8.113281 L 6.589844 -7.554688 L 6.257812 -7.050781 L 5.0625 -4.796875 L 4.828125 -4.210938 Z M 13.179688 -6.175781 L 12.777344 -6.773438 L 12.785156 -7.335938 L 13.648438 -9.015625 L 13.839844 -9.523438 L 14.503906 -10.667969 L 15.027344 -11.070312 L 15.730469 -10.992188 L 16.277344 -10.675781 L 17.453125 -10.210938 L 18.152344 -9.636719 L 18.851562 -9.207031 L 19.3125 -8.792969 L 19.5625 -7.5625 L 19.5 -7.027344 L 19.238281 -6.242188 L 18.71875 -5.445312 L 18.179688 -5.015625 L 17.65625 -4.753906 L 17.21875 -4.660156 L 16.597656 -4.699219 L 15.683594 -4.921875 L 15.136719 -5.167969 L 13.824219 -5.914062 Z M 13.179688 -6.175781" transform="translate(107.349 306.111)"/></g></g></g><g fill="#FCBAA4"><g><g><path d="M 17.769531 5.445312 L 18.941406 5.703125 L 19.496094 5.933594 L 20.441406 6.1875 L 21.332031 6.292969 L 21.640625 5.597656 L 21.640625 4.839844 L 21.523438 3.585938 L 21.183594 1.773438 L 21.101562 0.53125 L 20.828125 -0.738281 L 20.511719 -3.828125 L 20.347656 -4.371094 L 20.21875 -5.035156 L 20.238281 -5.753906 L 20.105469 -6.289062 L 20.070312 -6.824219 L 19.773438 -8.132812 L 19.753906 -8.828125 L 19.035156 -13.625 L 19.035156 -14.28125 L 18.867188 -14.925781 L 18.851562 -15.519531 L 18.597656 -16.75 L 18.25 -17.449219 L 17.34375 -18.050781 L 16.28125 -18.011719 L 15.582031 -17.664062 L 15.15625 -17.230469 L 14.761719 -16.691406 L 14.363281 -16.351562 L 12.316406 -13.945312 L 11.847656 -13.59375 L 11.515625 -13.035156 L 11.011719 -12.5625 L 10.664062 -12.074219 L 5.636719 -6.554688 L 5.253906 -5.945312 L 4.816406 -5.585938 L 4.421875 -5.046875 L 3.589844 -4.246094 L 2.773438 -3.175781 L 2.3125 -2.855469 L 1.996094 -2.359375 L 1.027344 -1.335938 L 0.664062 -0.785156 L 0.589844 0.0117188 L 1.136719 0.378906 L 2.332031 0.671875 L 2.914062 0.914062 L 4.621094 1.367188 L 5.378906 1.363281 L 6.117188 0.996094 L 6.960938 0.164062 L 7.707031 -0.234375 L 8.441406 -0.375 L 8.984375 -0.109375 L 10.289062 0.152344 L 10.804688 0.40625 L 13.765625 1.273438 L 14.292969 1.496094 L 14.980469 1.605469 L 15.546875 2.140625 L 15.972656 2.792969 L 16.070312 3.449219 L 16.085938 4.046875 L 16.550781 4.683594 L 17.15625 5.191406 Z M 13.199219 -4.132812 L 12.632812 -4.4375 L 11.921875 -4.585938 L 11.5 -4.945312 L 11.644531 -5.527344 L 14.046875 -8.351562 L 14.460938 -8.523438 L 14.8125 -8.15625 L 15.222656 -4.410156 L 14.9375 -3.902344 L 14.414062 -3.796875 Z M 13.199219 -4.132812" transform="translate(132.004 318.296)"/></g></g></g><g fill="#FCBAA4"><g><g><path d="M 7.75 -0.046875 L 8.203125 0.558594 L 8.859375 1.023438 L 10.054688 1.09375 L 10.765625 0.898438 L 11.324219 0.28125 L 11.652344 -0.226562 L 11.898438 -0.902344 L 12.257812 -1.441406 L 12.460938 -1.960938 L 12.796875 -2.597656 L 12.996094 -3.085938 L 14.164062 -5.328125 L 14.40625 -5.972656 L 15.070312 -7.117188 L 15.582031 -8.308594 L 15.886719 -8.1875 L 16.15625 -7.628906 L 16.289062 -6.953125 L 16.734375 -5.839844 L 18.121094 -0.855469 L 18.503906 0.21875 L 18.644531 0.832031 L 19.183594 1.539062 L 19.875 1.976562 L 20.472656 1.996094 L 21.015625 1.945312 L 21.789062 1.757812 L 22.308594 1.230469 L 22.546875 0.648438 L 22.875 0.109375 L 25.214844 -5.195312 L 25.542969 -5.707031 L 26.800781 -8.289062 L 27.125 -9.144531 L 27.457031 -9.6875 L 27.625 -10.210938 L 30.082031 -15.378906 L 30.296875 -16.054688 L 30.65625 -16.59375 L 31.414062 -18.460938 L 31.289062 -19.230469 L 30.671875 -19.4375 L 30.054688 -19.585938 L 28.949219 -19.613281 L 27.699219 -19.78125 L 27.035156 -19.773438 L 26.445312 -19.917969 L 25.761719 -19.660156 L 25.171875 -19.042969 L 24.964844 -18.460938 L 24.636719 -17.949219 L 22.449219 -12.570312 L 22.273438 -11.953125 L 21.753906 -10.667969 L 21.421875 -9.367188 L 21.183594 -8.789062 L 20.875 -8.847656 L 20.394531 -10.6875 L 20.292969 -11.328125 L 19.238281 -14.988281 L 19.023438 -16.207031 L 18.820312 -16.824219 L 18.550781 -18.113281 L 18.34375 -18.667969 L 18.140625 -19.253906 L 17.753906 -19.917969 L 17.125 -20.347656 L 16.433594 -20.40625 L 15.78125 -20.144531 L 15.195312 -19.5625 L 13.898438 -16.539062 L 13.332031 -15.449219 L 11.898438 -11.902344 L 11.546875 -11.457031 L 11.367188 -10.808594 L 10.796875 -9.65625 L 10.542969 -9.644531 L 10.480469 -10.410156 L 9.042969 -17.421875 L 8.835938 -17.976562 L 8.558594 -19.230469 L 8.488281 -19.867188 L 8.289062 -20.519531 L 7.765625 -21.066406 L 7.191406 -21.398438 L 4.683594 -21.640625 L 4.128906 -21.8125 L 3.554688 -21.765625 L 2.894531 -21.789062 L 2.21875 -21.65625 L 2.035156 -20.945312 L 2.121094 -20.085938 L 3.140625 -16.394531 L 3.378906 -15.839844 L 4.371094 -12.214844 L 4.5 -11.507812 L 5.183594 -9.082031 L 5.425781 -8.554688 L 7.371094 -1.21875 L 7.605469 -0.597656 Z M 7.75 -0.046875" transform="translate(159.7 326.416)"/></g></g></g><g fill="#FCBAA4"><g><g><path d="M 2.230469 -1.253906 L 2.585938 -0.660156 L 3.226562 -0.355469 L 4.246094 -0.574219 L 5.195312 -0.59375 L 9.722656 -1.203125 L 10.359375 -1.1875 L 13.5625 -1.730469 L 14.113281 -1.894531 L 15.804688 -2.605469 L 16.332031 -2.953125 L 17.464844 -4.105469 L 18.167969 -5.363281 L 18.40625 -6.027344 L 18.519531 -6.644531 L 18.699219 -7.269531 L 18.457031 -9.808594 L 17.976562 -10.894531 L 17.257812 -12.109375 L 16.796875 -12.527344 L 16.242188 -12.90625 L 15.84375 -13.585938 L 15.992188 -14.207031 L 16.4375 -15.5 L 16.675781 -16.671875 L 16.582031 -17.738281 L 16.402344 -18.699219 L 16.015625 -19.792969 L 15.714844 -20.425781 L 14.511719 -21.738281 L 13.988281 -22.121094 L 13.480469 -22.375 L 13.003906 -22.667969 L 12.433594 -22.917969 L 11.804688 -23.125 L 11.25 -23.25 L 9.996094 -23.382812 L 6.765625 -23.089844 L 6.21875 -22.894531 L 4.980469 -22.90625 L 4.429688 -22.710938 L 0.640625 -22.320312 L -0.0117188 -21.921875 L -0.246094 -21.226562 L -0.160156 -20.539062 L -0.03125 -19.984375 L 0.015625 -19.324219 L 0.117188 -18.765625 L 0.277344 -16.914062 L 0.527344 -15.609375 L 1.125 -9.621094 L 1.332031 -8.695312 L 2.09375 -1.839844 Z M 7.144531 -14.410156 L 6.445312 -14.707031 L 5.992188 -15.539062 L 5.835938 -16.601562 L 6.101562 -17.550781 L 6.648438 -18 L 9.898438 -18.167969 L 10.425781 -17.980469 L 10.738281 -17.507812 L 10.945312 -16.582031 L 10.835938 -15.648438 L 10.410156 -15.214844 L 9.542969 -14.792969 Z M 8.058594 -6.046875 L 7.46875 -6.199219 L 6.988281 -6.777344 L 6.855469 -8.664062 L 7.074219 -9.230469 L 7.554688 -9.699219 L 8.160156 -9.679688 L 8.808594 -9.820312 L 11.785156 -9.894531 L 12.339844 -9.738281 L 12.722656 -9.214844 L 13.003906 -8.453125 L 12.957031 -7.527344 L 12.667969 -7.046875 L 12.175781 -6.640625 L 10.476562 -6.277344 Z M 8.058594 -6.046875" transform="translate(195.537 328.34)"/></g></g></g><g fill="#FCBAA4"><g><g><path d="M 10.558594 -2.953125 L 14.867188 -4.265625 L 15.421875 -4.722656 L 15.570312 -5.453125 L 14.6875 -8.511719 L 14.179688 -9.019531 L 13.464844 -9.109375 L 12.789062 -8.847656 L 12.1875 -8.769531 L 10.632812 -8.355469 L 9.671875 -7.945312 L 9.046875 -7.832031 L 8.390625 -7.609375 L 7.789062 -7.53125 L 7.140625 -7.28125 L 6.417969 -7.398438 L 6.019531 -7.871094 L 5.46875 -9.777344 L 5.554688 -10.492188 L 6.003906 -10.984375 L 6.902344 -11.277344 L 7.898438 -11.464844 L 9.03125 -11.859375 L 10.28125 -12.1875 L 10.867188 -12.421875 L 11.574219 -12.59375 L 12.109375 -13.011719 L 12.144531 -13.675781 L 11.449219 -16.425781 L 10.898438 -17.1875 L 10.089844 -17.378906 L 8.304688 -16.863281 L 7.6875 -16.617188 L 6.390625 -16.339844 L 4.652344 -15.773438 L 3.9375 -15.863281 L 3.425781 -16.730469 L 3.152344 -17.667969 L 3.257812 -18.320312 L 3.855469 -18.757812 L 4.4375 -18.890625 L 4.980469 -19.179688 L 9.324219 -20.371094 L 9.890625 -20.566406 L 10.421875 -21.113281 L 10.566406 -21.746094 L 10.359375 -22.34375 L 10.214844 -22.957031 L 9.628906 -24.753906 L 9.191406 -25.25 L 8.515625 -25.316406 L 7.878906 -25.132812 L 7.300781 -25.097656 L 4.859375 -24.359375 L 4.210938 -24.105469 L 3.585938 -23.992188 L 3.082031 -23.8125 L 2.457031 -23.699219 L -0.00390625 -22.917969 L -0.636719 -22.835938 L -1.175781 -22.546875 L -1.738281 -22.449219 L -2.328125 -22.214844 L -2.941406 -22.070312 L -3.503906 -21.644531 L -3.65625 -20.914062 L -3.261719 -19.78125 L -2.992188 -18.515625 L -2.710938 -17.875 L -1.914062 -14.890625 L -1.636719 -14.28125 L -1.53125 -13.691406 L -0.84375 -11.199219 L -0.597656 -10.679688 L 0.789062 -5.769531 L 0.894531 -5.179688 L 1.160156 -4.597656 L 1.675781 -2.484375 L 1.929688 -1.835938 L 2.40625 -1.089844 L 3.429688 -0.957031 L 5.617188 -1.558594 L 6.265625 -1.8125 L 6.816406 -1.9375 L 8.03125 -2.386719 L 8.640625 -2.433594 L 9.347656 -2.605469 L 9.933594 -2.839844 Z M 10.558594 -2.953125" transform="translate(221.471 324.66)"/></g></g></g><g fill="#FCBAA4"><g><g><path d="M 1.574219 -2.183594 L 2.277344 -1.441406 L 3.28125 -1.464844 L 3.808594 -1.824219 L 4.757812 -2.175781 L 5.183594 -2.449219 L 6.035156 -2.855469 L 6.808594 -3.578125 L 6.671875 -4.523438 L 6.207031 -5.488281 L 6.019531 -6.027344 L 5.648438 -6.582031 L 4.832031 -8.429688 L 4.816406 -9.117188 L 5.207031 -9.691406 L 6.964844 -10.253906 L 7.761719 -10.042969 L 8.375 -9.636719 L 8.847656 -9.234375 L 9.855469 -8.667969 L 10.882812 -7.902344 L 11.398438 -7.628906 L 11.898438 -7.167969 L 12.445312 -6.835938 L 13.3125 -6.621094 L 14.402344 -6.828125 L 16.632812 -7.933594 L 17.199219 -8.136719 L 18.125 -8.613281 L 18.539062 -9.125 L 18.410156 -9.832031 L 17.800781 -10.308594 L 17.269531 -10.542969 L 16.78125 -10.972656 L 15.121094 -11.960938 L 14.621094 -12.347656 L 13.003906 -13.390625 L 12.460938 -13.652344 L 12.105469 -14.320312 L 12.0625 -15.070312 L 12.253906 -15.6875 L 12.488281 -16.21875 L 12.644531 -18.738281 L 12.222656 -20.5625 L 11.308594 -22.324219 L 10.953125 -22.851562 L 9.664062 -24.226562 L 9.207031 -24.597656 L 8.675781 -24.902344 L 6.242188 -25.832031 L 4.988281 -25.894531 L 3.730469 -25.75 L 1.933594 -25.34375 L 1.011719 -24.933594 L 0.214844 -24.484375 L -1.488281 -23.667969 L -2.109375 -23.507812 L -2.679688 -23.234375 L -3.121094 -22.847656 L -3.691406 -22.578125 L -4.3125 -22.417969 L -4.953125 -22.148438 L -6.558594 -21.203125 L -6.933594 -20.671875 L -6.894531 -19.714844 L -3.75 -13.222656 L -3.421875 -12.683594 L -2.960938 -11.503906 L -2.632812 -10.894531 L -2.363281 -10.324219 L -2.046875 -9.8125 L -1.84375 -9.246094 L -0.769531 -6.929688 L -0.441406 -6.390625 Z M 3.03125 -14.234375 L 2.3125 -14.277344 L 1.867188 -14.621094 L 1.050781 -16.324219 L 0.761719 -16.78125 L 0.246094 -18 L 0.246094 -18.664062 L 0.730469 -19.175781 L 1.3125 -19.421875 L 2.394531 -20.078125 L 3.273438 -20.289062 L 4.039062 -20.585938 L 4.648438 -20.703125 L 5.777344 -20.164062 L 6.167969 -19.789062 L 6.632812 -19.105469 L 6.957031 -18.210938 L 6.972656 -17.523438 L 6.867188 -16.945312 L 6.675781 -16.539062 L 6.273438 -16.070312 L 5.542969 -15.476562 L 5.019531 -15.1875 L 3.628906 -14.589844 Z M 3.03125 -14.234375" transform="translate(243.975 317.845)"/></g></g></g><g fill="#FCBAA4"><g><g><path d="M 1.160156 -2.429688 L 1.988281 -1.824219 L 2.96875 -2.023438 L 3.421875 -2.472656 L 4.292969 -2.984375 L 4.667969 -3.332031 L 5.433594 -3.882812 L 6.066406 -4.730469 L 5.761719 -5.636719 L 5.132812 -6.503906 L 4.851562 -7 L 4.390625 -7.480469 L 3.261719 -9.152344 L 3.121094 -9.828125 L 3.402344 -10.460938 L 5.03125 -11.324219 L 5.855469 -11.261719 L 6.53125 -10.972656 L 7.070312 -10.660156 L 8.15625 -10.28125 L 9.308594 -9.710938 L 9.863281 -9.53125 L 10.4375 -9.167969 L 11.03125 -8.9375 L 11.925781 -8.882812 L 12.960938 -9.277344 L 14.960938 -10.761719 L 15.480469 -11.058594 L 16.304688 -11.695312 L 16.625 -12.273438 L 16.371094 -12.945312 L 15.6875 -13.304688 L 15.121094 -13.441406 L 14.566406 -13.78125 L 12.757812 -14.457031 L 12.195312 -14.75 L 10.421875 -15.488281 L 9.835938 -15.648438 L 9.371094 -16.242188 L 9.195312 -16.972656 L 9.273438 -17.613281 L 9.410156 -18.175781 L 9.117188 -20.683594 L 8.378906 -22.40625 L 7.164062 -23.976562 L 6.71875 -24.433594 L 5.210938 -25.558594 L 4.691406 -25.84375 L 4.117188 -26.050781 L 1.554688 -26.53125 L 0.308594 -26.371094 L -0.898438 -26 L -2.597656 -25.28125 L -3.429688 -24.71875 L -4.136719 -24.132812 L -5.667969 -23.027344 L -6.253906 -22.757812 L -6.761719 -22.390625 L -7.128906 -21.929688 L -7.640625 -21.5625 L -8.226562 -21.296875 L -8.804688 -20.914062 L -10.222656 -19.699219 L -10.496094 -19.113281 L -10.285156 -18.175781 L -6.039062 -12.347656 L -5.617188 -11.871094 L -4.957031 -10.796875 L -4.527344 -10.253906 L -4.15625 -9.742188 L -3.757812 -9.292969 L -3.457031 -8.769531 L -1.988281 -6.683594 L -1.570312 -6.210938 Z M 0.453125 -14.546875 L -0.261719 -14.460938 L -0.757812 -14.71875 L -1.867188 -16.253906 L -2.230469 -16.648438 L -2.953125 -17.757812 L -3.074219 -18.410156 L -2.683594 -19.003906 L -2.15625 -19.34375 L -1.207031 -20.183594 L -0.382812 -20.546875 L 0.320312 -20.976562 L 0.894531 -21.199219 L 2.105469 -20.867188 L 2.554688 -20.570312 L 3.136719 -19.980469 L 3.613281 -19.160156 L 3.75 -18.480469 L 3.746094 -17.894531 L 3.632812 -17.464844 L 3.320312 -16.925781 L 2.707031 -16.214844 L 2.242188 -15.835938 L 0.980469 -15.003906 Z M 0.453125 -14.546875" transform="translate(268.519 305.532)"/></g></g></g><g fill="#FCBAA4"><g><g><path d="M 4.363281 -5.820312 L 5.035156 -5.519531 L 5.675781 -5.816406 L 6.140625 -6.246094 L 6.492188 -6.695312 L 7.21875 -7.347656 L 7.789062 -8.023438 L 8.273438 -8.429688 L 8.464844 -9.125 L 8.167969 -9.765625 L 5.621094 -12.386719 L 5.125 -12.78125 L 4.675781 -13.222656 L 4.335938 -13.683594 L 3.003906 -14.9375 L 2.484375 -15.710938 L 2.117188 -16.507812 L 0.199219 -23.972656 L 0.148438 -24.550781 L -0.832031 -28.324219 L -1.152344 -29.121094 L -1.738281 -29.515625 L -2.222656 -29.199219 L -3.105469 -28.339844 L -3.519531 -27.824219 L -4.027344 -27.4375 L -4.863281 -26.539062 L -5.261719 -26.175781 L -5.628906 -25.347656 L -5.640625 -24.570312 L -5.246094 -23.035156 L -4.832031 -22.105469 L -4.597656 -20.90625 L -4.34375 -20.21875 L -4.179688 -19.617188 L -3.695312 -18.398438 L -3.601562 -17.730469 L -3.839844 -17.484375 L -4.511719 -17.65625 L -5.113281 -17.757812 L -7.039062 -18.316406 L -7.664062 -18.441406 L -10.679688 -19.316406 L -11.570312 -19.261719 L -12.28125 -18.941406 L -12.71875 -18.445312 L -13.183594 -18.152344 L -14.214844 -16.914062 L -15.296875 -15.941406 L -15.507812 -15.273438 L -15.078125 -14.71875 L -14.339844 -14.441406 L -11.792969 -13.847656 L -11.238281 -13.785156 L -8.734375 -13.148438 L -7.484375 -12.984375 L -6.902344 -12.769531 L -2.460938 -11.820312 L -1.609375 -11.429688 L -0.890625 -10.949219 L 0.871094 -9.1875 L 1.363281 -8.792969 L 3.054688 -7.054688 L 3.527344 -6.679688 Z M 4.363281 -5.820312" transform="translate(290.392 289.057)"/></g></g></g></svg>