<svg xmlns="http://www.w3.org/2000/svg" xmlns:xlink="http://www.w3.org/1999/xlink" width="820.455" height="820.455" viewBox="0 0 820.455 820.455">
  <defs>
    <clipPath id="clip-path">
      <path id="Path_2" data-name="Path 2" d="M49.844,49.844H870.3V870.3H49.844Zm0,0" transform="translate(-49.844 -49.844)" fill="#fff4e6"/>
    </clipPath>
  </defs>
  <g id="donut-plain" transform="translate(-49.844 -49.844)">
    <g id="Group_12" data-name="Group 12" transform="translate(49.844 49.844)" clip-path="url(#clip-path)">
      <path id="Path_1" data-name="Path 1" d="M323.492,460.048a136.609,136.609,0,1,1,136.6,136.6A136.611,136.611,0,0,1,323.492,460.048Zm136.6-410.2c-226.608,0-410.251,183.643-410.251,410.2,0,226.608,183.643,410.251,410.251,410.251,226.561,0,410.2-183.643,410.2-410.251,0-226.561-183.643-410.2-410.2-410.2" transform="translate(-49.844 -49.844)" fill="#fff4e6"/>
    </g>
    <path id="Path_3" data-name="Path 3" d="M390.752,534.744a136.609,136.609,0,1,1,136.614-136.6A136.6,136.6,0,0,1,390.752,534.744ZM696.665,315.67c0-95.186-74.007-173.071-167.621-179.288a179.641,179.641,0,0,0-258.919-.373c-1.816-.035-3.633-.082-5.531-.082A179.84,179.84,0,0,0,103.085,394.672,179.318,179.318,0,0,0,84.852,473.7c0,99.029,80.1,179.335,179.044,179.742a179.576,179.576,0,0,0,271.96-.99c90.354-9.455,160.81-85.895,160.81-178.753a178.588,178.588,0,0,0-18.327-79.025,178.413,178.413,0,0,0,18.327-79" transform="translate(69.342 61.907)" fill="#fff4e6"/>
  </g>
</svg>
