<svg xmlns="http://www.w3.org/2000/svg" width="375" viewBox="0 0 375 375" height="375" version="1.0"><defs><clipPath id="a"><path d="M 71.351562 58.261719 L 303.851562 58.261719 L 303.851562 290.761719 L 71.351562 290.761719 Z M 71.351562 58.261719"/></clipPath></defs><g clip-path="url(#a)"><path fill="#FFE993" d="M 148.898438 174.503906 C 148.898438 153.121094 166.230469 135.789062 187.609375 135.789062 C 208.992188 135.789062 226.324219 153.121094 226.324219 174.503906 C 226.324219 195.882812 208.992188 213.214844 187.609375 213.214844 C 166.230469 213.214844 148.898438 195.882812 148.898438 174.503906 Z M 187.609375 58.261719 C 123.394531 58.261719 71.351562 110.300781 71.351562 174.503906 C 71.351562 238.71875 123.394531 290.761719 187.609375 290.761719 C 251.8125 290.761719 303.851562 238.71875 303.851562 174.503906 C 303.851562 110.300781 251.8125 58.261719 187.609375 58.261719"/></g><path fill="#FFE993" d="M 187.609375 213.214844 C 166.230469 213.214844 148.898438 195.882812 148.898438 174.503906 C 148.898438 153.121094 166.230469 135.789062 187.609375 135.789062 C 208.992188 135.789062 226.324219 153.121094 226.324219 174.503906 C 226.324219 195.882812 208.992188 213.214844 187.609375 213.214844 Z M 274.296875 151.132812 C 274.296875 124.160156 253.328125 102.089844 226.800781 100.324219 C 217.511719 90.675781 204.503906 84.660156 190.0625 84.660156 C 175.675781 84.660156 162.695312 90.636719 153.425781 100.21875 C 152.910156 100.210938 152.394531 100.195312 151.859375 100.195312 C 123.734375 100.195312 100.921875 122.992188 100.921875 151.132812 C 100.921875 159.167969 102.785156 166.769531 106.089844 173.519531 C 102.785156 180.277344 100.921875 187.875 100.921875 195.914062 C 100.921875 223.976562 123.621094 246.734375 151.660156 246.847656 C 161 257.574219 174.738281 264.363281 190.0625 264.363281 C 205.539062 264.363281 219.382812 257.453125 228.730469 246.570312 C 254.332031 243.890625 274.296875 222.230469 274.296875 195.914062 C 274.296875 187.875 272.429688 180.277344 269.105469 173.519531 C 272.429688 166.769531 274.296875 159.167969 274.296875 151.132812"/><g fill="#FFE993"><g><g><path d="M 2.644531 -0.171875 L 2.546875 0.671875 L 2.988281 1.183594 L 3.546875 1.476562 L 4.8125 1.875 L 5.933594 2.386719 L 7.066406 2.769531 L 7.589844 3.078125 L 8.257812 3.277344 L 14.042969 5.605469 L 14.714844 5.535156 L 15.398438 4.753906 L 16.308594 2.371094 L 16.394531 1.390625 L 16.007812 0.828125 L 15.367188 0.644531 L 14.765625 0.539062 L 14.183594 0.207031 L 12.972656 -0.238281 L 12.433594 -0.589844 L 11.871094 -0.710938 L 10.753906 -1.222656 L 10.117188 -1.40625 L 9.625 -1.875 L 9.621094 -2.550781 L 13.589844 -12.464844 L 13.808594 -13.191406 L 14.332031 -14.339844 L 14.910156 -16.042969 L 15.160156 -16.589844 L 15.121094 -17.347656 L 14.675781 -17.933594 L 13.535156 -18.386719 L 12.902344 -18.5 L 11.777344 -19.082031 L 11.183594 -19.214844 L 10.476562 -19.226562 L 9.957031 -18.6875 L 8.332031 -14.585938 L 8.050781 -14.054688 L 7.878906 -13.445312 L 7.359375 -12.398438 L 7.132812 -11.742188 L 6.972656 -11.160156 Z M 2.644531 -0.171875" transform="translate(122.915 314.525)"/></g></g></g><g fill="#FFE993"><g><g><path d="M 10.652344 2.589844 L 15.054688 3.554688 L 15.761719 3.425781 L 16.25 2.863281 L 16.972656 -0.234375 L 16.78125 -0.929688 L 16.199219 -1.355469 L 15.480469 -1.457031 L 14.917969 -1.6875 L 13.363281 -2.082031 L 12.320312 -2.195312 L 11.722656 -2.402344 L 11.039062 -2.527344 L 10.480469 -2.757812 L 9.789062 -2.855469 L 9.21875 -3.3125 L 9.101562 -3.921875 L 9.554688 -5.851562 L 9.980469 -6.433594 L 10.609375 -6.640625 L 11.539062 -6.457031 L 12.5 -6.132812 L 13.679688 -5.921875 L 14.929688 -5.597656 L 15.558594 -5.515625 L 16.253906 -5.320312 L 16.925781 -5.421875 L 17.285156 -5.984375 L 18.023438 -8.726562 L 17.914062 -9.65625 L 17.304688 -10.21875 L 15.492188 -10.640625 L 14.835938 -10.730469 L 13.570312 -11.125 L 11.777344 -11.480469 L 11.195312 -11.90625 L 11.171875 -12.914062 L 11.394531 -13.867188 L 11.808594 -14.382812 L 12.539062 -14.472656 L 13.117188 -14.304688 L 13.726562 -14.289062 L 18.097656 -13.203125 L 18.6875 -13.097656 L 19.417969 -13.316406 L 19.855469 -13.796875 L 19.96875 -14.417969 L 20.140625 -15.023438 L 20.511719 -16.878906 L 20.371094 -17.523438 L 19.816406 -17.914062 L 19.171875 -18.0625 L 18.648438 -18.316406 L 16.15625 -18.867188 L 15.464844 -18.960938 L 14.867188 -19.167969 L 14.339844 -19.257812 L 13.738281 -19.464844 L 11.210938 -19.992188 L 10.617188 -20.226562 L 10.007812 -20.238281 L 9.46875 -20.429688 L 8.839844 -20.511719 L 8.234375 -20.6875 L 7.535156 -20.59375 L 7.046875 -20.027344 L 6.835938 -18.847656 L 6.449219 -17.609375 L 6.382812 -16.914062 L 5.617188 -13.921875 L 5.558594 -13.257812 L 5.363281 -12.6875 L 4.742188 -10.179688 L 4.707031 -9.605469 L 3.511719 -4.644531 L 3.316406 -4.078125 L 3.265625 -3.441406 L 2.675781 -1.347656 L 2.582031 -0.65625 L 2.632812 0.226562 L 3.457031 0.839844 L 5.660156 1.386719 L 6.347656 1.484375 L 6.894531 1.644531 L 8.171875 1.847656 L 8.726562 2.105469 L 9.425781 2.300781 L 10.054688 2.382812 Z M 10.652344 2.589844" transform="translate(143.69 322.396)"/></g></g></g><g fill="#FFE993"><g><g><path d="M 3.265625 0.253906 L 3.902344 0.191406 L 5.125 0.3125 L 5.820312 0.253906 L 6.824219 0.367188 L 7.726562 0.03125 L 8.128906 -0.515625 L 8.199219 -3.824219 L 8.339844 -4.796875 L 8.339844 -5.457031 L 8.460938 -6.585938 L 8.429688 -7.28125 L 8.492188 -8.507812 L 8.789062 -8.777344 L 9.097656 -8.636719 L 9.578125 -8.203125 L 9.933594 -7.714844 L 11.160156 -6.359375 L 11.542969 -5.835938 L 12.355469 -4.976562 L 12.992188 -4.472656 L 13.683594 -4.40625 L 14.335938 -4.847656 L 14.796875 -5.300781 L 15.195312 -5.660156 L 16.125 -6.652344 L 16.582031 -6.945312 L 17.9375 -8.203125 L 18.355469 -8.375 L 18.582031 -7.890625 L 18.4375 -6.160156 L 18.46875 -4.898438 L 18.34375 -3.675781 L 18.351562 -2.507812 L 18.261719 -1.945312 L 18.253906 -0.527344 L 18.230469 -0.0546875 L 18.449219 0.683594 L 19.097656 0.902344 L 22.898438 1.214844 L 23.578125 0.902344 L 24 0.0078125 L 23.984375 -1.632812 L 24.078125 -2.257812 L 24.476562 -11.699219 L 24.574219 -12.390625 L 24.695312 -15.507812 L 24.757812 -16.101562 L 24.761719 -17.457031 L 24.816406 -17.992188 L 24.851562 -19.28125 L 24.941406 -19.878906 L 24.597656 -20.558594 L 23.953125 -20.933594 L 23.027344 -20.695312 L 22.347656 -20.320312 L 20.957031 -19 L 20.523438 -18.515625 L 20.128906 -18.191406 L 19.660156 -17.644531 L 16.753906 -14.949219 L 16.316406 -14.433594 L 14.304688 -12.578125 L 13.71875 -12.226562 L 13.070312 -12.511719 L 12.71875 -13.066406 L 12.300781 -13.527344 L 11.769531 -14.277344 L 11.109375 -14.941406 L 8.398438 -18.257812 L 7.976562 -18.65625 L 7.207031 -19.671875 L 6.726562 -20.140625 L 5.949219 -21.027344 L 5.253906 -21.597656 L 4.382812 -21.894531 L 3.675781 -21.613281 L 3.296875 -20.96875 L 3.296875 -19.046875 L 3.144531 -17.824219 L 3.179688 -17.253906 L 2.902344 -12.222656 L 2.933594 -11.589844 L 2.683594 -8.414062 L 2.714844 -7.816406 L 2.34375 -0.863281 L 2.660156 -0.183594 Z M 3.265625 0.253906" transform="translate(166.8 327.661)"/></g></g></g><g fill="#FFE993"><g><g><path d="M 12.539062 -1.570312 L 15.265625 -2.289062 L 16.386719 -2.851562 L 18.960938 -4.535156 L 20.808594 -6.964844 L 21.121094 -7.585938 L 21.996094 -9.925781 L 22.121094 -10.550781 L 22.117188 -11.1875 L 22.222656 -11.714844 L 22.238281 -12.421875 L 22.050781 -14.625 L 21.554688 -16.746094 L 21.121094 -17.855469 L 20.769531 -18.472656 L 20.5 -19.160156 L 19.777344 -20.101562 L 19.472656 -20.625 L 18.984375 -21.089844 L 18.550781 -21.40625 L 18.058594 -21.902344 L 16.527344 -22.902344 L 14.785156 -23.644531 L 10.507812 -24.277344 L 9.039062 -24.074219 L 6.882812 -23.605469 L 6.277344 -23.382812 L 5.6875 -23.097656 L 5.164062 -22.761719 L 4.03125 -22.261719 L 2.601562 -21.015625 L 2.226562 -20.574219 L 1.339844 -19.730469 L 0.648438 -18.664062 L -0.164062 -16.941406 L -0.359375 -16.367188 L -0.679688 -14.5625 L -0.71875 -13.1875 L -0.269531 -9.558594 L 0.382812 -7.652344 L 1.015625 -6.667969 L 1.308594 -6.042969 L 1.707031 -5.53125 L 3.484375 -3.773438 L 4.488281 -3.070312 L 4.96875 -2.667969 L 7.261719 -1.882812 L 7.890625 -1.726562 L 10.660156 -1.371094 Z M 10.800781 -6.910156 L 10.144531 -7.027344 L 9.574219 -7.003906 L 8.429688 -7.394531 L 7.332031 -8.082031 L 6.949219 -8.46875 L 6.476562 -8.839844 L 5.609375 -10.488281 L 5.207031 -12.019531 L 5.089844 -12.957031 L 5.125 -14.144531 L 5.226562 -14.734375 L 5.527344 -15.226562 L 5.726562 -15.800781 L 6.050781 -16.363281 L 6.453125 -16.839844 L 7.257812 -17.605469 L 7.773438 -17.976562 L 8.402344 -18.234375 L 9.8125 -18.585938 L 11.320312 -18.726562 L 13.082031 -18.273438 L 14.160156 -17.710938 L 15.042969 -16.765625 L 15.382812 -16.246094 L 15.667969 -15.652344 L 15.972656 -15.128906 L 16.308594 -13.808594 L 16.371094 -12.226562 L 16.292969 -10.90625 L 16.023438 -10.382812 L 15.816406 -9.871094 L 15.53125 -9.253906 L 14.6875 -8.355469 L 14.167969 -8.015625 L 13.710938 -7.65625 L 13.164062 -7.507812 L 12.597656 -7.257812 Z M 10.800781 -6.910156" transform="translate(199.022 328.574)"/></g></g></g><g fill="#FFE993"><g><g><path d="M 17.246094 -6.945312 L 18.21875 -6.769531 L 19.078125 -6.984375 L 19.652344 -7.433594 L 19.730469 -8.132812 L 15.800781 -18.9375 L 15.527344 -19.410156 L 14.445312 -22.332031 L 14.273438 -23.074219 L 12.664062 -27.148438 L 12.152344 -27.632812 L 11.441406 -27.738281 L 7.789062 -26.355469 L 7.347656 -25.820312 L 7.25 -25.082031 L 7.449219 -24.449219 L 7.714844 -24.007812 L 8.085938 -22.734375 L 8.382812 -22.109375 L 10.28125 -16.796875 L 10.289062 -16.230469 L 9.769531 -16.273438 L 6.894531 -17.59375 L 5.828125 -17.9375 L -2.167969 -21.667969 L -2.742188 -21.855469 L -3.550781 -21.960938 L -4.515625 -21.839844 L -5.085938 -21.292969 L -5.140625 -20.632812 L -1.832031 -11.679688 L -1.675781 -11.167969 L -1.171875 -9.976562 L -1.074219 -9.441406 L 0.777344 -4.621094 L 0.925781 -4.035156 L 1.902344 -1.578125 L 2.375 -1.113281 L 3.074219 -1.136719 L 4.304688 -1.523438 L 4.933594 -1.824219 L 6.121094 -2.160156 L 6.730469 -2.421875 L 7.210938 -2.933594 L 7.167969 -3.960938 L 4.433594 -11.445312 L 4.273438 -12.058594 L 4.296875 -12.636719 L 4.734375 -12.632812 L 5.304688 -12.269531 L 8.144531 -11.039062 L 8.691406 -10.734375 L 9.316406 -10.597656 L 15.578125 -7.738281 L 16.660156 -7.167969 Z M 17.246094 -6.945312" transform="translate(229.593 323.077)"/></g></g></g></svg>