<svg xmlns="http://www.w3.org/2000/svg" width="375" viewBox="0 0 375 375" height="375" version="1.0"><defs><clipPath id="a"><path d="M 71.351562 58.261719 L 303.851562 58.261719 L 303.851562 290.761719 L 71.351562 290.761719 Z M 71.351562 58.261719"/></clipPath></defs><g clip-path="url(#a)"><path fill="#516AA2" d="M 148.898438 174.503906 C 148.898438 153.121094 166.230469 135.789062 187.609375 135.789062 C 208.992188 135.789062 226.324219 153.121094 226.324219 174.503906 C 226.324219 195.882812 208.992188 213.214844 187.609375 213.214844 C 166.230469 213.214844 148.898438 195.882812 148.898438 174.503906 Z M 187.609375 58.261719 C 123.394531 58.261719 71.351562 110.300781 71.351562 174.503906 C 71.351562 238.71875 123.394531 290.761719 187.609375 290.761719 C 251.8125 290.761719 303.851562 238.71875 303.851562 174.503906 C 303.851562 110.300781 251.8125 58.261719 187.609375 58.261719"/></g><path fill="#516AA2" d="M 187.609375 213.214844 C 166.230469 213.214844 148.898438 195.882812 148.898438 174.503906 C 148.898438 153.121094 166.230469 135.789062 187.609375 135.789062 C 208.992188 135.789062 226.324219 153.121094 226.324219 174.503906 C 226.324219 195.882812 208.992188 213.214844 187.609375 213.214844 Z M 274.296875 151.132812 C 274.296875 124.160156 253.328125 102.089844 226.800781 100.324219 C 217.511719 90.675781 204.503906 84.660156 190.0625 84.660156 C 175.675781 84.660156 162.695312 90.636719 153.425781 100.21875 C 152.910156 100.210938 152.394531 100.195312 151.859375 100.195312 C 123.734375 100.195312 100.921875 122.992188 100.921875 151.132812 C 100.921875 159.167969 102.785156 166.769531 106.089844 173.519531 C 102.785156 180.277344 100.921875 187.875 100.921875 195.914062 C 100.921875 223.976562 123.621094 246.734375 151.660156 246.847656 C 161 257.574219 174.738281 264.363281 190.0625 264.363281 C 205.539062 264.363281 219.382812 257.453125 228.730469 246.570312 C 254.332031 243.890625 274.296875 222.230469 274.296875 195.914062 C 274.296875 187.875 272.429688 180.277344 269.105469 173.519531 C 272.429688 166.769531 274.296875 159.167969 274.296875 151.132812"/><g fill="#516AA2"><g><g><path d="M 2.464844 0.675781 L 2.304688 1.347656 L 2.542969 2.015625 L 3.421875 2.578125 L 4.113281 3.230469 L 7.757812 5.980469 L 8.199219 6.441406 L 10.859375 8.304688 L 11.367188 8.578125 L 13.066406 9.261719 L 13.691406 9.386719 L 15.304688 9.359375 L 16.691406 8.960938 L 17.324219 8.65625 L 17.839844 8.300781 L 18.40625 7.980469 L 20.019531 6.003906 L 20.441406 4.894531 L 20.785156 3.527344 L 20.75 2.902344 L 20.625 2.246094 L 20.820312 1.480469 L 21.359375 1.140625 L 22.585938 0.539062 L 23.578125 -0.125 L 24.261719 -0.953125 L 24.808594 -1.761719 L 25.304688 -2.8125 L 25.539062 -3.472656 L 25.605469 -5.253906 L 25.5 -5.890625 L 25.320312 -6.429688 L 25.183594 -6.972656 L 24.953125 -7.550781 L 24.65625 -8.140625 L 24.347656 -8.617188 L 23.550781 -9.597656 L 21.046875 -11.660156 L 20.519531 -11.90625 L 19.648438 -12.785156 L 19.121094 -13.03125 L 16.148438 -15.417969 L 15.40625 -15.59375 L 14.753906 -15.265625 L 14.328125 -14.71875 L 14.03125 -14.230469 L 13.601562 -13.726562 L 13.277344 -13.261719 L 12.089844 -11.832031 L 11.351562 -10.726562 L 7.566406 -6.050781 L 7.0625 -5.246094 L 2.78125 0.164062 Z M 15.214844 -5.222656 L 14.921875 -5.925781 L 15.191406 -6.835938 L 15.820312 -7.699219 L 16.679688 -8.191406 L 17.382812 -8.121094 L 19.8125 -5.957031 L 20.054688 -5.449219 L 19.945312 -4.898438 L 19.441406 -4.09375 L 18.707031 -3.507812 L 18.101562 -3.496094 L 17.1875 -3.808594 Z M 9.984375 1.367188 L 9.671875 0.84375 L 9.734375 0.0976562 L 10.964844 -1.339844 L 11.519531 -1.589844 L 12.191406 -1.585938 L 12.609375 -1.144531 L 13.167969 -0.785156 L 15.335938 1.253906 L 15.621094 1.753906 L 15.523438 2.394531 L 15.191406 3.132812 L 14.507812 3.757812 L 13.960938 3.894531 L 13.328125 3.839844 L 11.859375 2.902344 Z M 9.984375 1.367188" transform="translate(85.492 290.148)"/></g></g></g><g fill="#516AA2"><g><g><path d="M 2.644531 0.160156 L 2.441406 0.980469 L 2.816406 1.546875 L 3.339844 1.90625 L 4.542969 2.457031 L 5.589844 3.105469 L 6.667969 3.625 L 7.148438 3.996094 L 7.785156 4.277344 L 13.238281 7.304688 L 13.914062 7.316406 L 14.6875 6.628906 L 15.886719 4.375 L 16.09375 3.410156 L 15.78125 2.808594 L 15.167969 2.542969 L 14.585938 2.367188 L 14.050781 1.964844 L 12.902344 1.371094 L 12.410156 0.957031 L 11.867188 0.769531 L 10.824219 0.121094 L 10.210938 -0.140625 L 9.78125 -0.667969 L 9.863281 -1.339844 L 15.03125 -10.683594 L 15.339844 -11.378906 L 16 -12.453125 L 16.78125 -14.070312 L 17.097656 -14.582031 L 17.15625 -15.339844 L 16.785156 -15.972656 L 15.710938 -16.566406 L 15.097656 -16.757812 L 14.050781 -17.476562 L 13.480469 -17.679688 L 12.78125 -17.777344 L 12.199219 -17.308594 L 10.078125 -13.441406 L 9.734375 -12.945312 L 9.484375 -12.363281 L 8.839844 -11.386719 L 8.535156 -10.765625 L 8.300781 -10.210938 Z M 2.644531 0.160156" transform="translate(106.5 305.72)"/></g></g></g><g fill="#516AA2"><g><g><path d="M 10.074219 4.011719 L 10.996094 4.238281 L 11.550781 4.46875 L 14.074219 4.699219 L 15.34375 4.511719 L 16.554688 4.207031 L 17.683594 3.671875 L 18.734375 2.875 L 19.125 2.34375 L 19.597656 1.945312 L 20.308594 0.792969 L 20.964844 -0.578125 L 23.808594 -8.59375 L 23.949219 -9.175781 L 24.242188 -9.808594 L 24.351562 -10.304688 L 25.226562 -12.769531 L 25.527344 -13.332031 L 25.363281 -14.089844 L 24.78125 -14.53125 L 22.890625 -15.136719 L 21.675781 -15.667969 L 20.949219 -15.59375 L 20.390625 -15.054688 L 16.292969 -3.339844 L 15.433594 -1.574219 L 15.097656 -1.191406 L 14.558594 -0.710938 L 13.929688 -0.535156 L 12.753906 -0.519531 L 10.972656 -1.152344 L 10.34375 -1.542969 L 9.941406 -2.019531 L 9.59375 -2.542969 L 9.40625 -3.144531 L 9.429688 -3.773438 L 9.863281 -5.554688 L 13.34375 -15.082031 L 13.445312 -15.550781 L 13.839844 -16.476562 L 14.085938 -17.359375 L 13.964844 -18.140625 L 13.433594 -18.628906 L 12.871094 -18.828125 L 12.246094 -18.949219 L 11.011719 -19.523438 L 10.355469 -19.65625 L 9.648438 -19.636719 L 9.0625 -19.210938 L 8.910156 -18.597656 L 8.65625 -17.882812 L 8.429688 -17.429688 L 7.042969 -13.242188 L 6.742188 -12.679688 L 6.601562 -12.097656 L 4.816406 -7.347656 L 4.152344 -4.910156 L 4.015625 -3.589844 L 4.132812 -2.410156 L 4.433594 -1.097656 L 4.644531 -0.558594 L 4.953125 -0.0117188 L 5.679688 0.949219 L 6.179688 1.425781 L 6.53125 1.851562 L 7.476562 2.757812 L 8.550781 3.40625 L 9.144531 3.617188 Z M 10.074219 4.011719" transform="translate(126.22 316.274)"/></g></g></g><g fill="#516AA2"><g><g><path d="M 10.773438 2.015625 L 15.222656 2.746094 L 15.921875 2.582031 L 16.378906 1.992188 L 16.9375 -1.140625 L 16.707031 -1.820312 L 16.105469 -2.214844 L 15.382812 -2.28125 L 14.808594 -2.480469 L 13.234375 -2.792969 L 12.1875 -2.851562 L 11.578125 -3.023438 L 10.890625 -3.113281 L 10.316406 -3.3125 L 9.625 -3.371094 L 9.027344 -3.796875 L 8.878906 -4.398438 L 9.226562 -6.355469 L 9.625 -6.957031 L 10.242188 -7.195312 L 11.179688 -7.0625 L 12.152344 -6.792969 L 13.34375 -6.644531 L 14.609375 -6.386719 L 15.242188 -6.335938 L 15.949219 -6.179688 L 16.613281 -6.316406 L 16.941406 -6.898438 L 17.53125 -9.671875 L 17.375 -10.597656 L 16.734375 -11.125 L 14.90625 -11.453125 L 14.242188 -11.507812 L 12.957031 -11.832031 L 11.148438 -12.089844 L 10.546875 -12.484375 L 10.46875 -13.492188 L 10.640625 -14.453125 L 11.023438 -14.992188 L 11.75 -15.117188 L 12.335938 -14.984375 L 12.945312 -15.003906 L 17.371094 -14.148438 L 17.964844 -14.074219 L 18.679688 -14.332031 L 19.089844 -14.835938 L 19.171875 -15.460938 L 19.3125 -16.074219 L 19.582031 -17.945312 L 19.40625 -18.585938 L 18.832031 -18.945312 L 18.179688 -19.058594 L 17.644531 -19.285156 L 15.128906 -19.699219 L 14.433594 -19.761719 L 13.824219 -19.933594 L 13.292969 -19.996094 L 12.683594 -20.167969 L 10.128906 -20.558594 L 9.527344 -20.761719 L 8.914062 -20.746094 L 8.367188 -20.90625 L 7.734375 -20.953125 L 7.121094 -21.097656 L 6.425781 -20.964844 L 5.96875 -20.375 L 5.820312 -19.183594 L 5.5 -17.929688 L 5.472656 -17.230469 L 4.867188 -14.203125 L 4.84375 -13.535156 L 4.679688 -12.957031 L 4.195312 -10.417969 L 4.1875 -9.84375 L 3.261719 -4.824219 L 3.09375 -4.246094 L 3.074219 -3.609375 L 2.601562 -1.488281 L 2.542969 -0.792969 L 2.640625 0.0859375 L 3.5 0.65625 L 5.726562 1.085938 L 6.417969 1.144531 L 6.972656 1.273438 L 8.261719 1.410156 L 8.828125 1.636719 L 9.535156 1.796875 L 10.167969 1.84375 Z M 10.773438 2.015625" transform="translate(152.021 324.798)"/></g></g></g><g fill="#516AA2"><g><g><path d="M 2.375 -0.941406 L 2.652344 -0.308594 L 3.242188 0.078125 L 4.285156 0 L 5.226562 0.109375 L 9.796875 0.113281 L 10.425781 0.21875 L 13.671875 0.109375 L 14.238281 0.0234375 L 16.011719 -0.453125 L 16.582031 -0.730469 L 17.855469 -1.71875 L 18.722656 -2.871094 L 19.050781 -3.496094 L 19.246094 -4.089844 L 19.507812 -4.6875 L 19.609375 -7.234375 L 19.28125 -8.375 L 18.730469 -9.675781 L 18.328125 -10.152344 L 17.832031 -10.601562 L 17.527344 -11.332031 L 17.757812 -11.925781 L 18.375 -13.144531 L 18.769531 -14.273438 L 18.816406 -15.34375 L 18.769531 -16.320312 L 18.53125 -17.460938 L 18.324219 -18.125 L 17.304688 -19.589844 L 16.839844 -20.035156 L 16.371094 -20.359375 L 15.933594 -20.710938 L 15.40625 -21.035156 L 14.808594 -21.328125 L 14.277344 -21.523438 L 13.054688 -21.824219 L 9.8125 -21.96875 L 9.242188 -21.851562 L 8.015625 -22.027344 L 7.449219 -21.910156 L 3.636719 -22.03125 L 2.941406 -21.726562 L 2.613281 -21.066406 L 2.605469 -20.375 L 2.660156 -19.808594 L 2.617188 -19.148438 L 2.640625 -18.578125 L 2.550781 -16.722656 L 2.625 -15.398438 L 2.410156 -9.382812 L 2.488281 -8.4375 L 2.324219 -1.539062 Z M 9.019531 -13.316406 L 8.363281 -13.703125 L 8.03125 -14.59375 L 8.015625 -15.664062 L 8.40625 -16.570312 L 9.011719 -16.941406 L 12.253906 -16.671875 L 12.753906 -16.410156 L 12.996094 -15.902344 L 13.078125 -14.957031 L 12.84375 -14.046875 L 12.363281 -13.675781 L 11.445312 -13.375 Z M 8.800781 -4.910156 L 8.234375 -5.136719 L 7.835938 -5.773438 L 7.957031 -7.664062 L 8.25 -8.195312 L 8.792969 -8.59375 L 9.390625 -8.492188 L 10.050781 -8.542969 L 13.007812 -8.21875 L 13.539062 -7.988281 L 13.847656 -7.417969 L 14.023438 -6.625 L 13.851562 -5.714844 L 13.5 -5.28125 L 12.957031 -4.941406 L 11.222656 -4.808594 Z M 8.800781 -4.910156" transform="translate(175.18 328.596)"/></g></g></g><g fill="#516AA2"><g><g><path d="M 10.859375 -1.507812 L 15.304688 -2.226562 L 15.917969 -2.605469 L 16.164062 -3.308594 L 15.699219 -6.457031 L 15.265625 -7.03125 L 14.570312 -7.214844 L 13.863281 -7.046875 L 13.257812 -7.050781 L 11.660156 -6.847656 L 10.652344 -6.570312 L 10.019531 -6.542969 L 9.339844 -6.410156 L 8.734375 -6.414062 L 8.054688 -6.25 L 7.355469 -6.46875 L 7.023438 -6.992188 L 6.734375 -8.953125 L 6.917969 -9.648438 L 7.429688 -10.074219 L 8.359375 -10.246094 L 9.371094 -10.296875 L 10.542969 -10.535156 L 11.828125 -10.691406 L 12.441406 -10.847656 L 13.164062 -10.921875 L 13.75 -11.261719 L 13.875 -11.917969 L 13.554688 -14.738281 L 13.113281 -15.5625 L 12.335938 -15.863281 L 10.5 -15.589844 L 9.855469 -15.433594 L 8.53125 -15.332031 L 6.734375 -15.003906 L 6.035156 -15.1875 L 5.644531 -16.117188 L 5.503906 -17.082031 L 5.695312 -17.714844 L 6.34375 -18.066406 L 6.941406 -18.125 L 7.515625 -18.335938 L 11.980469 -18.929688 L 12.566406 -19.050781 L 13.167969 -19.519531 L 13.394531 -20.125 L 13.273438 -20.746094 L 13.210938 -21.375 L 12.875 -23.234375 L 12.503906 -23.785156 L 11.84375 -23.941406 L 11.191406 -23.84375 L 10.613281 -23.886719 L 8.09375 -23.484375 L 7.414062 -23.320312 L 6.785156 -23.289062 L 6.257812 -23.179688 L 5.625 -23.152344 L 3.078125 -22.710938 L 2.441406 -22.714844 L 1.867188 -22.5 L 1.300781 -22.480469 L 0.683594 -22.328125 L 0.0585938 -22.265625 L -0.5625 -21.917969 L -0.808594 -21.214844 L -0.570312 -20.039062 L -0.476562 -18.75 L -0.28125 -18.078125 L 0.109375 -15.011719 L 0.296875 -14.371094 L 0.324219 -13.769531 L 0.667969 -11.210938 L 0.847656 -10.664062 L 1.558594 -5.613281 L 1.585938 -5.011719 L 1.769531 -4.402344 L 1.996094 -2.238281 L 2.15625 -1.558594 L 2.53125 -0.753906 L 3.527344 -0.488281 L 5.773438 -0.789062 L 6.449219 -0.953125 L 7.015625 -1.003906 L 8.28125 -1.285156 L 8.890625 -1.25 L 9.613281 -1.324219 L 10.226562 -1.476562 Z M 10.859375 -1.507812" transform="translate(201.374 328.44)"/></g></g></g><g fill="#516AA2"><g><g><path d="M 1.851562 -1.953125 L 2.453125 -1.121094 L 3.445312 -1.011719 L 4.015625 -1.292969 L 5.007812 -1.515625 L 5.464844 -1.730469 L 6.367188 -2.019531 L 7.226562 -2.628906 L 7.21875 -3.582031 L 6.890625 -4.601562 L 6.777344 -5.164062 L 6.484375 -5.761719 L 5.925781 -7.699219 L 6 -8.386719 L 6.464844 -8.902344 L 8.28125 -9.222656 L 9.042969 -8.90625 L 9.597656 -8.421875 L 10.011719 -7.960938 L 10.929688 -7.261719 L 11.847656 -6.367188 L 12.324219 -6.023438 L 12.757812 -5.5 L 13.25 -5.097656 L 14.082031 -4.769531 L 15.191406 -4.828125 L 17.546875 -5.621094 L 18.136719 -5.746094 L 19.117188 -6.09375 L 19.601562 -6.546875 L 19.566406 -7.265625 L 19.023438 -7.820312 L 18.53125 -8.125 L 18.105469 -8.617188 L 16.59375 -9.816406 L 16.152344 -10.269531 L 14.6875 -11.519531 L 14.183594 -11.851562 L 13.921875 -12.5625 L 13.980469 -13.308594 L 14.253906 -13.894531 L 14.558594 -14.390625 L 15.050781 -16.863281 L 14.878906 -18.730469 L 14.210938 -20.597656 L 13.929688 -21.167969 L 12.839844 -22.703125 L 12.433594 -23.136719 L 11.949219 -23.511719 L 9.660156 -24.757812 L 8.429688 -24.988281 L 7.164062 -25.011719 L 5.328125 -24.851562 L 4.359375 -24.570312 L 3.507812 -24.230469 L 1.710938 -23.652344 L 1.070312 -23.578125 L 0.472656 -23.386719 L -0.0195312 -23.0625 L -0.617188 -22.867188 L -1.257812 -22.792969 L -1.925781 -22.613281 L -3.648438 -21.890625 L -4.089844 -21.417969 L -4.179688 -20.464844 L -1.9375 -13.605469 L -1.683594 -13.027344 L -1.386719 -11.796875 L -1.144531 -11.148438 L -0.949219 -10.550781 L -0.707031 -10 L -0.582031 -9.410156 L 0.167969 -6.972656 L 0.421875 -6.390625 Z M 4.917969 -13.699219 L 4.210938 -13.835938 L 3.816406 -14.238281 L 3.238281 -16.035156 L 3.015625 -16.527344 L 2.667969 -17.804688 L 2.753906 -18.460938 L 3.308594 -18.902344 L 3.914062 -19.066406 L 5.078125 -19.574219 L 5.972656 -19.664062 L 6.773438 -19.855469 L 7.390625 -19.890625 L 8.441406 -19.203125 L 8.773438 -18.78125 L 9.144531 -18.039062 L 9.34375 -17.109375 L 9.269531 -16.425781 L 9.085938 -15.867188 L 8.839844 -15.492188 L 8.378906 -15.078125 L 7.578125 -14.589844 L 7.015625 -14.375 L 5.558594 -13.96875 Z M 4.917969 -13.699219" transform="translate(224.59 324.716)"/></g></g></g><g fill="#516AA2"><g><g><path d="M 1.476562 -2.25 L 2.214844 -1.539062 L 3.210938 -1.609375 L 3.722656 -1.988281 L 4.65625 -2.378906 L 5.074219 -2.671875 L 5.90625 -3.117188 L 6.648438 -3.871094 L 6.46875 -4.808594 L 5.960938 -5.753906 L 5.75 -6.285156 L 5.355469 -6.824219 L 4.460938 -8.628906 L 4.417969 -9.320312 L 4.78125 -9.90625 L 6.511719 -10.546875 L 7.320312 -10.371094 L 7.949219 -9.992188 L 8.4375 -9.609375 L 9.46875 -9.089844 L 10.527344 -8.371094 L 11.058594 -8.117188 L 11.578125 -7.679688 L 12.132812 -7.371094 L 13.011719 -7.195312 L 14.089844 -7.449219 L 16.269531 -8.648438 L 16.828125 -8.875 L 17.730469 -9.394531 L 18.125 -9.925781 L 17.964844 -10.625 L 17.335938 -11.074219 L 16.792969 -11.285156 L 16.289062 -11.695312 L 14.585938 -12.605469 L 14.070312 -12.972656 L 12.410156 -13.945312 L 11.855469 -14.183594 L 11.46875 -14.835938 L 11.394531 -15.578125 L 11.558594 -16.203125 L 11.773438 -16.746094 L 11.816406 -19.269531 L 11.316406 -21.074219 L 10.328125 -22.792969 L 9.949219 -23.304688 L 8.601562 -24.621094 L 8.128906 -24.976562 L 7.585938 -25.257812 L 5.109375 -26.078125 L 3.855469 -26.089844 L 2.605469 -25.886719 L 0.832031 -25.402344 L -0.0742188 -24.957031 L -0.851562 -24.46875 L -2.515625 -23.578125 L -3.132812 -23.394531 L -3.6875 -23.097656 L -4.113281 -22.691406 L -4.667969 -22.394531 L -5.285156 -22.210938 L -5.910156 -21.910156 L -7.476562 -20.898438 L -7.828125 -20.351562 L -7.746094 -19.394531 L -4.320312 -13.046875 L -3.96875 -12.519531 L -3.460938 -11.363281 L -3.105469 -10.769531 L -2.808594 -10.210938 L -2.472656 -9.714844 L -2.246094 -9.15625 L -1.070312 -6.890625 L -0.71875 -6.363281 Z M 2.40625 -14.355469 L 1.6875 -14.363281 L 1.230469 -14.6875 L 0.339844 -16.355469 L 0.03125 -16.796875 L -0.535156 -17.996094 L -0.566406 -18.65625 L -0.101562 -19.191406 L 0.46875 -19.460938 L 1.519531 -20.164062 L 2.386719 -20.414062 L 3.140625 -20.742188 L 3.742188 -20.886719 L 4.894531 -20.394531 L 5.300781 -20.039062 L 5.796875 -19.375 L 6.160156 -18.5 L 6.203125 -17.808594 L 6.121094 -17.230469 L 5.949219 -16.816406 L 5.566406 -16.328125 L 4.867188 -15.703125 L 4.351562 -15.390625 L 2.988281 -14.734375 Z M 2.40625 -14.355469" transform="translate(250.568 315.819)"/></g></g></g><g fill="#516AA2"><g><g><path d="M 5.105469 -5.183594 L 5.730469 -4.789062 L 6.40625 -5 L 6.925781 -5.359375 L 7.332031 -5.757812 L 8.140625 -6.3125 L 8.796875 -6.902344 L 9.332031 -7.242188 L 9.617188 -7.902344 L 9.410156 -8.578125 L 7.234375 -11.515625 L 6.796875 -11.976562 L 6.410156 -12.472656 L 6.136719 -12.976562 L 4.988281 -14.398438 L 4.574219 -15.234375 L 4.320312 -16.074219 L 3.425781 -23.726562 L 3.453125 -24.304688 L 2.988281 -28.179688 L 2.777344 -29.011719 L 2.25 -29.480469 L 1.726562 -29.230469 L 0.738281 -28.5 L 0.257812 -28.042969 L -0.300781 -27.730469 L -1.25 -26.953125 L -1.691406 -26.648438 L -2.167969 -25.875 L -2.285156 -25.105469 L -2.097656 -23.53125 L -1.8125 -22.554688 L -1.742188 -21.335938 L -1.582031 -20.617188 L -1.5 -20.003906 L -1.1875 -18.730469 L -1.179688 -18.054688 L -1.453125 -17.84375 L -2.09375 -18.101562 L -2.679688 -18.285156 L -4.507812 -19.09375 L -5.109375 -19.304688 L -7.984375 -20.578125 L -8.871094 -20.644531 L -9.617188 -20.421875 L -10.121094 -19.992188 L -10.621094 -19.761719 L -11.808594 -18.671875 L -13.011719 -17.855469 L -13.3125 -17.21875 L -12.960938 -16.617188 L -12.265625 -16.238281 L -9.824219 -15.308594 L -9.28125 -15.171875 L -6.886719 -14.203125 L -5.667969 -13.875 L -5.121094 -13.582031 L -0.847656 -12.042969 L -0.0546875 -11.542969 L 0.59375 -10.96875 L 2.097656 -8.988281 L 2.535156 -8.53125 L 3.976562 -6.578125 L 4.394531 -6.144531 Z M 5.105469 -5.183594" transform="translate(274.46 302.437)"/></g></g></g></svg>