<svg xmlns="http://www.w3.org/2000/svg" width="375" viewBox="0 0 375 375" height="375" version="1.0"><defs><clipPath id="a"><path d="M 71.351562 58.261719 L 303.851562 58.261719 L 303.851562 290.761719 L 71.351562 290.761719 Z M 71.351562 58.261719"/></clipPath></defs><g clip-path="url(#a)"><path fill="#9F3737" d="M 148.898438 174.503906 C 148.898438 153.121094 166.230469 135.789062 187.609375 135.789062 C 208.992188 135.789062 226.324219 153.121094 226.324219 174.503906 C 226.324219 195.882812 208.992188 213.214844 187.609375 213.214844 C 166.230469 213.214844 148.898438 195.882812 148.898438 174.503906 Z M 187.609375 58.261719 C 123.394531 58.261719 71.351562 110.300781 71.351562 174.503906 C 71.351562 238.71875 123.394531 290.761719 187.609375 290.761719 C 251.8125 290.761719 303.851562 238.71875 303.851562 174.503906 C 303.851562 110.300781 251.8125 58.261719 187.609375 58.261719"/></g><path fill="#9F3737" d="M 187.609375 213.214844 C 166.230469 213.214844 148.898438 195.882812 148.898438 174.503906 C 148.898438 153.121094 166.230469 135.789062 187.609375 135.789062 C 208.992188 135.789062 226.324219 153.121094 226.324219 174.503906 C 226.324219 195.882812 208.992188 213.214844 187.609375 213.214844 Z M 274.296875 151.132812 C 274.296875 124.160156 253.328125 102.089844 226.800781 100.324219 C 217.511719 90.675781 204.503906 84.660156 190.0625 84.660156 C 175.675781 84.660156 162.695312 90.636719 153.425781 100.21875 C 152.910156 100.210938 152.394531 100.195312 151.859375 100.195312 C 123.734375 100.195312 100.921875 122.992188 100.921875 151.132812 C 100.921875 159.167969 102.785156 166.769531 106.089844 173.519531 C 102.785156 180.277344 100.921875 187.875 100.921875 195.914062 C 100.921875 223.976562 123.621094 246.734375 151.660156 246.847656 C 161 257.574219 174.738281 264.363281 190.0625 264.363281 C 205.539062 264.363281 219.382812 257.453125 228.730469 246.570312 C 254.332031 243.890625 274.296875 222.230469 274.296875 195.914062 C 274.296875 187.875 272.429688 180.277344 269.105469 173.519531 C 272.429688 166.769531 274.296875 159.167969 274.296875 151.132812"/><g fill="#9F3737"><g><g><path d="M 2.648438 0.492188 L 2.273438 1.449219 L 2.722656 2.34375 L 3.269531 2.667969 L 3.992188 3.378906 L 4.421875 3.648438 L 5.15625 4.246094 L 6.136719 4.636719 L 6.933594 4.109375 L 7.609375 3.28125 L 8.015625 2.878906 L 8.359375 2.308594 L 9.683594 0.785156 L 10.300781 0.476562 L 10.984375 0.585938 L 12.242188 1.9375 L 12.390625 2.75 L 12.285156 3.476562 L 12.121094 4.074219 L 12.039062 5.226562 L 11.785156 6.484375 L 11.753906 7.066406 L 11.550781 7.714844 L 11.480469 8.347656 L 11.660156 9.226562 L 12.3125 10.125 L 14.257812 11.671875 L 14.683594 12.097656 L 15.507812 12.730469 L 16.152344 12.890625 L 16.738281 12.472656 L 16.90625 11.714844 L 16.890625 11.136719 L 17.074219 10.511719 L 17.261719 8.589844 L 17.398438 7.972656 L 17.652344 6.066406 L 17.660156 5.460938 L 18.113281 4.855469 L 18.769531 4.496094 L 19.410156 4.410156 L 19.992188 4.394531 L 22.335938 3.464844 L 23.808594 2.308594 L 25.015625 0.730469 L 25.339844 0.179688 L 26.035156 -1.570312 L 26.179688 -2.144531 L 26.226562 -2.753906 L 26.03125 -5.351562 L 25.554688 -6.511719 L 24.886719 -7.585938 L 23.753906 -9.039062 L 22.992188 -9.699219 L 22.246094 -10.230469 L 20.78125 -11.421875 L 20.371094 -11.917969 L 19.882812 -12.316406 L 19.34375 -12.554688 L 18.855469 -12.953125 L 18.449219 -13.449219 L 17.929688 -13.910156 L 16.390625 -14.960938 L 15.753906 -15.078125 L 14.902344 -14.632812 L 10.367188 -9.023438 L 10.019531 -8.496094 L 9.148438 -7.578125 L 8.734375 -7.019531 L 8.335938 -6.53125 L 8.007812 -6.03125 L 7.582031 -5.605469 L 5.941406 -3.648438 L 5.59375 -3.121094 Z M 14.171875 -3.320312 L 13.902344 -3.984375 L 14.023438 -4.535156 L 15.21875 -6 L 15.507812 -6.457031 L 16.394531 -7.441406 L 16.992188 -7.726562 L 17.664062 -7.503906 L 18.132812 -7.078125 L 19.1875 -6.378906 L 19.753906 -5.675781 L 20.347656 -5.109375 L 20.710938 -4.609375 L 20.703125 -3.355469 L 20.53125 -2.84375 L 20.113281 -2.132812 L 19.441406 -1.457031 L 18.824219 -1.148438 L 18.257812 -1.003906 L 17.808594 -1 L 17.210938 -1.164062 L 16.363281 -1.570312 L 15.878906 -1.925781 L 14.746094 -2.929688 Z M 14.171875 -3.320312" transform="translate(81.897 287.097)"/></g></g></g><g fill="#9F3737"><g><g><path d="M 9.472656 5.519531 L 13.414062 7.699219 L 14.128906 7.78125 L 14.757812 7.378906 L 16.335938 4.617188 L 16.347656 3.898438 L 15.914062 3.324219 L 15.253906 3.019531 L 14.78125 2.640625 L 13.402344 1.816406 L 12.4375 1.410156 L 11.921875 1.042969 L 11.304688 0.726562 L 10.832031 0.347656 L 10.199219 0.0585938 L 9.78125 -0.542969 L 9.839844 -1.160156 L 10.824219 -2.886719 L 11.402344 -3.320312 L 12.066406 -3.339844 L 12.902344 -2.898438 L 13.730469 -2.316406 L 14.800781 -1.777344 L 15.90625 -1.109375 L 16.484375 -0.851562 L 17.097656 -0.464844 L 17.769531 -0.371094 L 18.273438 -0.808594 L 19.761719 -3.222656 L 19.925781 -4.144531 L 19.5 -4.859375 L 17.886719 -5.78125 L 17.28125 -6.054688 L 16.179688 -6.792969 L 14.5625 -7.644531 L 14.125 -8.21875 L 14.390625 -9.191406 L 14.875 -10.039062 L 15.417969 -10.417969 L 16.144531 -10.292969 L 16.652344 -9.96875 L 17.234375 -9.78125 L 21.113281 -7.492188 L 21.648438 -7.222656 L 22.410156 -7.222656 L 22.964844 -7.558594 L 23.25 -8.121094 L 23.589844 -8.652344 L 24.472656 -10.328125 L 24.523438 -10.988281 L 24.101562 -11.519531 L 23.527344 -11.847656 L 23.097656 -12.238281 L 20.867188 -13.476562 L 20.234375 -13.765625 L 19.71875 -14.132812 L 19.238281 -14.371094 L 18.71875 -14.738281 L 16.445312 -15.964844 L 15.945312 -16.359375 L 15.363281 -16.546875 L 14.902344 -16.882812 L 14.324219 -17.136719 L 13.792969 -17.476562 L 13.09375 -17.585938 L 12.464844 -17.183594 L 11.925781 -16.113281 L 11.203125 -15.039062 L 10.941406 -14.390625 L 9.355469 -11.742188 L 9.109375 -11.121094 L 8.757812 -10.632812 L 7.449219 -8.40625 L 7.25 -7.867188 L 4.691406 -3.449219 L 4.339844 -2.960938 L 4.109375 -2.367188 L 2.949219 -0.527344 L 2.660156 0.105469 L 2.457031 0.96875 L 3.074219 1.792969 L 5.027344 2.945312 L 5.660156 3.234375 L 6.136719 3.542969 L 7.308594 4.101562 L 7.765625 4.507812 L 8.378906 4.894531 L 8.957031 5.152344 Z M 9.472656 5.519531" transform="translate(103.433 303.879)"/></g></g></g><g fill="#9F3737"><g><g><path d="M 9.082031 3.417969 L 9.96875 3.742188 L 10.929688 3.957031 L 11.519531 4.171875 L 12.476562 4.222656 L 13.765625 4.457031 L 15.371094 4.371094 L 17.839844 3.765625 L 19.972656 2.429688 L 20.484375 1.945312 L 21.011719 1.601562 L 21.90625 0.621094 L 22.257812 0.113281 L 22.605469 -0.464844 L 22.964844 -0.902344 L 23.269531 -1.460938 L 23.496094 -2.082031 L 23.933594 -2.996094 L 24.214844 -3.867188 L 24.65625 -6.355469 L 24.679688 -7.621094 L 24.648438 -8.269531 L 24.214844 -10.203125 L 23.285156 -12.523438 L 22.144531 -14.078125 L 21.699219 -14.609375 L 21.152344 -14.945312 L 20.734375 -15.367188 L 20.167969 -15.742188 L 18.519531 -16.644531 L 11.796875 -19.167969 L 11.230469 -19.273438 L 10.648438 -19.519531 L 9.902344 -19.488281 L 9.40625 -18.964844 L 3.335938 -2.4375 L 3.191406 -1.851562 L 2.640625 -0.34375 L 2.601562 0.683594 L 3.085938 1.195312 L 3.699219 1.351562 L 7.285156 2.726562 L 7.910156 2.855469 Z M 10.765625 -1.46875 L 10.222656 -1.734375 L 9.660156 -2.304688 L 9.628906 -2.957031 L 9.785156 -3.46875 L 10.257812 -4.671875 L 10.667969 -6.164062 L 11.328125 -7.601562 L 12.757812 -11.707031 L 13 -12.1875 L 13.546875 -12.757812 L 14.570312 -12.621094 L 15.824219 -12.195312 L 16.648438 -11.792969 L 17.683594 -11.046875 L 18.117188 -10.585938 L 18.441406 -10.097656 L 18.734375 -9.523438 L 18.984375 -8.828125 L 19.097656 -8.21875 L 19.167969 -7.585938 L 18.691406 -4.8125 L 17.640625 -2.847656 L 16.738281 -1.9375 L 15.1875 -1.09375 L 13.945312 -0.808594 L 12.988281 -0.855469 L 11.664062 -1.171875 Z M 10.765625 -1.46875" transform="translate(124.015 315.336)"/></g></g></g><g fill="#9F3737"><g><g><path d="M 10.773438 1.199219 L 11.546875 1.011719 L 12.316406 0.160156 L 12.796875 -0.683594 L 13.042969 -1.328125 L 13.722656 -2.28125 L 13.964844 -2.894531 L 14.335938 -3.527344 L 14.570312 -4.042969 L 14.960938 -4.578125 L 16.429688 -7.332031 L 16.707031 -8.003906 L 17.355469 -8.960938 L 20.636719 -15.195312 L 21 -15.730469 L 21.628906 -16.816406 L 21.835938 -17.398438 L 22.523438 -18.449219 L 22.816406 -19.277344 L 22.714844 -19.949219 L 22.160156 -20.121094 L 21.507812 -20.242188 L 20.949219 -20.382812 L 20.347656 -20.371094 L 19.71875 -20.394531 L 18.535156 -20.621094 L 17.8125 -20.269531 L 17.230469 -19.78125 L 13.726562 -13.125 L 13.484375 -12.480469 L 13.15625 -11.972656 L 12.980469 -11.417969 L 12.621094 -10.878906 L 11.84375 -9.175781 L 11.480469 -8.636719 L 11.140625 -8.726562 L 10.5 -10.488281 L 10.425781 -11.097656 L 9.984375 -12.210938 L 8.757812 -16.421875 L 8.085938 -18.15625 L 7.40625 -20.617188 L 6.917969 -21.195312 L 6.222656 -21.570312 L 4.441406 -21.785156 L 3.804688 -21.742188 L 2.613281 -21.84375 L 2.089844 -21.667969 L 1.785156 -21.0625 L 2.566406 -18.308594 L 2.839844 -17.808594 L 2.945312 -17.199219 L 3.144531 -16.550781 L 3.449219 -16.050781 L 3.613281 -15.375 L 5.898438 -8.792969 L 6.035156 -8.148438 L 6.679688 -6.453125 L 6.84375 -5.773438 L 7.289062 -4.660156 L 7.585938 -4.066406 L 7.6875 -3.425781 L 8.691406 -0.335938 L 8.933594 0.15625 L 9.515625 0.746094 L 10.183594 1.054688 Z M 10.773438 1.199219" transform="translate(163.9 327.139)"/></g></g></g><g fill="#9F3737"><g><g><path d="M 10.9375 -0.765625 L 15.421875 -1.179688 L 16.058594 -1.515625 L 16.351562 -2.199219 L 16.101562 -5.371094 L 15.707031 -5.972656 L 15.027344 -6.203125 L 14.308594 -6.085938 L 13.707031 -6.132812 L 12.101562 -6.039062 L 11.074219 -5.832031 L 10.441406 -5.84375 L 9.753906 -5.757812 L 9.148438 -5.804688 L 8.464844 -5.6875 L 7.78125 -5.949219 L 7.484375 -6.496094 L 7.328125 -8.476562 L 7.558594 -9.15625 L 8.097656 -9.546875 L 9.035156 -9.652344 L 10.050781 -9.636719 L 11.238281 -9.792969 L 12.527344 -9.863281 L 13.152344 -9.976562 L 13.875 -10 L 14.484375 -10.300781 L 14.65625 -10.945312 L 14.527344 -13.78125 L 14.144531 -14.632812 L 13.390625 -14.984375 L 11.535156 -14.839844 L 10.882812 -14.726562 L 9.554688 -14.714844 L 7.738281 -14.511719 L 7.058594 -14.742188 L 6.730469 -15.695312 L 6.652344 -16.667969 L 6.890625 -17.289062 L 7.558594 -17.59375 L 8.160156 -17.609375 L 8.746094 -17.78125 L 13.242188 -18.070312 L 13.835938 -18.148438 L 14.464844 -18.578125 L 14.734375 -19.167969 L 14.65625 -19.792969 L 14.636719 -20.421875 L 14.425781 -22.304688 L 14.097656 -22.878906 L 13.449219 -23.078125 L 12.789062 -23.027344 L 12.214844 -23.109375 L 9.671875 -22.878906 L 8.988281 -22.761719 L 8.355469 -22.773438 L 7.824219 -22.699219 L 7.191406 -22.714844 L 4.621094 -22.449219 L 3.984375 -22.492188 L 3.398438 -22.320312 L 2.828125 -22.339844 L 2.203125 -22.226562 L 1.574219 -22.210938 L 0.933594 -21.90625 L 0.640625 -21.21875 L 0.796875 -20.03125 L 0.804688 -18.738281 L 0.953125 -18.054688 L 1.128906 -14.972656 L 1.277344 -14.320312 L 1.261719 -13.71875 L 1.429688 -11.140625 L 1.570312 -10.582031 L 1.9375 -5.492188 L 1.921875 -4.890625 L 2.066406 -4.269531 L 2.140625 -2.09375 L 2.257812 -1.410156 L 2.578125 -0.582031 L 3.550781 -0.246094 L 5.816406 -0.394531 L 6.5 -0.511719 L 7.066406 -0.523438 L 8.347656 -0.71875 L 8.953125 -0.640625 L 9.679688 -0.664062 L 10.304688 -0.777344 Z M 10.9375 -0.765625" transform="translate(190.499 328.822)"/></g></g></g><g fill="#9F3737"><g><g><path d="M 2.078125 -1.640625 L 2.476562 -0.894531 L 3.132812 -0.722656 L 3.757812 -0.800781 L 5.027344 -1.191406 L 6.238281 -1.40625 L 7.390625 -1.734375 L 7.996094 -1.777344 L 8.65625 -1.996094 L 14.742188 -3.363281 L 15.253906 -3.804688 L 15.371094 -4.835938 L 14.769531 -7.3125 L 14.28125 -8.171875 L 13.640625 -8.414062 L 13.011719 -8.203125 L 12.457031 -7.945312 L 11.792969 -7.890625 L 10.539062 -7.566406 L 9.898438 -7.550781 L 9.367188 -7.332031 L 8.15625 -7.117188 L 7.523438 -6.90625 L 6.855469 -7.011719 L 6.46875 -7.566406 L 4.101562 -17.980469 L 3.867188 -18.703125 L 3.648438 -19.945312 L 3.152344 -21.671875 L 3.046875 -22.261719 L 2.585938 -22.867188 L 1.886719 -23.09375 L 0.691406 -22.820312 L 0.105469 -22.554688 L -1.152344 -22.394531 L -1.714844 -22.167969 L -2.300781 -21.773438 L -2.421875 -21.035156 L -1.433594 -16.738281 L -1.359375 -16.140625 L -1.15625 -15.539062 L -0.988281 -14.382812 L -0.800781 -13.714844 L -0.605469 -13.144531 Z M 2.078125 -1.640625" transform="translate(213.703 326.568)"/></g></g></g><g fill="#9F3737"><g><g><path d="M 10.148438 -3.8125 L 10.753906 -4.332031 L 11.050781 -5.4375 L 11.097656 -6.410156 L 11.023438 -7.09375 L 11.199219 -8.253906 L 11.136719 -8.90625 L 11.179688 -9.640625 L 11.15625 -10.207031 L 11.261719 -10.863281 L 11.324219 -13.980469 L 11.265625 -14.703125 L 11.414062 -15.851562 L 11.511719 -22.894531 L 11.589844 -23.539062 L 11.660156 -24.792969 L 11.578125 -25.40625 L 11.71875 -26.652344 L 11.605469 -27.523438 L 11.210938 -28.078125 L 10.636719 -27.980469 L 10 -27.789062 L 9.4375 -27.664062 L 8.910156 -27.378906 L 8.335938 -27.113281 L 7.179688 -26.78125 L 6.691406 -26.140625 L 6.398438 -25.441406 L 6.289062 -17.921875 L 6.363281 -17.234375 L 6.300781 -16.632812 L 6.398438 -16.058594 L 6.320312 -15.417969 L 6.398438 -13.546875 L 6.320312 -12.902344 L 5.976562 -12.828125 L 4.605469 -14.109375 L 4.265625 -14.617188 L 3.367188 -15.40625 L 0.367188 -18.609375 L -1.019531 -19.847656 L -2.738281 -21.734375 L -3.4375 -22.027344 L -4.226562 -22.046875 L -5.914062 -21.429688 L -6.460938 -21.105469 L -7.570312 -20.65625 L -7.953125 -20.261719 L -7.949219 -19.585938 L -6.007812 -17.484375 L -5.539062 -17.164062 L -5.167969 -16.667969 L -4.699219 -16.179688 L -4.199219 -15.871094 L -3.746094 -15.339844 L 1.273438 -10.511719 L 1.6875 -10 L 3.03125 -8.777344 L 3.484375 -8.25 L 4.382812 -7.457031 L 4.917969 -7.0625 L 5.300781 -6.539062 L 7.59375 -4.238281 L 8.035156 -3.90625 L 8.820312 -3.648438 L 9.558594 -3.675781 Z M 10.148438 -3.8125" transform="translate(235.417 321.298)"/></g></g></g><g fill="#9F3737"><g><g><path d="M 9.402344 -5.636719 L 13.210938 -8.039062 L 13.628906 -8.625 L 13.578125 -9.371094 L 11.921875 -12.085938 L 11.296875 -12.441406 L 10.585938 -12.339844 L 10 -11.910156 L 9.4375 -11.675781 L 8.050781 -10.867188 L 7.230469 -10.214844 L 6.660156 -9.941406 L 6.085938 -9.554688 L 5.523438 -9.320312 L 4.96875 -8.90625 L 4.238281 -8.832031 L 3.726562 -9.183594 L 2.691406 -10.875 L 2.589844 -11.589844 L 2.890625 -12.179688 L 3.683594 -12.699219 L 4.589844 -13.144531 L 5.578125 -13.820312 L 6.699219 -14.46875 L 7.203125 -14.851562 L 7.835938 -15.203125 L 8.242188 -15.746094 L 8.101562 -16.398438 L 6.707031 -18.867188 L 5.976562 -19.453125 L 5.144531 -19.425781 L 3.558594 -18.457031 L 3.027344 -18.058594 L 1.847656 -17.449219 L 0.324219 -16.441406 L -0.390625 -16.339844 L -1.113281 -17.039062 L -1.621094 -17.875 L -1.691406 -18.53125 L -1.234375 -19.109375 L -0.707031 -19.394531 L -0.261719 -19.8125 L 3.617188 -22.109375 L 4.109375 -22.449219 L 4.476562 -23.117188 L 4.449219 -23.765625 L 4.09375 -24.285156 L 3.792969 -24.839844 L 2.753906 -26.417969 L 2.199219 -26.78125 L 1.53125 -26.667969 L 0.964844 -26.324219 L 0.417969 -26.136719 L -1.746094 -24.777344 L -2.304688 -24.363281 L -2.875 -24.085938 L -3.3125 -23.78125 L -3.882812 -23.507812 L -6.054688 -22.105469 L -6.640625 -21.855469 L -7.085938 -21.4375 L -7.601562 -21.195312 L -8.109375 -20.8125 L -8.660156 -20.511719 L -9.09375 -19.953125 L -9.046875 -19.207031 L -8.367188 -18.21875 L -7.773438 -17.066406 L -7.332031 -16.523438 L -5.777344 -13.859375 L -5.351562 -13.34375 L -5.09375 -12.800781 L -3.773438 -10.578125 L -3.394531 -10.144531 L -0.761719 -5.773438 L -0.503906 -5.230469 L -0.09375 -4.742188 L 0.960938 -2.839844 L 1.375 -2.28125 L 2.035156 -1.6875 L 3.054688 -1.828125 L 5.003906 -2.984375 L 5.5625 -3.402344 L 6.0625 -3.667969 L 7.117188 -4.425781 L 7.691406 -4.628906 L 8.328125 -4.980469 L 8.832031 -5.363281 Z M 9.402344 -5.636719" transform="translate(259.89 310.747)"/></g></g></g><g fill="#9F3737"><g><g><path d="M 6.332031 -5.242188 L 7.910156 -6.648438 L 8.40625 -7.476562 L 8.078125 -8.355469 L 7.097656 -9.671875 L 6.253906 -10.527344 L 5.875 -11.074219 L 5.042969 -12.015625 L 4.726562 -12.492188 L 4.207031 -12.960938 L 0.992188 -16.882812 L 0.492188 -17.328125 L -1.199219 -19.488281 L -1.613281 -20.371094 L -1.398438 -21.046875 L -0.5 -21.886719 L 0.496094 -22.515625 L 0.941406 -23.011719 L 1.394531 -23.355469 L 1.582031 -23.964844 L 1.425781 -24.738281 L -0.476562 -27.046875 L -1.148438 -27.308594 L -1.867188 -27.234375 L -3.363281 -25.980469 L -3.863281 -25.640625 L -4.308594 -25.144531 L -4.804688 -24.808594 L -6.679688 -23.070312 L -7.242188 -22.761719 L -7.71875 -22.398438 L -8.164062 -21.902344 L -8.734375 -21.503906 L -9.089844 -21.042969 L -10.574219 -19.917969 L -11.257812 -19.21875 L -13.027344 -17.894531 L -13.285156 -17.269531 L -13.105469 -16.472656 L -12.675781 -16.007812 L -11.710938 -14.761719 L -11.035156 -14.054688 L -10.453125 -13.804688 L -9.816406 -13.929688 L -9.375 -14.382812 L -7.042969 -16.257812 L -6.382812 -16.402344 L -5.710938 -16.144531 L -5.113281 -15.332031 L -4.496094 -14.699219 L -4.074219 -14.148438 L -3.644531 -13.683594 L -3.125 -12.96875 L -0.03125 -9.4375 L 0.324219 -8.914062 L 1.941406 -6.941406 L 2.417969 -6.476562 L 3.566406 -5.058594 L 3.90625 -4.558594 L 4.664062 -4.292969 L 5.566406 -4.636719 Z M 6.332031 -5.242188" transform="translate(279.584 298.22)"/></g></g></g></svg>