<svg xmlns="http://www.w3.org/2000/svg" width="375" viewBox="0 0 375 375" height="375" version="1.0"><defs><clipPath id="a"><path d="M 47.878906 47.878906 L 326.878906 47.878906 L 326.878906 326.878906 L 47.878906 326.878906 Z M 47.878906 47.878906"/></clipPath></defs><g clip-path="url(#a)"><path fill="#84521A" d="M 140.933594 187.371094 C 140.933594 161.714844 161.734375 140.917969 187.390625 140.917969 C 213.046875 140.917969 233.84375 161.714844 233.84375 187.371094 C 233.84375 213.027344 213.046875 233.824219 187.390625 233.824219 C 161.734375 233.824219 140.933594 213.027344 140.933594 187.371094 Z M 187.390625 47.878906 C 110.328125 47.878906 47.878906 110.328125 47.878906 187.371094 C 47.878906 264.433594 110.328125 326.878906 187.390625 326.878906 C 264.433594 326.878906 326.878906 264.433594 326.878906 187.371094 C 326.878906 110.328125 264.433594 47.878906 187.390625 47.878906"/></g><path fill="#FCBAA4" d="M 187.390625 233.824219 C 161.734375 233.824219 140.933594 213.027344 140.933594 187.371094 C 140.933594 161.714844 161.734375 140.917969 187.390625 140.917969 C 213.046875 140.917969 233.84375 161.714844 233.84375 187.371094 C 233.84375 213.027344 213.046875 233.824219 187.390625 233.824219 Z M 291.414062 159.324219 C 291.414062 126.957031 266.25 100.472656 234.417969 98.359375 C 223.273438 86.777344 207.660156 79.558594 190.332031 79.558594 C 173.066406 79.558594 157.492188 86.734375 146.367188 98.230469 C 145.75 98.222656 145.128906 98.203125 144.484375 98.203125 C 110.738281 98.203125 83.363281 125.558594 83.363281 159.324219 C 83.363281 168.972656 85.597656 178.089844 89.566406 186.191406 C 85.597656 194.300781 83.363281 203.417969 83.363281 213.0625 C 83.363281 246.742188 110.601562 274.050781 144.25 274.1875 C 155.457031 287.054688 171.941406 295.203125 190.332031 295.203125 C 208.90625 295.203125 225.515625 286.910156 236.730469 273.851562 C 267.457031 270.636719 291.414062 244.640625 291.414062 213.0625 C 291.414062 203.417969 289.171875 194.300781 285.183594 186.191406 C 289.171875 178.089844 291.414062 168.972656 291.414062 159.324219"/></svg>