<svg xmlns="http://www.w3.org/2000/svg" width="375" viewBox="0 0 375 375" height="375" version="1.0"><defs><clipPath id="a"><path d="M 71.351562 58.261719 L 303.851562 58.261719 L 303.851562 290.761719 L 71.351562 290.761719 Z M 71.351562 58.261719"/></clipPath><clipPath id="b"><path d="M 118.109375 90.992188 L 166.109375 90.992188 L 166.109375 138.992188 L 118.109375 138.992188 Z M 118.109375 90.992188"/></clipPath><clipPath id="c"><path d="M 101.578125 122.523438 L 134.578125 122.523438 L 134.578125 155.523438 L 101.578125 155.523438 Z M 101.578125 122.523438"/></clipPath><clipPath id="d"><path d="M 211.964844 226.367188 L 244.964844 226.367188 L 244.964844 259.367188 L 211.964844 259.367188 Z M 211.964844 226.367188"/></clipPath></defs><g clip-path="url(#a)"><path fill="#EBBF7F" d="M 148.898438 174.503906 C 148.898438 153.121094 166.230469 135.789062 187.609375 135.789062 C 208.992188 135.789062 226.324219 153.121094 226.324219 174.503906 C 226.324219 195.882812 208.992188 213.214844 187.609375 213.214844 C 166.230469 213.214844 148.898438 195.882812 148.898438 174.503906 Z M 187.609375 58.261719 C 123.394531 58.261719 71.351562 110.300781 71.351562 174.503906 C 71.351562 238.71875 123.394531 290.761719 187.609375 290.761719 C 251.8125 290.761719 303.851562 238.71875 303.851562 174.503906 C 303.851562 110.300781 251.8125 58.261719 187.609375 58.261719"/></g><path fill="#EBBF7F" d="M 187.609375 213.214844 C 166.230469 213.214844 148.898438 195.882812 148.898438 174.503906 C 148.898438 153.121094 166.230469 135.789062 187.609375 135.789062 C 208.992188 135.789062 226.324219 153.121094 226.324219 174.503906 C 226.324219 195.882812 208.992188 213.214844 187.609375 213.214844 Z M 274.296875 151.132812 C 274.296875 124.160156 253.328125 102.089844 226.800781 100.324219 C 217.511719 90.675781 204.503906 84.660156 190.0625 84.660156 C 175.675781 84.660156 162.695312 90.636719 153.425781 100.21875 C 152.910156 100.210938 152.394531 100.195312 151.859375 100.195312 C 123.734375 100.195312 100.921875 122.992188 100.921875 151.132812 C 100.921875 159.167969 102.785156 166.769531 106.089844 173.519531 C 102.785156 180.277344 100.921875 187.875 100.921875 195.914062 C 100.921875 223.976562 123.621094 246.734375 151.660156 246.847656 C 161 257.574219 174.738281 264.363281 190.0625 264.363281 C 205.539062 264.363281 219.382812 257.453125 228.730469 246.570312 C 254.332031 243.890625 274.296875 222.230469 274.296875 195.914062 C 274.296875 187.875 272.429688 180.277344 269.105469 173.519531 C 272.429688 166.769531 274.296875 159.167969 274.296875 151.132812"/><g clip-path="url(#b)"><path fill="#FFF" d="M 142.109375 138.992188 C 142.109375 125.785156 131.316406 114.992188 118.109375 114.992188 C 131.316406 114.992188 142.109375 104.199219 142.109375 90.992188 C 142.109375 104.199219 152.90625 114.992188 166.109375 114.992188 C 152.90625 114.992188 142.109375 125.785156 142.109375 138.992188 Z M 142.109375 138.992188"/></g><g fill="#EBBF7F"><g><g><path d="M 9.878906 4.691406 L 12.761719 5.960938 L 15.152344 6.390625 L 17.65625 6.253906 L 18.855469 5.957031 L 19.488281 5.6875 L 20.074219 5.53125 L 20.597656 5.277344 L 21.101562 4.914062 L 21.589844 4.511719 L 22.113281 4.257812 L 23.4375 2.8125 L 24.152344 1.816406 L 24.394531 1.339844 L 24.738281 0.871094 L 24.992188 0.296875 L 25.292969 -0.226562 L 25.714844 -1.347656 L 25.644531 -1.964844 L 25.222656 -2.496094 L 24.628906 -2.789062 L 24.0625 -3.144531 L 20.132812 -4.769531 L 18.453125 -5.644531 L 17.320312 -6.042969 L 16.617188 -6.007812 L 16.117188 -5.574219 L 14.910156 -2.835938 L 14.964844 -2.257812 L 15.347656 -1.714844 L 16.15625 -1.289062 L 17.648438 -0.769531 L 18.128906 -0.453125 L 18.472656 -0.0625 L 18.34375 0.46875 L 17.839844 0.832031 L 17.191406 1.128906 L 16.648438 1.269531 L 15.53125 1.226562 L 14.292969 0.992188 L 13.53125 0.6875 L 12.136719 -0.128906 L 10.859375 -1.449219 L 10.351562 -2.636719 L 10.210938 -3.179688 L 10.121094 -4.460938 L 10.257812 -5.398438 L 10.519531 -6.382812 L 11.226562 -8.070312 L 11.921875 -9.105469 L 12.839844 -9.941406 L 14.332031 -10.902344 L 15.65625 -11.179688 L 16.261719 -11.222656 L 16.835938 -11.039062 L 17.425781 -11.054688 L 19.210938 -10.335938 L 20.148438 -9.578125 L 20.597656 -9.109375 L 20.980469 -8.492188 L 21.160156 -7.964844 L 21.320312 -7.308594 L 21.707031 -6.554688 L 22.3125 -6.046875 L 23.191406 -5.625 L 24.109375 -5.359375 L 25.453125 -4.664062 L 26.316406 -4.664062 L 26.703125 -5.078125 L 26.820312 -6.4375 L 26.789062 -7.070312 L 26.371094 -9.25 L 25.964844 -10.046875 L 25.695312 -10.683594 L 25.414062 -11.21875 L 23.867188 -13.175781 L 23.3125 -13.558594 L 22.121094 -14.527344 L 19.492188 -15.824219 L 18.902344 -16.046875 L 18.335938 -16.089844 L 17.773438 -16.304688 L 15.199219 -16.472656 L 13.183594 -16.191406 L 11.417969 -15.625 L 10.839844 -15.328125 L 10.21875 -15.085938 L 9.710938 -14.792969 L 7.691406 -13.101562 L 5.917969 -10.472656 L 5.480469 -9.5625 L 4.738281 -7.480469 L 4.351562 -4.417969 L 4.441406 -3.207031 L 4.671875 -1.9375 L 5.292969 -0.21875 L 5.953125 0.863281 L 7.433594 2.894531 L 7.859375 3.253906 L 9.378906 4.265625 Z M 9.878906 4.691406" transform="translate(114.69 310.653)"/></g></g></g><g fill="#EBBF7F"><g><g><path d="M 2.597656 -0.519531 L 2.613281 0.328125 L 3.117188 0.78125 L 3.710938 0.996094 L 5.019531 1.222656 L 6.195312 1.582031 L 7.371094 1.8125 L 7.929688 2.050781 L 8.617188 2.15625 L 14.660156 3.703125 L 15.316406 3.542969 L 15.890625 2.679688 L 16.480469 0.195312 L 16.433594 -0.789062 L 15.976562 -1.292969 L 15.316406 -1.394531 L 14.707031 -1.417969 L 14.089844 -1.667969 L 12.828125 -1.953125 L 12.246094 -2.226562 L 11.675781 -2.273438 L 10.496094 -2.632812 L 9.839844 -2.730469 L 9.289062 -3.128906 L 9.199219 -3.800781 L 11.824219 -14.152344 L 11.945312 -14.902344 L 12.3125 -16.109375 L 12.65625 -17.875 L 12.832031 -18.445312 L 12.695312 -19.195312 L 12.175781 -19.714844 L 10.984375 -20.011719 L 10.34375 -20.042969 L 9.152344 -20.472656 L 8.546875 -20.527344 L 7.84375 -20.441406 L 7.402344 -19.839844 L 6.332031 -15.5625 L 6.125 -14.996094 L 6.03125 -14.367188 L 5.65625 -13.261719 L 5.519531 -12.582031 L 5.433594 -11.984375 Z M 2.597656 -0.519531" transform="translate(142.088 321.872)"/></g></g></g><g fill="#EBBF7F"><g><g><path d="M 18.519531 1.554688 L 19.71875 1.554688 L 20.3125 1.667969 L 21.289062 1.714844 L 22.179688 1.628906 L 22.335938 0.882812 L 22.171875 0.140625 L 21.796875 -1.058594 L 21.078125 -2.757812 L 20.734375 -3.957031 L 20.195312 -5.136719 L 19.234375 -8.089844 L 18.957031 -8.585938 L 18.691406 -9.207031 L 18.558594 -9.914062 L 18.3125 -10.40625 L 18.167969 -10.925781 L 17.601562 -12.140625 L 17.433594 -12.816406 L 15.710938 -17.347656 L 15.574219 -17.992188 L 15.273438 -18.585938 L 15.132812 -19.164062 L 14.625 -20.3125 L 14.136719 -20.917969 L 13.125 -21.316406 L 12.09375 -21.050781 L 11.484375 -20.566406 L 11.160156 -20.054688 L 10.886719 -19.441406 L 10.570312 -19.027344 L 9.082031 -16.238281 L 8.699219 -15.796875 L 8.492188 -15.179688 L 8.097656 -14.613281 L 7.863281 -14.0625 L 4.121094 -7.601562 L 3.875 -6.925781 L 3.523438 -6.480469 L 3.253906 -5.867188 L 2.609375 -4.910156 L 2.035156 -3.691406 L 1.65625 -3.28125 L 1.453125 -2.726562 L 0.722656 -1.523438 L 0.484375 -0.910156 L 0.578125 -0.113281 L 1.191406 0.128906 L 2.421875 0.164062 L 3.042969 0.277344 L 4.804688 0.355469 L 5.546875 0.195312 L 6.1875 -0.324219 L 6.835938 -1.3125 L 7.480469 -1.863281 L 8.167969 -2.15625 L 8.757812 -2.011719 L 10.085938 -2.03125 L 10.644531 -1.890625 L 13.722656 -1.675781 L 14.285156 -1.566406 L 14.980469 -1.605469 L 15.644531 -1.203125 L 16.203125 -0.65625 L 16.4375 -0.0351562 L 16.578125 0.546875 L 17.167969 1.066406 L 17.867188 1.4375 Z M 12.023438 -6.835938 L 11.40625 -7.011719 L 10.675781 -7.007812 L 10.191406 -7.269531 L 10.210938 -7.867188 L 11.957031 -11.140625 L 12.324219 -11.394531 L 12.746094 -11.109375 L 13.941406 -7.535156 L 13.773438 -6.980469 L 13.28125 -6.769531 Z M 12.023438 -6.835938" transform="translate(163.879 327.114)"/></g></g></g><g fill="#EBBF7F"><g><g><path d="M 0.703125 -0.921875 L 0.890625 -0.273438 L 1.546875 -0.0507812 L 8.449219 -0.664062 L 9.125 -0.851562 L 9.726562 -0.878906 L 10.265625 -0.832031 L 10.921875 -0.957031 L 11.578125 -1.019531 L 12.199219 -1.171875 L 12.804688 -1.101562 L 13.488281 -1.230469 L 16.65625 -1.527344 L 17.214844 -1.640625 L 17.8125 -2.011719 L 18.078125 -2.574219 L 17.988281 -3.199219 L 17.988281 -3.863281 L 17.863281 -5.183594 L 17.75 -5.742188 L 17.441406 -6.3125 L 16.753906 -6.566406 L 16.03125 -6.527344 L 15.375 -6.4375 L 14.773438 -6.441406 L 11.539062 -6.171875 L 10.980469 -6.058594 L 10.320312 -6.027344 L 9.695312 -5.9375 L 9.132812 -6.199219 L 9.019531 -6.726562 L 9.351562 -7.234375 L 9.613281 -7.828125 L 9.804688 -8.507812 L 10.070312 -9.039062 L 10.324219 -9.695312 L 10.726562 -10.460938 L 11.839844 -13.128906 L 12.164062 -13.699219 L 12.9375 -15.574219 L 13.183594 -16.007812 L 13.632812 -17.28125 L 13.960938 -17.851562 L 15.980469 -22.628906 L 15.695312 -23.296875 L 15.050781 -23.457031 L 14.449219 -23.464844 L 12.601562 -23.230469 L 11.777344 -23.246094 L 7.140625 -22.78125 L 6.503906 -22.816406 L 5.855469 -22.660156 L 3.40625 -22.433594 L 2.742188 -22.433594 L 2.183594 -22.320312 L 0.867188 -22.195312 L 0.265625 -22.203125 L -0.207031 -21.84375 L -0.554688 -21.144531 L -0.429688 -20.492188 L -0.21875 -17.917969 L 0.179688 -17.355469 L 1.144531 -17.191406 L 2.054688 -17.277344 L 2.691406 -17.242188 L 3.277344 -17.390625 L 7.042969 -17.710938 L 7.476562 -17.46875 L 7.472656 -16.867188 L 4.28125 -9.355469 L 3.957031 -8.753906 L 3.5 -7.570312 L 3.171875 -7.035156 L 2.71875 -5.789062 L 2.15625 -4.695312 L 1.496094 -2.957031 L 1.140625 -2.351562 L 0.886719 -1.695312 Z M 0.703125 -0.921875" transform="translate(192.233 328.765)"/></g></g></g><g fill="#EBBF7F"><g><g><path d="M 10.644531 -2.621094 L 14.992188 -3.796875 L 15.5625 -4.234375 L 15.738281 -4.960938 L 14.949219 -8.042969 L 14.457031 -8.566406 L 13.746094 -8.679688 L 13.058594 -8.4375 L 12.457031 -8.382812 L 10.894531 -8.015625 L 9.917969 -7.636719 L 9.289062 -7.542969 L 8.625 -7.339844 L 8.023438 -7.28125 L 7.367188 -7.050781 L 6.648438 -7.191406 L 6.265625 -7.679688 L 5.773438 -9.601562 L 5.882812 -10.3125 L 6.347656 -10.789062 L 7.257812 -11.054688 L 8.257812 -11.210938 L 9.398438 -11.566406 L 10.660156 -11.855469 L 11.253906 -12.074219 L 11.964844 -12.222656 L 12.511719 -12.621094 L 12.570312 -13.289062 L 11.960938 -16.058594 L 11.4375 -16.835938 L 10.632812 -17.050781 L 8.832031 -16.59375 L 8.207031 -16.367188 L 6.902344 -16.132812 L 5.148438 -15.617188 L 4.4375 -15.730469 L 3.949219 -16.613281 L 3.710938 -17.558594 L 3.835938 -18.210938 L 4.445312 -18.625 L 5.03125 -18.742188 L 5.582031 -19.011719 L 9.960938 -20.066406 L 10.535156 -20.246094 L 11.082031 -20.773438 L 11.246094 -21.402344 L 11.058594 -22.003906 L 10.933594 -22.625 L 10.40625 -24.4375 L 9.984375 -24.949219 L 9.308594 -25.035156 L 8.667969 -24.875 L 8.089844 -24.855469 L 5.625 -24.195312 L 4.96875 -23.960938 L 4.34375 -23.867188 L 3.832031 -23.703125 L 3.207031 -23.609375 L 0.71875 -22.910156 L 0.0859375 -22.84375 L -0.464844 -22.574219 L -1.03125 -22.496094 L -1.625 -22.277344 L -2.242188 -22.152344 L -2.820312 -21.746094 L -2.992188 -21.019531 L -2.636719 -19.875 L -2.40625 -18.597656 L -2.144531 -17.949219 L -1.441406 -14.945312 L -1.1875 -14.328125 L -1.101562 -13.730469 L -0.492188 -11.21875 L -0.261719 -10.695312 L 0.972656 -5.742188 L 1.058594 -5.148438 L 1.304688 -4.558594 L 1.753906 -2.429688 L 1.984375 -1.773438 L 2.441406 -1.011719 L 3.457031 -0.851562 L 5.660156 -1.378906 L 6.316406 -1.613281 L 6.875 -1.722656 L 8.101562 -2.132812 L 8.714844 -2.160156 L 9.421875 -2.308594 L 10.019531 -2.527344 Z M 10.644531 -2.621094" transform="translate(216.87 325.986)"/></g></g></g><g fill="#EBBF7F"><g><g><path d="M 8.902344 -3.859375 L 9.765625 -4.242188 L 10.605469 -4.757812 L 11.179688 -5.011719 L 11.902344 -5.644531 L 12.992188 -6.371094 L 14.085938 -7.546875 L 15.4375 -9.699219 L 16.042969 -12.140625 L 16.074219 -12.84375 L 16.214844 -13.460938 L 16.175781 -14.785156 L 16.074219 -15.398438 L 15.921875 -16.054688 L 15.875 -16.617188 L 15.707031 -17.234375 L 15.4375 -17.835938 L 15.113281 -18.796875 L 14.714844 -19.617188 L 13.296875 -21.710938 L 12.4375 -22.640625 L 11.964844 -23.082031 L 10.304688 -24.171875 L 8.023438 -25.191406 L 6.121094 -25.515625 L 5.433594 -25.589844 L 4.808594 -25.449219 L 4.214844 -25.460938 L 3.546875 -25.335938 L 1.734375 -24.839844 L -4.851562 -21.976562 L -5.332031 -21.660156 L -5.921875 -21.429688 L -6.4375 -20.890625 L -6.429688 -20.171875 L 0.703125 -4.070312 L 1.003906 -3.550781 L 1.660156 -2.082031 L 2.34375 -1.320312 L 3.046875 -1.289062 L 3.597656 -1.601562 L 7.132812 -3.105469 L 7.671875 -3.449219 Z M 6.714844 -8.539062 L 6.140625 -8.355469 L 5.339844 -8.375 L 4.867188 -8.820312 L 4.617188 -9.296875 L 4.121094 -10.488281 L 3.378906 -11.847656 L 2.855469 -13.339844 L 1.027344 -17.285156 L 0.867188 -17.800781 L 0.863281 -18.589844 L 1.691406 -19.199219 L 2.886719 -19.765625 L 3.761719 -20.054688 L 5.023438 -20.234375 L 5.65625 -20.207031 L 6.230469 -20.082031 L 6.839844 -19.871094 L 7.503906 -19.546875 L 8.007812 -19.183594 L 8.5 -18.78125 L 10.085938 -16.457031 L 10.695312 -14.3125 L 10.679688 -13.03125 L 10.152344 -11.347656 L 9.457031 -10.277344 L 8.738281 -9.648438 L 7.566406 -8.953125 Z M 6.714844 -8.539062" transform="translate(239.627 319.907)"/></g></g></g><g clip-path="url(#c)"><path fill="#FFF" d="M 118.078125 155.523438 C 118.078125 146.445312 110.65625 139.023438 101.578125 139.023438 C 110.65625 139.023438 118.078125 131.605469 118.078125 122.523438 C 118.078125 131.605469 125.5 139.023438 134.578125 139.023438 C 125.5 139.023438 118.078125 146.445312 118.078125 155.523438 Z M 118.078125 155.523438"/></g><g clip-path="url(#d)"><path fill="#FFF" d="M 228.464844 259.367188 C 228.464844 250.285156 221.042969 242.867188 211.964844 242.867188 C 221.042969 242.867188 228.464844 235.445312 228.464844 226.367188 C 228.464844 235.445312 235.882812 242.867188 244.964844 242.867188 C 235.882812 242.867188 228.464844 250.285156 228.464844 259.367188 Z M 228.464844 259.367188"/></g></svg>