<svg xmlns="http://www.w3.org/2000/svg" width="375" viewBox="0 0 375 375" height="375" version="1.0"><defs><clipPath id="a"><path d="M 50.289062 118.011719 L 324.789062 118.011719 L 324.789062 314.511719 L 50.289062 314.511719 Z M 50.289062 118.011719"/></clipPath></defs><g clip-path="url(#a)"><path fill="#84521A" d="M 50.289062 118.128906 C 141.789062 118.128906 233.296875 118.128906 324.789062 118.128906 C 324.789062 152.644531 324.789062 187.160156 324.789062 221.675781 C 324.789062 225.308594 321.820312 228.261719 318.183594 228.261719 C 314.5625 228.261719 311.59375 225.308594 311.59375 221.675781 L 311.59375 174.390625 C 311.59375 171.863281 309.515625 169.789062 306.984375 169.789062 C 304.441406 169.789062 302.378906 171.863281 302.378906 174.390625 L 302.378906 201.285156 C 302.378906 206.007812 298.503906 209.867188 293.789062 209.867188 C 289.0625 209.867188 285.203125 206.007812 285.203125 201.285156 L 285.203125 166.484375 C 285.203125 159.234375 279.25 153.296875 272.003906 153.296875 C 264.75 153.296875 258.796875 159.234375 258.796875 166.484375 L 258.796875 230.960938 C 258.796875 241.375 250.273438 249.886719 239.847656 249.886719 C 229.421875 249.886719 220.886719 241.375 220.886719 230.960938 L 220.886719 153.902344 C 220.886719 143.488281 212.363281 134.96875 201.9375 134.96875 L 201.929688 134.96875 C 191.511719 134.96875 182.976562 143.488281 182.976562 153.902344 L 182.976562 295.457031 C 182.976562 305.855469 174.445312 314.394531 164.027344 314.394531 C 153.601562 314.394531 145.070312 305.855469 145.070312 295.457031 L 145.070312 187.582031 C 145.070312 177.164062 136.535156 168.644531 126.117188 168.644531 C 115.691406 168.644531 107.15625 177.164062 107.15625 187.582031 L 107.15625 237.570312 C 107.15625 244.355469 101.609375 249.886719 94.824219 249.886719 C 88.039062 249.886719 82.488281 244.355469 82.488281 237.570312 L 82.488281 198.945312 C 82.488281 195.308594 79.503906 192.335938 75.867188 192.335938 C 72.226562 192.335938 69.246094 195.308594 69.246094 198.945312 L 69.246094 266.859375 C 69.246094 272.058594 64.984375 276.328125 59.769531 276.328125 C 54.558594 276.328125 50.289062 272.058594 50.289062 266.859375 C 50.289062 217.273438 50.289062 167.703125 50.289062 118.128906"/></g><g fill="#84521A"><g><g><path d="M 10.960938 0.253906 L 12.535156 0.378906 L 14.742188 0.21875 L 16.601562 -0.15625 L 17.167969 -0.472656 L 17.828125 -0.691406 L 18.363281 -0.945312 L 19.90625 -2.046875 L 20.789062 -2.929688 L 21.515625 -3.875 L 22.175781 -5.007812 L 22.996094 -7.402344 L 22.804688 -7.96875 L 22.175781 -8.378906 L 20.410156 -8.253906 L 19.78125 -8.347656 L 19.152344 -8.316406 L 18.523438 -8.347656 L 17.796875 -7.96875 L 17.292969 -7.464844 L 16.976562 -6.867188 L 16.253906 -6.046875 L 15.75 -5.605469 L 15.277344 -5.417969 L 14.175781 -4.820312 L 12.503906 -4.726562 L 11.59375 -4.820312 L 10.457031 -5.230469 L 9.355469 -5.796875 L 8.441406 -6.613281 L 7.75 -7.71875 L 7.527344 -8.347656 L 7.308594 -8.789062 L 7.152344 -9.355469 L 7.054688 -10.046875 L 7.054688 -11.96875 L 7.277344 -13.230469 L 7.75 -14.363281 L 8.0625 -14.960938 L 8.820312 -15.84375 L 9.574219 -16.441406 L 10.425781 -16.914062 L 12.535156 -17.199219 L 13.890625 -17.136719 L 14.867188 -16.851562 L 15.433594 -16.632812 L 15.875 -16.285156 L 16.789062 -15.371094 L 17.136719 -14.898438 L 17.734375 -14.300781 L 18.460938 -13.953125 L 19.027344 -14.015625 L 19.6875 -13.984375 L 20.316406 -14.015625 L 21.199219 -13.921875 L 22.144531 -14.015625 L 22.679688 -14.269531 L 22.902344 -14.898438 L 22.710938 -15.59375 L 22.492188 -16.160156 L 22.300781 -16.820312 L 21.957031 -17.324219 L 21.671875 -17.828125 L 21.230469 -18.363281 L 20.882812 -18.964844 L 20.003906 -19.875 L 17.859375 -21.230469 L 14.835938 -22.238281 L 14.238281 -22.269531 L 13.609375 -22.363281 L 11.65625 -22.398438 L 8.597656 -21.796875 L 6.269531 -20.695312 L 5.355469 -20.003906 L 4 -18.773438 L 3.148438 -17.703125 L 2.550781 -16.789062 L 1.765625 -15.027344 L 1.449219 -13.734375 L 1.132812 -11.023438 L 1.324219 -8.726562 L 1.765625 -6.929688 L 3.117188 -4.191406 L 4.410156 -2.804688 L 5.828125 -1.574219 L 7.183594 -0.851562 L 8.597656 -0.253906 L 9.167969 -0.125 L 9.796875 0.09375 L 10.363281 0.21875 Z M 10.960938 0.253906" transform="translate(74.064 100.64)"/></g></g></g><g fill="#84521A"><g><g><path d="M 2.300781 -0.882812 L 2.675781 -0.285156 L 3.277344 0.0625 L 3.90625 0.03125 L 5.164062 0.09375 L 5.828125 0.03125 L 7.152344 0.0625 L 7.8125 -0.316406 L 8.0625 -0.914062 L 8.128906 -1.511719 L 8.0625 -2.203125 L 8.0625 -7.78125 L 8.347656 -8.441406 L 9.007812 -8.851562 L 12.726562 -8.882812 L 13.386719 -8.789062 L 13.953125 -8.789062 L 14.554688 -8.441406 L 14.867188 -7.84375 L 14.898438 -0.882812 L 15.246094 -0.378906 L 16.160156 0.03125 L 17.796875 0.03125 L 18.425781 -0.03125 L 19.71875 0.0625 L 20.316406 -0.347656 L 20.695312 -0.882812 L 20.632812 -3.75 L 20.726562 -4.757812 L 20.632812 -5.261719 L 20.664062 -21.074219 L 20.378906 -21.734375 L 19.75 -21.988281 L 16.128906 -22.019531 L 15.214844 -21.796875 L 14.898438 -21.042969 L 14.867188 -19.84375 L 14.929688 -19.308594 L 14.867188 -18.019531 L 14.960938 -17.417969 L 14.929688 -14.960938 L 14.585938 -14.332031 L 13.953125 -13.984375 L 13.355469 -14.082031 L 12.128906 -13.953125 L 11.464844 -14.015625 L 10.898438 -13.953125 L 9.039062 -13.984375 L 8.441406 -14.269531 L 8.128906 -14.867188 L 8.09375 -15.5625 L 8.09375 -16.222656 L 8.0625 -16.789062 L 8.09375 -19.246094 L 8.160156 -19.941406 L 8.09375 -21.105469 L 7.8125 -21.703125 L 7.152344 -22.050781 L 6.457031 -21.988281 L 3.339844 -22.050781 L 2.644531 -21.734375 L 2.332031 -21.105469 L 2.269531 -20.410156 L 2.332031 -17.953125 L 2.269531 -17.324219 L 2.394531 -16.035156 L 2.332031 -14.835938 L 2.363281 -14.082031 L 2.300781 -13.449219 L 2.300781 -4.03125 L 2.394531 -3.464844 Z M 2.300781 -0.882812" transform="translate(101.815 100.64)"/></g></g></g><g fill="#84521A"><g><g><path d="M 12.632812 0.410156 L 15.433594 0.125 L 16.632812 -0.253906 L 19.433594 -1.511719 L 21.640625 -3.621094 L 22.050781 -4.191406 L 23.277344 -6.363281 L 23.5 -6.960938 L 23.59375 -7.589844 L 23.78125 -8.09375 L 23.910156 -8.789062 L 24.066406 -10.992188 L 23.910156 -13.167969 L 23.65625 -14.332031 L 23.40625 -14.992188 L 23.246094 -15.71875 L 22.679688 -16.757812 L 22.460938 -17.324219 L 22.050781 -17.859375 L 21.671875 -18.238281 L 21.261719 -18.804688 L 19.90625 -20.035156 L 18.300781 -21.042969 L 14.175781 -22.332031 L 12.695312 -22.363281 L 10.488281 -22.238281 L 9.859375 -22.113281 L 9.230469 -21.925781 L 8.664062 -21.671875 L 7.464844 -21.355469 L 5.859375 -20.347656 L 5.417969 -19.972656 L 4.410156 -19.277344 L 3.558594 -18.332031 L 2.488281 -16.757812 L 2.203125 -16.222656 L 1.605469 -14.488281 L 1.355469 -13.136719 L 1.226562 -9.480469 L 1.574219 -7.496094 L 2.046875 -6.425781 L 2.238281 -5.765625 L 2.550781 -5.199219 L 4.03125 -3.179688 L 4.914062 -2.332031 L 5.324219 -1.859375 L 7.464844 -0.722656 L 8.0625 -0.472656 L 10.742188 0.316406 Z M 11.75 -5.132812 L 11.121094 -5.355469 L 10.550781 -5.417969 L 9.480469 -5.984375 L 8.503906 -6.835938 L 8.191406 -7.277344 L 7.78125 -7.71875 L 7.183594 -9.480469 L 7.023438 -11.054688 L 7.054688 -12 L 7.277344 -13.167969 L 7.464844 -13.734375 L 7.84375 -14.175781 L 8.128906 -14.710938 L 8.535156 -15.214844 L 9.007812 -15.625 L 9.921875 -16.253906 L 10.488281 -16.539062 L 11.152344 -16.695312 L 12.601562 -16.820312 L 14.113281 -16.726562 L 15.78125 -16.003906 L 16.757812 -15.277344 L 17.484375 -14.207031 L 17.734375 -13.640625 L 17.921875 -13.007812 L 18.144531 -12.441406 L 18.269531 -11.089844 L 18.082031 -9.511719 L 17.796875 -8.222656 L 17.449219 -7.75 L 17.167969 -7.277344 L 16.789062 -6.710938 L 15.8125 -5.953125 L 15.246094 -5.703125 L 14.742188 -5.417969 L 14.175781 -5.355469 L 13.578125 -5.199219 Z M 11.75 -5.132812" transform="translate(128.59 100.64)"/></g></g></g><g fill="#84521A"><g><g><path d="M 10.960938 0.253906 L 12.535156 0.378906 L 14.742188 0.21875 L 16.601562 -0.15625 L 17.167969 -0.472656 L 17.828125 -0.691406 L 18.363281 -0.945312 L 19.90625 -2.046875 L 20.789062 -2.929688 L 21.515625 -3.875 L 22.175781 -5.007812 L 22.996094 -7.402344 L 22.804688 -7.96875 L 22.175781 -8.378906 L 20.410156 -8.253906 L 19.78125 -8.347656 L 19.152344 -8.316406 L 18.523438 -8.347656 L 17.796875 -7.96875 L 17.292969 -7.464844 L 16.976562 -6.867188 L 16.253906 -6.046875 L 15.75 -5.605469 L 15.277344 -5.417969 L 14.175781 -4.820312 L 12.503906 -4.726562 L 11.59375 -4.820312 L 10.457031 -5.230469 L 9.355469 -5.796875 L 8.441406 -6.613281 L 7.75 -7.71875 L 7.527344 -8.347656 L 7.308594 -8.789062 L 7.152344 -9.355469 L 7.054688 -10.046875 L 7.054688 -11.96875 L 7.277344 -13.230469 L 7.75 -14.363281 L 8.0625 -14.960938 L 8.820312 -15.84375 L 9.574219 -16.441406 L 10.425781 -16.914062 L 12.535156 -17.199219 L 13.890625 -17.136719 L 14.867188 -16.851562 L 15.433594 -16.632812 L 15.875 -16.285156 L 16.789062 -15.371094 L 17.136719 -14.898438 L 17.734375 -14.300781 L 18.460938 -13.953125 L 19.027344 -14.015625 L 19.6875 -13.984375 L 20.316406 -14.015625 L 21.199219 -13.921875 L 22.144531 -14.015625 L 22.679688 -14.269531 L 22.902344 -14.898438 L 22.710938 -15.59375 L 22.492188 -16.160156 L 22.300781 -16.820312 L 21.957031 -17.324219 L 21.671875 -17.828125 L 21.230469 -18.363281 L 20.882812 -18.964844 L 20.003906 -19.875 L 17.859375 -21.230469 L 14.835938 -22.238281 L 14.238281 -22.269531 L 13.609375 -22.363281 L 11.65625 -22.398438 L 8.597656 -21.796875 L 6.269531 -20.695312 L 5.355469 -20.003906 L 4 -18.773438 L 3.148438 -17.703125 L 2.550781 -16.789062 L 1.765625 -15.027344 L 1.449219 -13.734375 L 1.132812 -11.023438 L 1.324219 -8.726562 L 1.765625 -6.929688 L 3.117188 -4.191406 L 4.410156 -2.804688 L 5.828125 -1.574219 L 7.183594 -0.851562 L 8.597656 -0.253906 L 9.167969 -0.125 L 9.796875 0.09375 L 10.363281 0.21875 Z M 10.960938 0.253906" transform="translate(157.57 100.64)"/></g></g></g><g fill="#84521A"><g><g><path d="M 12.632812 0.410156 L 15.433594 0.125 L 16.632812 -0.253906 L 19.433594 -1.511719 L 21.640625 -3.621094 L 22.050781 -4.191406 L 23.277344 -6.363281 L 23.5 -6.960938 L 23.59375 -7.589844 L 23.78125 -8.09375 L 23.910156 -8.789062 L 24.066406 -10.992188 L 23.910156 -13.167969 L 23.65625 -14.332031 L 23.40625 -14.992188 L 23.246094 -15.71875 L 22.679688 -16.757812 L 22.460938 -17.324219 L 22.050781 -17.859375 L 21.671875 -18.238281 L 21.261719 -18.804688 L 19.90625 -20.035156 L 18.300781 -21.042969 L 14.175781 -22.332031 L 12.695312 -22.363281 L 10.488281 -22.238281 L 9.859375 -22.113281 L 9.230469 -21.925781 L 8.664062 -21.671875 L 7.464844 -21.355469 L 5.859375 -20.347656 L 5.417969 -19.972656 L 4.410156 -19.277344 L 3.558594 -18.332031 L 2.488281 -16.757812 L 2.203125 -16.222656 L 1.605469 -14.488281 L 1.355469 -13.136719 L 1.226562 -9.480469 L 1.574219 -7.496094 L 2.046875 -6.425781 L 2.238281 -5.765625 L 2.550781 -5.199219 L 4.03125 -3.179688 L 4.914062 -2.332031 L 5.324219 -1.859375 L 7.464844 -0.722656 L 8.0625 -0.472656 L 10.742188 0.316406 Z M 11.75 -5.132812 L 11.121094 -5.355469 L 10.550781 -5.417969 L 9.480469 -5.984375 L 8.503906 -6.835938 L 8.191406 -7.277344 L 7.78125 -7.71875 L 7.183594 -9.480469 L 7.023438 -11.054688 L 7.054688 -12 L 7.277344 -13.167969 L 7.464844 -13.734375 L 7.84375 -14.175781 L 8.128906 -14.710938 L 8.535156 -15.214844 L 9.007812 -15.625 L 9.921875 -16.253906 L 10.488281 -16.539062 L 11.152344 -16.695312 L 12.601562 -16.820312 L 14.113281 -16.726562 L 15.78125 -16.003906 L 16.757812 -15.277344 L 17.484375 -14.207031 L 17.734375 -13.640625 L 17.921875 -13.007812 L 18.144531 -12.441406 L 18.269531 -11.089844 L 18.082031 -9.511719 L 17.796875 -8.222656 L 17.449219 -7.75 L 17.167969 -7.277344 L 16.789062 -6.710938 L 15.8125 -5.953125 L 15.246094 -5.703125 L 14.742188 -5.417969 L 14.175781 -5.355469 L 13.578125 -5.199219 Z M 11.75 -5.132812" transform="translate(185.322 100.64)"/></g></g></g><g fill="#84521A"><g><g><path d="M 2.394531 -1.132812 L 2.613281 -0.316406 L 3.214844 0 L 3.84375 0.0625 L 5.164062 -0.03125 L 6.394531 0.03125 L 7.589844 -0.03125 L 8.191406 0.0625 L 8.882812 0 L 15.121094 0.03125 L 15.71875 -0.285156 L 16.066406 -1.261719 L 16.035156 -3.8125 L 15.75 -4.757812 L 15.183594 -5.132812 L 14.523438 -5.070312 L 13.921875 -4.945312 L 13.261719 -5.039062 L 11.96875 -5.007812 L 11.339844 -5.132812 L 10.773438 -5.039062 L 9.542969 -5.101562 L 8.882812 -5.039062 L 8.253906 -5.292969 L 8 -5.921875 L 8.03125 -16.601562 L 7.96875 -17.355469 L 8.03125 -18.617188 L 7.9375 -20.410156 L 7.96875 -21.011719 L 7.65625 -21.703125 L 7.023438 -22.082031 L 5.796875 -22.082031 L 5.164062 -21.957031 L 3.90625 -22.082031 L 3.308594 -21.988281 L 2.644531 -21.734375 L 2.363281 -21.042969 L 2.363281 -16.632812 L 2.300781 -16.035156 L 2.363281 -15.402344 L 2.269531 -14.238281 L 2.300781 -13.546875 L 2.363281 -12.945312 Z M 2.394531 -1.132812" transform="translate(214.302 100.64)"/></g></g></g><g fill="#84521A"><g><g><path d="M 18.585938 0.0625 L 19.78125 -0.03125 L 20.378906 0.03125 L 21.355469 0 L 22.238281 -0.15625 L 22.332031 -0.914062 L 22.113281 -1.636719 L 21.640625 -2.804688 L 20.789062 -4.441406 L 20.347656 -5.605469 L 19.71875 -6.742188 L 18.523438 -9.609375 L 18.207031 -10.078125 L 17.890625 -10.679688 L 17.703125 -11.371094 L 17.417969 -11.84375 L 17.230469 -12.347656 L 16.570312 -13.511719 L 16.347656 -14.175781 L 14.269531 -18.554688 L 14.082031 -19.183594 L 13.734375 -19.75 L 13.546875 -20.316406 L 12.945312 -21.421875 L 12.410156 -21.988281 L 11.371094 -22.300781 L 10.363281 -21.957031 L 9.796875 -21.421875 L 9.511719 -20.882812 L 9.292969 -20.253906 L 9.007812 -19.8125 L 7.75 -16.914062 L 7.402344 -16.441406 L 7.246094 -15.8125 L 6.898438 -15.214844 L 6.710938 -14.648438 L 3.496094 -7.90625 L 3.308594 -7.214844 L 2.992188 -6.742188 L 2.773438 -6.109375 L 2.203125 -5.101562 L 1.734375 -3.84375 L 1.386719 -3.402344 L 1.226562 -2.835938 L 0.597656 -1.574219 L 0.410156 -0.945312 L 0.566406 -0.15625 L 1.195312 0.03125 L 2.425781 -0.03125 L 3.054688 0.03125 L 4.820312 -0.03125 L 5.542969 -0.253906 L 6.140625 -0.820312 L 6.710938 -1.859375 L 7.308594 -2.457031 L 7.96875 -2.804688 L 8.566406 -2.710938 L 9.890625 -2.835938 L 10.457031 -2.742188 L 13.546875 -2.773438 L 14.113281 -2.710938 L 14.804688 -2.804688 L 15.496094 -2.457031 L 16.097656 -1.953125 L 16.378906 -1.355469 L 16.570312 -0.789062 L 17.199219 -0.316406 L 17.921875 0 Z M 11.433594 -7.78125 L 10.804688 -7.90625 L 10.078125 -7.84375 L 9.574219 -8.0625 L 9.542969 -8.664062 L 11.023438 -12.066406 L 11.371094 -12.347656 L 11.8125 -12.097656 L 13.292969 -8.632812 L 13.167969 -8.0625 L 12.695312 -7.8125 Z M 11.433594 -7.78125" transform="translate(234.966 100.64)"/></g></g></g><g fill="#84521A"><g><g><path d="M 8.222656 0.0625 L 10.332031 0 L 11.246094 -0.316406 L 11.558594 -1.195312 L 11.65625 -2.835938 L 11.558594 -4.03125 L 11.625 -4.695312 L 11.59375 -5.953125 L 11.65625 -6.519531 L 11.558594 -7.214844 L 11.625 -12.285156 L 11.527344 -12.945312 L 11.625 -15.6875 L 11.875 -16.632812 L 12.472656 -17.011719 L 13.703125 -17.074219 L 14.867188 -16.914062 L 15.53125 -17.011719 L 16.097656 -16.976562 L 16.632812 -17.324219 L 17.011719 -18.019531 L 17.042969 -21.011719 L 16.695312 -21.640625 L 16.097656 -22.050781 L 14.144531 -22.050781 L 13.546875 -22.113281 L 12.882812 -22.019531 L 12.285156 -22.082031 L 9.734375 -21.957031 L 9.101562 -22.082031 L 8.503906 -22.113281 L 7.84375 -22.019531 L 7.152344 -22.082031 L 6.582031 -21.957031 L 4.726562 -22.050781 L 3.75 -21.957031 L 1.542969 -22.082031 L 0.945312 -21.765625 L 0.566406 -21.042969 L 0.597656 -20.410156 L 0.535156 -18.835938 L 0.597656 -17.859375 L 0.882812 -17.292969 L 1.449219 -16.976562 L 2.078125 -17.042969 L 5.070312 -16.976562 L 5.671875 -16.664062 L 6.015625 -16.035156 L 5.953125 -15.027344 L 6.015625 -14.144531 L 5.984375 -13.449219 L 6.015625 -12.820312 L 5.953125 -11.9375 L 6.046875 -7.246094 L 5.984375 -6.613281 L 5.953125 -4.0625 L 6.015625 -3.402344 L 5.984375 -1.574219 L 5.921875 -0.976562 L 6.332031 -0.285156 L 7.246094 0.03125 Z M 8.222656 0.0625" transform="translate(261.552 100.64)"/></g></g></g><g fill="#84521A"><g><g><path d="M 10.960938 0.09375 L 15.464844 0.03125 L 16.128906 -0.253906 L 16.472656 -0.914062 L 16.472656 -4.09375 L 16.128906 -4.726562 L 15.464844 -5.007812 L 14.742188 -4.945312 L 14.144531 -5.039062 L 12.535156 -5.070312 L 11.496094 -4.945312 L 10.867188 -5.007812 L 10.175781 -4.976562 L 9.574219 -5.070312 L 8.882812 -5.007812 L 8.222656 -5.324219 L 7.96875 -5.890625 L 7.96875 -7.875 L 8.253906 -8.535156 L 8.820312 -8.882812 L 9.765625 -8.914062 L 10.773438 -8.820312 L 11.96875 -8.882812 L 13.261719 -8.851562 L 13.890625 -8.914062 L 14.617188 -8.882812 L 15.246094 -9.136719 L 15.464844 -9.765625 L 15.5625 -12.601562 L 15.246094 -13.480469 L 14.523438 -13.890625 L 12.664062 -13.890625 L 12 -13.828125 L 10.679688 -13.921875 L 8.851562 -13.859375 L 8.191406 -14.144531 L 7.9375 -15.121094 L 7.9375 -16.097656 L 8.222656 -16.695312 L 8.914062 -16.945312 L 9.511719 -16.914062 L 10.113281 -17.042969 L 14.617188 -16.976562 L 15.214844 -17.011719 L 15.875 -17.386719 L 16.191406 -17.953125 L 16.160156 -18.585938 L 16.191406 -19.214844 L 16.128906 -21.105469 L 15.84375 -21.703125 L 15.214844 -21.957031 L 14.554688 -21.957031 L 13.984375 -22.082031 L 11.433594 -22.050781 L 10.742188 -21.988281 L 10.113281 -22.050781 L 9.574219 -22.019531 L 8.945312 -22.082031 L 6.363281 -22.019531 L 5.734375 -22.113281 L 5.132812 -21.988281 L 4.566406 -22.050781 L 3.9375 -21.988281 L 3.308594 -22.019531 L 2.644531 -21.765625 L 2.300781 -21.105469 L 2.363281 -19.90625 L 2.269531 -18.617188 L 2.363281 -17.921875 L 2.300781 -14.835938 L 2.394531 -14.175781 L 2.332031 -13.578125 L 2.300781 -10.992188 L 2.394531 -10.425781 L 2.363281 -5.324219 L 2.300781 -4.726562 L 2.394531 -4.09375 L 2.300781 -1.921875 L 2.363281 -1.226562 L 2.613281 -0.378906 L 3.558594 0.03125 L 5.828125 0.0625 L 6.519531 0 L 7.085938 0.03125 L 8.378906 -0.0625 L 8.976562 0.0625 L 9.703125 0.09375 L 10.332031 0.03125 Z M 10.960938 0.09375" transform="translate(282.877 100.64)"/></g></g></g></svg>