<svg xmlns="http://www.w3.org/2000/svg" width="375" viewBox="0 0 375 375" height="375" version="1.0"><defs><clipPath id="a"><path d="M 50.289062 118.011719 L 324.789062 118.011719 L 324.789062 314.511719 L 50.289062 314.511719 Z M 50.289062 118.011719"/></clipPath></defs><g clip-path="url(#a)"><path fill="#FFF5D9" d="M 50.289062 118.128906 C 141.789062 118.128906 233.296875 118.128906 324.789062 118.128906 C 324.789062 152.644531 324.789062 187.160156 324.789062 221.675781 C 324.789062 225.308594 321.820312 228.261719 318.183594 228.261719 C 314.5625 228.261719 311.59375 225.308594 311.59375 221.675781 L 311.59375 174.390625 C 311.59375 171.863281 309.515625 169.789062 306.984375 169.789062 C 304.441406 169.789062 302.378906 171.863281 302.378906 174.390625 L 302.378906 201.285156 C 302.378906 206.007812 298.503906 209.867188 293.789062 209.867188 C 289.0625 209.867188 285.203125 206.007812 285.203125 201.285156 L 285.203125 166.484375 C 285.203125 159.234375 279.25 153.296875 272.003906 153.296875 C 264.75 153.296875 258.796875 159.234375 258.796875 166.484375 L 258.796875 230.960938 C 258.796875 241.375 250.273438 249.886719 239.847656 249.886719 C 229.421875 249.886719 220.886719 241.375 220.886719 230.960938 L 220.886719 153.902344 C 220.886719 143.488281 212.363281 134.96875 201.9375 134.96875 L 201.929688 134.96875 C 191.511719 134.96875 182.976562 143.488281 182.976562 153.902344 L 182.976562 295.457031 C 182.976562 305.855469 174.445312 314.394531 164.027344 314.394531 C 153.601562 314.394531 145.070312 305.855469 145.070312 295.457031 L 145.070312 187.582031 C 145.070312 177.164062 136.535156 168.644531 126.117188 168.644531 C 115.691406 168.644531 107.15625 177.164062 107.15625 187.582031 L 107.15625 237.570312 C 107.15625 244.355469 101.609375 249.886719 94.824219 249.886719 C 88.039062 249.886719 82.488281 244.355469 82.488281 237.570312 L 82.488281 198.945312 C 82.488281 195.308594 79.503906 192.335938 75.867188 192.335938 C 72.226562 192.335938 69.246094 195.308594 69.246094 198.945312 L 69.246094 266.859375 C 69.246094 272.058594 64.984375 276.328125 59.769531 276.328125 C 54.558594 276.328125 50.289062 272.058594 50.289062 266.859375 C 50.289062 217.273438 50.289062 167.703125 50.289062 118.128906"/></g><path fill="#FF36B5" d="M 70.808594 135.640625 C 68.324219 135.640625 66.308594 137.65625 66.308594 140.140625 C 66.308594 142.625 68.324219 144.640625 70.808594 144.640625 C 73.292969 144.640625 75.308594 142.625 75.308594 140.140625 C 75.308594 137.65625 73.292969 135.640625 70.808594 135.640625"/><g fill="#FF36B5"><g><g><path d="M 10.960938 0.253906 L 12.535156 0.378906 L 14.742188 0.21875 L 16.601562 -0.15625 L 17.167969 -0.472656 L 17.828125 -0.691406 L 18.363281 -0.945312 L 19.90625 -2.046875 L 20.789062 -2.929688 L 21.515625 -3.875 L 22.175781 -5.007812 L 22.996094 -7.402344 L 22.804688 -7.96875 L 22.175781 -8.378906 L 20.410156 -8.253906 L 19.78125 -8.347656 L 19.152344 -8.316406 L 18.523438 -8.347656 L 17.796875 -7.96875 L 17.292969 -7.464844 L 16.976562 -6.867188 L 16.253906 -6.046875 L 15.75 -5.605469 L 15.277344 -5.417969 L 14.175781 -4.820312 L 12.503906 -4.726562 L 11.59375 -4.820312 L 10.457031 -5.230469 L 9.355469 -5.796875 L 8.441406 -6.613281 L 7.75 -7.71875 L 7.527344 -8.347656 L 7.308594 -8.789062 L 7.152344 -9.355469 L 7.054688 -10.046875 L 7.054688 -11.96875 L 7.277344 -13.230469 L 7.75 -14.363281 L 8.0625 -14.960938 L 8.820312 -15.84375 L 9.574219 -16.441406 L 10.425781 -16.914062 L 12.535156 -17.199219 L 13.890625 -17.136719 L 14.867188 -16.851562 L 15.433594 -16.632812 L 15.875 -16.285156 L 16.789062 -15.371094 L 17.136719 -14.898438 L 17.734375 -14.300781 L 18.460938 -13.953125 L 19.027344 -14.015625 L 19.6875 -13.984375 L 20.316406 -14.015625 L 21.199219 -13.921875 L 22.144531 -14.015625 L 22.679688 -14.269531 L 22.902344 -14.898438 L 22.710938 -15.59375 L 22.492188 -16.160156 L 22.300781 -16.820312 L 21.957031 -17.324219 L 21.671875 -17.828125 L 21.230469 -18.363281 L 20.882812 -18.964844 L 20.003906 -19.875 L 17.859375 -21.230469 L 14.835938 -22.238281 L 14.238281 -22.269531 L 13.609375 -22.363281 L 11.65625 -22.398438 L 8.597656 -21.796875 L 6.269531 -20.695312 L 5.355469 -20.003906 L 4 -18.773438 L 3.148438 -17.703125 L 2.550781 -16.789062 L 1.765625 -15.027344 L 1.449219 -13.734375 L 1.132812 -11.023438 L 1.324219 -8.726562 L 1.765625 -6.929688 L 3.117188 -4.191406 L 4.410156 -2.804688 L 5.828125 -1.574219 L 7.183594 -0.851562 L 8.597656 -0.253906 L 9.167969 -0.125 L 9.796875 0.09375 L 10.363281 0.21875 Z M 10.960938 0.253906" transform="translate(95.597 100.64)"/></g></g></g><g fill="#FF36B5"><g><g><path d="M 12.632812 0.410156 L 15.433594 0.125 L 16.632812 -0.253906 L 19.433594 -1.511719 L 21.640625 -3.621094 L 22.050781 -4.191406 L 23.277344 -6.363281 L 23.5 -6.960938 L 23.59375 -7.589844 L 23.78125 -8.09375 L 23.910156 -8.789062 L 24.066406 -10.992188 L 23.910156 -13.167969 L 23.65625 -14.332031 L 23.40625 -14.992188 L 23.246094 -15.71875 L 22.679688 -16.757812 L 22.460938 -17.324219 L 22.050781 -17.859375 L 21.671875 -18.238281 L 21.261719 -18.804688 L 19.90625 -20.035156 L 18.300781 -21.042969 L 14.175781 -22.332031 L 12.695312 -22.363281 L 10.488281 -22.238281 L 9.859375 -22.113281 L 9.230469 -21.925781 L 8.664062 -21.671875 L 7.464844 -21.355469 L 5.859375 -20.347656 L 5.417969 -19.972656 L 4.410156 -19.277344 L 3.558594 -18.332031 L 2.488281 -16.757812 L 2.203125 -16.222656 L 1.605469 -14.488281 L 1.355469 -13.136719 L 1.226562 -9.480469 L 1.574219 -7.496094 L 2.046875 -6.425781 L 2.238281 -5.765625 L 2.550781 -5.199219 L 4.03125 -3.179688 L 4.914062 -2.332031 L 5.324219 -1.859375 L 7.464844 -0.722656 L 8.0625 -0.472656 L 10.742188 0.316406 Z M 11.75 -5.132812 L 11.121094 -5.355469 L 10.550781 -5.417969 L 9.480469 -5.984375 L 8.503906 -6.835938 L 8.191406 -7.277344 L 7.78125 -7.71875 L 7.183594 -9.480469 L 7.023438 -11.054688 L 7.054688 -12 L 7.277344 -13.167969 L 7.464844 -13.734375 L 7.84375 -14.175781 L 8.128906 -14.710938 L 8.535156 -15.214844 L 9.007812 -15.625 L 9.921875 -16.253906 L 10.488281 -16.539062 L 11.152344 -16.695312 L 12.601562 -16.820312 L 14.113281 -16.726562 L 15.78125 -16.003906 L 16.757812 -15.277344 L 17.484375 -14.207031 L 17.734375 -13.640625 L 17.921875 -13.007812 L 18.144531 -12.441406 L 18.269531 -11.089844 L 18.082031 -9.511719 L 17.796875 -8.222656 L 17.449219 -7.75 L 17.167969 -7.277344 L 16.789062 -6.710938 L 15.8125 -5.953125 L 15.246094 -5.703125 L 14.742188 -5.417969 L 14.175781 -5.355469 L 13.578125 -5.199219 Z M 11.75 -5.132812" transform="translate(123.348 100.64)"/></g></g></g><g fill="#FF36B5"><g><g><path d="M 18.585938 -0.535156 L 19.433594 -0.03125 L 20.316406 0.0625 L 21.011719 -0.15625 L 21.324219 -0.789062 L 21.386719 -12.285156 L 21.292969 -12.820312 L 21.292969 -15.9375 L 21.386719 -16.695312 L 21.292969 -21.074219 L 20.980469 -21.703125 L 20.347656 -22.050781 L 16.441406 -22.019531 L 15.84375 -21.671875 L 15.496094 -21.011719 L 15.464844 -20.347656 L 15.5625 -19.84375 L 15.464844 -18.523438 L 15.53125 -17.828125 L 15.464844 -12.191406 L 15.277344 -11.65625 L 14.804688 -11.875 L 12.570312 -14.113281 L 11.6875 -14.804688 L 5.480469 -21.074219 L 5.007812 -21.453125 L 4.285156 -21.828125 L 3.339844 -22.050781 L 2.613281 -21.734375 L 2.332031 -21.136719 L 2.332031 -11.59375 L 2.300781 -11.054688 L 2.363281 -9.765625 L 2.269531 -9.230469 L 2.332031 -4.0625 L 2.269531 -3.464844 L 2.332031 -0.820312 L 2.613281 -0.21875 L 3.277344 0 L 4.566406 0.0625 L 5.261719 0 L 6.488281 0.09375 L 7.152344 0.0625 L 7.78125 -0.253906 L 8.09375 -1.226562 L 8.128906 -9.199219 L 8.191406 -9.828125 L 8.410156 -10.363281 L 8.820312 -10.207031 L 9.230469 -9.671875 L 11.464844 -7.527344 L 11.875 -7.054688 L 12.410156 -6.710938 L 17.292969 -1.859375 L 18.113281 -0.945312 Z M 18.585938 -0.535156" transform="translate(152.328 100.64)"/></g></g></g><g fill="#FF36B5"><g><g><path d="M 2.300781 -0.914062 L 2.613281 -0.316406 L 3.308594 0 L 5.511719 0.09375 L 7.085938 -0.03125 L 7.75 -0.316406 L 8.128906 -1.261719 L 8.03125 -2.269531 L 8.09375 -2.867188 L 8.0625 -6.207031 L 8.347656 -6.835938 L 8.976562 -7.117188 L 9.671875 -7.183594 L 10.332031 -7.054688 L 10.960938 -7.183594 L 11.59375 -7.117188 L 12.253906 -7.152344 L 12.882812 -7.085938 L 14.175781 -7.152344 L 14.835938 -7.464844 L 15.152344 -8.441406 L 15.121094 -11.246094 L 14.804688 -11.875 L 14.144531 -12.128906 L 12.601562 -12.191406 L 10.929688 -12.066406 L 9.703125 -12.222656 L 9.007812 -12.191406 L 8.378906 -12.441406 L 8.03125 -13.105469 L 8.03125 -13.984375 L 8.09375 -14.585938 L 8.03125 -16.003906 L 8.347656 -16.632812 L 8.945312 -17.042969 L 9.953125 -17.042969 L 10.867188 -16.976562 L 11.433594 -17.011719 L 12.066406 -16.976562 L 12.726562 -17.042969 L 15.121094 -16.976562 L 15.75 -17.292969 L 16.066406 -17.921875 L 16.003906 -19.53125 L 16.066406 -20.726562 L 15.6875 -21.671875 L 15.152344 -22.019531 L 13.261719 -21.988281 L 12.570312 -22.082031 L 11.339844 -22.019531 L 10.773438 -22.082031 L 9.828125 -22.019531 L 9.199219 -22.050781 L 8.222656 -21.988281 L 6.992188 -21.988281 L 6.425781 -22.050781 L 4.820312 -22.050781 L 4.15625 -21.988281 L 3.277344 -22.019531 L 2.582031 -21.671875 L 2.394531 -21.105469 L 2.300781 -19.8125 L 2.394531 -18.867188 L 2.269531 -15.339844 L 2.332031 -14.804688 L 2.363281 -14.144531 L 2.300781 -13.578125 L 2.363281 -12.851562 L 2.300781 -12.285156 L 2.269531 -11.6875 L 2.332031 -11.089844 L 2.269531 -10.363281 Z M 2.300781 -0.914062" transform="translate(179.796 100.64)"/></g></g></g><g fill="#FF36B5"><g><g><path d="M 10.960938 0.09375 L 15.464844 0.03125 L 16.128906 -0.253906 L 16.472656 -0.914062 L 16.472656 -4.09375 L 16.128906 -4.726562 L 15.464844 -5.007812 L 14.742188 -4.945312 L 14.144531 -5.039062 L 12.535156 -5.070312 L 11.496094 -4.945312 L 10.867188 -5.007812 L 10.175781 -4.976562 L 9.574219 -5.070312 L 8.882812 -5.007812 L 8.222656 -5.324219 L 7.96875 -5.890625 L 7.96875 -7.875 L 8.253906 -8.535156 L 8.820312 -8.882812 L 9.765625 -8.914062 L 10.773438 -8.820312 L 11.96875 -8.882812 L 13.261719 -8.851562 L 13.890625 -8.914062 L 14.617188 -8.882812 L 15.246094 -9.136719 L 15.464844 -9.765625 L 15.5625 -12.601562 L 15.246094 -13.480469 L 14.523438 -13.890625 L 12.664062 -13.890625 L 12 -13.828125 L 10.679688 -13.921875 L 8.851562 -13.859375 L 8.191406 -14.144531 L 7.9375 -15.121094 L 7.9375 -16.097656 L 8.222656 -16.695312 L 8.914062 -16.945312 L 9.511719 -16.914062 L 10.113281 -17.042969 L 14.617188 -16.976562 L 15.214844 -17.011719 L 15.875 -17.386719 L 16.191406 -17.953125 L 16.160156 -18.585938 L 16.191406 -19.214844 L 16.128906 -21.105469 L 15.84375 -21.703125 L 15.214844 -21.957031 L 14.554688 -21.957031 L 13.984375 -22.082031 L 11.433594 -22.050781 L 10.742188 -21.988281 L 10.113281 -22.050781 L 9.574219 -22.019531 L 8.945312 -22.082031 L 6.363281 -22.019531 L 5.734375 -22.113281 L 5.132812 -21.988281 L 4.566406 -22.050781 L 3.9375 -21.988281 L 3.308594 -22.019531 L 2.644531 -21.765625 L 2.300781 -21.105469 L 2.363281 -19.90625 L 2.269531 -18.617188 L 2.363281 -17.921875 L 2.300781 -14.835938 L 2.394531 -14.175781 L 2.332031 -13.578125 L 2.300781 -10.992188 L 2.394531 -10.425781 L 2.363281 -5.324219 L 2.300781 -4.726562 L 2.394531 -4.09375 L 2.300781 -1.921875 L 2.363281 -1.226562 L 2.613281 -0.378906 L 3.558594 0.03125 L 5.828125 0.0625 L 6.519531 0 L 7.085938 0.03125 L 8.378906 -0.0625 L 8.976562 0.0625 L 9.703125 0.09375 L 10.332031 0.03125 Z M 10.960938 0.09375" transform="translate(200.68 100.64)"/></g></g></g><g fill="#FF36B5"><g><g><path d="M 8.222656 0.0625 L 10.332031 0 L 11.246094 -0.316406 L 11.558594 -1.195312 L 11.65625 -2.835938 L 11.558594 -4.03125 L 11.625 -4.695312 L 11.59375 -5.953125 L 11.65625 -6.519531 L 11.558594 -7.214844 L 11.625 -12.285156 L 11.527344 -12.945312 L 11.625 -15.6875 L 11.875 -16.632812 L 12.472656 -17.011719 L 13.703125 -17.074219 L 14.867188 -16.914062 L 15.53125 -17.011719 L 16.097656 -16.976562 L 16.632812 -17.324219 L 17.011719 -18.019531 L 17.042969 -21.011719 L 16.695312 -21.640625 L 16.097656 -22.050781 L 14.144531 -22.050781 L 13.546875 -22.113281 L 12.882812 -22.019531 L 12.285156 -22.082031 L 9.734375 -21.957031 L 9.101562 -22.082031 L 8.503906 -22.113281 L 7.84375 -22.019531 L 7.152344 -22.082031 L 6.582031 -21.957031 L 4.726562 -22.050781 L 3.75 -21.957031 L 1.542969 -22.082031 L 0.945312 -21.765625 L 0.566406 -21.042969 L 0.597656 -20.410156 L 0.535156 -18.835938 L 0.597656 -17.859375 L 0.882812 -17.292969 L 1.449219 -16.976562 L 2.078125 -17.042969 L 5.070312 -16.976562 L 5.671875 -16.664062 L 6.015625 -16.035156 L 5.953125 -15.027344 L 6.015625 -14.144531 L 5.984375 -13.449219 L 6.015625 -12.820312 L 5.953125 -11.9375 L 6.046875 -7.246094 L 5.984375 -6.613281 L 5.953125 -4.0625 L 6.015625 -3.402344 L 5.984375 -1.574219 L 5.921875 -0.976562 L 6.332031 -0.285156 L 7.246094 0.03125 Z M 8.222656 0.0625" transform="translate(222.447 100.64)"/></g></g></g><g fill="#FF36B5"><g><g><path d="M 8.222656 0.0625 L 10.332031 0 L 11.246094 -0.316406 L 11.558594 -1.195312 L 11.65625 -2.835938 L 11.558594 -4.03125 L 11.625 -4.695312 L 11.59375 -5.953125 L 11.65625 -6.519531 L 11.558594 -7.214844 L 11.625 -12.285156 L 11.527344 -12.945312 L 11.625 -15.6875 L 11.875 -16.632812 L 12.472656 -17.011719 L 13.703125 -17.074219 L 14.867188 -16.914062 L 15.53125 -17.011719 L 16.097656 -16.976562 L 16.632812 -17.324219 L 17.011719 -18.019531 L 17.042969 -21.011719 L 16.695312 -21.640625 L 16.097656 -22.050781 L 14.144531 -22.050781 L 13.546875 -22.113281 L 12.882812 -22.019531 L 12.285156 -22.082031 L 9.734375 -21.957031 L 9.101562 -22.082031 L 8.503906 -22.113281 L 7.84375 -22.019531 L 7.152344 -22.082031 L 6.582031 -21.957031 L 4.726562 -22.050781 L 3.75 -21.957031 L 1.542969 -22.082031 L 0.945312 -21.765625 L 0.566406 -21.042969 L 0.597656 -20.410156 L 0.535156 -18.835938 L 0.597656 -17.859375 L 0.882812 -17.292969 L 1.449219 -16.976562 L 2.078125 -17.042969 L 5.070312 -16.976562 L 5.671875 -16.664062 L 6.015625 -16.035156 L 5.953125 -15.027344 L 6.015625 -14.144531 L 5.984375 -13.449219 L 6.015625 -12.820312 L 5.953125 -11.9375 L 6.046875 -7.246094 L 5.984375 -6.613281 L 5.953125 -4.0625 L 6.015625 -3.402344 L 5.984375 -1.574219 L 5.921875 -0.976562 L 6.332031 -0.285156 L 7.246094 0.03125 Z M 8.222656 0.0625" transform="translate(243.773 100.64)"/></g></g></g><g fill="#FF36B5"><g><g><path d="M 10.550781 0.125 L 11.8125 0.0625 L 12.378906 -0.253906 L 12.695312 -0.851562 L 12.695312 -3.96875 L 12.316406 -4.566406 L 11.625 -4.914062 L 10.960938 -4.914062 L 10.207031 -5.164062 L 9.828125 -5.890625 L 9.921875 -6.488281 L 9.890625 -9.953125 L 9.953125 -10.648438 L 9.828125 -12.914062 L 9.953125 -16.097656 L 10.175781 -16.820312 L 10.867188 -17.105469 L 11.496094 -17.199219 L 12.160156 -17.449219 L 12.472656 -17.953125 L 12.503906 -21.074219 L 12.128906 -21.671875 L 11.558594 -22.019531 L 7.75 -22.019531 L 7.183594 -22.082031 L 6.550781 -21.957031 L 3.96875 -21.957031 L 3.371094 -22.050781 L 2.644531 -22.050781 L 2.015625 -21.734375 L 1.699219 -20.980469 L 1.796875 -18.648438 L 1.734375 -18.050781 L 2.078125 -17.417969 L 2.773438 -17.074219 L 3.402344 -17.074219 L 4 -16.695312 L 4.285156 -15.84375 L 4.378906 -6.175781 L 4.03125 -5.230469 L 1.953125 -4.597656 L 1.605469 -4.03125 L 1.511719 -1.132812 L 1.828125 -0.285156 L 2.457031 0 L 3.054688 0 L 3.652344 -0.0625 L 4.566406 0.0625 L 5.542969 0.03125 L 6.175781 -0.03125 L 7.433594 0.09375 L 8.378906 -0.03125 L 9.921875 -0.03125 Z M 10.550781 0.125" transform="translate(265.098 100.64)"/></g></g></g><path fill="#FF36B5" d="M 171.210938 276.007812 C 168.726562 276.007812 166.710938 278.019531 166.710938 280.507812 C 166.710938 282.992188 168.726562 285.007812 171.210938 285.007812 C 173.695312 285.007812 175.710938 282.992188 175.710938 280.507812 C 175.710938 278.019531 173.695312 276.007812 171.210938 276.007812"/><path fill="#FF36B5" d="M 161.847656 225.3125 C 159.363281 225.3125 157.347656 227.328125 157.347656 229.8125 C 157.347656 232.296875 159.363281 234.3125 161.847656 234.3125 C 164.332031 234.3125 166.347656 232.296875 166.347656 229.8125 C 166.347656 227.328125 164.332031 225.3125 161.847656 225.3125"/><path fill="#FF36B5" d="M 241.503906 182.816406 C 239.015625 182.816406 237.003906 184.832031 237.003906 187.316406 C 237.003906 189.804688 239.015625 191.816406 241.503906 191.816406 C 243.988281 191.816406 246.003906 189.804688 246.003906 187.316406 C 246.003906 184.832031 243.988281 182.816406 241.503906 182.816406"/><path fill="#FF36B5" d="M 301.175781 130.960938 C 298.6875 130.960938 296.675781 132.972656 296.675781 135.460938 C 296.675781 137.945312 298.6875 139.960938 301.175781 139.960938 C 303.660156 139.960938 305.675781 137.945312 305.675781 135.460938 C 305.675781 132.972656 303.660156 130.960938 301.175781 130.960938"/><path fill="#FF36B5" d="M 161.847656 121.597656 C 159.363281 121.597656 157.347656 123.609375 157.347656 126.097656 C 157.347656 128.582031 159.363281 130.597656 161.847656 130.597656 C 164.332031 130.597656 166.347656 128.582031 166.347656 126.097656 C 166.347656 123.609375 164.332031 121.597656 161.847656 121.597656"/><path fill="#FF36B5" d="M 98.238281 187.5 C 95.753906 187.5 93.738281 189.515625 93.738281 192 C 93.738281 194.484375 95.753906 196.5 98.238281 196.5 C 100.722656 196.5 102.738281 194.484375 102.738281 192 C 102.738281 189.515625 100.722656 187.5 98.238281 187.5"/><path fill="#9FFCFF" d="M 116.464844 145.003906 C 113.980469 145.003906 111.964844 147.019531 111.964844 149.503906 C 111.964844 151.988281 113.980469 154.003906 116.464844 154.003906 C 118.953125 154.003906 120.964844 151.988281 120.964844 149.503906 C 120.964844 147.019531 118.953125 145.003906 116.464844 145.003906"/><path fill="#9FFCFF" d="M 61.445312 247.058594 C 58.960938 247.058594 56.945312 249.074219 56.945312 251.558594 C 56.945312 254.042969 58.960938 256.058594 61.445312 256.058594 C 63.929688 256.058594 65.945312 254.042969 65.945312 251.558594 C 65.945312 249.074219 63.929688 247.058594 61.445312 247.058594"/><path fill="#9FFCFF" d="M 166.527344 187.5 C 164.042969 187.5 162.027344 189.515625 162.027344 192 C 162.027344 194.484375 164.042969 196.5 166.527344 196.5 C 169.015625 196.5 171.027344 194.484375 171.027344 192 C 171.027344 189.515625 169.015625 187.5 166.527344 187.5"/><path fill="#9FFCFF" d="M 236.820312 225.3125 C 234.335938 225.3125 232.320312 227.328125 232.320312 229.8125 C 232.320312 232.296875 234.335938 234.3125 236.820312 234.3125 C 239.304688 234.3125 241.320312 232.296875 241.320312 229.8125 C 241.320312 227.328125 239.304688 225.3125 236.820312 225.3125"/><path fill="#9FFCFF" d="M 296.492188 164.425781 C 294.007812 164.425781 291.992188 166.441406 291.992188 168.925781 C 291.992188 171.410156 294.007812 173.425781 296.492188 173.425781 C 298.976562 173.425781 300.992188 171.410156 300.992188 168.925781 C 300.992188 166.441406 298.976562 164.425781 296.492188 164.425781"/><path fill="#9FFCFF" d="M 253.800781 135.640625 C 251.316406 135.640625 249.300781 137.65625 249.300781 140.140625 C 249.300781 142.625 251.316406 144.640625 253.800781 144.640625 C 256.285156 144.640625 258.300781 142.625 258.300781 140.140625 C 258.300781 137.65625 256.285156 135.640625 253.800781 135.640625"/></svg>