<svg xmlns="http://www.w3.org/2000/svg" width="375" viewBox="0 0 375 375" height="375" version="1.0"><defs><clipPath id="a"><path d="M 50.289062 118.011719 L 324.789062 118.011719 L 324.789062 314.511719 L 50.289062 314.511719 Z M 50.289062 118.011719"/></clipPath></defs><g clip-path="url(#a)"><path fill="#FFEFBF" d="M 50.289062 118.128906 C 141.789062 118.128906 233.296875 118.128906 324.789062 118.128906 C 324.789062 152.644531 324.789062 187.160156 324.789062 221.675781 C 324.789062 225.308594 321.820312 228.261719 318.183594 228.261719 C 314.5625 228.261719 311.59375 225.308594 311.59375 221.675781 L 311.59375 174.390625 C 311.59375 171.863281 309.515625 169.789062 306.984375 169.789062 C 304.441406 169.789062 302.378906 171.863281 302.378906 174.390625 L 302.378906 201.285156 C 302.378906 206.007812 298.503906 209.867188 293.789062 209.867188 C 289.0625 209.867188 285.203125 206.007812 285.203125 201.285156 L 285.203125 166.484375 C 285.203125 159.234375 279.25 153.296875 272.003906 153.296875 C 264.75 153.296875 258.796875 159.234375 258.796875 166.484375 L 258.796875 230.960938 C 258.796875 241.375 250.273438 249.886719 239.847656 249.886719 C 229.421875 249.886719 220.886719 241.375 220.886719 230.960938 L 220.886719 153.902344 C 220.886719 143.488281 212.363281 134.96875 201.9375 134.96875 L 201.929688 134.96875 C 191.511719 134.96875 182.976562 143.488281 182.976562 153.902344 L 182.976562 295.457031 C 182.976562 305.855469 174.445312 314.394531 164.027344 314.394531 C 153.601562 314.394531 145.070312 305.855469 145.070312 295.457031 L 145.070312 187.582031 C 145.070312 177.164062 136.535156 168.644531 126.117188 168.644531 C 115.691406 168.644531 107.15625 177.164062 107.15625 187.582031 L 107.15625 237.570312 C 107.15625 244.355469 101.609375 249.886719 94.824219 249.886719 C 88.039062 249.886719 82.488281 244.355469 82.488281 237.570312 L 82.488281 198.945312 C 82.488281 195.308594 79.503906 192.335938 75.867188 192.335938 C 72.226562 192.335938 69.246094 195.308594 69.246094 198.945312 L 69.246094 266.859375 C 69.246094 272.058594 64.984375 276.328125 59.769531 276.328125 C 54.558594 276.328125 50.289062 272.058594 50.289062 266.859375 C 50.289062 217.273438 50.289062 167.703125 50.289062 118.128906"/></g><g fill="#FFEFBF"><g><g><path d="M 10.835938 0.285156 L 11.59375 0.03125 L 12.285156 -0.882812 L 12.695312 -1.765625 L 12.882812 -2.425781 L 13.480469 -3.433594 L 13.671875 -4.0625 L 13.984375 -4.726562 L 14.175781 -5.261719 L 14.523438 -5.828125 L 15.75 -8.695312 L 15.96875 -9.386719 L 16.539062 -10.394531 L 19.277344 -16.882812 L 19.59375 -17.449219 L 20.128906 -18.585938 L 20.285156 -19.183594 L 20.882812 -20.285156 L 21.105469 -21.136719 L 20.949219 -21.796875 L 20.378906 -21.925781 L 19.71875 -21.988281 L 19.152344 -22.082031 L 18.554688 -22.019531 L 17.921875 -21.988281 L 16.726562 -22.113281 L 16.035156 -21.703125 L 15.496094 -21.167969 L 12.570312 -14.238281 L 12.378906 -13.578125 L 12.097656 -13.039062 L 11.96875 -12.472656 L 11.65625 -11.90625 L 11.023438 -10.144531 L 10.710938 -9.574219 L 10.363281 -9.640625 L 9.574219 -11.339844 L 9.449219 -11.9375 L 8.914062 -13.007812 L 7.339844 -17.105469 L 6.519531 -18.773438 L 5.636719 -21.167969 L 5.101562 -21.703125 L 4.378906 -22.019531 L 2.582031 -22.082031 L 1.953125 -21.988281 L 0.757812 -21.988281 L 0.253906 -21.765625 L 0 -21.136719 L 1.007812 -18.460938 L 1.324219 -17.988281 L 1.480469 -17.386719 L 1.734375 -16.757812 L 2.078125 -16.285156 L 2.300781 -15.625 L 5.132812 -9.261719 L 5.324219 -8.632812 L 6.109375 -6.992188 L 6.332031 -6.332031 L 6.867188 -5.261719 L 7.214844 -4.695312 L 7.371094 -4.0625 L 8.632812 -1.070312 L 8.914062 -0.597656 L 9.542969 -0.0625 L 10.238281 0.1875 Z M 10.835938 0.285156" transform="translate(106.888 100.64)"/></g></g></g><g fill="#FFEFBF"><g><g><path d="M 18.585938 0.0625 L 19.78125 -0.03125 L 20.378906 0.03125 L 21.355469 0 L 22.238281 -0.15625 L 22.332031 -0.914062 L 22.113281 -1.636719 L 21.640625 -2.804688 L 20.789062 -4.441406 L 20.347656 -5.605469 L 19.71875 -6.742188 L 18.523438 -9.609375 L 18.207031 -10.078125 L 17.890625 -10.679688 L 17.703125 -11.371094 L 17.417969 -11.84375 L 17.230469 -12.347656 L 16.570312 -13.511719 L 16.347656 -14.175781 L 14.269531 -18.554688 L 14.082031 -19.183594 L 13.734375 -19.75 L 13.546875 -20.316406 L 12.945312 -21.421875 L 12.410156 -21.988281 L 11.371094 -22.300781 L 10.363281 -21.957031 L 9.796875 -21.421875 L 9.511719 -20.882812 L 9.292969 -20.253906 L 9.007812 -19.8125 L 7.75 -16.914062 L 7.402344 -16.441406 L 7.246094 -15.8125 L 6.898438 -15.214844 L 6.710938 -14.648438 L 3.496094 -7.90625 L 3.308594 -7.214844 L 2.992188 -6.742188 L 2.773438 -6.109375 L 2.203125 -5.101562 L 1.734375 -3.84375 L 1.386719 -3.402344 L 1.226562 -2.835938 L 0.597656 -1.574219 L 0.410156 -0.945312 L 0.566406 -0.15625 L 1.195312 0.03125 L 2.425781 -0.03125 L 3.054688 0.03125 L 4.820312 -0.03125 L 5.542969 -0.253906 L 6.140625 -0.820312 L 6.710938 -1.859375 L 7.308594 -2.457031 L 7.96875 -2.804688 L 8.566406 -2.710938 L 9.890625 -2.835938 L 10.457031 -2.742188 L 13.546875 -2.773438 L 14.113281 -2.710938 L 14.804688 -2.804688 L 15.496094 -2.457031 L 16.097656 -1.953125 L 16.378906 -1.355469 L 16.570312 -0.789062 L 17.199219 -0.316406 L 17.921875 0 Z M 11.433594 -7.78125 L 10.804688 -7.90625 L 10.078125 -7.84375 L 9.574219 -8.0625 L 9.542969 -8.664062 L 11.023438 -12.066406 L 11.371094 -12.347656 L 11.8125 -12.097656 L 13.292969 -8.632812 L 13.167969 -8.0625 L 12.695312 -7.8125 Z M 11.433594 -7.78125" transform="translate(131.836 100.64)"/></g></g></g><g fill="#FFEFBF"><g><g><path d="M 18.585938 -0.535156 L 19.433594 -0.03125 L 20.316406 0.0625 L 21.011719 -0.15625 L 21.324219 -0.789062 L 21.386719 -12.285156 L 21.292969 -12.820312 L 21.292969 -15.9375 L 21.386719 -16.695312 L 21.292969 -21.074219 L 20.980469 -21.703125 L 20.347656 -22.050781 L 16.441406 -22.019531 L 15.84375 -21.671875 L 15.496094 -21.011719 L 15.464844 -20.347656 L 15.5625 -19.84375 L 15.464844 -18.523438 L 15.53125 -17.828125 L 15.464844 -12.191406 L 15.277344 -11.65625 L 14.804688 -11.875 L 12.570312 -14.113281 L 11.6875 -14.804688 L 5.480469 -21.074219 L 5.007812 -21.453125 L 4.285156 -21.828125 L 3.339844 -22.050781 L 2.613281 -21.734375 L 2.332031 -21.136719 L 2.332031 -11.59375 L 2.300781 -11.054688 L 2.363281 -9.765625 L 2.269531 -9.230469 L 2.332031 -4.0625 L 2.269531 -3.464844 L 2.332031 -0.820312 L 2.613281 -0.21875 L 3.277344 0 L 4.566406 0.0625 L 5.261719 0 L 6.488281 0.09375 L 7.152344 0.0625 L 7.78125 -0.253906 L 8.09375 -1.226562 L 8.128906 -9.199219 L 8.191406 -9.828125 L 8.410156 -10.363281 L 8.820312 -10.207031 L 9.230469 -9.671875 L 11.464844 -7.527344 L 11.875 -7.054688 L 12.410156 -6.710938 L 17.292969 -1.859375 L 18.113281 -0.945312 Z M 18.585938 -0.535156" transform="translate(158.422 100.64)"/></g></g></g><g fill="#FFEFBF"><g><g><path d="M 10.550781 0.125 L 11.8125 0.0625 L 12.378906 -0.253906 L 12.695312 -0.851562 L 12.695312 -3.96875 L 12.316406 -4.566406 L 11.625 -4.914062 L 10.960938 -4.914062 L 10.207031 -5.164062 L 9.828125 -5.890625 L 9.921875 -6.488281 L 9.890625 -9.953125 L 9.953125 -10.648438 L 9.828125 -12.914062 L 9.953125 -16.097656 L 10.175781 -16.820312 L 10.867188 -17.105469 L 11.496094 -17.199219 L 12.160156 -17.449219 L 12.472656 -17.953125 L 12.503906 -21.074219 L 12.128906 -21.671875 L 11.558594 -22.019531 L 7.75 -22.019531 L 7.183594 -22.082031 L 6.550781 -21.957031 L 3.96875 -21.957031 L 3.371094 -22.050781 L 2.644531 -22.050781 L 2.015625 -21.734375 L 1.699219 -20.980469 L 1.796875 -18.648438 L 1.734375 -18.050781 L 2.078125 -17.417969 L 2.773438 -17.074219 L 3.402344 -17.074219 L 4 -16.695312 L 4.285156 -15.84375 L 4.378906 -6.175781 L 4.03125 -5.230469 L 1.953125 -4.597656 L 1.605469 -4.03125 L 1.511719 -1.132812 L 1.828125 -0.285156 L 2.457031 0 L 3.054688 0 L 3.652344 -0.0625 L 4.566406 0.0625 L 5.542969 0.03125 L 6.175781 -0.03125 L 7.433594 0.09375 L 8.378906 -0.03125 L 9.921875 -0.03125 Z M 10.550781 0.125" transform="translate(185.89 100.64)"/></g></g></g><g fill="#FFEFBF"><g><g><path d="M 2.394531 -1.132812 L 2.613281 -0.316406 L 3.214844 0 L 3.84375 0.0625 L 5.164062 -0.03125 L 6.394531 0.03125 L 7.589844 -0.03125 L 8.191406 0.0625 L 8.882812 0 L 15.121094 0.03125 L 15.71875 -0.285156 L 16.066406 -1.261719 L 16.035156 -3.8125 L 15.75 -4.757812 L 15.183594 -5.132812 L 14.523438 -5.070312 L 13.921875 -4.945312 L 13.261719 -5.039062 L 11.96875 -5.007812 L 11.339844 -5.132812 L 10.773438 -5.039062 L 9.542969 -5.101562 L 8.882812 -5.039062 L 8.253906 -5.292969 L 8 -5.921875 L 8.03125 -16.601562 L 7.96875 -17.355469 L 8.03125 -18.617188 L 7.9375 -20.410156 L 7.96875 -21.011719 L 7.65625 -21.703125 L 7.023438 -22.082031 L 5.796875 -22.082031 L 5.164062 -21.957031 L 3.90625 -22.082031 L 3.308594 -21.988281 L 2.644531 -21.734375 L 2.363281 -21.042969 L 2.363281 -16.632812 L 2.300781 -16.035156 L 2.363281 -15.402344 L 2.269531 -14.238281 L 2.300781 -13.546875 L 2.363281 -12.945312 Z M 2.394531 -1.132812" transform="translate(203.908 100.64)"/></g></g></g><g fill="#FFEFBF"><g><g><path d="M 2.394531 -1.132812 L 2.613281 -0.316406 L 3.214844 0 L 3.84375 0.0625 L 5.164062 -0.03125 L 6.394531 0.03125 L 7.589844 -0.03125 L 8.191406 0.0625 L 8.882812 0 L 15.121094 0.03125 L 15.71875 -0.285156 L 16.066406 -1.261719 L 16.035156 -3.8125 L 15.75 -4.757812 L 15.183594 -5.132812 L 14.523438 -5.070312 L 13.921875 -4.945312 L 13.261719 -5.039062 L 11.96875 -5.007812 L 11.339844 -5.132812 L 10.773438 -5.039062 L 9.542969 -5.101562 L 8.882812 -5.039062 L 8.253906 -5.292969 L 8 -5.921875 L 8.03125 -16.601562 L 7.96875 -17.355469 L 8.03125 -18.617188 L 7.9375 -20.410156 L 7.96875 -21.011719 L 7.65625 -21.703125 L 7.023438 -22.082031 L 5.796875 -22.082031 L 5.164062 -21.957031 L 3.90625 -22.082031 L 3.308594 -21.988281 L 2.644531 -21.734375 L 2.363281 -21.042969 L 2.363281 -16.632812 L 2.300781 -16.035156 L 2.363281 -15.402344 L 2.269531 -14.238281 L 2.300781 -13.546875 L 2.363281 -12.945312 Z M 2.394531 -1.132812" transform="translate(224.572 100.64)"/></g></g></g><g fill="#FFEFBF"><g><g><path d="M 18.585938 0.0625 L 19.78125 -0.03125 L 20.378906 0.03125 L 21.355469 0 L 22.238281 -0.15625 L 22.332031 -0.914062 L 22.113281 -1.636719 L 21.640625 -2.804688 L 20.789062 -4.441406 L 20.347656 -5.605469 L 19.71875 -6.742188 L 18.523438 -9.609375 L 18.207031 -10.078125 L 17.890625 -10.679688 L 17.703125 -11.371094 L 17.417969 -11.84375 L 17.230469 -12.347656 L 16.570312 -13.511719 L 16.347656 -14.175781 L 14.269531 -18.554688 L 14.082031 -19.183594 L 13.734375 -19.75 L 13.546875 -20.316406 L 12.945312 -21.421875 L 12.410156 -21.988281 L 11.371094 -22.300781 L 10.363281 -21.957031 L 9.796875 -21.421875 L 9.511719 -20.882812 L 9.292969 -20.253906 L 9.007812 -19.8125 L 7.75 -16.914062 L 7.402344 -16.441406 L 7.246094 -15.8125 L 6.898438 -15.214844 L 6.710938 -14.648438 L 3.496094 -7.90625 L 3.308594 -7.214844 L 2.992188 -6.742188 L 2.773438 -6.109375 L 2.203125 -5.101562 L 1.734375 -3.84375 L 1.386719 -3.402344 L 1.226562 -2.835938 L 0.597656 -1.574219 L 0.410156 -0.945312 L 0.566406 -0.15625 L 1.195312 0.03125 L 2.425781 -0.03125 L 3.054688 0.03125 L 4.820312 -0.03125 L 5.542969 -0.253906 L 6.140625 -0.820312 L 6.710938 -1.859375 L 7.308594 -2.457031 L 7.96875 -2.804688 L 8.566406 -2.710938 L 9.890625 -2.835938 L 10.457031 -2.742188 L 13.546875 -2.773438 L 14.113281 -2.710938 L 14.804688 -2.804688 L 15.496094 -2.457031 L 16.097656 -1.953125 L 16.378906 -1.355469 L 16.570312 -0.789062 L 17.199219 -0.316406 L 17.921875 0 Z M 11.433594 -7.78125 L 10.804688 -7.90625 L 10.078125 -7.84375 L 9.574219 -8.0625 L 9.542969 -8.664062 L 11.023438 -12.066406 L 11.371094 -12.347656 L 11.8125 -12.097656 L 13.292969 -8.632812 L 13.167969 -8.0625 L 12.695312 -7.8125 Z M 11.433594 -7.78125" transform="translate(245.236 100.64)"/></g></g></g></svg>