<svg xmlns="http://www.w3.org/2000/svg" width="375" viewBox="0 0 375 375" height="375" version="1.0"><defs><clipPath id="a"><path d="M 50.289062 118.011719 L 324.789062 118.011719 L 324.789062 314.511719 L 50.289062 314.511719 Z M 50.289062 118.011719"/></clipPath></defs><g clip-path="url(#a)"><path fill="#FCBAA4" d="M 50.289062 118.128906 C 141.789062 118.128906 233.296875 118.128906 324.789062 118.128906 C 324.789062 152.644531 324.789062 187.160156 324.789062 221.675781 C 324.789062 225.308594 321.820312 228.261719 318.183594 228.261719 C 314.5625 228.261719 311.59375 225.308594 311.59375 221.675781 L 311.59375 174.390625 C 311.59375 171.863281 309.515625 169.789062 306.984375 169.789062 C 304.441406 169.789062 302.378906 171.863281 302.378906 174.390625 L 302.378906 201.285156 C 302.378906 206.007812 298.503906 209.867188 293.789062 209.867188 C 289.0625 209.867188 285.203125 206.007812 285.203125 201.285156 L 285.203125 166.484375 C 285.203125 159.234375 279.25 153.296875 272.003906 153.296875 C 264.75 153.296875 258.796875 159.234375 258.796875 166.484375 L 258.796875 230.960938 C 258.796875 241.375 250.273438 249.886719 239.847656 249.886719 C 229.421875 249.886719 220.886719 241.375 220.886719 230.960938 L 220.886719 153.902344 C 220.886719 143.488281 212.363281 134.96875 201.9375 134.96875 L 201.929688 134.96875 C 191.511719 134.96875 182.976562 143.488281 182.976562 153.902344 L 182.976562 295.457031 C 182.976562 305.855469 174.445312 314.394531 164.027344 314.394531 C 153.601562 314.394531 145.070312 305.855469 145.070312 295.457031 L 145.070312 187.582031 C 145.070312 177.164062 136.535156 168.644531 126.117188 168.644531 C 115.691406 168.644531 107.15625 177.164062 107.15625 187.582031 L 107.15625 237.570312 C 107.15625 244.355469 101.609375 249.886719 94.824219 249.886719 C 88.039062 249.886719 82.488281 244.355469 82.488281 237.570312 L 82.488281 198.945312 C 82.488281 195.308594 79.503906 192.335938 75.867188 192.335938 C 72.226562 192.335938 69.246094 195.308594 69.246094 198.945312 L 69.246094 266.859375 C 69.246094 272.058594 64.984375 276.328125 59.769531 276.328125 C 54.558594 276.328125 50.289062 272.058594 50.289062 266.859375 C 50.289062 217.273438 50.289062 167.703125 50.289062 118.128906"/></g><g fill="#FCBAA4"><g><g><path d="M 8.472656 0.285156 L 10.960938 0.347656 L 11.59375 0.285156 L 12.222656 0.125 L 12.851562 0.03125 L 13.480469 -0.21875 L 14.050781 -0.285156 L 14.648438 -0.566406 L 16.789062 -1.859375 L 17.703125 -2.804688 L 18.019531 -3.246094 L 18.363281 -3.9375 L 18.554688 -4.503906 L 18.742188 -5.039062 L 18.929688 -6.613281 L 18.867188 -7.621094 L 18.394531 -9.449219 L 18.050781 -9.953125 L 17.230469 -10.898438 L 16.664062 -11.402344 L 16.160156 -11.65625 L 15.59375 -12 L 13.136719 -12.757812 L 12.503906 -12.851562 L 11.875 -12.882812 L 11.214844 -13.007812 L 10.300781 -13.007812 L 8.632812 -13.355469 L 7.464844 -13.921875 L 6.992188 -14.363281 L 6.867188 -15.308594 L 7.023438 -16.160156 L 7.402344 -16.570312 L 7.875 -16.914062 L 8.378906 -17.199219 L 8.945312 -17.324219 L 9.953125 -17.355469 L 10.960938 -17.230469 L 11.527344 -17.074219 L 12.097656 -16.695312 L 12.632812 -16.253906 L 13.105469 -15.625 L 13.796875 -15.214844 L 15.277344 -15.339844 L 16.128906 -15.277344 L 16.757812 -15.277344 L 17.324219 -15.214844 L 17.921875 -15.65625 L 18.175781 -16.191406 L 18.050781 -16.789062 L 17.988281 -17.386719 L 17.105469 -19.027344 L 16.410156 -19.972656 L 14.332031 -21.421875 L 12.570312 -22.019531 L 11.339844 -22.269531 L 8.914062 -22.332031 L 8.222656 -22.144531 L 7.589844 -22.113281 L 7.023438 -22.019531 L 5.828125 -21.640625 L 4.757812 -21.011719 L 3.246094 -19.972656 L 2.140625 -18.492188 L 1.574219 -16.757812 L 1.480469 -15.214844 L 1.511719 -14.238281 L 1.734375 -12.976562 L 2.238281 -11.875 L 3.402344 -10.425781 L 5.542969 -9.261719 L 6.679688 -8.882812 L 11.625 -8.316406 L 12.757812 -7.78125 L 13.167969 -7.402344 L 13.355469 -6.613281 L 13.105469 -5.828125 L 12.695312 -5.355469 L 11.625 -4.882812 L 10.648438 -4.820312 L 10.078125 -4.726562 L 8.472656 -4.882812 L 7.9375 -5.164062 L 7.402344 -5.511719 L 6.363281 -6.648438 L 5.734375 -6.898438 L 5.164062 -6.835938 L 4.566406 -6.929688 L 2.140625 -6.804688 L 1.574219 -6.550781 L 1.324219 -5.890625 L 1.417969 -5.261719 L 1.542969 -4.628906 L 1.734375 -4.0625 L 2.332031 -2.898438 L 2.773438 -2.488281 L 3.179688 -2.015625 L 4.285156 -1.324219 L 4.726562 -0.851562 L 5.324219 -0.566406 L 5.953125 -0.378906 L 7.183594 0.0625 Z M 8.472656 0.285156" transform="translate(63.23 100.64)"/></g></g></g><g fill="#FCBAA4"><g><g><path d="M 8.222656 0.0625 L 10.332031 0 L 11.246094 -0.316406 L 11.558594 -1.195312 L 11.65625 -2.835938 L 11.558594 -4.03125 L 11.625 -4.695312 L 11.59375 -5.953125 L 11.65625 -6.519531 L 11.558594 -7.214844 L 11.625 -12.285156 L 11.527344 -12.945312 L 11.625 -15.6875 L 11.875 -16.632812 L 12.472656 -17.011719 L 13.703125 -17.074219 L 14.867188 -16.914062 L 15.53125 -17.011719 L 16.097656 -16.976562 L 16.632812 -17.324219 L 17.011719 -18.019531 L 17.042969 -21.011719 L 16.695312 -21.640625 L 16.097656 -22.050781 L 14.144531 -22.050781 L 13.546875 -22.113281 L 12.882812 -22.019531 L 12.285156 -22.082031 L 9.734375 -21.957031 L 9.101562 -22.082031 L 8.503906 -22.113281 L 7.84375 -22.019531 L 7.152344 -22.082031 L 6.582031 -21.957031 L 4.726562 -22.050781 L 3.75 -21.957031 L 1.542969 -22.082031 L 0.945312 -21.765625 L 0.566406 -21.042969 L 0.597656 -20.410156 L 0.535156 -18.835938 L 0.597656 -17.859375 L 0.882812 -17.292969 L 1.449219 -16.976562 L 2.078125 -17.042969 L 5.070312 -16.976562 L 5.671875 -16.664062 L 6.015625 -16.035156 L 5.953125 -15.027344 L 6.015625 -14.144531 L 5.984375 -13.449219 L 6.015625 -12.820312 L 5.953125 -11.9375 L 6.046875 -7.246094 L 5.984375 -6.613281 L 5.953125 -4.0625 L 6.015625 -3.402344 L 5.984375 -1.574219 L 5.921875 -0.976562 L 6.332031 -0.285156 L 7.246094 0.03125 Z M 8.222656 0.0625" transform="translate(87.044 100.64)"/></g></g></g><g fill="#FCBAA4"><g><g><path d="M 2.363281 -1.292969 L 2.675781 -0.316406 L 3.589844 0.09375 L 4.222656 0 L 5.230469 0.09375 L 5.734375 0.03125 L 6.679688 0.03125 L 7.6875 -0.285156 L 7.96875 -1.195312 L 7.96875 -2.269531 L 8.03125 -2.835938 L 7.9375 -3.496094 L 8 -5.511719 L 8.285156 -6.140625 L 8.882812 -6.488281 L 10.710938 -6.238281 L 11.339844 -5.703125 L 11.71875 -5.070312 L 11.96875 -4.503906 L 12.632812 -3.558594 L 13.230469 -2.425781 L 13.578125 -1.953125 L 13.828125 -1.324219 L 14.175781 -0.789062 L 14.867188 -0.21875 L 15.9375 0.0625 L 18.425781 0.03125 L 19.027344 0.09375 L 20.066406 0.0625 L 20.664062 -0.21875 L 20.851562 -0.914062 L 20.507812 -1.605469 L 20.128906 -2.046875 L 19.875 -2.644531 L 18.804688 -4.253906 L 18.523438 -4.820312 L 17.515625 -6.457031 L 17.136719 -6.929688 L 17.105469 -7.6875 L 17.386719 -8.378906 L 17.828125 -8.851562 L 18.269531 -9.230469 L 19.5 -11.433594 L 19.90625 -13.261719 L 19.84375 -15.246094 L 19.75 -15.875 L 19.183594 -17.671875 L 18.929688 -18.207031 L 18.585938 -18.710938 L 16.789062 -20.601562 L 15.6875 -21.199219 L 14.488281 -21.609375 L 12.695312 -22.019531 L 11.6875 -22.050781 L 10.773438 -21.988281 L 8.882812 -21.988281 L 8.253906 -22.113281 L 7.621094 -22.113281 L 7.054688 -21.957031 L 6.425781 -21.957031 L 5.796875 -22.082031 L 5.101562 -22.113281 L 3.246094 -21.957031 L 2.675781 -21.640625 L 2.300781 -20.757812 L 2.332031 -13.546875 L 2.394531 -12.914062 L 2.300781 -11.65625 L 2.332031 -10.960938 L 2.332031 -10.332031 L 2.394531 -9.734375 L 2.332031 -9.136719 L 2.300781 -6.582031 L 2.363281 -5.953125 Z M 8.882812 -11.527344 L 8.253906 -11.875 L 8 -12.378906 L 8 -14.269531 L 7.9375 -14.804688 L 8 -16.128906 L 8.285156 -16.726562 L 8.945312 -16.976562 L 9.574219 -16.945312 L 10.835938 -17.074219 L 11.71875 -16.882812 L 12.535156 -16.820312 L 13.136719 -16.664062 L 13.921875 -15.6875 L 14.113281 -15.183594 L 14.238281 -14.363281 L 14.144531 -13.417969 L 13.859375 -12.789062 L 13.511719 -12.316406 L 13.167969 -12.03125 L 12.601562 -11.78125 L 11.6875 -11.558594 L 11.089844 -11.527344 L 9.574219 -11.59375 Z M 8.882812 -11.527344" transform="translate(108.37 100.64)"/></g></g></g><g fill="#FCBAA4"><g><g><path d="M 18.585938 0.0625 L 19.78125 -0.03125 L 20.378906 0.03125 L 21.355469 0 L 22.238281 -0.15625 L 22.332031 -0.914062 L 22.113281 -1.636719 L 21.640625 -2.804688 L 20.789062 -4.441406 L 20.347656 -5.605469 L 19.71875 -6.742188 L 18.523438 -9.609375 L 18.207031 -10.078125 L 17.890625 -10.679688 L 17.703125 -11.371094 L 17.417969 -11.84375 L 17.230469 -12.347656 L 16.570312 -13.511719 L 16.347656 -14.175781 L 14.269531 -18.554688 L 14.082031 -19.183594 L 13.734375 -19.75 L 13.546875 -20.316406 L 12.945312 -21.421875 L 12.410156 -21.988281 L 11.371094 -22.300781 L 10.363281 -21.957031 L 9.796875 -21.421875 L 9.511719 -20.882812 L 9.292969 -20.253906 L 9.007812 -19.8125 L 7.75 -16.914062 L 7.402344 -16.441406 L 7.246094 -15.8125 L 6.898438 -15.214844 L 6.710938 -14.648438 L 3.496094 -7.90625 L 3.308594 -7.214844 L 2.992188 -6.742188 L 2.773438 -6.109375 L 2.203125 -5.101562 L 1.734375 -3.84375 L 1.386719 -3.402344 L 1.226562 -2.835938 L 0.597656 -1.574219 L 0.410156 -0.945312 L 0.566406 -0.15625 L 1.195312 0.03125 L 2.425781 -0.03125 L 3.054688 0.03125 L 4.820312 -0.03125 L 5.542969 -0.253906 L 6.140625 -0.820312 L 6.710938 -1.859375 L 7.308594 -2.457031 L 7.96875 -2.804688 L 8.566406 -2.710938 L 9.890625 -2.835938 L 10.457031 -2.742188 L 13.546875 -2.773438 L 14.113281 -2.710938 L 14.804688 -2.804688 L 15.496094 -2.457031 L 16.097656 -1.953125 L 16.378906 -1.355469 L 16.570312 -0.789062 L 17.199219 -0.316406 L 17.921875 0 Z M 11.433594 -7.78125 L 10.804688 -7.90625 L 10.078125 -7.84375 L 9.574219 -8.0625 L 9.542969 -8.664062 L 11.023438 -12.066406 L 11.371094 -12.347656 L 11.8125 -12.097656 L 13.292969 -8.632812 L 13.167969 -8.0625 L 12.695312 -7.8125 Z M 11.433594 -7.78125" transform="translate(133.947 100.64)"/></g></g></g><g fill="#FCBAA4"><g><g><path d="M 7.71875 -0.691406 L 8.222656 -0.125 L 8.914062 0.285156 L 10.113281 0.253906 L 10.804688 0 L 11.308594 -0.660156 L 11.59375 -1.195312 L 11.78125 -1.890625 L 12.097656 -2.457031 L 12.253906 -2.992188 L 12.535156 -3.652344 L 12.695312 -4.15625 L 13.671875 -6.488281 L 13.859375 -7.152344 L 14.425781 -8.347656 L 14.835938 -9.574219 L 15.152344 -9.480469 L 15.464844 -8.945312 L 15.65625 -8.285156 L 16.191406 -7.214844 L 17.988281 -2.363281 L 18.460938 -1.324219 L 18.648438 -0.722656 L 19.246094 -0.0625 L 19.972656 0.316406 L 20.570312 0.285156 L 21.105469 0.1875 L 21.859375 -0.0625 L 22.332031 -0.628906 L 22.523438 -1.226562 L 22.804688 -1.796875 L 24.695312 -7.277344 L 24.980469 -7.8125 L 26.019531 -10.488281 L 26.269531 -11.371094 L 26.554688 -11.9375 L 26.679688 -12.472656 L 28.695312 -17.828125 L 28.855469 -18.523438 L 29.167969 -19.089844 L 29.765625 -21.011719 L 29.578125 -21.765625 L 28.949219 -21.925781 L 28.320312 -22.019531 L 27.214844 -21.957031 L 25.957031 -22.019531 L 25.292969 -21.957031 L 24.695312 -22.050781 L 24.035156 -21.734375 L 23.5 -21.074219 L 23.339844 -20.476562 L 23.058594 -19.941406 L 21.324219 -14.394531 L 21.199219 -13.765625 L 20.789062 -12.441406 L 20.570312 -11.121094 L 20.378906 -10.519531 L 20.066406 -10.550781 L 19.433594 -12.347656 L 19.277344 -12.976562 L 17.921875 -16.539062 L 17.609375 -17.734375 L 17.355469 -18.332031 L 16.976562 -19.59375 L 16.726562 -20.128906 L 16.472656 -20.695312 L 16.035156 -21.324219 L 15.371094 -21.703125 L 14.679688 -21.703125 L 14.050781 -21.386719 L 13.511719 -20.757812 L 12.472656 -17.640625 L 12 -16.507812 L 10.867188 -12.851562 L 10.550781 -12.378906 L 10.425781 -11.71875 L 9.953125 -10.519531 L 9.703125 -10.488281 L 9.574219 -11.246094 L 7.558594 -18.113281 L 7.308594 -18.648438 L 6.929688 -19.875 L 6.804688 -20.507812 L 6.550781 -21.136719 L 5.984375 -21.640625 L 5.386719 -21.925781 L 2.867188 -21.957031 L 2.300781 -22.082031 L 1.734375 -21.988281 L 1.070312 -21.957031 L 0.410156 -21.765625 L 0.285156 -21.042969 L 0.441406 -20.191406 L 1.765625 -16.601562 L 2.046875 -16.066406 L 3.339844 -12.535156 L 3.527344 -11.84375 L 4.410156 -9.480469 L 4.695312 -8.976562 L 7.246094 -1.828125 L 7.527344 -1.226562 Z M 7.71875 -0.691406" transform="translate(160.533 100.64)"/></g></g></g><g fill="#FCBAA4"><g><g><path d="M 2.363281 -0.976562 L 2.644531 -0.347656 L 3.246094 0.03125 L 4.285156 -0.0625 L 5.230469 0.03125 L 9.796875 -0.03125 L 10.425781 0.0625 L 13.671875 -0.09375 L 14.238281 -0.1875 L 16.003906 -0.691406 L 16.570312 -0.976562 L 17.828125 -1.984375 L 18.679688 -3.148438 L 18.996094 -3.78125 L 19.183594 -4.378906 L 19.433594 -4.976562 L 19.5 -7.527344 L 19.152344 -8.664062 L 18.585938 -9.953125 L 18.175781 -10.425781 L 17.671875 -10.867188 L 17.355469 -11.59375 L 17.578125 -12.191406 L 18.175781 -13.417969 L 18.554688 -14.554688 L 18.585938 -15.625 L 18.523438 -16.601562 L 18.269531 -17.734375 L 18.050781 -18.394531 L 17.011719 -19.84375 L 16.539062 -20.285156 L 16.066406 -20.601562 L 15.625 -20.949219 L 15.089844 -21.261719 L 14.488281 -21.546875 L 13.953125 -21.734375 L 12.726562 -22.019531 L 9.480469 -22.113281 L 8.914062 -21.988281 L 7.6875 -22.144531 L 7.117188 -22.019531 L 3.308594 -22.082031 L 2.613281 -21.765625 L 2.300781 -21.105469 L 2.300781 -20.410156 L 2.363281 -19.84375 L 2.332031 -19.183594 L 2.363281 -18.617188 L 2.300781 -16.757812 L 2.394531 -15.433594 L 2.269531 -9.417969 L 2.363281 -8.472656 L 2.300781 -1.574219 Z M 8.820312 -13.449219 L 8.160156 -13.828125 L 7.8125 -14.710938 L 7.78125 -15.78125 L 8.160156 -16.695312 L 8.757812 -17.074219 L 12 -16.851562 L 12.503906 -16.601562 L 12.757812 -16.097656 L 12.851562 -15.152344 L 12.632812 -14.238281 L 12.160156 -13.859375 L 11.246094 -13.546875 Z M 8.726562 -5.039062 L 8.160156 -5.261719 L 7.75 -5.890625 L 7.84375 -7.78125 L 8.128906 -8.316406 L 8.664062 -8.726562 L 9.261719 -8.632812 L 9.921875 -8.695312 L 12.882812 -8.410156 L 13.417969 -8.191406 L 13.734375 -7.621094 L 13.921875 -6.835938 L 13.765625 -5.921875 L 13.417969 -5.480469 L 12.882812 -5.132812 L 11.152344 -4.976562 Z M 8.726562 -5.039062" transform="translate(194.301 100.64)"/></g></g></g><g fill="#FCBAA4"><g><g><path d="M 10.960938 0.09375 L 15.464844 0.03125 L 16.128906 -0.253906 L 16.472656 -0.914062 L 16.472656 -4.09375 L 16.128906 -4.726562 L 15.464844 -5.007812 L 14.742188 -4.945312 L 14.144531 -5.039062 L 12.535156 -5.070312 L 11.496094 -4.945312 L 10.867188 -5.007812 L 10.175781 -4.976562 L 9.574219 -5.070312 L 8.882812 -5.007812 L 8.222656 -5.324219 L 7.96875 -5.890625 L 7.96875 -7.875 L 8.253906 -8.535156 L 8.820312 -8.882812 L 9.765625 -8.914062 L 10.773438 -8.820312 L 11.96875 -8.882812 L 13.261719 -8.851562 L 13.890625 -8.914062 L 14.617188 -8.882812 L 15.246094 -9.136719 L 15.464844 -9.765625 L 15.5625 -12.601562 L 15.246094 -13.480469 L 14.523438 -13.890625 L 12.664062 -13.890625 L 12 -13.828125 L 10.679688 -13.921875 L 8.851562 -13.859375 L 8.191406 -14.144531 L 7.9375 -15.121094 L 7.9375 -16.097656 L 8.222656 -16.695312 L 8.914062 -16.945312 L 9.511719 -16.914062 L 10.113281 -17.042969 L 14.617188 -16.976562 L 15.214844 -17.011719 L 15.875 -17.386719 L 16.191406 -17.953125 L 16.160156 -18.585938 L 16.191406 -19.214844 L 16.128906 -21.105469 L 15.84375 -21.703125 L 15.214844 -21.957031 L 14.554688 -21.957031 L 13.984375 -22.082031 L 11.433594 -22.050781 L 10.742188 -21.988281 L 10.113281 -22.050781 L 9.574219 -22.019531 L 8.945312 -22.082031 L 6.363281 -22.019531 L 5.734375 -22.113281 L 5.132812 -21.988281 L 4.566406 -22.050781 L 3.9375 -21.988281 L 3.308594 -22.019531 L 2.644531 -21.765625 L 2.300781 -21.105469 L 2.363281 -19.90625 L 2.269531 -18.617188 L 2.363281 -17.921875 L 2.300781 -14.835938 L 2.394531 -14.175781 L 2.332031 -13.578125 L 2.300781 -10.992188 L 2.394531 -10.425781 L 2.363281 -5.324219 L 2.300781 -4.726562 L 2.394531 -4.09375 L 2.300781 -1.921875 L 2.363281 -1.226562 L 2.613281 -0.378906 L 3.558594 0.03125 L 5.828125 0.0625 L 6.519531 0 L 7.085938 0.03125 L 8.378906 -0.0625 L 8.976562 0.0625 L 9.703125 0.09375 L 10.332031 0.03125 Z M 10.960938 0.09375" transform="translate(218.808 100.64)"/></g></g></g><g fill="#FCBAA4"><g><g><path d="M 2.363281 -1.292969 L 2.675781 -0.316406 L 3.589844 0.09375 L 4.222656 0 L 5.230469 0.09375 L 5.734375 0.03125 L 6.679688 0.03125 L 7.6875 -0.285156 L 7.96875 -1.195312 L 7.96875 -2.269531 L 8.03125 -2.835938 L 7.9375 -3.496094 L 8 -5.511719 L 8.285156 -6.140625 L 8.882812 -6.488281 L 10.710938 -6.238281 L 11.339844 -5.703125 L 11.71875 -5.070312 L 11.96875 -4.503906 L 12.632812 -3.558594 L 13.230469 -2.425781 L 13.578125 -1.953125 L 13.828125 -1.324219 L 14.175781 -0.789062 L 14.867188 -0.21875 L 15.9375 0.0625 L 18.425781 0.03125 L 19.027344 0.09375 L 20.066406 0.0625 L 20.664062 -0.21875 L 20.851562 -0.914062 L 20.507812 -1.605469 L 20.128906 -2.046875 L 19.875 -2.644531 L 18.804688 -4.253906 L 18.523438 -4.820312 L 17.515625 -6.457031 L 17.136719 -6.929688 L 17.105469 -7.6875 L 17.386719 -8.378906 L 17.828125 -8.851562 L 18.269531 -9.230469 L 19.5 -11.433594 L 19.90625 -13.261719 L 19.84375 -15.246094 L 19.75 -15.875 L 19.183594 -17.671875 L 18.929688 -18.207031 L 18.585938 -18.710938 L 16.789062 -20.601562 L 15.6875 -21.199219 L 14.488281 -21.609375 L 12.695312 -22.019531 L 11.6875 -22.050781 L 10.773438 -21.988281 L 8.882812 -21.988281 L 8.253906 -22.113281 L 7.621094 -22.113281 L 7.054688 -21.957031 L 6.425781 -21.957031 L 5.796875 -22.082031 L 5.101562 -22.113281 L 3.246094 -21.957031 L 2.675781 -21.640625 L 2.300781 -20.757812 L 2.332031 -13.546875 L 2.394531 -12.914062 L 2.300781 -11.65625 L 2.332031 -10.960938 L 2.332031 -10.332031 L 2.394531 -9.734375 L 2.332031 -9.136719 L 2.300781 -6.582031 L 2.363281 -5.953125 Z M 8.882812 -11.527344 L 8.253906 -11.875 L 8 -12.378906 L 8 -14.269531 L 7.9375 -14.804688 L 8 -16.128906 L 8.285156 -16.726562 L 8.945312 -16.976562 L 9.574219 -16.945312 L 10.835938 -17.074219 L 11.71875 -16.882812 L 12.535156 -16.820312 L 13.136719 -16.664062 L 13.921875 -15.6875 L 14.113281 -15.183594 L 14.238281 -14.363281 L 14.144531 -13.417969 L 13.859375 -12.789062 L 13.511719 -12.316406 L 13.167969 -12.03125 L 12.601562 -11.78125 L 11.6875 -11.558594 L 11.089844 -11.527344 L 9.574219 -11.59375 Z M 8.882812 -11.527344" transform="translate(240.575 100.64)"/></g></g></g><g fill="#FCBAA4"><g><g><path d="M 2.363281 -1.292969 L 2.675781 -0.316406 L 3.589844 0.09375 L 4.222656 0 L 5.230469 0.09375 L 5.734375 0.03125 L 6.679688 0.03125 L 7.6875 -0.285156 L 7.96875 -1.195312 L 7.96875 -2.269531 L 8.03125 -2.835938 L 7.9375 -3.496094 L 8 -5.511719 L 8.285156 -6.140625 L 8.882812 -6.488281 L 10.710938 -6.238281 L 11.339844 -5.703125 L 11.71875 -5.070312 L 11.96875 -4.503906 L 12.632812 -3.558594 L 13.230469 -2.425781 L 13.578125 -1.953125 L 13.828125 -1.324219 L 14.175781 -0.789062 L 14.867188 -0.21875 L 15.9375 0.0625 L 18.425781 0.03125 L 19.027344 0.09375 L 20.066406 0.0625 L 20.664062 -0.21875 L 20.851562 -0.914062 L 20.507812 -1.605469 L 20.128906 -2.046875 L 19.875 -2.644531 L 18.804688 -4.253906 L 18.523438 -4.820312 L 17.515625 -6.457031 L 17.136719 -6.929688 L 17.105469 -7.6875 L 17.386719 -8.378906 L 17.828125 -8.851562 L 18.269531 -9.230469 L 19.5 -11.433594 L 19.90625 -13.261719 L 19.84375 -15.246094 L 19.75 -15.875 L 19.183594 -17.671875 L 18.929688 -18.207031 L 18.585938 -18.710938 L 16.789062 -20.601562 L 15.6875 -21.199219 L 14.488281 -21.609375 L 12.695312 -22.019531 L 11.6875 -22.050781 L 10.773438 -21.988281 L 8.882812 -21.988281 L 8.253906 -22.113281 L 7.621094 -22.113281 L 7.054688 -21.957031 L 6.425781 -21.957031 L 5.796875 -22.082031 L 5.101562 -22.113281 L 3.246094 -21.957031 L 2.675781 -21.640625 L 2.300781 -20.757812 L 2.332031 -13.546875 L 2.394531 -12.914062 L 2.300781 -11.65625 L 2.332031 -10.960938 L 2.332031 -10.332031 L 2.394531 -9.734375 L 2.332031 -9.136719 L 2.300781 -6.582031 L 2.363281 -5.953125 Z M 8.882812 -11.527344 L 8.253906 -11.875 L 8 -12.378906 L 8 -14.269531 L 7.9375 -14.804688 L 8 -16.128906 L 8.285156 -16.726562 L 8.945312 -16.976562 L 9.574219 -16.945312 L 10.835938 -17.074219 L 11.71875 -16.882812 L 12.535156 -16.820312 L 13.136719 -16.664062 L 13.921875 -15.6875 L 14.113281 -15.183594 L 14.238281 -14.363281 L 14.144531 -13.417969 L 13.859375 -12.789062 L 13.511719 -12.316406 L 13.167969 -12.03125 L 12.601562 -11.78125 L 11.6875 -11.558594 L 11.089844 -11.527344 L 9.574219 -11.59375 Z M 8.882812 -11.527344" transform="translate(266.153 100.64)"/></g></g></g><g fill="#FCBAA4"><g><g><path d="M 7.214844 -0.945312 L 7.464844 -0.253906 L 8.128906 0 L 8.757812 0.03125 L 9.324219 -0.03125 L 10.300781 0.03125 L 11.183594 -0.03125 L 11.8125 0.03125 L 12.441406 -0.316406 L 12.695312 -0.976562 L 12.789062 -4.628906 L 12.726562 -5.261719 L 12.726562 -5.890625 L 12.820312 -6.457031 L 12.789062 -8.285156 L 12.976562 -9.199219 L 13.292969 -10.015625 L 17.292969 -16.601562 L 17.671875 -17.042969 L 19.6875 -20.378906 L 20.035156 -21.167969 L 19.90625 -21.859375 L 19.339844 -21.988281 L 18.113281 -22.019531 L 17.449219 -21.957031 L 16.820312 -22.050781 L 15.59375 -22.019531 L 15.058594 -22.050781 L 14.207031 -21.734375 L 13.640625 -21.199219 L 12.820312 -19.84375 L 12.441406 -18.898438 L 11.75 -17.890625 L 11.433594 -17.230469 L 11.121094 -16.695312 L 10.585938 -15.496094 L 10.175781 -14.960938 L 9.828125 -14.960938 L 9.480469 -15.5625 L 9.136719 -16.066406 L 8.191406 -17.828125 L 7.84375 -18.363281 L 6.363281 -21.136719 L 5.703125 -21.734375 L 4.976562 -22.019531 L 4.316406 -21.988281 L 3.78125 -22.113281 L 2.171875 -21.988281 L 0.722656 -22.082031 L 0.09375 -21.765625 L 0 -21.074219 L 0.316406 -20.347656 L 1.667969 -18.113281 L 2.015625 -17.671875 L 3.308594 -15.433594 L 4.0625 -14.425781 L 4.316406 -13.859375 L 6.742188 -10.015625 L 7.054688 -9.136719 L 7.214844 -8.285156 L 7.183594 -5.796875 L 7.246094 -5.164062 L 7.183594 -2.742188 L 7.246094 -2.140625 Z M 7.214844 -0.945312" transform="translate(291.73 100.64)"/></g></g></g></svg>