<svg xmlns="http://www.w3.org/2000/svg" width="375" viewBox="0 0 375 375" height="375" version="1.0"><defs><clipPath id="a"><path d="M 115.753906 112.894531 L 259.003906 112.894531 L 259.003906 256.144531 L 115.753906 256.144531 Z M 115.753906 112.894531"/></clipPath></defs><path fill="#FFC0CB" d="M 187.449219 25.074219 C 97.773438 25.074219 25.074219 97.773438 25.074219 187.449219 C 25.074219 277.125 97.773438 349.824219 187.449219 349.824219 C 277.125 349.824219 349.824219 277.125 349.824219 187.449219 C 349.824219 97.773438 277.125 25.074219 187.449219 25.074219"/><g fill="#FFF4E6"><g><g><path d="M -7.789062 -0.96875 L -9.796875 -1.140625 L -10.695312 -0.941406 L -11.09375 -0.140625 L -11.363281 1.402344 L -11.40625 2.546875 L -11.539062 3.167969 L -11.648438 4.367188 L -11.769531 4.894531 L -11.757812 5.5625 L -12.375 10.363281 L -12.359375 11.003906 L -12.75 13.589844 L -13.09375 14.457031 L -13.703125 14.75 L -14.875 14.675781 L -15.964844 14.398438 L -16.601562 14.414062 L -17.136719 14.320312 L -17.679688 14.589844 L -18.117188 15.207031 L -18.476562 18.039062 L -18.21875 18.675781 L -17.695312 19.128906 L -15.84375 19.34375 L -15.28125 19.472656 L -14.644531 19.453125 L -14.085938 19.582031 L -11.652344 19.742188 L -11.066406 19.929688 L -10.503906 20.027344 L -9.867188 20.011719 L -9.214844 20.148438 L -8.664062 20.089844 L -6.914062 20.382812 L -5.976562 20.402344 L -3.898438 20.765625 L -3.296875 20.53125 L -2.859375 19.886719 L -2.820312 19.285156 L -2.585938 17.800781 L -2.539062 16.867188 L -2.746094 16.300781 L -3.246094 15.9375 L -3.851562 15.929688 L -6.683594 15.539062 L -7.214844 15.171875 L -7.472656 14.539062 L -7.304688 13.589844 L -7.265625 12.746094 L -7.160156 12.09375 L -7.121094 11.492188 L -6.960938 10.664062 L -6.535156 6.203125 L -6.40625 5.613281 L -6.09375 3.195312 L -6.078125 2.5625 L -5.847656 0.832031 L -5.722656 0.273438 L -6.035156 -0.429688 L -6.867188 -0.828125 Z M -7.789062 -0.96875" transform="translate(183.26 299.786)"/></g></g></g><g fill="#FFF4E6"><g><g><path d="M -16.988281 -5.109375 L -18.109375 -5.347656 L -18.640625 -5.566406 L -19.542969 -5.804688 L -20.390625 -5.898438 L -20.683594 -5.234375 L -20.679688 -4.507812 L -20.5625 -3.316406 L -20.230469 -1.585938 L -20.144531 -0.398438 L -19.875 0.808594 L -19.558594 3.757812 L -19.398438 4.277344 L -19.273438 4.910156 L -19.289062 5.59375 L -19.15625 6.105469 L -19.121094 6.617188 L -18.832031 7.863281 L -18.8125 8.527344 L -18.097656 13.101562 L -18.097656 13.726562 L -17.933594 14.339844 L -17.914062 14.910156 L -17.667969 16.082031 L -17.332031 16.746094 L -16.464844 17.316406 L -15.449219 17.273438 L -14.785156 16.9375 L -14.378906 16.523438 L -14.007812 16.007812 L -13.628906 15.683594 L -11.6875 13.371094 L -11.242188 13.035156 L -10.925781 12.5 L -10.445312 12.046875 L -10.121094 11.578125 L -5.347656 6.285156 L -4.988281 5.703125 L -4.570312 5.355469 L -4.195312 4.839844 L -3.402344 4.070312 L -2.628906 3.046875 L -2.191406 2.738281 L -1.894531 2.261719 L -0.976562 1.277344 L -0.632812 0.753906 L -0.5625 -0.0117188 L -1.085938 -0.355469 L -2.226562 -0.628906 L -2.789062 -0.859375 L -4.417969 -1.28125 L -5.140625 -1.277344 L -5.84375 -0.917969 L -6.644531 -0.121094 L -7.355469 0.261719 L -8.054688 0.398438 L -8.574219 0.152344 L -9.820312 -0.09375 L -10.3125 -0.332031 L -13.148438 -1.144531 L -13.648438 -1.355469 L -14.308594 -1.457031 L -14.847656 -1.960938 L -15.257812 -2.585938 L -15.355469 -3.210938 L -15.375 -3.78125 L -15.824219 -4.386719 L -16.402344 -4.871094 Z M -12.578125 4.011719 L -12.035156 4.300781 L -11.355469 4.4375 L -10.953125 4.777344 L -11.085938 5.332031 L -13.367188 8.042969 L -13.761719 8.210938 L -14.09375 7.859375 L -14.507812 4.285156 L -14.238281 3.800781 L -13.738281 3.699219 Z M -12.578125 4.011719" transform="translate(166.432 298.036)"/></g></g></g><g fill="#FFF4E6"><g><g><path d="M -3.542969 -1.917969 L -4.882812 -2.535156 L -5.351562 -2.808594 L -5.992188 -3.070312 L -6.664062 -3.144531 L -7.195312 -2.707031 L -7.441406 -2.15625 L -7.769531 -1.582031 L -8.222656 -0.566406 L -8.539062 -0.0859375 L -8.828125 0.542969 L -9.316406 0.902344 L -10.082031 0.882812 L -10.695312 0.632812 L -11.203125 0.238281 L -14.070312 -0.960938 L -17.132812 -1.246094 L -17.699219 -1.128906 L -18.292969 -0.894531 L -18.820312 -0.726562 L -19.371094 -0.5 L -20.375 0.0664062 L -21.363281 0.878906 L -21.746094 1.425781 L -22.125 1.769531 L -23.304688 3.9375 L -23.429688 4.445312 L -23.648438 5.078125 L -23.835938 6.230469 L -23.792969 7.402344 L -23.605469 8.613281 L -22.933594 10.273438 L -22.355469 11.316406 L -21.449219 12.183594 L -21.089844 12.605469 L -20.554688 12.878906 L -20.113281 13.339844 L -19.324219 13.78125 L -18.457031 14.191406 L -17.828125 14.414062 L -16.207031 15.277344 L -15.714844 15.632812 L -14 16.375 L -13.425781 16.703125 L -12.984375 17.03125 L -12.367188 17.210938 L -11.65625 17.203125 L -11.195312 16.898438 L -9.5625 13.648438 L -8.90625 12.632812 L -8.699219 12.097656 L -5.121094 5.179688 L -4.914062 4.644531 L -2.351562 -0.292969 L -2.382812 -0.953125 L -3.078125 -1.644531 Z M -12.25 5.175781 L -11.878906 5.773438 L -11.871094 6.351562 L -12.898438 8.558594 L -13.242188 9.09375 L -13.804688 10.191406 L -14.332031 10.5625 L -15.03125 10.542969 L -17.773438 9.035156 L -18.183594 8.519531 L -18.460938 8.007812 L -18.632812 7.480469 L -18.625 6.808594 L -18.457031 6.285156 L -18.128906 5.507812 L -17.703125 4.8125 L -17.269531 4.425781 L -16.808594 4.121094 L -16.242188 3.871094 L -15.648438 3.769531 L -15.152344 3.855469 L -14.269531 4.175781 L -12.917969 4.902344 Z M -12.25 5.175781" transform="translate(145.551 291.74)"/></g></g></g><g fill="#FFF4E6"><g><g><path d="M -2.1875 -0.859375 L -2.070312 -1.523438 L -2.265625 -2.15625 L -2.730469 -2.539062 L -3.578125 -3.394531 L -4.085938 -3.777344 L -4.996094 -4.652344 L -5.703125 -4.8125 L -6.269531 -4.550781 L -6.699219 -4.171875 L -7.101562 -3.640625 L -10.691406 0.285156 L -11.316406 0.566406 L -12.046875 0.429688 L -14.6875 -1.941406 L -15.089844 -2.433594 L -15.492188 -2.800781 L -15.6875 -3.429688 L -15.523438 -4.054688 L -11.0625 -8.976562 L -10.980469 -9.554688 L -11.359375 -10.433594 L -12.515625 -11.488281 L -13 -11.851562 L -13.847656 -12.75 L -14.53125 -12.847656 L -15.144531 -12.710938 L -16.945312 -10.652344 L -17.664062 -10.003906 L -17.921875 -9.585938 L -28.128906 1.527344 L -28.355469 2.175781 L -28.074219 2.761719 L -25.542969 5.117188 L -24.757812 5.550781 L -24.050781 5.222656 L -23.257812 4.398438 L -22.957031 3.980469 L -22.078125 3.109375 L -21.761719 2.628906 L -20.15625 0.917969 L -19.503906 0.699219 L -18.839844 0.859375 L -18.476562 1.3125 L -17.53125 2.015625 L -17.105469 2.484375 L -16.667969 2.804688 L -15.378906 4.027344 L -15.140625 4.609375 L -15.304688 5.234375 L -15.726562 5.742188 L -16.152344 6.210938 L -16.496094 6.628906 L -18.101562 8.339844 L -18.59375 8.789062 L -19.296875 9.648438 L -19.484375 10.253906 L -19.242188 10.921875 L -18.714844 11.324219 L -16.558594 13.378906 L -15.867188 13.601562 L -15.238281 13.363281 L -14.746094 12.914062 L -13.210938 11.144531 L -12.757812 10.742188 L -12.015625 9.75 L -11.199219 8.949219 L -10.734375 8.394531 L -10.285156 7.992188 L -4.21875 1.359375 L -3.917969 0.898438 Z M -2.1875 -0.859375" transform="translate(120.333 277.607)"/></g></g></g><g fill="#FFF4E6"><g><g><path d="M -6.300781 -8.355469 L -8.964844 -11.730469 L -9.5625 -12.066406 L -10.265625 -11.941406 L -12.675781 -10.09375 L -12.953125 -9.464844 L -12.78125 -8.800781 L -12.3125 -8.289062 L -12.035156 -7.78125 L -11.125 -6.546875 L -10.425781 -5.832031 L -10.109375 -5.316406 L -9.683594 -4.8125 L -9.40625 -4.304688 L -8.957031 -3.816406 L -8.808594 -3.132812 L -9.09375 -2.609375 L -10.59375 -1.457031 L -11.261719 -1.289062 L -11.851562 -1.515625 L -12.425781 -2.210938 L -12.941406 -3.03125 L -13.683594 -3.902344 L -14.410156 -4.898438 L -14.824219 -5.335938 L -15.222656 -5.902344 L -15.777344 -6.234375 L -16.382812 -6.035156 L -18.585938 -4.460938 L -19.070312 -3.707031 L -18.957031 -2.921875 L -17.878906 -1.515625 L -17.445312 -1.050781 L -16.75 0.0078125 L -15.640625 1.351562 L -15.46875 2.019531 L -16.0625 2.777344 L -16.800781 3.34375 L -17.417969 3.476562 L -18.011719 3.101562 L -18.335938 2.628906 L -18.78125 2.25 L -21.351562 -1.199219 L -21.722656 -1.632812 L -22.394531 -1.914062 L -23.003906 -1.824219 L -23.464844 -1.433594 L -23.960938 -1.09375 L -25.355469 0.0546875 L -25.640625 0.617188 L -25.46875 1.242188 L -25.082031 1.742188 L -24.847656 2.242188 L -23.339844 4.15625 L -22.890625 4.644531 L -22.574219 5.160156 L -22.238281 5.546875 L -21.917969 6.058594 L -20.371094 7.980469 L -20.074219 8.511719 L -19.632812 8.890625 L -19.351562 9.355469 L -18.9375 9.796875 L -18.59375 10.292969 L -18.019531 10.648438 L -17.316406 10.523438 L -16.445312 9.78125 L -15.414062 9.101562 L -14.945312 8.628906 L -12.570312 6.882812 L -12.125 6.425781 L -11.632812 6.125 L -9.660156 4.648438 L -9.285156 4.246094 L -5.402344 1.304688 L -4.914062 1.003906 L -4.492188 0.566406 L -2.792969 -0.625 L -2.304688 -1.074219 L -1.804688 -1.761719 L -2.046875 -2.714844 L -3.339844 -4.449219 L -3.789062 -4.9375 L -4.09375 -5.386719 L -4.917969 -6.308594 L -5.171875 -6.835938 L -5.566406 -7.402344 L -5.980469 -7.839844 Z M -6.300781 -8.355469" transform="translate(104.195 262.555)"/></g></g></g><g fill="#FFF4E6"><g><g><path d="M -2.140625 -1.421875 L -1.457031 -2.121094 L -1.515625 -3.074219 L -1.875 -3.566406 L -2.242188 -4.460938 L -2.519531 -4.859375 L -2.941406 -5.65625 L -3.652344 -6.367188 L -4.550781 -6.203125 L -5.457031 -5.726562 L -5.964844 -5.527344 L -6.480469 -5.152344 L -8.210938 -4.3125 L -8.871094 -4.269531 L -9.429688 -4.621094 L -10.027344 -6.277344 L -9.855469 -7.046875 L -9.488281 -7.648438 L -9.125 -8.113281 L -8.617188 -9.089844 L -7.925781 -10.101562 L -7.679688 -10.601562 L -7.261719 -11.09375 L -6.960938 -11.625 L -6.792969 -12.464844 L -7.027344 -13.492188 L -8.160156 -15.582031 L -8.371094 -16.117188 L -8.859375 -16.980469 L -9.367188 -17.359375 L -10.035156 -17.210938 L -10.46875 -16.609375 L -10.671875 -16.097656 L -11.066406 -15.617188 L -11.945312 -14 L -12.300781 -13.507812 L -13.234375 -11.929688 L -13.46875 -11.398438 L -14.09375 -11.035156 L -14.804688 -10.96875 L -15.398438 -11.128906 L -15.914062 -11.335938 L -18.324219 -11.394531 L -20.046875 -10.929688 L -21.695312 -9.992188 L -22.1875 -9.632812 L -23.453125 -8.355469 L -23.792969 -7.90625 L -24.0625 -7.390625 L -24.863281 -5.03125 L -24.878906 -3.835938 L -24.691406 -2.640625 L -24.242188 -0.945312 L -23.820312 -0.078125 L -23.363281 0.664062 L -22.523438 2.261719 L -22.347656 2.851562 L -22.070312 3.382812 L -21.683594 3.792969 L -21.402344 4.324219 L -21.230469 4.914062 L -20.949219 5.511719 L -19.992188 7.011719 L -19.472656 7.351562 L -18.558594 7.277344 L -12.480469 4.046875 L -11.976562 3.714844 L -10.867188 3.234375 L -10.296875 2.898438 L -9.765625 2.621094 L -9.285156 2.300781 L -8.753906 2.089844 L -6.582031 0.980469 L -6.078125 0.648438 Z M -13.6875 -2.382812 L -13.699219 -1.695312 L -14.011719 -1.261719 L -15.609375 -0.421875 L -16.035156 -0.128906 L -17.179688 0.40625 L -17.8125 0.429688 L -18.320312 -0.015625 L -18.570312 -0.5625 L -19.238281 -1.570312 L -19.46875 -2.398438 L -19.78125 -3.121094 L -19.914062 -3.695312 L -19.4375 -4.792969 L -19.097656 -5.179688 L -18.460938 -5.648438 L -17.621094 -5.988281 L -16.960938 -6.027344 L -16.410156 -5.945312 L -16.015625 -5.777344 L -15.550781 -5.410156 L -14.957031 -4.738281 L -14.664062 -4.246094 L -14.046875 -2.941406 Z M -13.6875 -2.382812" transform="translate(93.515 248.874)"/></g></g></g><g fill="#FFF4E6"><g><g><path d="M -3.140625 -9.980469 L -4.523438 -14.054688 L -4.976562 -14.570312 L -5.679688 -14.691406 L -8.566406 -13.753906 L -9.039062 -13.253906 L -9.101562 -12.570312 L -8.832031 -11.929688 L -8.738281 -11.359375 L -8.296875 -9.890625 L -7.875 -8.984375 L -7.746094 -8.394531 L -7.515625 -7.773438 L -7.425781 -7.203125 L -7.164062 -6.589844 L -7.253906 -5.898438 L -7.695312 -5.503906 L -9.496094 -4.917969 L -10.179688 -4.980469 L -10.664062 -5.394531 L -10.96875 -6.242188 L -11.179688 -7.183594 L -11.589844 -8.253906 L -11.941406 -9.4375 L -12.183594 -9.988281 L -12.367188 -10.65625 L -12.78125 -11.152344 L -13.417969 -11.167969 L -16.023438 -10.421875 L -16.730469 -9.875 L -16.886719 -9.097656 L -16.339844 -7.410156 L -16.089844 -6.828125 L -15.785156 -5.597656 L -15.191406 -3.957031 L -15.253906 -3.273438 L -16.066406 -2.757812 L -16.953125 -2.46875 L -17.578125 -2.550781 L -18.011719 -3.105469 L -18.160156 -3.660156 L -18.449219 -4.164062 L -19.71875 -8.273438 L -19.921875 -8.808594 L -20.460938 -9.296875 L -21.070312 -9.414062 L -21.632812 -9.203125 L -22.214844 -9.046875 L -23.910156 -8.429688 L -24.371094 -7.996094 L -24.414062 -7.351562 L -24.21875 -6.75 L -24.167969 -6.199219 L -23.386719 -3.890625 L -23.125 -3.28125 L -22.996094 -2.691406 L -22.8125 -2.214844 L -22.683594 -1.621094 L -21.867188 0.703125 L -21.765625 1.304688 L -21.476562 1.808594 L -21.367188 2.34375 L -21.125 2.898438 L -20.964844 3.476562 L -20.542969 4.003906 L -19.839844 4.125 L -18.773438 3.714844 L -17.570312 3.421875 L -16.96875 3.132812 L -14.148438 2.28125 L -13.574219 2 L -13.011719 1.878906 L -10.660156 1.148438 L -10.171875 0.894531 L -5.527344 -0.578125 L -4.96875 -0.695312 L -4.421875 -0.96875 L -2.421875 -1.523438 L -1.8125 -1.785156 L -1.113281 -2.261719 L -1.019531 -3.242188 L -1.660156 -5.308594 L -1.917969 -5.921875 L -2.058594 -6.445312 L -2.523438 -7.589844 L -2.585938 -8.171875 L -2.769531 -8.835938 L -3.011719 -9.390625 Z M -3.140625 -9.980469" transform="translate(83.895 230.231)"/></g></g></g><g fill="#FFF4E6"><g><g><path d="M -12.015625 -2.992188 L -12.164062 -3.582031 L -13.65625 -4.3125 L -14.03125 -4.457031 L -14.074219 -4.875 L -13.714844 -5.210938 L -13.367188 -5.398438 L -12.761719 -5.96875 L -12.394531 -6.246094 L -12.328125 -6.796875 L -13.5625 -7.976562 L -13.839844 -8.34375 L -14.140625 -8.644531 L -14.414062 -8.980469 L -14.984375 -8.953125 L -15.257812 -8.65625 L -15.554688 -8.265625 L -16.371094 -7.367188 L -16.765625 -7.390625 L -16.957031 -7.792969 L -17.03125 -8.242188 L -17.222656 -8.644531 L -17.453125 -9.46875 L -17.957031 -9.660156 L -18.332031 -9.503906 L -18.777344 -9.429688 L -19.148438 -9.210938 L -19.535156 -9.113281 L -19.84375 -8.902344 L -20.257812 -8.800781 L -20.597656 -8.554688 L -20.847656 -8.046875 L -20.601562 -7.679688 L -20.253906 -6.898438 L -20.003906 -6.527344 L -19.878906 -6.148438 L -20.023438 -5.773438 L -20.847656 -5.871094 L -21.625 -5.796875 L -21.992188 -5.851562 L -22.375 -5.421875 L -22.191406 -3.261719 L -22.09375 -2.878906 L -22.070312 -2.339844 L -21.652344 -2.078125 L -21.238281 -2.148438 L -20.878906 -2.183594 L -20.5 -2.3125 L -19.757812 -2.476562 L -19.425781 -2.175781 L -19.675781 -1.335938 L -19.753906 -0.875 L -19.933594 -0.554688 L -20.066406 -0.0585938 L -19.726562 0.332031 L -19.324219 0.414062 L -18.949219 0.558594 L -18.113281 0.746094 L -17.75 0.773438 L -17.347656 0.855469 L -16.910156 0.992188 L -16.523438 0.621094 L -16.449219 0.160156 L -16.363281 -0.210938 L -16.292969 -0.699219 L -16.292969 -1.03125 L -16.1875 -1.496094 L -15.839844 -1.648438 L -15.484375 -1.382812 L -15.179688 -1.082031 L -14.855469 -0.839844 L -14.507812 -0.664062 L -14.140625 -0.335938 L -13.578125 -0.453125 L -13.378906 -0.863281 L -13.164062 -1.15625 L -12.667969 -1.960938 L -12.191406 -2.613281 Z M -12.015625 -2.992188" transform="translate(76.894 204.34)"/></g></g></g><g fill="#FFF4E6"><g><g><path d="M 0.972656 -7.789062 L 1.144531 -9.796875 L 0.949219 -10.695312 L 0.148438 -11.09375 L -1.394531 -11.363281 L -2.539062 -11.40625 L -3.160156 -11.539062 L -4.359375 -11.648438 L -4.890625 -11.773438 L -5.558594 -11.761719 L -10.359375 -12.382812 L -10.996094 -12.367188 L -13.582031 -12.757812 L -14.453125 -13.101562 L -14.742188 -13.710938 L -14.667969 -14.882812 L -14.386719 -15.972656 L -14.40625 -16.609375 L -14.3125 -17.144531 L -14.582031 -17.6875 L -15.195312 -18.125 L -18.03125 -18.484375 L -18.664062 -18.226562 L -19.121094 -17.707031 L -19.335938 -15.855469 L -19.460938 -15.292969 L -19.445312 -14.65625 L -19.574219 -14.09375 L -19.734375 -11.664062 L -19.925781 -11.078125 L -20.019531 -10.515625 L -20.003906 -9.878906 L -20.140625 -9.226562 L -20.085938 -8.675781 L -20.378906 -6.925781 L -20.398438 -5.988281 L -20.761719 -3.910156 L -20.53125 -3.308594 L -19.886719 -2.871094 L -19.285156 -2.832031 L -17.800781 -2.597656 L -16.867188 -2.546875 L -16.296875 -2.753906 L -15.9375 -3.257812 L -15.925781 -3.859375 L -15.535156 -6.691406 L -15.167969 -7.222656 L -14.535156 -7.480469 L -13.585938 -7.308594 L -12.742188 -7.273438 L -12.089844 -7.164062 L -11.488281 -7.125 L -10.660156 -6.96875 L -6.199219 -6.539062 L -5.609375 -6.40625 L -3.191406 -6.09375 L -2.558594 -6.082031 L -0.828125 -5.847656 L -0.269531 -5.722656 L 0.433594 -6.035156 L 0.832031 -6.863281 Z M 0.972656 -7.789062" transform="translate(75.557 182.789)"/></g></g></g><g fill="#FFF4E6"><g><g><path d="M 5.117188 -16.984375 L 5.355469 -18.105469 L 5.578125 -18.636719 L 5.8125 -19.539062 L 5.910156 -20.390625 L 5.242188 -20.679688 L 4.519531 -20.675781 L 3.328125 -20.5625 L 1.597656 -20.230469 L 0.410156 -20.144531 L -0.800781 -19.875 L -3.746094 -19.5625 L -4.265625 -19.402344 L -4.898438 -19.277344 L -5.585938 -19.292969 L -6.09375 -19.160156 L -6.605469 -19.125 L -7.851562 -18.835938 L -8.519531 -18.816406 L -13.089844 -18.105469 L -13.71875 -18.105469 L -14.332031 -17.941406 L -14.902344 -17.921875 L -16.074219 -17.675781 L -16.738281 -17.339844 L -17.308594 -16.476562 L -17.265625 -15.457031 L -16.929688 -14.792969 L -16.515625 -14.386719 L -16 -14.015625 L -15.675781 -13.636719 L -13.367188 -11.695312 L -13.027344 -11.25 L -12.496094 -10.933594 L -12.042969 -10.453125 L -11.574219 -10.125 L -6.28125 -5.351562 L -5.699219 -4.988281 L -5.351562 -4.574219 L -4.835938 -4.199219 L -4.070312 -3.40625 L -3.042969 -2.632812 L -2.734375 -2.195312 L -2.257812 -1.894531 L -1.277344 -0.976562 L -0.753906 -0.632812 L 0.0117188 -0.5625 L 0.355469 -1.085938 L 0.632812 -2.226562 L 0.859375 -2.785156 L 1.28125 -4.417969 L 1.277344 -5.140625 L 0.921875 -5.84375 L 0.125 -6.644531 L -0.257812 -7.355469 L -0.394531 -8.054688 L -0.144531 -8.574219 L 0.0976562 -9.820312 L 0.339844 -10.3125 L 1.152344 -13.148438 L 1.363281 -13.648438 L 1.464844 -14.308594 L 1.972656 -14.847656 L 2.59375 -15.257812 L 3.21875 -15.355469 L 3.789062 -15.375 L 4.394531 -15.820312 L 4.878906 -16.398438 Z M -4.003906 -12.578125 L -4.292969 -12.039062 L -4.433594 -11.355469 L -4.769531 -10.957031 L -5.328125 -11.089844 L -8.035156 -13.371094 L -8.203125 -13.765625 L -7.851562 -14.101562 L -4.277344 -14.511719 L -3.792969 -14.242188 L -3.691406 -13.742188 Z M -4.003906 -12.578125" transform="translate(77.32 165.958)"/></g></g></g><g fill="#FFF4E6"><g><g><path d="M 1.917969 -3.542969 L 2.539062 -4.882812 L 2.8125 -5.347656 L 3.074219 -5.992188 L 3.148438 -6.664062 L 2.710938 -7.191406 L 2.164062 -7.441406 L 1.585938 -7.769531 L 0.570312 -8.222656 L 0.0898438 -8.539062 L -0.539062 -8.828125 L -0.898438 -9.316406 L -0.875 -10.082031 L -0.628906 -10.695312 L -0.230469 -11.203125 L 0.96875 -14.070312 L 1.253906 -17.132812 L 1.140625 -17.699219 L 0.90625 -18.292969 L 0.734375 -18.820312 L 0.511719 -19.371094 L -0.0546875 -20.375 L -0.863281 -21.363281 L -1.414062 -21.746094 L -1.757812 -22.125 L -3.925781 -23.304688 L -4.433594 -23.429688 L -5.0625 -23.652344 L -6.21875 -23.839844 L -7.386719 -23.796875 L -8.601562 -23.609375 L -10.261719 -22.941406 L -11.304688 -22.359375 L -12.171875 -21.457031 L -12.59375 -21.097656 L -12.867188 -20.5625 L -13.332031 -20.121094 L -13.769531 -19.332031 L -14.179688 -18.464844 L -14.402344 -17.835938 L -15.265625 -16.214844 L -15.621094 -15.722656 L -16.367188 -14.007812 L -16.695312 -13.433594 L -17.023438 -12.992188 L -17.203125 -12.378906 L -17.199219 -11.664062 L -16.894531 -11.203125 L -13.644531 -9.570312 L -12.628906 -8.914062 L -12.09375 -8.707031 L -5.175781 -5.125 L -4.640625 -4.917969 L 0.292969 -2.351562 L 0.953125 -2.382812 L 1.644531 -3.074219 Z M -5.167969 -12.25 L -5.765625 -11.878906 L -6.34375 -11.875 L -8.550781 -12.90625 L -9.085938 -13.246094 L -10.183594 -13.808594 L -10.554688 -14.339844 L -10.53125 -15.035156 L -9.023438 -17.777344 L -8.507812 -18.1875 L -7.996094 -18.464844 L -7.46875 -18.636719 L -6.796875 -18.628906 L -6.273438 -18.460938 L -5.5 -18.132812 L -4.804688 -17.707031 L -4.417969 -17.273438 L -4.113281 -16.8125 L -3.863281 -16.246094 L -3.761719 -15.652344 L -3.847656 -15.15625 L -4.167969 -14.269531 L -4.894531 -12.921875 Z M -5.167969 -12.25" transform="translate(83.625 145.084)"/></g></g></g><g fill="#FFF4E6"><g><g><path d="M 0.863281 -2.1875 L 1.527344 -2.066406 L 2.15625 -2.265625 L 2.539062 -2.730469 L 3.398438 -3.574219 L 3.777344 -4.082031 L 4.652344 -4.992188 L 4.8125 -5.703125 L 4.554688 -6.265625 L 4.175781 -6.695312 L 3.644531 -7.097656 L -0.277344 -10.691406 L -0.5625 -11.316406 L -0.421875 -12.046875 L 1.949219 -14.683594 L 2.445312 -15.089844 L 2.808594 -15.488281 L 3.4375 -15.6875 L 4.0625 -15.523438 L 8.984375 -11.058594 L 9.5625 -10.976562 L 10.441406 -11.355469 L 11.496094 -12.507812 L 11.855469 -12.992188 L 12.757812 -13.839844 L 12.855469 -14.527344 L 12.71875 -15.136719 L 10.660156 -16.941406 L 10.011719 -17.65625 L 9.597656 -17.914062 L -1.511719 -28.132812 L -2.160156 -28.359375 L -2.746094 -28.078125 L -5.101562 -25.546875 L -5.535156 -24.761719 L -5.207031 -24.054688 L -4.386719 -23.257812 L -3.96875 -22.957031 L -3.097656 -22.082031 L -2.617188 -21.761719 L -0.90625 -20.15625 L -0.6875 -19.507812 L -0.847656 -18.839844 L -1.300781 -18.480469 L -2.003906 -17.53125 L -2.476562 -17.109375 L -2.796875 -16.667969 L -4.015625 -15.378906 L -4.601562 -15.140625 L -5.226562 -15.304688 L -5.734375 -15.730469 L -6.199219 -16.15625 L -6.621094 -16.5 L -8.328125 -18.105469 L -8.777344 -18.597656 L -9.636719 -19.304688 L -10.242188 -19.492188 L -10.914062 -19.25 L -11.316406 -18.71875 L -13.371094 -16.566406 L -13.59375 -15.875 L -13.355469 -15.246094 L -12.90625 -14.753906 L -11.136719 -13.214844 L -10.734375 -12.765625 L -9.742188 -12.019531 L -8.941406 -11.207031 L -8.390625 -10.738281 L -7.984375 -10.289062 L -1.355469 -4.21875 L -0.894531 -3.917969 Z M 0.863281 -2.1875" transform="translate(97.773 119.872)"/></g></g></g><g fill="#FFF4E6"><g><g><path d="M 8.359375 -6.292969 L 11.734375 -8.957031 L 12.070312 -9.558594 L 11.949219 -10.261719 L 10.101562 -12.671875 L 9.472656 -12.945312 L 8.808594 -12.777344 L 8.296875 -12.308594 L 7.785156 -12.03125 L 6.550781 -11.121094 L 5.835938 -10.421875 L 5.324219 -10.105469 L 4.816406 -9.679688 L 4.308594 -9.402344 L 3.820312 -8.953125 L 3.136719 -8.808594 L 2.617188 -9.089844 L 1.464844 -10.59375 L 1.292969 -11.257812 L 1.523438 -11.851562 L 2.21875 -12.425781 L 3.039062 -12.9375 L 3.910156 -13.679688 L 4.90625 -14.40625 L 5.34375 -14.820312 L 5.914062 -15.21875 L 6.242188 -15.773438 L 6.042969 -16.378906 L 4.46875 -18.582031 L 3.71875 -19.066406 L 2.933594 -18.957031 L 1.523438 -17.878906 L 1.058594 -17.445312 L 0.00390625 -16.75 L -1.34375 -15.640625 L -2.011719 -15.46875 L -2.769531 -16.0625 L -3.335938 -16.804688 L -3.46875 -17.421875 L -3.089844 -18.015625 L -2.617188 -18.339844 L -2.238281 -18.78125 L 1.210938 -21.351562 L 1.644531 -21.722656 L 1.925781 -22.390625 L 1.835938 -23.003906 L 1.445312 -23.464844 L 1.105469 -23.957031 L -0.0390625 -25.355469 L -0.601562 -25.644531 L -1.226562 -25.46875 L -1.726562 -25.082031 L -2.230469 -24.847656 L -4.144531 -23.34375 L -4.632812 -22.894531 L -5.148438 -22.574219 L -5.535156 -22.242188 L -6.046875 -21.921875 L -7.96875 -20.375 L -8.5 -20.082031 L -8.878906 -19.636719 L -9.347656 -19.355469 L -9.785156 -18.941406 L -10.28125 -18.601562 L -10.636719 -18.023438 L -10.515625 -17.324219 L -9.773438 -16.453125 L -9.09375 -15.417969 L -8.621094 -14.949219 L -6.875 -12.574219 L -6.417969 -12.128906 L -6.121094 -11.636719 L -4.644531 -9.664062 L -4.242188 -9.289062 L -1.300781 -5.40625 L -1.003906 -4.914062 L -0.566406 -4.492188 L 0.625 -2.792969 L 1.074219 -2.300781 L 1.761719 -1.804688 L 2.714844 -2.042969 L 4.449219 -3.335938 L 4.9375 -3.785156 L 5.386719 -4.09375 L 6.3125 -4.914062 L 6.835938 -5.167969 L 7.402344 -5.5625 L 7.84375 -5.976562 Z M 8.359375 -6.292969" transform="translate(112.833 103.744)"/></g></g></g><g fill="#FFF4E6"><g><g><path d="M 1.421875 -2.140625 L 2.121094 -1.453125 L 3.078125 -1.515625 L 3.566406 -1.875 L 4.460938 -2.242188 L 4.859375 -2.515625 L 5.65625 -2.9375 L 6.371094 -3.648438 L 6.203125 -4.546875 L 5.730469 -5.453125 L 5.53125 -5.960938 L 5.15625 -6.476562 L 4.316406 -8.210938 L 4.277344 -8.867188 L 4.628906 -9.425781 L 6.285156 -10.023438 L 7.054688 -9.851562 L 7.652344 -9.484375 L 8.117188 -9.117188 L 9.09375 -8.613281 L 10.105469 -7.921875 L 10.605469 -7.675781 L 11.097656 -7.253906 L 11.628906 -6.957031 L 12.46875 -6.785156 L 13.496094 -7.019531 L 15.585938 -8.152344 L 16.121094 -8.363281 L 16.984375 -8.851562 L 17.367188 -9.355469 L 17.21875 -10.027344 L 16.617188 -10.457031 L 16.101562 -10.664062 L 15.625 -11.054688 L 14.003906 -11.9375 L 13.515625 -12.292969 L 11.933594 -13.230469 L 11.40625 -13.460938 L 11.042969 -14.085938 L 10.976562 -14.796875 L 11.140625 -15.390625 L 11.34375 -15.90625 L 11.402344 -18.316406 L 10.9375 -20.042969 L 10.003906 -21.691406 L 9.644531 -22.179688 L 8.371094 -23.445312 L 7.917969 -23.789062 L 7.402344 -24.058594 L 5.046875 -24.859375 L 3.847656 -24.875 L 2.65625 -24.691406 L 0.957031 -24.242188 L 0.0898438 -23.820312 L -0.652344 -23.363281 L -2.25 -22.523438 L -2.839844 -22.351562 L -3.371094 -22.070312 L -3.78125 -21.6875 L -4.3125 -21.40625 L -4.902344 -21.234375 L -5.5 -20.953125 L -7 -19.996094 L -7.339844 -19.476562 L -7.269531 -18.5625 L -4.039062 -12.480469 L -3.707031 -11.976562 L -3.230469 -10.871094 L -2.894531 -10.296875 L -2.613281 -9.765625 L -2.296875 -9.289062 L -2.082031 -8.753906 L -0.976562 -6.585938 L -0.644531 -6.078125 Z M 2.390625 -13.683594 L 1.703125 -13.699219 L 1.269531 -14.011719 L 0.429688 -15.609375 L 0.136719 -16.035156 L -0.394531 -17.179688 L -0.421875 -17.8125 L 0.0273438 -18.320312 L 0.570312 -18.570312 L 1.582031 -19.238281 L 2.410156 -19.46875 L 3.128906 -19.777344 L 3.707031 -19.910156 L 4.804688 -19.4375 L 5.1875 -19.09375 L 5.660156 -18.457031 L 5.996094 -17.617188 L 6.039062 -16.957031 L 5.953125 -16.40625 L 5.789062 -16.011719 L 5.421875 -15.546875 L 4.746094 -14.957031 L 4.253906 -14.664062 L 2.949219 -14.046875 Z M 2.390625 -13.683594" transform="translate(126.524 93.068)"/></g></g></g><g fill="#FFF4E6"><g><g><path d="M 9.984375 -3.136719 L 14.054688 -4.515625 L 14.574219 -4.96875 L 14.691406 -5.671875 L 13.757812 -8.558594 L 13.257812 -9.03125 L 12.574219 -9.09375 L 11.933594 -8.824219 L 11.363281 -8.734375 L 9.894531 -8.289062 L 8.988281 -7.871094 L 8.398438 -7.742188 L 7.777344 -7.511719 L 7.207031 -7.417969 L 6.59375 -7.160156 L 5.902344 -7.25 L 5.507812 -7.691406 L 4.921875 -9.492188 L 4.988281 -10.179688 L 5.398438 -10.660156 L 6.25 -10.964844 L 7.191406 -11.175781 L 8.261719 -11.585938 L 9.441406 -11.9375 L 9.996094 -12.179688 L 10.664062 -12.363281 L 11.160156 -12.777344 L 11.175781 -13.414062 L 10.429688 -16.015625 L 9.882812 -16.722656 L 9.105469 -16.882812 L 7.417969 -16.335938 L 6.835938 -16.085938 L 5.605469 -15.78125 L 3.964844 -15.1875 L 3.28125 -15.25 L 2.765625 -16.0625 L 2.480469 -16.949219 L 2.558594 -17.578125 L 3.117188 -18.011719 L 3.667969 -18.15625 L 4.175781 -18.449219 L 8.285156 -19.714844 L 8.820312 -19.917969 L 9.308594 -20.457031 L 9.425781 -21.0625 L 9.214844 -21.625 L 9.058594 -22.207031 L 8.445312 -23.90625 L 8.011719 -24.367188 L 7.363281 -24.410156 L 6.765625 -24.214844 L 6.210938 -24.164062 L 3.90625 -23.386719 L 3.292969 -23.125 L 2.703125 -22.996094 L 2.226562 -22.808594 L 1.636719 -22.683594 L -0.691406 -21.867188 L -1.292969 -21.765625 L -1.796875 -21.476562 L -2.332031 -21.367188 L -2.886719 -21.125 L -3.464844 -20.96875 L -3.992188 -20.546875 L -4.113281 -19.84375 L -3.703125 -18.773438 L -3.410156 -17.574219 L -3.121094 -16.972656 L -2.273438 -14.148438 L -1.992188 -13.578125 L -1.871094 -13.015625 L -1.140625 -10.660156 L -0.890625 -10.171875 L 0.582031 -5.527344 L 0.699219 -4.96875 L 0.972656 -4.421875 L 1.523438 -2.421875 L 1.785156 -1.808594 L 2.261719 -1.113281 L 3.242188 -1.015625 L 5.3125 -1.65625 L 5.921875 -1.917969 L 6.445312 -2.054688 L 7.589844 -2.519531 L 8.171875 -2.582031 L 8.839844 -2.765625 L 9.390625 -3.007812 Z M 9.984375 -3.136719" transform="translate(145.168 83.462)"/></g></g></g><g fill="#FFF4E6"><g><g><path d="M 3 -12.011719 L 3.589844 -12.160156 L 4.320312 -13.652344 L 4.464844 -14.03125 L 4.882812 -14.070312 L 5.21875 -13.710938 L 5.40625 -13.367188 L 5.976562 -12.757812 L 6.253906 -12.390625 L 6.804688 -12.324219 L 7.984375 -13.554688 L 8.347656 -13.832031 L 8.652344 -14.136719 L 8.988281 -14.410156 L 8.960938 -14.980469 L 8.664062 -15.253906 L 8.273438 -15.546875 L 7.378906 -16.367188 L 7.398438 -16.761719 L 7.804688 -16.953125 L 8.25 -17.027344 L 8.65625 -17.21875 L 9.476562 -17.449219 L 9.671875 -17.949219 L 9.511719 -18.328125 L 9.4375 -18.773438 L 9.222656 -19.144531 L 9.125 -19.527344 L 8.914062 -19.839844 L 8.8125 -20.253906 L 8.566406 -20.59375 L 8.058594 -20.84375 L 7.691406 -20.597656 L 6.910156 -20.25 L 6.539062 -20 L 6.160156 -19.875 L 5.785156 -20.019531 L 5.882812 -20.84375 L 5.808594 -21.621094 L 5.863281 -21.988281 L 5.433594 -22.371094 L 3.277344 -22.191406 L 2.890625 -22.09375 L 2.351562 -22.070312 L 2.089844 -21.652344 L 2.160156 -21.238281 L 2.195312 -20.878906 L 2.324219 -20.496094 L 2.484375 -19.757812 L 2.1875 -19.425781 L 1.34375 -19.675781 L 0.886719 -19.753906 L 0.566406 -19.933594 L 0.0703125 -20.066406 L -0.320312 -19.726562 L -0.402344 -19.324219 L -0.546875 -18.949219 L -0.738281 -18.113281 L -0.761719 -17.75 L -0.84375 -17.347656 L -0.984375 -16.914062 L -0.613281 -16.527344 L -0.152344 -16.449219 L 0.21875 -16.363281 L 0.707031 -16.292969 L 1.039062 -16.292969 L 1.503906 -16.1875 L 1.660156 -15.839844 L 1.390625 -15.480469 L 1.089844 -15.179688 L 0.847656 -14.855469 L 0.671875 -14.503906 L 0.34375 -14.140625 L 0.460938 -13.578125 L 0.871094 -13.378906 L 1.164062 -13.164062 L 1.96875 -12.667969 L 2.617188 -12.1875 Z M 3 -12.011719" transform="translate(171.065 76.473)"/></g></g></g><g fill="#FFF4E6"><g><g><path d="M 7.785156 0.976562 L 9.792969 1.152344 L 10.695312 0.953125 L 11.09375 0.152344 L 11.363281 -1.390625 L 11.410156 -2.535156 L 11.542969 -3.15625 L 11.652344 -4.351562 L 11.777344 -4.882812 L 11.761719 -5.550781 L 12.386719 -10.351562 L 12.371094 -10.988281 L 12.765625 -13.578125 L 13.109375 -14.445312 L 13.71875 -14.734375 L 14.890625 -14.660156 L 15.980469 -14.378906 L 16.617188 -14.394531 L 17.152344 -14.300781 L 17.699219 -14.570312 L 18.132812 -15.1875 L 18.496094 -18.019531 L 18.238281 -18.65625 L 17.714844 -19.109375 L 15.863281 -19.328125 L 15.304688 -19.453125 L 14.667969 -19.4375 L 14.105469 -19.566406 L 11.671875 -19.730469 L 11.089844 -19.917969 L 10.527344 -20.015625 L 9.890625 -20 L 9.238281 -20.136719 L 8.6875 -20.082031 L 6.9375 -20.378906 L 6 -20.394531 L 3.921875 -20.761719 L 3.320312 -20.53125 L 2.882812 -19.882812 L 2.839844 -19.285156 L 2.605469 -17.796875 L 2.558594 -16.863281 L 2.761719 -16.296875 L 3.265625 -15.933594 L 3.871094 -15.921875 L 6.699219 -15.53125 L 7.230469 -15.164062 L 7.488281 -14.53125 L 7.316406 -13.582031 L 7.28125 -12.738281 L 7.171875 -12.085938 L 7.132812 -11.484375 L 6.972656 -10.65625 L 6.539062 -6.195312 L 6.410156 -5.605469 L 6.097656 -3.1875 L 6.082031 -2.554688 L 5.847656 -0.828125 L 5.722656 -0.265625 L 6.035156 0.4375 L 6.863281 0.835938 Z M 7.785156 0.976562" transform="translate(192.614 75.151)"/></g></g></g><g fill="#FFF4E6"><g><g><path d="M 16.984375 5.125 L 18.105469 5.367188 L 18.632812 5.585938 L 19.535156 5.824219 L 20.386719 5.921875 L 20.679688 5.253906 L 20.675781 4.53125 L 20.558594 3.335938 L 20.230469 1.609375 L 20.144531 0.421875 L 19.875 -0.789062 L 19.5625 -3.738281 L 19.402344 -4.253906 L 19.277344 -4.886719 L 19.292969 -5.574219 L 19.164062 -6.082031 L 19.128906 -6.59375 L 18.839844 -7.84375 L 18.820312 -8.507812 L 18.113281 -13.078125 L 18.113281 -13.707031 L 17.949219 -14.320312 L 17.929688 -14.890625 L 17.683594 -16.0625 L 17.347656 -16.726562 L 16.484375 -17.300781 L 15.46875 -17.257812 L 14.804688 -16.921875 L 14.398438 -16.507812 L 14.023438 -15.992188 L 13.644531 -15.667969 L 11.703125 -13.359375 L 11.257812 -13.023438 L 10.941406 -12.488281 L 10.460938 -12.035156 L 10.132812 -11.570312 L 5.355469 -6.277344 L 4.992188 -5.695312 L 4.574219 -5.351562 L 4.203125 -4.832031 L 3.410156 -4.066406 L 2.632812 -3.042969 L 2.195312 -2.734375 L 1.898438 -2.257812 L 0.976562 -1.277344 L 0.632812 -0.753906 L 0.5625 0.0117188 L 1.085938 0.355469 L 2.226562 0.632812 L 2.785156 0.863281 L 4.417969 1.285156 L 5.140625 1.28125 L 5.84375 0.925781 L 6.644531 0.128906 L 7.355469 -0.253906 L 8.054688 -0.390625 L 8.578125 -0.140625 L 9.820312 0.105469 L 10.3125 0.34375 L 13.144531 1.160156 L 13.648438 1.371094 L 14.308594 1.472656 L 14.847656 1.980469 L 15.257812 2.605469 L 15.351562 3.226562 L 15.371094 3.796875 L 15.816406 4.402344 L 16.394531 4.886719 Z M 12.582031 -4 L 12.039062 -4.285156 L 11.359375 -4.425781 L 10.957031 -4.765625 L 11.09375 -5.320312 L 13.375 -8.027344 L 13.769531 -8.195312 L 14.105469 -7.84375 L 14.511719 -4.269531 L 14.242188 -3.785156 L 13.742188 -3.683594 Z M 12.582031 -4" transform="translate(209.448 76.92)"/></g></g></g><g fill="#FFF4E6"><g><g><path d="M 3.542969 1.921875 L 4.878906 2.542969 L 5.347656 2.816406 L 5.992188 3.078125 L 6.660156 3.152344 L 7.191406 2.714844 L 7.4375 2.167969 L 7.769531 1.59375 L 8.222656 0.574219 L 8.539062 0.09375 L 8.828125 -0.535156 L 9.316406 -0.890625 L 10.082031 -0.871094 L 10.699219 -0.621094 L 11.203125 -0.226562 L 14.070312 0.976562 L 17.132812 1.265625 L 17.699219 1.148438 L 18.292969 0.914062 L 18.816406 0.746094 L 19.371094 0.523438 L 20.375 -0.0429688 L 21.363281 -0.851562 L 21.746094 -1.402344 L 22.125 -1.746094 L 23.308594 -3.910156 L 23.433594 -4.421875 L 23.65625 -5.050781 L 23.84375 -6.203125 L 23.800781 -7.375 L 23.613281 -8.585938 L 22.945312 -10.25 L 22.367188 -11.289062 L 21.460938 -12.160156 L 21.101562 -12.582031 L 20.570312 -12.855469 L 20.128906 -13.320312 L 19.339844 -13.757812 L 18.472656 -14.171875 L 17.84375 -14.394531 L 16.226562 -15.257812 L 15.730469 -15.613281 L 14.019531 -16.359375 L 13.445312 -16.6875 L 13.003906 -17.015625 L 12.386719 -17.195312 L 11.675781 -17.191406 L 11.214844 -16.886719 L 9.578125 -13.636719 L 8.921875 -12.621094 L 8.714844 -12.085938 L 5.125 -5.175781 L 4.917969 -4.640625 L 2.351562 0.292969 L 2.382812 0.953125 L 3.074219 1.648438 Z M 12.253906 -5.164062 L 11.882812 -5.757812 L 11.875 -6.335938 L 12.910156 -8.542969 L 13.25 -9.078125 L 13.816406 -10.175781 L 14.34375 -10.546875 L 15.042969 -10.523438 L 17.78125 -9.015625 L 18.195312 -8.5 L 18.472656 -7.984375 L 18.640625 -7.460938 L 18.632812 -6.785156 L 18.464844 -6.265625 L 18.132812 -5.488281 L 17.710938 -4.792969 L 17.273438 -4.410156 L 16.8125 -4.105469 L 16.246094 -3.855469 L 15.652344 -3.753906 L 15.15625 -3.839844 L 14.273438 -4.160156 L 12.921875 -4.886719 Z M 12.253906 -5.164062" transform="translate(230.315 83.24)"/></g></g></g><g fill="#FFF4E6"><g><g><path d="M 2.1875 0.863281 L 2.066406 1.527344 L 2.265625 2.15625 L 2.726562 2.542969 L 3.574219 3.398438 L 4.078125 3.78125 L 4.992188 4.65625 L 5.699219 4.816406 L 6.261719 4.558594 L 6.691406 4.179688 L 7.097656 3.648438 L 10.691406 -0.273438 L 11.320312 -0.554688 L 12.046875 -0.417969 L 14.683594 1.957031 L 15.089844 2.453125 L 15.488281 2.816406 L 15.683594 3.449219 L 15.519531 4.070312 L 11.050781 8.992188 L 10.96875 9.570312 L 11.347656 10.445312 L 12.5 11.503906 L 12.984375 11.863281 L 13.832031 12.765625 L 14.519531 12.863281 L 15.128906 12.730469 L 16.933594 10.671875 L 17.652344 10.023438 L 17.910156 9.609375 L 28.132812 -1.496094 L 28.359375 -2.144531 L 28.078125 -2.730469 L 25.550781 -5.089844 L 24.765625 -5.523438 L 24.054688 -5.195312 L 23.261719 -4.371094 L 22.960938 -3.953125 L 22.082031 -3.085938 L 21.765625 -2.605469 L 20.15625 -0.894531 L 19.507812 -0.675781 L 18.839844 -0.839844 L 18.480469 -1.292969 L 17.535156 -1.996094 L 17.109375 -2.464844 L 16.667969 -2.789062 L 15.382812 -4.007812 L 15.144531 -4.59375 L 15.308594 -5.21875 L 15.734375 -5.726562 L 16.160156 -6.191406 L 16.503906 -6.609375 L 18.109375 -8.320312 L 18.601562 -8.765625 L 19.308594 -9.628906 L 19.496094 -10.230469 L 19.253906 -10.902344 L 18.726562 -11.304688 L 16.574219 -13.359375 L 15.882812 -13.585938 L 15.253906 -13.34375 L 14.761719 -12.898438 L 13.222656 -11.128906 L 12.769531 -10.726562 L 12.027344 -9.738281 L 11.210938 -8.933594 L 10.746094 -8.382812 L 10.292969 -7.980469 L 4.21875 -1.355469 L 3.917969 -0.894531 Z M 2.1875 0.863281" transform="translate(255.52 97.4)"/></g></g></g><g fill="#FFF4E6"><g><g><path d="M 6.289062 8.363281 L 8.953125 11.738281 L 9.550781 12.074219 L 10.253906 11.953125 L 12.664062 10.109375 L 12.941406 9.480469 L 12.773438 8.8125 L 12.304688 8.300781 L 12.027344 7.792969 L 11.121094 6.558594 L 10.421875 5.84375 L 10.101562 5.328125 L 9.675781 4.820312 L 9.402344 4.3125 L 8.949219 3.824219 L 8.804688 3.140625 L 9.089844 2.621094 L 10.59375 1.46875 L 11.257812 1.300781 L 11.851562 1.527344 L 12.421875 2.226562 L 12.9375 3.046875 L 13.679688 3.914062 L 14.402344 4.914062 L 14.816406 5.355469 L 15.214844 5.921875 L 15.769531 6.253906 L 16.375 6.054688 L 18.578125 4.480469 L 19.066406 3.730469 L 18.953125 2.941406 L 17.875 1.535156 L 17.445312 1.070312 L 16.75 0.0117188 L 15.640625 -1.335938 L 15.472656 -2 L 16.066406 -2.757812 L 16.804688 -3.324219 L 17.421875 -3.457031 L 18.015625 -3.078125 L 18.339844 -2.609375 L 18.78125 -2.226562 L 21.347656 1.222656 L 21.71875 1.660156 L 22.390625 1.941406 L 23.003906 1.851562 L 23.460938 1.460938 L 23.957031 1.117188 L 25.355469 -0.0273438 L 25.644531 -0.589844 L 25.46875 -1.210938 L 25.085938 -1.714844 L 24.851562 -2.214844 L 23.347656 -4.132812 L 22.894531 -4.621094 L 22.578125 -5.132812 L 22.242188 -5.523438 L 21.925781 -6.035156 L 20.378906 -7.957031 L 20.085938 -8.488281 L 19.640625 -8.867188 L 19.359375 -9.335938 L 18.949219 -9.777344 L 18.605469 -10.273438 L 18.03125 -10.628906 L 17.328125 -10.503906 L 16.457031 -9.761719 L 15.425781 -9.085938 L 14.953125 -8.613281 L 12.578125 -6.867188 L 12.132812 -6.414062 L 11.640625 -6.113281 L 9.664062 -4.636719 L 9.289062 -4.238281 L 5.40625 -1.300781 L 4.914062 -1 L 4.492188 -0.5625 L 2.789062 0.628906 L 2.300781 1.078125 L 1.804688 1.761719 L 2.042969 2.714844 L 3.335938 4.453125 L 3.785156 4.941406 L 4.089844 5.390625 L 4.910156 6.3125 L 5.164062 6.839844 L 5.558594 7.40625 L 5.972656 7.847656 Z M 6.289062 8.363281" transform="translate(271.639 112.47)"/></g></g></g><g fill="#FFF4E6"><g><g><path d="M 2.140625 1.425781 L 1.453125 2.125 L 1.511719 3.078125 L 1.871094 3.566406 L 2.238281 4.460938 L 2.515625 4.859375 L 2.933594 5.660156 L 3.648438 6.371094 L 4.542969 6.207031 L 5.449219 5.730469 L 5.957031 5.535156 L 6.472656 5.160156 L 8.207031 4.320312 L 8.863281 4.28125 L 9.421875 4.632812 L 10.019531 6.289062 L 9.847656 7.058594 L 9.480469 7.65625 L 9.113281 8.121094 L 8.609375 9.101562 L 7.914062 10.109375 L 7.667969 10.609375 L 7.25 11.101562 L 6.949219 11.632812 L 6.777344 12.472656 L 7.011719 13.5 L 8.140625 15.589844 L 8.355469 16.125 L 8.839844 16.988281 L 9.347656 17.371094 L 10.015625 17.222656 L 10.449219 16.621094 L 10.652344 16.109375 L 11.046875 15.628906 L 11.929688 14.011719 L 12.285156 13.519531 L 13.222656 11.941406 L 13.453125 11.414062 L 14.078125 11.050781 L 14.792969 10.984375 L 15.386719 11.148438 L 15.902344 11.351562 L 18.308594 11.414062 L 20.035156 10.949219 L 21.683594 10.015625 L 22.175781 9.660156 L 23.441406 8.382812 L 23.785156 7.933594 L 24.054688 7.417969 L 24.859375 5.0625 L 24.875 3.863281 L 24.691406 2.671875 L 24.242188 0.96875 L 23.820312 0.105469 L 23.363281 -0.640625 L 22.523438 -2.238281 L 22.351562 -2.824219 L 22.074219 -3.359375 L 21.6875 -3.769531 L 21.410156 -4.300781 L 21.234375 -4.890625 L 20.957031 -5.488281 L 20 -6.988281 L 19.480469 -7.328125 L 18.566406 -7.257812 L 12.484375 -4.035156 L 11.980469 -3.703125 L 10.871094 -3.222656 L 10.300781 -2.890625 L 9.765625 -2.609375 L 9.289062 -2.289062 L 8.753906 -2.078125 L 6.585938 -0.972656 L 6.078125 -0.640625 Z M 13.683594 2.398438 L 13.699219 1.710938 L 14.011719 1.277344 L 15.609375 0.4375 L 16.035156 0.148438 L 17.179688 -0.386719 L 17.8125 -0.410156 L 18.320312 0.0351562 L 18.570312 0.582031 L 19.234375 1.59375 L 19.46875 2.421875 L 19.777344 3.140625 L 19.910156 3.71875 L 19.433594 4.816406 L 19.089844 5.199219 L 18.453125 5.667969 L 17.613281 6.007812 L 16.957031 6.046875 L 16.402344 5.964844 L 16.007812 5.796875 L 15.542969 5.429688 L 14.953125 4.753906 L 14.660156 4.261719 L 14.042969 2.957031 Z M 13.683594 2.398438" transform="translate(282.311 126.164)"/></g></g></g><g fill="#FFF4E6"><g><g><path d="M 3.128906 9.984375 L 4.507812 14.058594 L 4.960938 14.574219 L 5.664062 14.695312 L 8.550781 13.761719 L 9.023438 13.261719 L 9.085938 12.578125 L 8.816406 11.941406 L 8.726562 11.367188 L 8.285156 9.898438 L 7.863281 8.992188 L 7.738281 8.402344 L 7.503906 7.78125 L 7.414062 7.210938 L 7.15625 6.597656 L 7.246094 5.90625 L 7.6875 5.511719 L 9.492188 4.929688 L 10.175781 4.992188 L 10.65625 5.40625 L 10.960938 6.253906 L 11.171875 7.199219 L 11.582031 8.265625 L 11.929688 9.449219 L 12.171875 10.003906 L 12.355469 10.671875 L 12.769531 11.167969 L 13.40625 11.183594 L 16.011719 10.4375 L 16.71875 9.894531 L 16.878906 9.113281 L 16.332031 7.425781 L 16.082031 6.84375 L 15.777344 5.613281 L 15.1875 3.972656 L 15.25 3.289062 L 16.0625 2.773438 L 16.949219 2.488281 L 17.578125 2.570312 L 18.007812 3.125 L 18.15625 3.679688 L 18.445312 4.183594 L 19.710938 8.296875 L 19.914062 8.828125 L 20.453125 9.320312 L 21.058594 9.4375 L 21.621094 9.226562 L 22.203125 9.070312 L 23.902344 8.457031 L 24.363281 8.023438 L 24.40625 7.378906 L 24.210938 6.777344 L 24.160156 6.226562 L 23.382812 3.917969 L 23.121094 3.308594 L 22.996094 2.714844 L 22.808594 2.238281 L 22.679688 1.648438 L 21.867188 -0.679688 L 21.769531 -1.28125 L 21.476562 -1.785156 L 21.367188 -2.320312 L 21.125 -2.875 L 20.96875 -3.453125 L 20.546875 -3.980469 L 19.84375 -4.101562 L 18.777344 -3.695312 L 17.574219 -3.402344 L 16.972656 -3.113281 L 14.152344 -2.265625 L 13.578125 -1.984375 L 13.015625 -1.867188 L 10.660156 -1.136719 L 10.171875 -0.882812 L 5.527344 0.585938 L 4.964844 0.703125 L 4.421875 0.972656 L 2.421875 1.523438 L 1.808594 1.785156 L 1.109375 2.265625 L 1.015625 3.242188 L 1.652344 5.3125 L 1.914062 5.921875 L 2.050781 6.445312 L 2.515625 7.59375 L 2.578125 8.171875 L 2.761719 8.839844 L 3.003906 9.394531 Z M 3.128906 9.984375" transform="translate(291.903 144.817)"/></g></g></g><g fill="#FFF4E6"><g><g><path d="M 12.011719 3.003906 L 12.160156 3.59375 L 13.648438 4.328125 L 14.027344 4.472656 L 14.066406 4.890625 L 13.707031 5.226562 L 13.363281 5.410156 L 12.753906 5.984375 L 12.386719 6.261719 L 12.320312 6.8125 L 13.550781 7.992188 L 13.828125 8.355469 L 14.128906 8.660156 L 14.40625 8.996094 L 14.976562 8.972656 L 15.25 8.671875 L 15.542969 8.28125 L 16.363281 7.386719 L 16.757812 7.410156 L 16.949219 7.8125 L 17.023438 8.257812 L 17.210938 8.664062 L 17.441406 9.488281 L 17.945312 9.679688 L 18.324219 9.523438 L 18.769531 9.449219 L 19.140625 9.230469 L 19.523438 9.136719 L 19.835938 8.921875 L 20.25 8.824219 L 20.585938 8.578125 L 20.839844 8.070312 L 20.59375 7.703125 L 20.246094 6.921875 L 20 6.550781 L 19.871094 6.171875 L 20.015625 5.792969 L 20.839844 5.894531 L 21.617188 5.820312 L 21.988281 5.875 L 22.367188 5.445312 L 22.1875 3.289062 L 22.089844 2.90625 L 22.070312 2.363281 L 21.652344 2.101562 L 21.234375 2.171875 L 20.875 2.207031 L 20.496094 2.335938 L 19.757812 2.496094 L 19.425781 2.195312 L 19.675781 1.355469 L 19.753906 0.894531 L 19.933594 0.578125 L 20.066406 0.0820312 L 19.726562 -0.308594 L 19.324219 -0.390625 L 18.949219 -0.535156 L 18.113281 -0.726562 L 17.75 -0.753906 L 17.347656 -0.835938 L 16.914062 -0.972656 L 16.527344 -0.605469 L 16.449219 -0.144531 L 16.363281 0.226562 L 16.292969 0.71875 L 16.292969 1.050781 L 16.1875 1.511719 L 15.839844 1.667969 L 15.480469 1.398438 L 15.179688 1.097656 L 14.855469 0.855469 L 14.503906 0.679688 L 14.140625 0.351562 L 13.578125 0.46875 L 13.375 0.878906 L 13.164062 1.171875 L 12.667969 1.976562 L 12.1875 2.625 Z M 12.011719 3.003906" transform="translate(298.88 170.715)"/></g></g></g><g fill="#FFF4E6"><g><g><path d="M -0.980469 7.785156 L -1.15625 9.792969 L -0.960938 10.695312 L -0.160156 11.09375 L 1.382812 11.367188 L 2.527344 11.410156 L 3.148438 11.542969 L 4.347656 11.65625 L 4.875 11.777344 L 5.542969 11.765625 L 10.34375 12.394531 L 10.980469 12.378906 L 13.570312 12.773438 L 14.4375 13.117188 L 14.726562 13.730469 L 14.648438 14.898438 L 14.371094 15.988281 L 14.386719 16.625 L 14.292969 17.160156 L 14.5625 17.707031 L 15.175781 18.140625 L 18.007812 18.507812 L 18.644531 18.25 L 19.101562 17.726562 L 19.320312 15.875 L 19.445312 15.316406 L 19.429688 14.675781 L 19.558594 14.117188 L 19.722656 11.683594 L 19.914062 11.101562 L 20.007812 10.539062 L 19.992188 9.898438 L 20.132812 9.25 L 20.074219 8.699219 L 20.375 6.949219 L 20.394531 6.011719 L 20.757812 3.933594 L 20.527344 3.332031 L 19.882812 2.894531 L 19.28125 2.851562 L 17.796875 2.617188 L 16.863281 2.566406 L 16.292969 2.773438 L 15.933594 3.273438 L 15.921875 3.878906 L 15.527344 6.707031 L 15.160156 7.238281 L 14.523438 7.5 L 13.578125 7.324219 L 12.734375 7.285156 L 12.082031 7.179688 L 11.480469 7.136719 L 10.652344 6.980469 L 6.191406 6.542969 L 5.601562 6.414062 L 3.183594 6.097656 L 2.550781 6.085938 L 0.824219 5.851562 L 0.261719 5.722656 L -0.441406 6.035156 L -0.839844 6.863281 Z M -0.980469 7.785156" transform="translate(300.187 192.268)"/></g></g></g><g fill="#FFF4E6"><g><g><path d="M -5.136719 16.980469 L -5.375 18.101562 L -5.597656 18.632812 L -5.835938 19.53125 L -5.933594 20.382812 L -5.265625 20.675781 L -4.542969 20.671875 L -3.347656 20.558594 L -1.617188 20.226562 L -0.433594 20.144531 L 0.777344 19.875 L 3.726562 19.566406 L 4.242188 19.40625 L 4.878906 19.28125 L 5.5625 19.296875 L 6.074219 19.167969 L 6.585938 19.132812 L 7.832031 18.847656 L 8.496094 18.824219 L 13.070312 18.121094 L 13.699219 18.121094 L 14.3125 17.957031 L 14.878906 17.941406 L 16.050781 17.695312 L 16.71875 17.359375 L 17.289062 16.492188 L 17.25 15.476562 L 16.914062 14.8125 L 16.5 14.40625 L 15.984375 14.035156 L 15.660156 13.652344 L 13.351562 11.710938 L 13.015625 11.261719 L 12.484375 10.945312 L 12.03125 10.464844 L 11.5625 10.140625 L 6.277344 5.359375 L 5.695312 4.996094 L 5.347656 4.578125 L 4.832031 4.203125 L 4.066406 3.410156 L 3.042969 2.632812 L 2.734375 2.195312 L 2.257812 1.898438 L 1.277344 0.976562 L 0.753906 0.632812 L -0.0117188 0.5625 L -0.355469 1.085938 L -0.632812 2.226562 L -0.863281 2.785156 L -1.289062 4.417969 L -1.285156 5.140625 L -0.929688 5.839844 L -0.132812 6.644531 L 0.25 7.355469 L 0.386719 8.054688 L 0.136719 8.578125 L -0.109375 9.820312 L -0.351562 10.3125 L -1.164062 13.144531 L -1.378906 13.648438 L -1.480469 14.304688 L -1.988281 14.84375 L -2.613281 15.253906 L -3.238281 15.351562 L -3.808594 15.367188 L -4.410156 15.816406 L -4.898438 16.390625 Z M 3.992188 12.582031 L 4.277344 12.042969 L 4.417969 11.363281 L 4.757812 10.960938 L 5.316406 11.097656 L 8.019531 13.378906 L 8.1875 13.773438 L 7.835938 14.109375 L 4.261719 14.515625 L 3.777344 14.246094 L 3.675781 13.746094 Z M 3.992188 12.582031" transform="translate(298.412 209.097)"/></g></g></g><g fill="#FFF4E6"><g><g><path d="M -1.921875 3.542969 L -2.542969 4.878906 L -2.820312 5.347656 L -3.082031 5.988281 L -3.15625 6.660156 L -2.71875 7.191406 L -2.171875 7.4375 L -1.597656 7.769531 L -0.578125 8.222656 L -0.0976562 8.539062 L 0.53125 8.828125 L 0.886719 9.316406 L 0.863281 10.082031 L 0.617188 10.699219 L 0.21875 11.203125 L -0.984375 14.066406 L -1.273438 17.128906 L -1.160156 17.695312 L -0.925781 18.292969 L -0.757812 18.816406 L -0.535156 19.371094 L 0.03125 20.375 L 0.839844 21.363281 L 1.386719 21.746094 L 1.734375 22.128906 L 3.898438 23.308594 L 4.40625 23.4375 L 5.039062 23.660156 L 6.191406 23.847656 L 7.363281 23.808594 L 8.574219 23.621094 L 10.234375 22.953125 L 11.277344 22.371094 L 12.148438 21.46875 L 12.570312 21.109375 L 12.84375 20.574219 L 13.308594 20.136719 L 13.746094 19.347656 L 14.160156 18.480469 L 14.382812 17.851562 L 15.25 16.234375 L 15.605469 15.738281 L 16.351562 14.027344 L 16.679688 13.453125 L 17.007812 13.011719 L 17.191406 12.394531 L 17.183594 11.683594 L 16.882812 11.222656 L 13.632812 9.585938 L 12.617188 8.925781 L 12.082031 8.71875 L 5.171875 5.128906 L 4.636719 4.921875 L -0.296875 2.351562 L -0.957031 2.382812 L -1.648438 3.074219 Z M 5.15625 12.257812 L 5.753906 11.886719 L 6.332031 11.878906 L 8.539062 12.914062 L 9.070312 13.257812 L 10.167969 13.820312 L 10.539062 14.351562 L 10.515625 15.046875 L 9.003906 17.789062 L 8.488281 18.199219 L 7.976562 18.476562 L 7.449219 18.644531 L 6.777344 18.636719 L 6.253906 18.46875 L 5.476562 18.136719 L 4.785156 17.710938 L 4.398438 17.277344 L 4.09375 16.816406 L 3.847656 16.25 L 3.746094 15.65625 L 3.832031 15.160156 L 4.152344 14.277344 L 4.878906 12.925781 Z M 5.15625 12.257812" transform="translate(292.078 229.964)"/></g></g></g><g fill="#FFF4E6"><g><g><path d="M -0.863281 2.1875 L -1.527344 2.066406 L -2.160156 2.261719 L -2.542969 2.726562 L -3.402344 3.570312 L -3.785156 4.078125 L -4.660156 4.988281 L -4.820312 5.695312 L -4.5625 6.261719 L -4.183594 6.691406 L -3.652344 7.09375 L 0.265625 10.691406 L 0.546875 11.320312 L 0.410156 12.046875 L -1.96875 14.683594 L -2.460938 15.085938 L -2.828125 15.484375 L -3.457031 15.683594 L -4.082031 15.519531 L -8.996094 11.046875 L -9.574219 10.964844 L -10.453125 11.34375 L -11.507812 12.496094 L -11.871094 12.980469 L -12.773438 13.828125 L -12.871094 14.511719 L -12.738281 15.121094 L -10.679688 16.929688 L -10.03125 17.644531 L -9.617188 17.90625 L 1.480469 28.132812 L 2.128906 28.359375 L 2.714844 28.082031 L 5.074219 25.554688 L 5.507812 24.769531 L 5.179688 24.058594 L 4.359375 23.265625 L 3.941406 22.964844 L 3.074219 22.085938 L 2.59375 21.765625 L 0.886719 20.15625 L 0.664062 19.507812 L 0.828125 18.839844 L 1.28125 18.480469 L 1.984375 17.535156 L 2.457031 17.109375 L 2.777344 16.671875 L 4 15.382812 L 4.585938 15.148438 L 5.210938 15.3125 L 5.71875 15.738281 L 6.183594 16.164062 L 6.601562 16.507812 L 8.308594 18.117188 L 8.757812 18.605469 L 9.617188 19.316406 L 10.21875 19.5 L 10.890625 19.261719 L 11.292969 18.730469 L 13.351562 16.578125 L 13.578125 15.890625 L 13.335938 15.261719 L 12.890625 14.769531 L 11.121094 13.226562 L 10.71875 12.777344 L 9.730469 12.03125 L 8.929688 11.214844 L 8.375 10.75 L 7.972656 10.296875 L 1.351562 4.21875 L 0.890625 3.921875 Z M -0.863281 2.1875" transform="translate(277.904 255.16)"/></g></g></g><g fill="#FFF4E6"><g><g><path d="M -8.367188 6.285156 L -11.746094 8.945312 L -12.082031 9.542969 L -11.960938 10.246094 L -10.117188 12.660156 L -9.488281 12.933594 L -8.820312 12.765625 L -8.308594 12.296875 L -7.800781 12.023438 L -6.5625 11.117188 L -5.847656 10.417969 L -5.335938 10.097656 L -4.828125 9.671875 L -4.320312 9.398438 L -3.832031 8.949219 L -3.144531 8.804688 L -2.625 9.085938 L -1.476562 10.59375 L -1.304688 11.257812 L -1.535156 11.851562 L -2.234375 12.421875 L -3.050781 12.933594 L -3.921875 13.675781 L -4.921875 14.402344 L -5.363281 14.816406 L -5.929688 15.210938 L -6.261719 15.765625 L -6.0625 16.371094 L -4.492188 18.578125 L -3.738281 19.0625 L -2.953125 18.953125 L -1.542969 17.875 L -1.078125 17.445312 L -0.0234375 16.75 L 1.328125 15.640625 L 1.992188 15.472656 L 2.75 16.066406 L 3.316406 16.808594 L 3.449219 17.425781 L 3.070312 18.019531 L 2.597656 18.339844 L 2.214844 18.785156 L -1.234375 21.347656 L -1.671875 21.71875 L -1.953125 22.390625 L -1.863281 23.003906 L -1.472656 23.460938 L -1.132812 23.957031 L 0.0117188 25.355469 L 0.574219 25.644531 L 1.199219 25.46875 L 1.699219 25.085938 L 2.203125 24.851562 L 4.117188 23.347656 L 4.605469 22.898438 L 5.121094 22.582031 L 5.507812 22.246094 L 6.023438 21.929688 L 7.945312 20.382812 L 8.476562 20.089844 L 8.859375 19.648438 L 9.324219 19.367188 L 9.765625 18.953125 L 10.261719 18.613281 L 10.617188 18.035156 L 10.496094 17.335938 L 9.753906 16.464844 L 9.078125 15.429688 L 8.601562 14.957031 L 6.859375 12.582031 L 6.40625 12.136719 L 6.105469 11.644531 L 4.632812 9.667969 L 4.230469 9.292969 L 1.296875 5.40625 L 0.996094 4.914062 L 0.558594 4.492188 L -0.628906 2.789062 L -1.078125 2.300781 L -1.761719 1.804688 L -2.71875 2.039062 L -4.453125 3.332031 L -4.945312 3.78125 L -5.390625 4.085938 L -6.316406 4.90625 L -6.84375 5.160156 L -7.410156 5.554688 L -7.851562 5.96875 Z M -8.367188 6.285156" transform="translate(262.824 271.271)"/></g></g></g><g fill="#FFF4E6"><g><g><path d="M -1.425781 2.136719 L -2.125 1.453125 L -3.078125 1.511719 L -3.570312 1.867188 L -4.464844 2.234375 L -4.863281 2.511719 L -5.660156 2.929688 L -6.375 3.644531 L -6.207031 4.542969 L -5.734375 5.445312 L -5.535156 5.953125 L -5.164062 6.472656 L -4.324219 8.203125 L -4.285156 8.863281 L -4.636719 9.421875 L -6.292969 10.015625 L -7.0625 9.84375 L -7.664062 9.476562 L -8.128906 9.109375 L -9.105469 8.601562 L -10.113281 7.910156 L -10.617188 7.664062 L -11.109375 7.242188 L -11.636719 6.941406 L -12.476562 6.769531 L -13.503906 7.003906 L -15.597656 8.132812 L -16.128906 8.34375 L -16.996094 8.832031 L -17.375 9.335938 L -17.230469 10.007812 L -16.628906 10.4375 L -16.113281 10.644531 L -15.636719 11.039062 L -14.019531 11.921875 L -13.527344 12.277344 L -11.949219 13.214844 L -11.421875 13.449219 L -11.058594 14.074219 L -10.992188 14.785156 L -11.15625 15.378906 L -11.363281 15.894531 L -11.425781 18.304688 L -10.960938 20.03125 L -10.03125 21.679688 L -9.671875 22.171875 L -8.394531 23.4375 L -7.945312 23.777344 L -7.429688 24.050781 L -5.074219 24.855469 L -3.878906 24.871094 L -2.683594 24.6875 L -0.984375 24.238281 L -0.117188 23.820312 L 0.625 23.363281 L 2.226562 22.527344 L 2.8125 22.351562 L 3.347656 22.074219 L 3.753906 21.691406 L 4.289062 21.410156 L 4.878906 21.238281 L 5.476562 20.957031 L 6.980469 20.003906 L 7.320312 19.484375 L 7.246094 18.570312 L 4.027344 12.484375 L 3.695312 11.980469 L 3.214844 10.875 L 2.882812 10.300781 L 2.605469 9.769531 L 2.285156 9.289062 L 2.074219 8.757812 L 0.972656 6.585938 L 0.636719 6.082031 Z M -2.40625 13.683594 L -1.71875 13.695312 L -1.285156 14.011719 L -0.445312 15.609375 L -0.15625 16.035156 L 0.375 17.179688 L 0.402344 17.8125 L -0.046875 18.316406 L -0.59375 18.570312 L -1.601562 19.234375 L -2.433594 19.464844 L -3.152344 19.773438 L -3.726562 19.90625 L -4.828125 19.429688 L -5.210938 19.085938 L -5.679688 18.449219 L -6.015625 17.609375 L -6.058594 16.953125 L -5.972656 16.398438 L -5.804688 16.003906 L -5.4375 15.542969 L -4.761719 14.949219 L -4.269531 14.660156 L -2.964844 14.042969 Z M -2.40625 13.683594" transform="translate(249.129 281.932)"/></g></g></g><g fill="#FFF4E6"><g><g><path d="M -9.988281 3.125 L -14.058594 4.5 L -14.578125 4.953125 L -14.699219 5.65625 L -13.769531 8.542969 L -13.269531 9.015625 L -12.585938 9.078125 L -11.945312 8.808594 L -11.375 8.722656 L -9.90625 8.277344 L -8.996094 7.859375 L -8.40625 7.734375 L -7.785156 7.5 L -7.214844 7.410156 L -6.601562 7.152344 L -5.910156 7.242188 L -5.515625 7.683594 L -4.933594 9.488281 L -4.996094 10.171875 L -5.410156 10.652344 L -6.261719 10.957031 L -7.203125 11.167969 L -8.273438 11.574219 L -9.457031 11.925781 L -10.007812 12.167969 L -10.675781 12.351562 L -11.175781 12.765625 L -11.191406 13.402344 L -10.445312 16.003906 L -9.902344 16.714844 L -9.125 16.871094 L -7.4375 16.328125 L -6.851562 16.078125 L -5.625 15.777344 L -3.984375 15.183594 L -3.296875 15.246094 L -2.785156 16.0625 L -2.496094 16.949219 L -2.578125 17.574219 L -3.136719 18.007812 L -3.6875 18.152344 L -4.195312 18.441406 L -8.304688 19.707031 L -8.839844 19.910156 L -9.332031 20.445312 L -9.449219 21.054688 L -9.238281 21.617188 L -9.082031 22.199219 L -8.472656 23.898438 L -8.039062 24.359375 L -7.390625 24.402344 L -6.792969 24.207031 L -6.238281 24.15625 L -3.929688 23.378906 L -3.320312 23.121094 L -2.730469 22.992188 L -2.25 22.808594 L -1.660156 22.679688 L 0.667969 21.867188 L 1.265625 21.769531 L 1.773438 21.480469 L 2.308594 21.371094 L 2.863281 21.128906 L 3.445312 20.972656 L 3.96875 20.550781 L 4.089844 19.847656 L 3.683594 18.777344 L 3.390625 17.578125 L 3.101562 16.976562 L 2.253906 14.152344 L 1.976562 13.578125 L 1.859375 13.015625 L 1.128906 10.660156 L 0.878906 10.171875 L -0.585938 5.527344 L -0.707031 4.964844 L -0.976562 4.421875 L -1.527344 2.417969 L -1.785156 1.808594 L -2.265625 1.109375 L -3.242188 1.015625 L -5.3125 1.648438 L -5.921875 1.910156 L -6.449219 2.046875 L -7.59375 2.511719 L -8.175781 2.570312 L -8.84375 2.753906 L -9.394531 2.996094 Z M -9.988281 3.125" transform="translate(230.466 291.517)"/></g></g></g><g fill="#FFF4E6"><g><g><path d="M -3.011719 12.011719 L -3.601562 12.15625 L -4.335938 13.648438 L -4.480469 14.023438 L -4.898438 14.066406 L -5.234375 13.703125 L -5.417969 13.359375 L -5.992188 12.75 L -6.269531 12.382812 L -6.820312 12.316406 L -8 13.546875 L -8.363281 13.824219 L -8.667969 14.125 L -9.003906 14.398438 L -8.980469 14.972656 L -8.679688 15.246094 L -8.289062 15.539062 L -7.394531 16.359375 L -7.417969 16.753906 L -7.824219 16.945312 L -8.269531 17.015625 L -8.671875 17.207031 L -9.496094 17.4375 L -9.691406 17.941406 L -9.535156 18.316406 L -9.460938 18.761719 L -9.242188 19.136719 L -9.144531 19.519531 L -8.933594 19.832031 L -8.835938 20.242188 L -8.589844 20.582031 L -8.082031 20.835938 L -7.714844 20.589844 L -6.929688 20.242188 L -6.5625 19.996094 L -6.183594 19.867188 L -5.804688 20.011719 L -5.90625 20.835938 L -5.832031 21.617188 L -5.886719 21.984375 L -5.457031 22.363281 L -3.300781 22.1875 L -2.917969 22.089844 L -2.375 22.066406 L -2.113281 21.648438 L -2.183594 21.234375 L -2.21875 20.875 L -2.347656 20.496094 L -2.507812 19.753906 L -2.207031 19.425781 L -1.367188 19.675781 L -0.90625 19.75 L -0.585938 19.933594 L -0.0898438 20.066406 L 0.296875 19.726562 L 0.382812 19.324219 L 0.527344 18.949219 L 0.71875 18.117188 L 0.742188 17.75 L 0.824219 17.351562 L 0.964844 16.914062 L 0.59375 16.527344 L 0.132812 16.449219 L -0.238281 16.363281 L -0.726562 16.289062 L -1.058594 16.292969 L -1.523438 16.1875 L -1.675781 15.839844 L -1.410156 15.480469 L -1.105469 15.179688 L -0.863281 14.855469 L -0.6875 14.503906 L -0.359375 14.140625 L -0.472656 13.578125 L -0.886719 13.375 L -1.179688 13.164062 L -1.980469 12.667969 L -2.632812 12.183594 Z M -3.011719 12.011719" transform="translate(204.567 298.478)"/></g></g></g><g clip-path="url(#a)"><path fill="#FFF4E6" d="M 187.378906 256.144531 C 186.207031 256.144531 185.035156 256.113281 183.863281 256.058594 C 182.691406 256 181.523438 255.914062 180.359375 255.796875 C 179.191406 255.683594 178.027344 255.539062 176.867188 255.367188 C 175.707031 255.195312 174.554688 254.996094 173.40625 254.765625 C 172.253906 254.539062 171.113281 254.28125 169.972656 253.996094 C 168.835938 253.710938 167.707031 253.398438 166.585938 253.058594 C 165.464844 252.71875 164.351562 252.351562 163.25 251.957031 C 162.144531 251.5625 161.050781 251.140625 159.96875 250.691406 C 158.886719 250.242188 157.8125 249.765625 156.753906 249.265625 C 155.695312 248.765625 154.648438 248.238281 153.613281 247.6875 C 152.582031 247.132812 151.5625 246.554688 150.554688 245.953125 C 149.550781 245.351562 148.558594 244.722656 147.585938 244.070312 C 146.609375 243.421875 145.652344 242.746094 144.710938 242.046875 C 143.769531 241.347656 142.84375 240.628906 141.941406 239.886719 C 141.035156 239.140625 140.144531 238.375 139.277344 237.589844 C 138.410156 236.800781 137.558594 235.992188 136.730469 235.164062 C 135.902344 234.335938 135.09375 233.488281 134.308594 232.617188 C 133.519531 231.75 132.753906 230.863281 132.011719 229.957031 C 131.265625 229.050781 130.546875 228.125 129.847656 227.183594 C 129.148438 226.242188 128.476562 225.285156 127.824219 224.3125 C 127.171875 223.335938 126.546875 222.347656 125.941406 221.339844 C 125.339844 220.335938 124.761719 219.316406 124.210938 218.28125 C 123.65625 217.25 123.128906 216.203125 122.628906 215.140625 C 122.128906 214.082031 121.652344 213.011719 121.203125 211.929688 C 120.757812 210.84375 120.335938 209.75 119.941406 208.648438 C 119.542969 207.542969 119.175781 206.429688 118.835938 205.308594 C 118.496094 204.1875 118.183594 203.058594 117.898438 201.921875 C 117.613281 200.785156 117.359375 199.640625 117.128906 198.492188 C 116.902344 197.34375 116.699219 196.1875 116.527344 195.027344 C 116.355469 193.867188 116.210938 192.707031 116.097656 191.539062 C 115.984375 190.371094 115.898438 189.203125 115.839844 188.03125 C 115.78125 186.863281 115.753906 185.691406 115.753906 184.519531 C 115.753906 183.347656 115.78125 182.175781 115.839844 181.003906 C 115.898438 179.832031 115.984375 178.664062 116.097656 177.496094 C 116.210938 176.332031 116.355469 175.167969 116.527344 174.007812 C 116.699219 172.847656 116.902344 171.695312 117.128906 170.542969 C 117.359375 169.394531 117.613281 168.25 117.898438 167.113281 C 118.183594 165.976562 118.496094 164.847656 118.835938 163.726562 C 119.175781 162.605469 119.542969 161.492188 119.941406 160.386719 C 120.335938 159.285156 120.757812 158.191406 121.203125 157.109375 C 121.652344 156.027344 122.128906 154.953125 122.628906 153.894531 C 123.128906 152.835938 123.65625 151.789062 124.210938 150.753906 C 124.761719 149.71875 125.339844 148.699219 125.941406 147.695312 C 126.546875 146.691406 127.171875 145.699219 127.824219 144.726562 C 128.476562 143.75 129.148438 142.792969 129.847656 141.851562 C 130.546875 140.910156 131.265625 139.984375 132.011719 139.078125 C 132.753906 138.171875 133.519531 137.285156 134.308594 136.417969 C 135.09375 135.550781 135.902344 134.699219 136.730469 133.871094 C 137.558594 133.042969 138.410156 132.234375 139.277344 131.449219 C 140.144531 130.660156 141.035156 129.894531 141.941406 129.152344 C 142.84375 128.40625 143.769531 127.6875 144.710938 126.988281 C 145.652344 126.289062 146.609375 125.617188 147.585938 124.964844 C 148.558594 124.3125 149.550781 123.6875 150.554688 123.082031 C 151.5625 122.480469 152.582031 121.902344 153.613281 121.351562 C 154.648438 120.796875 155.695312 120.269531 156.753906 119.769531 C 157.8125 119.269531 158.886719 118.792969 159.96875 118.34375 C 161.050781 117.898438 162.144531 117.476562 163.25 117.082031 C 164.351562 116.683594 165.464844 116.316406 166.585938 115.976562 C 167.707031 115.636719 168.835938 115.324219 169.972656 115.039062 C 171.113281 114.753906 172.253906 114.5 173.40625 114.269531 C 174.554688 114.039062 175.707031 113.839844 176.867188 113.667969 C 178.027344 113.496094 179.191406 113.351562 180.359375 113.238281 C 181.523438 113.125 182.691406 113.035156 183.863281 112.980469 C 185.035156 112.921875 186.207031 112.894531 187.378906 112.894531 C 188.550781 112.894531 189.722656 112.921875 190.890625 112.980469 C 192.0625 113.035156 193.230469 113.125 194.398438 113.238281 C 195.566406 113.351562 196.726562 113.496094 197.886719 113.667969 C 199.046875 113.839844 200.203125 114.039062 201.351562 114.269531 C 202.5 114.5 203.644531 114.753906 204.78125 115.039062 C 205.917969 115.324219 207.046875 115.636719 208.167969 115.976562 C 209.292969 116.316406 210.402344 116.683594 211.507812 117.082031 C 212.609375 117.476562 213.703125 117.898438 214.789062 118.34375 C 215.871094 118.792969 216.941406 119.269531 218 119.769531 C 219.0625 120.269531 220.109375 120.796875 221.140625 121.351562 C 222.175781 121.902344 223.195312 122.480469 224.199219 123.082031 C 225.207031 123.6875 226.195312 124.3125 227.171875 124.964844 C 228.144531 125.617188 229.101562 126.289062 230.042969 126.988281 C 230.988281 127.6875 231.910156 128.40625 232.816406 129.152344 C 233.722656 129.894531 234.609375 130.660156 235.476562 131.449219 C 236.347656 132.234375 237.195312 133.042969 238.023438 133.871094 C 238.851562 134.699219 239.660156 135.550781 240.449219 136.417969 C 241.234375 137.285156 242 138.171875 242.746094 139.078125 C 243.488281 139.984375 244.210938 140.910156 244.90625 141.851562 C 245.605469 142.792969 246.28125 143.75 246.933594 144.726562 C 247.582031 145.699219 248.210938 146.691406 248.8125 147.695312 C 249.414062 148.699219 249.992188 149.71875 250.546875 150.753906 C 251.097656 151.789062 251.625 152.835938 252.125 153.894531 C 252.628906 154.953125 253.101562 156.027344 253.550781 157.109375 C 254 158.191406 254.421875 159.285156 254.816406 160.386719 C 255.210938 161.492188 255.578125 162.605469 255.917969 163.726562 C 256.257812 164.847656 256.570312 165.976562 256.855469 167.113281 C 257.140625 168.25 257.398438 169.394531 257.625 170.542969 C 257.855469 171.695312 258.054688 172.847656 258.226562 174.007812 C 258.398438 175.167969 258.542969 176.332031 258.65625 177.496094 C 258.773438 178.664062 258.859375 179.832031 258.917969 181.003906 C 258.972656 182.175781 259.003906 183.347656 259.003906 184.519531 C 259 185.691406 258.972656 186.859375 258.914062 188.03125 C 258.855469 189.203125 258.765625 190.371094 258.652344 191.535156 C 258.535156 192.703125 258.390625 193.863281 258.214844 195.023438 C 258.042969 196.183594 257.84375 197.335938 257.613281 198.484375 C 257.382812 199.636719 257.125 200.777344 256.839844 201.914062 C 256.554688 203.050781 256.242188 204.179688 255.898438 205.300781 C 255.558594 206.421875 255.191406 207.535156 254.796875 208.636719 C 254.398438 209.738281 253.976562 210.832031 253.527344 211.914062 C 253.078125 212.996094 252.605469 214.066406 252.101562 215.128906 C 251.601562 216.1875 251.074219 217.230469 250.519531 218.265625 C 249.96875 219.296875 249.390625 220.316406 248.789062 221.324219 C 248.183594 222.328125 247.558594 223.316406 246.90625 224.292969 C 246.253906 225.265625 245.582031 226.222656 244.882812 227.164062 C 244.183594 228.105469 243.460938 229.027344 242.71875 229.933594 C 241.976562 230.839844 241.210938 231.726562 240.421875 232.59375 C 239.636719 233.464844 238.828125 234.3125 238 235.140625 C 237.171875 235.96875 236.324219 236.777344 235.453125 237.5625 C 234.585938 238.351562 233.699219 239.117188 232.792969 239.859375 C 231.886719 240.601562 230.964844 241.324219 230.023438 242.023438 C 229.082031 242.71875 228.125 243.394531 227.152344 244.046875 C 226.175781 244.699219 225.1875 245.324219 224.183594 245.925781 C 223.175781 246.53125 222.160156 247.109375 221.125 247.660156 C 220.09375 248.214844 219.046875 248.742188 217.988281 249.242188 C 216.925781 249.746094 215.855469 250.21875 214.773438 250.667969 C 213.691406 251.117188 212.597656 251.539062 211.496094 251.9375 C 210.394531 252.332031 209.28125 252.699219 208.160156 253.039062 C 207.039062 253.382812 205.910156 253.695312 204.773438 253.980469 C 203.636719 254.265625 202.496094 254.523438 201.34375 254.753906 C 200.195312 254.984375 199.042969 255.183594 197.882812 255.355469 C 196.722656 255.53125 195.5625 255.675781 194.394531 255.789062 C 193.230469 255.90625 192.0625 255.996094 190.890625 256.054688 C 189.722656 256.113281 188.550781 256.140625 187.378906 256.144531 Z M 187.378906 118.863281 C 186.304688 118.863281 185.230469 118.886719 184.15625 118.941406 C 183.082031 118.992188 182.011719 119.074219 180.941406 119.179688 C 179.875 119.285156 178.808594 119.414062 177.742188 119.574219 C 176.679688 119.730469 175.621094 119.914062 174.570312 120.125 C 173.515625 120.332031 172.46875 120.570312 171.425781 120.828125 C 170.382812 121.089844 169.347656 121.378906 168.320312 121.6875 C 167.289062 122 166.269531 122.339844 165.257812 122.699219 C 164.246094 123.0625 163.246094 123.449219 162.253906 123.859375 C 161.257812 124.269531 160.277344 124.707031 159.304688 125.164062 C 158.335938 125.625 157.375 126.109375 156.429688 126.613281 C 155.480469 127.121094 154.546875 127.652344 153.625 128.203125 C 152.703125 128.753906 151.792969 129.328125 150.902344 129.925781 C 150.007812 130.523438 149.128906 131.140625 148.265625 131.78125 C 147.402344 132.421875 146.554688 133.082031 145.726562 133.765625 C 144.894531 134.445312 144.082031 135.148438 143.285156 135.871094 C 142.488281 136.589844 141.710938 137.332031 140.953125 138.09375 C 140.191406 138.851562 139.453125 139.628906 138.730469 140.425781 C 138.007812 141.222656 137.304688 142.035156 136.625 142.867188 C 135.941406 143.695312 135.28125 144.542969 134.640625 145.40625 C 134.003906 146.269531 133.382812 147.148438 132.785156 148.042969 C 132.191406 148.933594 131.613281 149.84375 131.0625 150.765625 C 130.511719 151.6875 129.980469 152.621094 129.472656 153.566406 C 128.96875 154.515625 128.484375 155.476562 128.023438 156.445312 C 127.566406 157.417969 127.128906 158.398438 126.71875 159.394531 C 126.308594 160.386719 125.921875 161.386719 125.558594 162.398438 C 125.199219 163.410156 124.859375 164.429688 124.546875 165.460938 C 124.238281 166.488281 123.949219 167.523438 123.6875 168.566406 C 123.429688 169.605469 123.191406 170.65625 122.984375 171.710938 C 122.773438 172.761719 122.589844 173.820312 122.433594 174.882812 C 122.273438 175.949219 122.144531 177.011719 122.039062 178.082031 C 121.933594 179.152344 121.851562 180.222656 121.800781 181.296875 C 121.746094 182.371094 121.722656 183.445312 121.722656 184.519531 C 121.722656 185.59375 121.746094 186.667969 121.800781 187.738281 C 121.851562 188.8125 121.933594 189.882812 122.039062 190.953125 C 122.144531 192.023438 122.273438 193.089844 122.433594 194.152344 C 122.589844 195.214844 122.773438 196.273438 122.984375 197.328125 C 123.191406 198.382812 123.429688 199.429688 123.6875 200.472656 C 123.949219 201.511719 124.238281 202.550781 124.546875 203.578125 C 124.859375 204.605469 125.199219 205.625 125.558594 206.636719 C 125.921875 207.648438 126.308594 208.652344 126.71875 209.644531 C 127.128906 210.636719 127.566406 211.617188 128.023438 212.589844 C 128.484375 213.5625 128.96875 214.519531 129.472656 215.46875 C 129.980469 216.414062 130.511719 217.351562 131.0625 218.273438 C 131.613281 219.195312 132.191406 220.101562 132.785156 220.996094 C 133.382812 221.886719 134.003906 222.765625 134.640625 223.628906 C 135.28125 224.492188 135.941406 225.339844 136.625 226.171875 C 137.304688 227 138.007812 227.8125 138.730469 228.609375 C 139.453125 229.40625 140.191406 230.183594 140.953125 230.945312 C 141.710938 231.703125 142.488281 232.445312 143.285156 233.167969 C 144.082031 233.886719 144.894531 234.589844 145.726562 235.269531 C 146.554688 235.953125 147.402344 236.613281 148.265625 237.253906 C 149.128906 237.894531 150.007812 238.511719 150.902344 239.109375 C 151.792969 239.707031 152.703125 240.28125 153.625 240.832031 C 154.546875 241.386719 155.480469 241.914062 156.429688 242.421875 C 157.375 242.929688 158.335938 243.410156 159.304688 243.871094 C 160.277344 244.332031 161.257812 244.765625 162.253906 245.175781 C 163.246094 245.585938 164.246094 245.972656 165.257812 246.335938 C 166.269531 246.699219 167.289062 247.035156 168.320312 247.347656 C 169.347656 247.660156 170.382812 247.945312 171.425781 248.207031 C 172.46875 248.46875 173.515625 248.703125 174.570312 248.914062 C 175.621094 249.121094 176.679688 249.304688 177.742188 249.464844 C 178.808594 249.621094 179.875 249.753906 180.941406 249.859375 C 182.011719 249.964844 183.082031 250.042969 184.15625 250.09375 C 185.230469 250.148438 186.304688 250.175781 187.378906 250.175781 C 188.453125 250.175781 189.527344 250.148438 190.597656 250.09375 C 191.671875 250.042969 192.742188 249.964844 193.8125 249.859375 C 194.882812 249.753906 195.949219 249.621094 197.011719 249.464844 C 198.074219 249.304688 199.132812 249.121094 200.1875 248.914062 C 201.242188 248.703125 202.289062 248.46875 203.332031 248.207031 C 204.375 247.945312 205.410156 247.660156 206.4375 247.347656 C 207.464844 247.035156 208.484375 246.699219 209.496094 246.335938 C 210.507812 245.972656 211.511719 245.585938 212.503906 245.175781 C 213.496094 244.765625 214.476562 244.332031 215.449219 243.871094 C 216.421875 243.410156 217.378906 242.929688 218.328125 242.421875 C 219.277344 241.914062 220.210938 241.386719 221.132812 240.832031 C 222.054688 240.28125 222.960938 239.707031 223.855469 239.109375 C 224.746094 238.511719 225.625 237.894531 226.488281 237.253906 C 227.351562 236.613281 228.199219 235.953125 229.03125 235.269531 C 229.859375 234.589844 230.671875 233.886719 231.46875 233.167969 C 232.265625 232.445312 233.042969 231.703125 233.804688 230.945312 C 234.5625 230.183594 235.304688 229.40625 236.027344 228.609375 C 236.746094 227.8125 237.449219 227 238.132812 226.171875 C 238.8125 225.339844 239.472656 224.492188 240.113281 223.628906 C 240.753906 222.765625 241.371094 221.886719 241.96875 220.996094 C 242.566406 220.101562 243.140625 219.195312 243.691406 218.273438 C 244.246094 217.351562 244.773438 216.414062 245.28125 215.46875 C 245.789062 214.519531 246.269531 213.5625 246.730469 212.589844 C 247.191406 211.617188 247.625 210.636719 248.035156 209.644531 C 248.449219 208.652344 248.835938 207.648438 249.195312 206.636719 C 249.558594 205.625 249.894531 204.605469 250.207031 203.578125 C 250.519531 202.550781 250.804688 201.511719 251.066406 200.472656 C 251.328125 199.429688 251.5625 198.382812 251.773438 197.328125 C 251.980469 196.273438 252.164062 195.214844 252.324219 194.152344 C 252.480469 193.089844 252.613281 192.023438 252.71875 190.953125 C 252.824219 189.882812 252.902344 188.8125 252.953125 187.738281 C 253.007812 186.667969 253.035156 185.59375 253.035156 184.519531 C 253.03125 183.445312 253.003906 182.371094 252.953125 181.296875 C 252.898438 180.226562 252.816406 179.152344 252.710938 178.085938 C 252.605469 177.015625 252.472656 175.949219 252.3125 174.886719 C 252.15625 173.824219 251.972656 172.769531 251.761719 171.714844 C 251.550781 170.660156 251.3125 169.613281 251.050781 168.570312 C 250.789062 167.53125 250.503906 166.496094 250.191406 165.46875 C 249.878906 164.441406 249.539062 163.421875 249.175781 162.410156 C 248.816406 161.398438 248.429688 160.394531 248.015625 159.402344 C 247.605469 158.410156 247.167969 157.429688 246.710938 156.460938 C 246.25 155.488281 245.765625 154.53125 245.257812 153.582031 C 244.753906 152.636719 244.222656 151.703125 243.671875 150.78125 C 243.117188 149.859375 242.542969 148.953125 241.945312 148.058594 C 241.347656 147.167969 240.730469 146.289062 240.089844 145.425781 C 239.449219 144.5625 238.789062 143.714844 238.109375 142.886719 C 237.425781 142.054688 236.726562 141.242188 236.003906 140.445312 C 235.28125 139.652344 234.542969 138.875 233.78125 138.113281 C 233.023438 137.355469 232.246094 136.613281 231.449219 135.890625 C 230.652344 135.171875 229.839844 134.46875 229.007812 133.789062 C 228.179688 133.105469 227.332031 132.445312 226.46875 131.804688 C 225.609375 131.164062 224.730469 130.546875 223.835938 129.949219 C 222.945312 129.351562 222.035156 128.777344 221.117188 128.226562 C 220.195312 127.671875 219.261719 127.144531 218.3125 126.636719 C 217.367188 126.128906 216.40625 125.644531 215.4375 125.1875 C 214.464844 124.726562 213.484375 124.292969 212.492188 123.878906 C 211.5 123.46875 210.5 123.082031 209.488281 122.71875 C 208.476562 122.355469 207.457031 122.019531 206.429688 121.707031 C 205.402344 121.394531 204.367188 121.105469 203.324219 120.84375 C 202.28125 120.582031 201.234375 120.347656 200.179688 120.136719 C 199.128906 119.925781 198.070312 119.742188 197.007812 119.582031 C 195.945312 119.421875 194.878906 119.292969 193.8125 119.183594 C 192.742188 119.078125 191.671875 119 190.597656 118.945312 C 189.527344 118.890625 188.453125 118.863281 187.378906 118.863281 Z M 187.378906 118.863281"/></g><path fill="#FFF4E6" d="M 187.378906 229.285156 C 165.984375 229.285156 148.582031 214.554688 148.582031 196.457031 L 154.550781 196.457031 C 154.550781 211.265625 169.277344 223.316406 187.378906 223.316406 C 205.476562 223.316406 220.207031 211.265625 220.207031 196.457031 L 226.175781 196.457031 C 226.175781 214.554688 208.769531 229.285156 187.378906 229.285156 Z M 187.378906 229.285156"/><path fill="#FFF4E6" d="M 175.441406 175.566406 L 169.472656 175.566406 C 169.472656 168.980469 165.453125 163.628906 160.519531 163.628906 C 155.582031 163.628906 151.566406 168.980469 151.566406 175.566406 L 145.597656 175.566406 C 145.597656 165.691406 152.289062 157.660156 160.519531 157.660156 C 168.746094 157.660156 175.441406 165.691406 175.441406 175.566406 Z M 175.441406 175.566406"/><path fill="#FFF4E6" d="M 229.160156 175.566406 L 223.191406 175.566406 C 223.191406 168.980469 219.171875 163.628906 214.238281 163.628906 C 209.300781 163.628906 205.285156 168.980469 205.285156 175.566406 L 199.316406 175.566406 C 199.316406 165.691406 206.007812 157.660156 214.238281 157.660156 C 222.464844 157.660156 229.160156 165.691406 229.160156 175.566406 Z M 229.160156 175.566406"/></svg>