<svg xmlns="http://www.w3.org/2000/svg" width="375" viewBox="0 0 375 375" height="375" version="1.0"><defs><clipPath id="a"><path d="M 115.753906 112.894531 L 259.003906 112.894531 L 259.003906 256.144531 L 115.753906 256.144531 Z M 115.753906 112.894531"/></clipPath></defs><g fill="#FFF4E6"><g><g><path d="M -7.769531 -1.09375 L -9.777344 -1.300781 L -10.679688 -1.117188 L -11.089844 -0.320312 L -11.382812 1.21875 L -11.445312 2.359375 L -11.589844 2.980469 L -11.71875 4.175781 L -11.847656 4.703125 L -11.847656 5.371094 L -12.542969 10.164062 L -12.535156 10.800781 L -12.972656 13.382812 L -13.328125 14.242188 L -13.941406 14.527344 L -15.113281 14.429688 L -16.195312 14.136719 L -16.832031 14.140625 L -17.367188 14.039062 L -17.914062 14.300781 L -18.359375 14.910156 L -18.765625 17.738281 L -18.519531 18.375 L -18.003906 18.839844 L -16.15625 19.085938 L -15.597656 19.21875 L -14.960938 19.214844 L -14.402344 19.347656 L -11.972656 19.550781 L -11.390625 19.75 L -10.828125 19.855469 L -10.191406 19.847656 L -9.542969 19.996094 L -8.992188 19.945312 L -7.242188 20.269531 L -6.308594 20.304688 L -4.238281 20.699219 L -3.632812 20.476562 L -3.183594 19.839844 L -3.132812 19.238281 L -2.875 17.757812 L -2.8125 16.824219 L -3.007812 16.253906 L -3.507812 15.882812 L -4.109375 15.863281 L -6.933594 15.425781 L -7.460938 15.054688 L -7.710938 14.414062 L -7.523438 13.46875 L -7.472656 12.625 L -7.355469 11.972656 L -7.304688 11.375 L -7.132812 10.546875 L -6.632812 6.09375 L -6.496094 5.507812 L -6.144531 3.097656 L -6.121094 2.460938 L -5.859375 0.738281 L -5.726562 0.179688 L -6.027344 -0.527344 L -6.851562 -0.941406 Z M -7.769531 -1.09375" transform="translate(181.053 299.696)"/></g></g></g><g fill="#FFF4E6"><g><g><path d="M -16.953125 -5.230469 L -18.070312 -5.476562 L -18.601562 -5.699219 L -19.5 -5.941406 L -20.347656 -6.042969 L -20.644531 -5.382812 L -20.644531 -4.65625 L -20.539062 -3.460938 L -20.21875 -1.730469 L -20.140625 -0.542969 L -19.878906 0.667969 L -19.585938 3.617188 L -19.429688 4.136719 L -19.308594 4.769531 L -19.328125 5.457031 L -19.199219 5.964844 L -19.167969 6.480469 L -18.890625 7.726562 L -18.871094 8.394531 L -18.191406 12.96875 L -18.195312 13.597656 L -18.035156 14.210938 L -18.019531 14.78125 L -17.78125 15.953125 L -17.449219 16.621094 L -16.589844 17.199219 L -15.570312 17.164062 L -14.90625 16.832031 L -14.496094 16.421875 L -14.121094 15.90625 L -13.738281 15.582031 L -11.78125 13.289062 L -11.335938 12.953125 L -11.015625 12.421875 L -10.53125 11.972656 L -10.203125 11.507812 L -5.394531 6.246094 L -5.027344 5.664062 L -4.609375 5.320312 L -4.230469 4.808594 L -3.433594 4.046875 L -2.652344 3.027344 L -2.210938 2.71875 L -1.910156 2.246094 L -0.984375 1.273438 L -0.636719 0.75 L -0.5625 -0.015625 L -1.085938 -0.363281 L -2.222656 -0.644531 L -2.78125 -0.878906 L -4.410156 -1.3125 L -5.132812 -1.3125 L -5.835938 -0.960938 L -6.644531 -0.171875 L -7.355469 0.210938 L -8.058594 0.34375 L -8.578125 0.0898438 L -9.820312 -0.164062 L -10.3125 -0.40625 L -13.140625 -1.238281 L -13.640625 -1.453125 L -14.296875 -1.558594 L -14.835938 -2.070312 L -15.242188 -2.695312 L -15.332031 -3.320312 L -15.347656 -3.890625 L -15.792969 -4.5 L -16.363281 -4.988281 Z M -12.605469 3.921875 L -12.066406 4.210938 L -11.386719 4.355469 L -10.988281 4.699219 L -11.125 5.253906 L -13.421875 7.949219 L -13.820312 8.109375 L -14.152344 7.757812 L -14.539062 4.179688 L -14.265625 3.699219 L -13.765625 3.601562 Z M -12.605469 3.921875" transform="translate(165.257 297.879)"/></g></g></g><g fill="#FFF4E6"><g><g><path d="M -3.546875 -1.910156 L -4.886719 -2.527344 L -5.355469 -2.800781 L -6 -3.058594 L -6.671875 -3.132812 L -7.199219 -2.695312 L -7.445312 -2.144531 L -7.773438 -1.570312 L -8.226562 -0.550781 L -8.539062 -0.0703125 L -8.824219 0.5625 L -9.3125 0.921875 L -10.078125 0.902344 L -10.695312 0.652344 L -11.203125 0.257812 L -14.070312 -0.933594 L -17.136719 -1.214844 L -17.699219 -1.097656 L -18.292969 -0.859375 L -18.820312 -0.6875 L -19.375 -0.464844 L -20.375 0.105469 L -21.359375 0.917969 L -21.742188 1.464844 L -22.121094 1.8125 L -23.296875 3.980469 L -23.421875 4.492188 L -23.640625 5.121094 L -23.824219 6.277344 L -23.78125 7.445312 L -23.589844 8.660156 L -22.914062 10.316406 L -22.332031 11.359375 L -21.425781 12.226562 L -21.066406 12.644531 L -20.53125 12.917969 L -20.089844 13.378906 L -19.300781 13.816406 L -18.429688 14.226562 L -17.800781 14.445312 L -16.179688 15.308594 L -15.683594 15.660156 L -13.96875 16.402344 L -13.394531 16.726562 L -12.953125 17.054688 L -12.335938 17.234375 L -11.621094 17.226562 L -11.164062 16.921875 L -9.535156 13.667969 L -8.882812 12.648438 L -8.675781 12.113281 L -5.109375 5.191406 L -4.90625 4.652344 L -2.351562 -0.289062 L -2.386719 -0.945312 L -3.078125 -1.636719 Z M -12.238281 5.199219 L -11.867188 5.792969 L -11.859375 6.371094 L -12.882812 8.582031 L -13.222656 9.117188 L -13.785156 10.214844 L -14.3125 10.589844 L -15.011719 10.570312 L -17.753906 9.070312 L -18.167969 8.554688 L -18.445312 8.042969 L -18.617188 7.515625 L -18.613281 6.84375 L -18.445312 6.320312 L -18.117188 5.542969 L -17.695312 4.847656 L -17.261719 4.460938 L -16.800781 4.15625 L -16.234375 3.902344 L -15.640625 3.800781 L -15.144531 3.886719 L -14.261719 4.203125 L -12.910156 4.925781 Z M -12.238281 5.199219" transform="translate(145.367 291.82)"/></g></g></g><g fill="#FFF4E6"><g><g><path d="M -5.964844 -5.097656 L -7.546875 -6.351562 L -8.40625 -6.683594 L -9.179688 -6.230469 L -10.253906 -5.09375 L -10.921875 -4.160156 L -11.375 -3.71875 L -12.125 -2.777344 L -12.519531 -2.402344 L -12.875 -1.835938 L -16.039062 1.828125 L -16.378906 2.367188 L -18.128906 4.3125 L -18.894531 4.847656 L -19.566406 4.753906 L -20.5 4.046875 L -21.253906 3.214844 L -21.796875 2.875 L -22.191406 2.503906 L -22.796875 2.429688 L -23.496094 2.703125 L -25.359375 4.867188 L -25.492188 5.542969 L -25.308594 6.207031 L -23.882812 7.410156 L -23.484375 7.824219 L -22.941406 8.160156 L -22.542969 8.574219 L -20.601562 10.050781 L -20.21875 10.53125 L -19.804688 10.921875 L -19.261719 11.257812 L -18.792969 11.730469 L -18.304688 11.988281 L -17.003906 13.199219 L -16.234375 13.730469 L -14.699219 15.175781 L -14.070312 15.316406 L -13.347656 15.019531 L -12.984375 14.539062 L -11.96875 13.425781 L -11.414062 12.675781 L -11.273438 12.085938 L -11.492188 11.507812 L -11.992188 11.167969 L -14.140625 9.28125 L -14.382812 8.683594 L -14.25 8.011719 L -13.582031 7.3125 L -13.085938 6.628906 L -12.636719 6.144531 L -12.273438 5.664062 L -11.6875 5.058594 L -8.871094 1.574219 L -8.4375 1.152344 L -6.84375 -0.691406 L -6.484375 -1.214844 L -5.339844 -2.527344 L -4.925781 -2.925781 L -4.796875 -3.683594 L -5.273438 -4.476562 Z M -5.964844 -5.097656" transform="translate(121.735 278.642)"/></g></g></g><g fill="#FFF4E6"><g><g><path d="M -7.449219 -9.488281 L -9.378906 -11.363281 L -10.390625 -12.007812 L -13.03125 -13.285156 L -15.925781 -13.601562 L -16.59375 -13.550781 L -18.933594 -13.117188 L -19.507812 -12.910156 L -20.027344 -12.59375 L -20.511719 -12.421875 L -21.09375 -12.089844 L -22.804688 -10.851562 L -24.296875 -9.402344 L -24.996094 -8.503906 L -25.324219 -7.914062 L -25.757812 -7.355469 L -26.167969 -6.300781 L -26.449219 -5.792969 L -26.589844 -5.164062 L -26.632812 -4.65625 L -26.796875 -4.007812 L -26.863281 -2.265625 L -26.613281 -0.472656 L -25.027344 3.339844 L -24.140625 4.441406 L -22.695312 5.976562 L -22.21875 6.359375 L -21.695312 6.703125 L -21.160156 6.964844 L -20.195312 7.644531 L -18.472656 8.199219 L -17.925781 8.292969 L -16.800781 8.605469 L -15.589844 8.644531 L -13.78125 8.460938 L -13.214844 8.339844 L -11.582031 7.714844 L -10.4375 7.070312 L -7.6875 4.917969 L -6.449219 3.449219 L -5.953125 2.445312 L -5.585938 1.902344 L -5.367188 1.324219 L -4.800781 -0.996094 L -4.71875 -2.164062 L -4.625 -2.753906 L -5.109375 -5.015625 L -5.292969 -5.605469 L -6.359375 -8.046875 Z M -10.964844 -5.441406 L -10.738281 -4.84375 L -10.4375 -4.390625 L -10.195312 -3.261719 L -10.214844 -2.023438 L -10.34375 -1.523438 L -10.417969 -0.953125 L -11.339844 0.566406 L -12.394531 1.648438 L -13.105469 2.203125 L -14.09375 2.757812 L -14.621094 2.96875 L -15.175781 2.960938 L -15.742188 3.082031 L -16.363281 3.09375 L -16.953125 3 L -17.972656 2.71875 L -18.527344 2.476562 L -19.050781 2.089844 L -20.03125 1.109375 L -20.890625 -0.0546875 L -21.382812 -1.722656 L -21.453125 -2.878906 L -21.113281 -4.066406 L -20.855469 -4.597656 L -20.507812 -5.125 L -20.230469 -5.632812 L -19.316406 -6.554688 L -18.050781 -7.382812 L -16.929688 -7.96875 L -16.375 -8.003906 L -15.855469 -8.089844 L -15.207031 -8.160156 L -14.054688 -7.910156 L -13.523438 -7.648438 L -13.007812 -7.457031 L -12.613281 -7.078125 L -12.128906 -6.738281 Z M -10.964844 -5.441406" transform="translate(109.374 268.76)"/></g></g></g><g fill="#FFF4E6"><g><g><path d="M -1.976562 -1.578125 L -1.367188 -2.109375 L -1.347656 -2.753906 L -1.558594 -3.320312 L -2.195312 -4.414062 L -2.65625 -5.496094 L -3.210938 -6.496094 L -3.382812 -7.046875 L -3.726562 -7.617188 L -6.316406 -12.976562 L -6.835938 -13.359375 L -7.820312 -13.246094 L -9.996094 -12.148438 L -10.6875 -11.507812 L -10.773438 -10.863281 L -10.441406 -10.324219 L -10.082031 -9.863281 L -9.886719 -9.253906 L -9.316406 -8.160156 L -9.160156 -7.570312 L -8.839844 -7.121094 L -8.378906 -6.042969 L -8.046875 -5.5 L -8 -4.855469 L -8.433594 -4.375 L -17.601562 0.078125 L -18.226562 0.449219 L -19.332031 0.921875 L -20.832031 1.757812 L -21.359375 1.980469 L -21.820312 2.542969 L -21.878906 3.242188 L -21.363281 4.296875 L -20.992188 4.78125 L -20.570312 5.914062 L -20.238281 6.390625 L -19.746094 6.851562 L -19.03125 6.804688 L -15.25 4.953125 L -14.710938 4.753906 L -14.199219 4.4375 L -13.160156 4.027344 L -12.578125 3.710938 L -12.089844 3.40625 Z M -1.976562 -1.578125" transform="translate(90.355 244.002)"/></g></g></g><g fill="#FFF4E6"><g><g><path d="M -3.011719 -11.683594 L -4.023438 -14.175781 L -4.6875 -15.167969 L -6.59375 -17.398438 L -9.121094 -18.855469 L -9.75 -19.078125 L -12.070312 -19.621094 L -12.675781 -19.660156 L -13.277344 -19.578125 L -13.792969 -19.617188 L -14.460938 -19.546875 L -16.523438 -19.101562 L -18.472656 -18.375 L -19.472656 -17.832031 L -20.007812 -17.421875 L -20.632812 -17.082031 L -21.429688 -16.285156 L -21.890625 -15.929688 L -22.273438 -15.414062 L -22.519531 -14.964844 L -22.925781 -14.4375 L -23.691406 -12.867188 L -24.183594 -11.125 L -24.257812 -7 L -23.890625 -5.636719 L -23.183594 -3.648438 L -22.902344 -3.105469 L -22.558594 -2.578125 L -22.175781 -2.125 L -21.566406 -1.113281 L -20.210938 0.0859375 L -19.746094 0.390625 L -18.84375 1.128906 L -17.75 1.652344 L -16.019531 2.210938 L -15.453125 2.328125 L -13.707031 2.414062 L -12.398438 2.28125 L -9.015625 1.417969 L -7.289062 0.566406 L -6.4375 -0.152344 L -5.878906 -0.503906 L -5.445312 -0.945312 L -3.996094 -2.839844 L -3.453125 -3.878906 L -3.128906 -4.378906 L -2.664062 -6.644531 L -2.59375 -7.261719 L -2.589844 -9.925781 Z M -7.851562 -9.386719 L -7.886719 -8.75 L -7.792969 -8.214844 L -8.023438 -7.082031 L -8.542969 -5.960938 L -8.863281 -5.550781 L -9.15625 -5.058594 L -10.609375 -4.039062 L -12.011719 -3.472656 L -12.886719 -3.246094 L -14.011719 -3.136719 L -14.582031 -3.15625 L -15.089844 -3.386719 L -15.65625 -3.503906 L -16.226562 -3.742188 L -16.726562 -4.066406 L -17.550781 -4.734375 L -17.960938 -5.175781 L -18.285156 -5.742188 L -18.789062 -7.035156 L -19.105469 -8.445312 L -18.890625 -10.167969 L -18.488281 -11.257812 L -17.699219 -12.207031 L -17.25 -12.589844 L -16.722656 -12.933594 L -16.261719 -13.285156 L -15.054688 -13.765625 L -13.5625 -14.015625 L -12.300781 -14.101562 L -11.777344 -13.910156 L -11.269531 -13.777344 L -10.648438 -13.582031 L -9.691406 -12.890625 L -9.308594 -12.4375 L -8.914062 -12.054688 L -8.707031 -11.550781 L -8.402344 -11.042969 Z M -7.851562 -9.386719" transform="translate(83.293 230.519)"/></g></g></g><g fill="#FFF4E6"><g><g><path d="M -0.597656 -10.421875 L -0.859375 -13.417969 L -1.589844 -15.617188 L -2.855469 -17.648438 L -3.652344 -18.515625 L -4.171875 -18.925781 L -4.570312 -19.34375 L -5.019531 -19.664062 L -5.554688 -19.921875 L -6.117188 -20.144531 L -6.566406 -20.46875 L -8.386719 -20.914062 L -9.546875 -21.054688 L -10.058594 -21.039062 L -10.609375 -21.113281 L -11.207031 -21.0625 L -11.78125 -21.074219 L -12.914062 -20.914062 L -13.398438 -20.570312 L -13.648438 -19.976562 L -13.625 -19.34375 L -13.660156 -18.707031 L -13.21875 -14.671875 L -13.183594 -12.863281 L -12.996094 -11.734375 L -12.644531 -11.160156 L -12.050781 -10.9375 L -9.207031 -11.183594 L -8.75 -11.496094 L -8.46875 -12.0625 L -8.480469 -12.9375 L -8.730469 -14.425781 L -8.6875 -14.972656 L -8.515625 -15.441406 L -8.015625 -15.574219 L -7.480469 -15.316406 L -6.933594 -14.914062 L -6.566406 -14.523438 L -6.09375 -13.566406 L -5.722656 -12.421875 L -5.625 -11.644531 L -5.671875 -10.101562 L -6.191406 -8.429688 L -6.953125 -7.457031 L -7.34375 -7.089844 L -8.371094 -6.429688 L -9.21875 -6.113281 L -10.164062 -5.882812 L -11.902344 -5.703125 L -13.085938 -5.808594 L -14.207031 -6.195312 L -15.695312 -7.003906 L -16.535156 -7.988281 L -16.847656 -8.472656 L -16.957031 -9.035156 L -17.242188 -9.523438 L -17.460938 -11.347656 L -17.253906 -12.480469 L -17.066406 -13.070312 L -16.726562 -13.675781 L -16.367188 -14.066406 L -15.890625 -14.5 L -15.4375 -15.171875 L -15.289062 -15.910156 L -15.339844 -16.84375 L -15.535156 -17.730469 L -15.570312 -19.175781 L -15.964844 -19.894531 L -16.488281 -20.03125 L -17.679688 -19.507812 L -18.199219 -19.191406 L -19.832031 -17.84375 L -20.3125 -17.136719 L -20.722656 -16.617188 L -21.042969 -16.136719 L -21.96875 -13.945312 L -22.035156 -13.304688 L -22.300781 -11.863281 L -22.179688 -9.066406 L -22.097656 -8.472656 L -21.875 -7.976562 L -21.796875 -7.410156 L -20.757812 -5.175781 L -19.597656 -3.617188 L -18.316406 -2.398438 L -17.800781 -2.050781 L -17.3125 -1.640625 L -16.835938 -1.351562 L -14.492188 -0.4375 L -11.480469 -0.152344 L -10.519531 -0.207031 L -8.4375 -0.539062 L -5.691406 -1.621094 L -4.722656 -2.246094 L -3.761719 -3.023438 L -2.609375 -4.332031 L -2.003906 -5.378906 L -0.984375 -7.550781 L -0.878906 -8.074219 L -0.726562 -9.804688 Z M -0.597656 -10.421875" transform="translate(76.8 208.592)"/></g></g></g><g fill="#FFF4E6"><g><g><path d="M 0.820312 -10.039062 L 0.84375 -11.242188 L 0.582031 -11.804688 L 0.03125 -12.144531 L -2.9375 -12.351562 L -3.53125 -12.03125 L -3.910156 -11.394531 L -3.953125 -10.765625 L -4.242188 -10.0625 L -4.957031 -9.75 L -5.519531 -9.878906 L -8.824219 -10.078125 L -9.476562 -10.183594 L -11.648438 -10.214844 L -14.667969 -10.546875 L -15.34375 -10.804688 L -15.566406 -11.480469 L -15.613281 -12.089844 L -15.8125 -12.734375 L -16.269531 -13.066406 L -19.238281 -13.304688 L -19.832031 -12.984375 L -20.199219 -12.46875 L -20.453125 -8.839844 L -20.550781 -8.300781 L -20.472656 -7.695312 L -20.644531 -5.234375 L -20.773438 -4.671875 L -20.820312 -3.980469 L -20.5625 -3.359375 L -19.863281 -3.011719 L -17.636719 -2.945312 L -17.070312 -2.847656 L -16.449219 -3.132812 L -16.074219 -3.769531 L -16.03125 -4.371094 L -15.632812 -4.914062 L -14.804688 -5.128906 L -5.589844 -4.578125 L -4.710938 -4.1875 L -4.25 -2.164062 L -3.734375 -1.796875 L -0.980469 -1.515625 L -0.148438 -1.757812 L 0.164062 -2.339844 L 0.203125 -2.910156 L 0.183594 -3.484375 L 0.363281 -4.34375 L 0.398438 -5.277344 L 0.378906 -5.882812 L 0.582031 -7.074219 L 0.523438 -7.980469 L 0.628906 -9.449219 Z M 0.820312 -10.039062" transform="translate(75.19 186.491)"/></g></g></g><g fill="#FFF4E6"><g><g><path d="M 3.4375 -17.410156 L 4.085938 -18.097656 L 4.363281 -18.898438 L 4.304688 -19.589844 L 3.785156 -20.015625 L -6.902344 -22.507812 L -7.421875 -22.535156 L -10.324219 -23.195312 L -11.007812 -23.441406 L -15.101562 -24.28125 L -15.757812 -24.121094 L -16.210938 -23.609375 L -17.011719 -19.96875 L -16.816406 -19.335938 L -16.273438 -18.875 L -15.664062 -18.707031 L -15.175781 -18.6875 L -13.964844 -18.316406 L -13.304688 -18.230469 L -8.070312 -16.976562 L -7.613281 -16.6875 L -7.917969 -16.292969 L -10.472656 -14.6875 L -11.304688 -14.011719 L -18.453125 -9.566406 L -18.90625 -9.207031 L -19.410156 -8.609375 L -19.816406 -7.777344 L -19.675781 -7.035156 L -19.179688 -6.644531 L -10.296875 -4.625 L -9.804688 -4.480469 L -8.589844 -4.265625 L -8.109375 -4.066406 L -3.289062 -3.03125 L -2.746094 -2.84375 L -0.269531 -2.34375 L 0.347656 -2.480469 L 0.695312 -3.050781 L 1.027344 -4.238281 L 1.113281 -4.894531 L 1.460938 -6.019531 L 1.574219 -6.640625 L 1.414062 -7.292969 L 0.570312 -7.792969 L -6.839844 -9.511719 L -7.414062 -9.703125 L -7.863281 -10.023438 L -7.632812 -10.371094 L -7.046875 -10.636719 L -4.578125 -12.265625 L -4.050781 -12.546875 L -3.617188 -12.972656 L 1.933594 -16.488281 L 2.957031 -17.058594 Z M 3.4375 -17.410156" transform="translate(75.676 173.647)"/></g></g></g><g fill="#FFF4E6"><g><g><path d="M -8.757812 -8.753906 L -8.578125 -9.335938 L -9.480469 -10.730469 L -9.730469 -11.046875 L -9.550781 -11.429688 L -9.066406 -11.53125 L -8.675781 -11.515625 L -7.859375 -11.691406 L -7.402344 -11.742188 L -7.0625 -12.179688 L -7.511719 -13.824219 L -7.5625 -14.28125 L -7.664062 -14.695312 L -7.726562 -15.125 L -8.230469 -15.394531 L -8.617188 -15.28125 L -9.070312 -15.097656 L -10.234375 -14.75 L -10.5625 -14.972656 L -10.515625 -15.417969 L -10.351562 -15.835938 L -10.304688 -16.28125 L -10.078125 -17.105469 L -10.410156 -17.53125 L -10.816406 -17.589844 L -11.234375 -17.757812 L -11.667969 -17.761719 L -12.046875 -17.875 L -12.421875 -17.855469 L -12.828125 -17.980469 L -13.242188 -17.945312 L -13.722656 -17.640625 L -13.699219 -17.195312 L -13.804688 -16.347656 L -13.78125 -15.902344 L -13.867188 -15.511719 L -14.183594 -15.261719 L -14.839844 -15.773438 L -15.546875 -16.109375 L -15.835938 -16.347656 L -16.382812 -16.175781 L -17.339844 -14.230469 L -17.453125 -13.851562 L -17.710938 -13.378906 L -17.488281 -12.9375 L -17.09375 -12.785156 L -16.769531 -12.628906 L -16.375 -12.542969 L -15.660156 -12.300781 L -15.53125 -11.875 L -16.175781 -11.28125 L -16.480469 -10.925781 L -16.796875 -10.746094 L -17.167969 -10.390625 L -17.078125 -9.878906 L -16.773438 -9.601562 L -16.527344 -9.285156 L -15.910156 -8.691406 L -15.609375 -8.484375 L -15.308594 -8.207031 L -15.003906 -7.863281 L -14.484375 -7.980469 L -14.179688 -8.335938 L -13.917969 -8.609375 L -13.601562 -8.996094 L -13.433594 -9.28125 L -13.105469 -9.621094 L -12.726562 -9.578125 L -12.558594 -9.164062 L -12.453125 -8.75 L -12.300781 -8.375 L -12.089844 -8.042969 L -11.945312 -7.574219 L -11.40625 -7.382812 L -11.019531 -7.632812 L -10.6875 -7.773438 L -9.847656 -8.207031 L -9.101562 -8.519531 Z M -8.757812 -8.753906" transform="translate(83.684 144.743)"/></g></g></g><g fill="#FFF4E6"><g><g><path d="M 4.730469 -6.261719 L 5.886719 -7.914062 L 6.164062 -8.792969 L 5.667969 -9.535156 L 4.46875 -10.542969 L 3.5 -11.152344 L 3.027344 -11.574219 L 2.042969 -12.269531 L 1.644531 -12.640625 L 1.0625 -12.964844 L -2.785156 -15.902344 L -3.347656 -16.207031 L -5.390625 -17.839844 L -5.972656 -18.570312 L -5.921875 -19.246094 L -5.269531 -20.222656 L -4.484375 -21.023438 L -4.179688 -21.585938 L -3.832031 -22 L -3.792969 -22.609375 L -4.109375 -23.292969 L -6.382812 -25.019531 L -7.0625 -25.113281 L -7.714844 -24.890625 L -8.828125 -23.394531 L -9.21875 -22.972656 L -9.523438 -22.410156 L -9.914062 -21.988281 L -11.269531 -19.964844 L -11.726562 -19.550781 L -12.089844 -19.113281 L -12.394531 -18.550781 L -12.835938 -18.054688 L -13.0625 -17.550781 L -14.195312 -16.179688 L -14.679688 -15.378906 L -16.03125 -13.761719 L -16.132812 -13.125 L -15.792969 -12.421875 L -15.292969 -12.085938 L -14.121094 -11.140625 L -13.335938 -10.632812 L -12.742188 -10.527344 L -12.175781 -10.78125 L -11.867188 -11.300781 L -10.113281 -13.558594 L -9.53125 -13.835938 L -8.851562 -13.742188 L -8.117188 -13.121094 L -7.402344 -12.664062 L -6.890625 -12.246094 L -6.390625 -11.910156 L -5.75 -11.359375 L -2.101562 -8.757812 L -1.65625 -8.351562 L 0.28125 -6.875 L 0.820312 -6.546875 L 2.203125 -5.480469 L 2.625 -5.089844 L 3.390625 -5.011719 L 4.152344 -5.53125 Z M 4.730469 -6.261719" transform="translate(92.534 127.3)"/></g></g></g><g fill="#FFF4E6"><g><g><path d="M 12.808594 -12.273438 L 13.566406 -13.132812 L 14.019531 -13.484375 L 14.671875 -14.15625 L 15.171875 -14.847656 L 14.734375 -15.429688 L 14.105469 -15.78125 L 13.007812 -16.269531 L 11.335938 -16.828125 L 10.261719 -17.339844 L 9.078125 -17.699219 L 6.355469 -18.875 L 5.824219 -18.992188 L 5.214844 -19.195312 L 4.625 -19.542969 L 4.117188 -19.679688 L 3.652344 -19.902344 L 2.425781 -20.265625 L 1.835938 -20.574219 L -2.496094 -22.203125 L -3.042969 -22.507812 L -3.65625 -22.667969 L -4.160156 -22.933594 L -5.304688 -23.292969 L -6.046875 -23.328125 L -6.96875 -22.855469 L -7.433594 -21.949219 L -7.46875 -21.207031 L -7.308594 -20.652344 L -7.039062 -20.070312 L -6.941406 -19.582031 L -5.886719 -16.753906 L -5.8125 -16.199219 L -5.503906 -15.664062 L -5.34375 -15.023438 L -5.097656 -14.507812 L -2.839844 -7.75 L -2.507812 -7.148438 L -2.414062 -6.613281 L -2.144531 -6.035156 L -1.867188 -4.964844 L -1.355469 -3.789062 L -1.300781 -3.253906 L -1.035156 -2.761719 L -0.632812 -1.480469 L -0.34375 -0.921875 L 0.285156 -0.484375 L 0.84375 -0.773438 L 1.644531 -1.628906 L 2.121094 -2.003906 L 3.289062 -3.214844 L 3.640625 -3.847656 L 3.675781 -4.632812 L 3.378906 -5.722656 L 3.390625 -6.53125 L 3.617188 -7.207031 L 4.089844 -7.539062 L 4.914062 -8.503906 L 5.367188 -8.8125 L 7.46875 -10.882812 L 7.898438 -11.214844 L 8.3125 -11.738281 L 9.015625 -11.960938 L 9.761719 -12.011719 L 10.355469 -11.785156 L 10.859375 -11.523438 L 11.605469 -11.617188 L 12.3125 -11.878906 Z M 2.699219 -12.921875 L 2.179688 -12.59375 L 1.726562 -12.070312 L 1.234375 -11.886719 L 0.816406 -12.277344 L -0.421875 -15.59375 L -0.371094 -16.019531 L 0.0976562 -16.136719 L 3.410156 -14.738281 L 3.699219 -14.265625 L 3.542969 -13.78125 Z M 2.699219 -12.921875" transform="translate(101.804 114.373)"/></g></g></g><g fill="#FFF4E6"><g><g><path d="M 3.394531 -2.171875 L 4.582031 -3.042969 L 5.050781 -3.320312 L 5.589844 -3.757812 L 5.980469 -4.308594 L 5.851562 -4.984375 L 5.492188 -5.464844 L 5.148438 -6.03125 L 4.476562 -6.921875 L 4.210938 -7.429688 L 3.796875 -7.984375 L 3.722656 -8.585938 L 4.109375 -9.246094 L 4.625 -9.664062 L 5.21875 -9.917969 L 7.652344 -11.84375 L 9.386719 -14.386719 L 9.558594 -14.9375 L 9.640625 -15.570312 L 9.746094 -16.113281 L 9.820312 -16.707031 L 9.808594 -17.855469 L 9.578125 -19.117188 L 9.285156 -19.714844 L 9.164062 -20.214844 L 7.839844 -22.292969 L 7.457031 -22.652344 L 7.011719 -23.152344 L 6.09375 -23.871094 L 5.046875 -24.402344 L 3.894531 -24.824219 L 2.117188 -25.042969 L 0.925781 -25.039062 L -0.273438 -24.667969 L -0.816406 -24.554688 L -1.316406 -24.222656 L -1.929688 -24.058594 L -2.695312 -23.582031 L -3.476562 -23.019531 L -3.976562 -22.578125 L -5.515625 -21.578125 L -6.066406 -21.316406 L -7.546875 -20.179688 L -8.113281 -19.835938 L -8.609375 -19.609375 L -9.066406 -19.15625 L -9.40625 -18.527344 L -9.363281 -17.980469 L -7.308594 -14.976562 L -6.738281 -13.910156 L -6.371094 -13.46875 L -2.050781 -6.988281 L -1.683594 -6.546875 L 1.394531 -1.914062 L 1.988281 -1.625 L 2.929688 -1.894531 Z M 1.402344 -13.222656 L 0.703125 -13.1875 L 0.191406 -13.460938 L -1.242188 -15.429688 L -1.542969 -15.988281 L -2.230469 -17.011719 L -2.300781 -17.652344 L -1.941406 -18.257812 L 0.703125 -19.925781 L 1.351562 -20.035156 L 1.9375 -20.03125 L 2.480469 -19.921875 L 3.0625 -19.59375 L 3.441406 -19.191406 L 3.960938 -18.527344 L 4.363281 -17.820312 L 4.488281 -17.253906 L 4.535156 -16.703125 L 4.476562 -16.085938 L 4.28125 -15.519531 L 3.964844 -15.125 L 3.257812 -14.503906 L 1.96875 -13.675781 Z M 1.402344 -13.222656" transform="translate(116.76 99.938)"/></g></g></g><g fill="#FFF4E6"><g><g><path d="M 7.355469 -2.734375 L 9.21875 -3.507812 L 9.925781 -4.097656 L 9.90625 -4.992188 L 9.433594 -6.488281 L 8.945312 -7.523438 L 8.777344 -8.132812 L 8.320312 -9.246094 L 8.183594 -9.773438 L 7.863281 -10.359375 L 6.199219 -14.90625 L 5.890625 -15.464844 L 5.042969 -17.941406 L 4.945312 -18.871094 L 5.351562 -19.410156 L 6.425781 -19.882812 L 7.519531 -20.136719 L 8.078125 -20.449219 L 8.59375 -20.613281 L 8.953125 -21.101562 L 9.054688 -21.847656 L 8.066406 -24.53125 L 7.546875 -24.972656 L 6.871094 -25.136719 L 5.128906 -24.472656 L 4.574219 -24.324219 L 4.015625 -24.015625 L 3.460938 -23.871094 L 1.226562 -22.890625 L 0.621094 -22.789062 L 0.078125 -22.613281 L -0.480469 -22.304688 L -1.121094 -22.125 L -1.582031 -21.820312 L -3.273438 -21.273438 L -4.109375 -20.859375 L -6.121094 -20.222656 L -6.546875 -19.738281 L -6.640625 -18.964844 L -6.398438 -18.414062 L -5.917969 -16.984375 L -5.53125 -16.136719 L -5.085938 -15.726562 L -4.472656 -15.636719 L -3.933594 -15.910156 L -1.242188 -16.867188 L -0.601562 -16.789062 L -0.078125 -16.347656 L 0.207031 -15.425781 L 0.566406 -14.660156 L 0.773438 -14.03125 L 1.015625 -13.480469 L 1.257812 -12.671875 L 2.933594 -8.515625 L 3.09375 -7.933594 L 3.929688 -5.648438 L 4.210938 -5.078125 L 4.804688 -3.4375 L 4.953125 -2.882812 L 5.550781 -2.402344 L 6.472656 -2.433594 Z M 7.355469 -2.734375" transform="translate(139.761 85.688)"/></g></g></g><g fill="#FFF4E6"><g><g><path d="M 11.914062 -1.902344 L 14.488281 -2.675781 L 15.542969 -3.246094 L 17.941406 -4.933594 L 19.625 -7.308594 L 19.90625 -7.914062 L 20.667969 -10.175781 L 20.765625 -10.777344 L 20.738281 -11.382812 L 20.824219 -11.890625 L 20.816406 -12.5625 L 20.566406 -14.65625 L 20.027344 -16.664062 L 19.578125 -17.710938 L 19.222656 -18.285156 L 18.945312 -18.9375 L 18.222656 -19.808594 L 17.914062 -20.300781 L 17.433594 -20.726562 L 17.011719 -21.015625 L 16.527344 -21.472656 L 15.035156 -22.378906 L 13.347656 -23.03125 L 9.246094 -23.496094 L 7.851562 -23.257812 L 5.808594 -22.742188 L 5.238281 -22.507812 L 4.683594 -22.21875 L 4.199219 -21.878906 L 3.132812 -21.367188 L 1.808594 -20.132812 L 1.464844 -19.699219 L 0.644531 -18.867188 L 0.0195312 -17.824219 L -0.699219 -16.15625 L -0.867188 -15.601562 L -1.117188 -13.871094 L -1.105469 -12.554688 L -0.5625 -9.109375 L 0.121094 -7.3125 L 0.757812 -6.394531 L 1.054688 -5.808594 L 1.449219 -5.332031 L 3.203125 -3.710938 L 4.183594 -3.074219 L 4.652344 -2.703125 L 6.867188 -2.03125 L 7.472656 -1.902344 L 10.125 -1.648438 Z M 10.082031 -6.9375 L 9.453125 -7.03125 L 8.910156 -6.988281 L 7.804688 -7.324219 L 6.734375 -7.945312 L 6.359375 -8.300781 L 5.894531 -8.640625 L 5.015625 -10.1875 L 4.582031 -11.632812 L 4.441406 -12.523438 L 4.4375 -13.65625 L 4.511719 -14.222656 L 4.785156 -14.703125 L 4.957031 -15.257812 L 5.25 -15.804688 L 5.617188 -16.273438 L 6.359375 -17.027344 L 6.839844 -17.398438 L 7.429688 -17.664062 L 8.765625 -18.042969 L 10.199219 -18.230469 L 11.894531 -17.851562 L 12.941406 -17.351562 L 13.816406 -16.476562 L 14.152344 -15.992188 L 14.445312 -15.433594 L 14.753906 -14.945312 L 15.117188 -13.695312 L 15.226562 -12.1875 L 15.191406 -10.925781 L 14.953125 -10.417969 L 14.773438 -9.925781 L 14.523438 -9.324219 L 13.742188 -8.441406 L 13.257812 -8.101562 L 12.835938 -7.746094 L 12.316406 -7.582031 L 11.785156 -7.328125 Z M 10.082031 -6.9375" transform="translate(154.41 79.683)"/></g></g></g><g fill="#FFF4E6"><g><g><path d="M 2.339844 -0.960938 L 2.507812 -0.167969 L 3.0625 0.160156 L 3.660156 0.253906 L 4.925781 0.226562 L 6.09375 0.347656 L 7.238281 0.347656 L 7.804688 0.46875 L 8.46875 0.445312 L 14.410156 0.785156 L 14.996094 0.515625 L 15.375 -0.398438 L 15.472656 -2.832031 L 15.25 -3.746094 L 14.730469 -4.136719 L 14.09375 -4.109375 L 13.519531 -4.019531 L 12.894531 -4.140625 L 11.660156 -4.175781 L 11.066406 -4.328125 L 10.519531 -4.265625 L 9.351562 -4.386719 L 8.71875 -4.359375 L 8.132812 -4.632812 L 7.921875 -5.246094 L 8.484375 -15.421875 L 8.464844 -16.144531 L 8.585938 -17.34375 L 8.585938 -19.058594 L 8.644531 -19.628906 L 8.378906 -20.304688 L 7.800781 -20.699219 L 6.628906 -20.757812 L 6.019531 -20.671875 L 4.828125 -20.851562 L 4.25 -20.792969 L 3.609375 -20.585938 L 3.304688 -19.941406 L 3.082031 -15.734375 L 2.992188 -15.167969 L 3.023438 -14.566406 L 2.875 -13.457031 L 2.867188 -12.796875 L 2.898438 -12.222656 Z M 2.339844 -0.960938" transform="translate(185.284 75.096)"/></g></g></g><g fill="#FFF4E6"><g><g><path d="M 11.671875 3.046875 L 14.34375 3.371094 L 15.535156 3.273438 L 18.410156 2.691406 L 20.910156 1.191406 L 21.410156 0.75 L 23.011719 -1.011719 L 23.34375 -1.523438 L 23.566406 -2.089844 L 23.847656 -2.519531 L 24.109375 -3.136719 L 24.722656 -5.15625 L 25.035156 -7.214844 L 25.046875 -8.351562 L 24.949219 -9.023438 L 24.957031 -9.730469 L 24.648438 -10.816406 L 24.5625 -11.390625 L 24.292969 -11.976562 L 24.023438 -12.40625 L 23.761719 -13.023438 L 22.757812 -14.453125 L 21.476562 -15.726562 L 17.90625 -17.800781 L 16.535156 -18.144531 L 14.457031 -18.492188 L 13.84375 -18.507812 L 13.214844 -18.464844 L 12.636719 -18.347656 L 11.453125 -18.308594 L 9.746094 -17.707031 L 9.257812 -17.449219 L 8.171875 -17.015625 L 7.179688 -16.316406 L 5.851562 -15.074219 L 5.472656 -14.636719 L 4.550781 -13.148438 L 4.03125 -11.941406 L 3.144531 -8.566406 L 3.046875 -6.648438 L 3.261719 -5.550781 L 3.296875 -4.894531 L 3.472656 -4.300781 L 4.425781 -2.109375 L 5.066406 -1.132812 L 5.347656 -0.605469 L 7.101562 0.898438 L 7.605469 1.261719 L 9.933594 2.558594 Z M 12.019531 -2.300781 L 11.480469 -2.640625 L 10.964844 -2.816406 L 10.089844 -3.570312 L 9.359375 -4.570312 L 9.160156 -5.046875 L 8.871094 -5.542969 L 8.6875 -7.3125 L 8.871094 -8.8125 L 9.101562 -9.683594 L 9.550781 -10.722656 L 9.847656 -11.210938 L 10.292969 -11.542969 L 10.667969 -11.980469 L 11.15625 -12.363281 L 11.683594 -12.644531 L 12.664062 -13.039062 L 13.253906 -13.183594 L 13.902344 -13.191406 L 15.277344 -13 L 16.664062 -12.59375 L 18.066406 -11.566406 L 18.824219 -10.6875 L 19.269531 -9.539062 L 19.386719 -8.957031 L 19.429688 -8.332031 L 19.515625 -7.757812 L 19.347656 -6.46875 L 18.839844 -5.042969 L 18.300781 -3.898438 L 17.878906 -3.53125 L 17.515625 -3.152344 L 17.046875 -2.703125 L 15.976562 -2.207031 L 15.394531 -2.09375 L 14.867188 -1.933594 L 14.324219 -1.996094 L 13.734375 -1.976562 Z M 12.019531 -2.300781" transform="translate(200.507 75.472)"/></g></g></g><g fill="#FFF4E6"><g><g><path d="M 9.398438 4.539062 L 12.140625 5.769531 L 14.421875 6.199219 L 16.8125 6.082031 L 17.957031 5.804688 L 18.566406 5.550781 L 19.125 5.40625 L 19.625 5.167969 L 20.109375 4.824219 L 20.578125 4.441406 L 21.078125 4.207031 L 22.355469 2.832031 L 23.039062 1.886719 L 23.277344 1.433594 L 23.609375 0.988281 L 23.855469 0.441406 L 24.140625 -0.0546875 L 24.554688 -1.125 L 24.488281 -1.710938 L 24.089844 -2.21875 L 23.527344 -2.507812 L 22.988281 -2.847656 L 19.246094 -4.425781 L 17.648438 -5.269531 L 16.570312 -5.65625 L 15.898438 -5.628906 L 15.417969 -5.21875 L 14.25 -2.609375 L 14.300781 -2.0625 L 14.660156 -1.539062 L 15.429688 -1.125 L 16.851562 -0.621094 L 17.308594 -0.316406 L 17.632812 0.0585938 L 17.507812 0.5625 L 17.023438 0.90625 L 16.402344 1.1875 L 15.882812 1.316406 L 14.816406 1.269531 L 13.636719 1.035156 L 12.910156 0.742188 L 11.585938 -0.046875 L 10.375 -1.316406 L 9.894531 -2.453125 L 9.765625 -2.972656 L 9.6875 -4.191406 L 9.824219 -5.085938 L 10.082031 -6.027344 L 10.765625 -7.628906 L 11.4375 -8.613281 L 12.320312 -9.40625 L 13.746094 -10.3125 L 15.015625 -10.570312 L 15.59375 -10.609375 L 16.136719 -10.429688 L 16.703125 -10.441406 L 18.402344 -9.746094 L 19.292969 -9.015625 L 19.71875 -8.5625 L 20.078125 -7.972656 L 20.246094 -7.46875 L 20.394531 -6.839844 L 20.761719 -6.117188 L 21.335938 -5.628906 L 22.171875 -5.222656 L 23.046875 -4.960938 L 24.328125 -4.289062 L 25.148438 -4.285156 L 25.519531 -4.675781 L 25.640625 -5.972656 L 25.617188 -6.578125 L 25.230469 -8.660156 L 24.847656 -9.425781 L 24.59375 -10.035156 L 24.328125 -10.546875 L 22.863281 -12.425781 L 22.335938 -12.792969 L 21.207031 -13.726562 L 18.703125 -14.980469 L 18.144531 -15.199219 L 17.601562 -15.242188 L 17.070312 -15.449219 L 14.613281 -15.625 L 12.683594 -15.371094 L 11 -14.839844 L 10.445312 -14.5625 L 9.847656 -14.335938 L 9.363281 -14.058594 L 7.425781 -12.453125 L 5.714844 -9.960938 L 5.292969 -9.09375 L 4.570312 -7.113281 L 4.183594 -4.1875 L 4.257812 -3.035156 L 4.472656 -1.820312 L 5.054688 -0.175781 L 5.675781 0.863281 L 7.078125 2.808594 L 7.480469 3.15625 L 8.921875 4.128906 Z M 9.398438 4.539062" transform="translate(222.82 80.456)"/></g></g></g><g fill="#FFF4E6"><g><g><path d="M 8.375 5.59375 L 9.417969 6.199219 L 10.035156 6.242188 L 10.597656 5.929688 L 12.222656 3.433594 L 12.230469 2.757812 L 11.859375 2.121094 L 11.328125 1.777344 L 10.855469 1.179688 L 10.929688 0.40625 L 11.316406 -0.0234375 L 13.09375 -2.8125 L 13.507812 -3.335938 L 14.585938 -5.214844 L 16.34375 -7.695312 L 16.898438 -8.160156 L 17.601562 -8.027344 L 18.152344 -7.773438 L 18.8125 -7.628906 L 19.328125 -7.871094 L 20.976562 -10.347656 L 20.984375 -11.023438 L 20.710938 -11.597656 L 17.664062 -13.582031 L 17.242188 -13.925781 L 16.671875 -14.152344 L 14.605469 -15.5 L 14.175781 -15.886719 L 13.597656 -16.261719 L 12.929688 -16.339844 L 12.285156 -15.898438 L 11.144531 -13.984375 L 10.785156 -13.539062 L 10.734375 -12.851562 L 11.105469 -12.214844 L 11.609375 -11.886719 L 11.894531 -11.273438 L 11.675781 -10.445312 L 6.71875 -2.660156 L 5.949219 -2.082031 L 3.957031 -2.664062 L 3.382812 -2.390625 L 1.800781 -0.121094 L 1.609375 0.722656 L 1.964844 1.277344 L 2.445312 1.589844 L 2.957031 1.851562 L 3.621094 2.429688 L 4.417969 2.910156 L 4.957031 3.1875 L 5.898438 3.945312 L 6.71875 4.335938 L 7.953125 5.140625 Z M 8.375 5.59375" transform="translate(242.92 89.788)"/></g></g></g><g fill="#FFF4E6"><g><g><path d="M 13.546875 11.464844 L 13.828125 12.367188 L 14.394531 12.996094 L 15.027344 13.28125 L 15.652344 13.035156 L 23.027344 4.90625 L 23.300781 4.464844 L 25.289062 2.246094 L 25.839844 1.769531 L 28.5625 -1.398438 L 28.738281 -2.046875 L 28.511719 -2.695312 L 25.71875 -5.164062 L 25.070312 -5.300781 L 24.402344 -5.050781 L 23.960938 -4.601562 L 23.707031 -4.179688 L 22.796875 -3.300781 L 22.398438 -2.769531 L 18.757812 1.195312 L 18.285156 1.457031 L 18.089844 1 L 17.925781 -2.015625 L 17.738281 -3.070312 L 17.328125 -11.480469 L 17.230469 -12.050781 L 16.957031 -12.78125 L 16.425781 -13.539062 L 15.710938 -13.777344 L 15.128906 -13.53125 L 9.046875 -6.75 L 8.679688 -6.390625 L 7.902344 -5.433594 L 7.496094 -5.113281 L 4.246094 -1.402344 L 3.820312 -1.015625 L 2.179688 0.902344 L 2 1.511719 L 2.328125 2.089844 L 3.207031 2.957031 L 3.738281 3.351562 L 4.550781 4.203125 L 5.039062 4.601562 L 5.6875 4.78125 L 6.535156 4.289062 L 11.636719 -1.355469 L 12.082031 -1.761719 L 12.582031 -2.003906 L 12.773438 -1.628906 L 12.722656 -0.988281 L 12.945312 1.960938 L 12.933594 2.554688 L 13.09375 3.144531 L 13.472656 9.703125 L 13.472656 10.875 Z M 13.546875 11.464844" transform="translate(253.915 96.451)"/></g></g></g><g fill="#FFF4E6"><g><g><path d="M 11.90625 -3.398438 L 12.328125 -2.960938 L 13.984375 -3.070312 L 14.382812 -3.132812 L 14.628906 -2.792969 L 14.484375 -2.320312 L 14.277344 -1.988281 L 14.039062 -1.1875 L 13.859375 -0.765625 L 14.074219 -0.253906 L 15.730469 0.152344 L 16.15625 0.332031 L 16.566406 0.441406 L 16.972656 0.597656 L 17.457031 0.289062 L 17.542969 -0.105469 L 17.601562 -0.59375 L 17.867188 -1.777344 L 18.21875 -1.953125 L 18.585938 -1.699219 L 18.871094 -1.351562 L 19.238281 -1.09375 L 19.851562 -0.496094 L 20.382812 -0.578125 L 20.628906 -0.90625 L 20.980469 -1.191406 L 21.191406 -1.566406 L 21.476562 -1.839844 L 21.640625 -2.179688 L 21.949219 -2.472656 L 22.121094 -2.855469 L 22.085938 -3.421875 L 21.6875 -3.617188 L 20.996094 -4.121094 L 20.597656 -4.316406 L 20.296875 -4.582031 L 20.234375 -4.980469 L 21 -5.304688 L 21.636719 -5.757812 L 21.980469 -5.894531 L 22.097656 -6.457031 L 20.863281 -8.238281 L 20.589844 -8.519531 L 20.296875 -8.980469 L 19.804688 -8.996094 L 19.480469 -8.726562 L 19.1875 -8.519531 L 18.921875 -8.21875 L 18.359375 -7.707031 L 17.925781 -7.800781 L 17.722656 -8.65625 L 17.558594 -9.09375 L 17.554688 -9.460938 L 17.421875 -9.957031 L 16.933594 -10.125 L 16.546875 -9.996094 L 16.144531 -9.933594 L 15.328125 -9.679688 L 15 -9.519531 L 14.613281 -9.390625 L 14.164062 -9.292969 L 14.015625 -8.78125 L 14.179688 -8.34375 L 14.289062 -7.980469 L 14.472656 -7.519531 L 14.636719 -7.230469 L 14.777344 -6.777344 L 14.554688 -6.46875 L 14.109375 -6.523438 L 13.699219 -6.632812 L 13.296875 -6.679688 L 12.90625 -6.660156 L 12.425781 -6.761719 L 11.996094 -6.378906 L 12.027344 -5.921875 L 11.988281 -5.5625 L 11.960938 -4.617188 L 11.867188 -3.8125 Z M 11.90625 -3.398438" transform="translate(275.282 117.497)"/></g></g></g><g fill="#FFF4E6"><g><g><path d="M 3.171875 7.179688 L 4.054688 8.988281 L 4.6875 9.660156 L 5.578125 9.589844 L 7.042969 9.027344 L 8.046875 8.476562 L 8.644531 8.269531 L 9.730469 7.75 L 10.246094 7.582031 L 10.8125 7.226562 L 15.25 5.292969 L 15.789062 4.949219 L 18.210938 3.957031 L 19.132812 3.804688 L 19.695312 4.175781 L 20.234375 5.222656 L 20.554688 6.296875 L 20.894531 6.835938 L 21.089844 7.339844 L 21.601562 7.671875 L 22.355469 7.726562 L 24.96875 6.582031 L 25.382812 6.03125 L 25.503906 5.351562 L 24.738281 3.652344 L 24.558594 3.105469 L 24.214844 2.566406 L 24.035156 2.023438 L 22.921875 -0.148438 L 22.785156 -0.746094 L 22.578125 -1.277344 L 22.238281 -1.816406 L 22.019531 -2.445312 L 21.6875 -2.890625 L 21.039062 -4.542969 L 20.574219 -5.355469 L 19.820312 -7.324219 L 19.308594 -7.722656 L 18.53125 -7.765625 L 17.996094 -7.492188 L 16.601562 -6.925781 L 15.773438 -6.488281 L 15.394531 -6.019531 L 15.339844 -5.402344 L 15.644531 -4.878906 L 16.761719 -2.25 L 16.722656 -1.605469 L 16.3125 -1.058594 L 15.410156 -0.71875 L 14.667969 -0.316406 L 14.050781 -0.0703125 L 13.515625 0.203125 L 12.722656 0.496094 L 8.675781 2.417969 L 8.105469 2.609375 L 5.871094 3.585938 L 5.320312 3.898438 L 3.71875 4.589844 L 3.175781 4.769531 L 2.730469 5.398438 L 2.816406 6.316406 Z M 3.171875 7.179688" transform="translate(286.222 133.712)"/></g></g></g><g fill="#FFF4E6"><g><g><path d="M 4.503906 17.160156 L 4.882812 18.238281 L 4.972656 18.808594 L 5.242188 19.699219 L 5.605469 20.476562 L 6.324219 20.375 L 6.9375 19.996094 L 7.898438 19.273438 L 9.199219 18.085938 L 10.167969 17.394531 L 11.058594 16.535156 L 13.410156 14.726562 L 13.765625 14.320312 L 14.242188 13.882812 L 14.835938 13.539062 L 15.199219 13.160156 L 15.621094 12.863281 L 16.53125 11.96875 L 17.089844 11.601562 L 20.617188 8.609375 L 21.152344 8.28125 L 21.589844 7.820312 L 22.066406 7.507812 L 22.9375 6.683594 L 23.328125 6.050781 L 23.363281 5.015625 L 22.796875 4.171875 L 22.164062 3.777344 L 21.597656 3.648438 L 20.964844 3.601562 L 20.488281 3.445312 L 17.503906 2.996094 L 16.984375 2.792969 L 16.363281 2.800781 L 15.726562 2.628906 L 15.15625 2.59375 L 8.152344 1.285156 L 7.464844 1.28125 L 6.953125 1.105469 L 6.316406 1.058594 L 5.25 0.78125 L 3.96875 0.65625 L 3.476562 0.445312 L 2.917969 0.4375 L 1.601562 0.164062 L 0.972656 0.144531 L 0.285156 0.484375 L 0.265625 1.113281 L 0.625 2.230469 L 0.722656 2.828125 L 1.210938 4.4375 L 1.59375 5.050781 L 2.261719 5.464844 L 3.359375 5.734375 L 4.058594 6.136719 L 4.542969 6.664062 L 4.601562 7.238281 L 5.042969 8.429688 L 5.09375 8.972656 L 5.882812 11.8125 L 5.960938 12.351562 L 6.21875 12.96875 L 6.070312 13.691406 L 5.753906 14.367188 L 5.269531 14.777344 L 4.792969 15.089844 L 4.511719 15.789062 L 4.398438 16.53125 Z M 9.984375 8.636719 L 9.945312 8.027344 L 9.710938 7.371094 L 9.789062 6.855469 L 10.332031 6.679688 L 13.835938 7.207031 L 14.179688 7.457031 L 14.058594 7.925781 L 11.222656 10.144531 L 10.671875 10.167969 L 10.320312 9.792969 Z M 9.984375 8.636719" transform="translate(293.02 148.092)"/></g></g></g><g fill="#FFF4E6"><g><g><path d="M 0.25 4.023438 L 0.433594 5.484375 L 0.449219 6.027344 L 0.566406 6.710938 L 0.859375 7.320312 L 1.511719 7.535156 L 2.109375 7.457031 L 2.769531 7.429688 L 3.875 7.277344 L 4.449219 7.289062 L 5.132812 7.199219 L 5.695312 7.425781 L 6.082031 8.085938 L 6.199219 8.742188 L 6.132812 9.378906 L 6.632812 12.445312 L 8.011719 15.195312 L 8.410156 15.613281 L 8.925781 15.992188 L 9.347656 16.351562 L 9.828125 16.703125 L 10.839844 17.25 L 12.050781 17.660156 L 12.71875 17.695312 L 13.214844 17.835938 L 15.675781 17.6875 L 16.175781 17.523438 L 16.824219 17.378906 L 17.902344 16.925781 L 18.875 16.269531 L 19.800781 15.46875 L 20.855469 14.019531 L 21.433594 12.976562 L 21.691406 11.746094 L 21.859375 11.21875 L 21.808594 10.621094 L 21.964844 10.003906 L 21.921875 9.101562 L 21.808594 8.148438 L 21.664062 7.496094 L 21.539062 5.664062 L 21.578125 5.058594 L 21.300781 3.210938 L 21.277344 2.550781 L 21.320312 2.003906 L 21.148438 1.382812 L 20.765625 0.78125 L 20.261719 0.550781 L 16.640625 0.886719 L 15.433594 0.871094 L 14.867188 0.976562 L 7.105469 1.601562 L 6.542969 1.710938 L 0.996094 2.148438 L 0.453125 2.527344 L 0.234375 3.480469 Z M 10.875 7.652344 L 11.183594 7.023438 L 11.671875 6.710938 L 14.089844 6.414062 L 14.722656 6.421875 L 15.953125 6.316406 L 16.546875 6.570312 L 16.898438 7.171875 L 17.074219 10.296875 L 16.855469 10.917969 L 16.566406 11.425781 L 16.207031 11.847656 L 15.632812 12.199219 L 15.101562 12.332031 L 14.269531 12.464844 L 13.453125 12.472656 L 12.898438 12.308594 L 12.394531 12.078125 L 11.882812 11.730469 L 11.484375 11.28125 L 11.292969 10.816406 L 11.09375 9.894531 L 10.996094 8.367188 Z M 10.875 7.652344" transform="translate(298.364 168.181)"/></g></g></g><g fill="#FFF4E6"><g><g><path d="M -1.183594 7.757812 L -1.414062 9.761719 L -1.238281 10.667969 L -0.449219 11.085938 L 1.085938 11.398438 L 2.226562 11.472656 L 2.84375 11.621094 L 4.039062 11.765625 L 4.566406 11.902344 L 5.234375 11.90625 L 10.015625 12.660156 L 10.652344 12.660156 L 13.230469 13.125 L 14.089844 13.492188 L 14.363281 14.109375 L 14.253906 15.277344 L 13.945312 16.359375 L 13.945312 16.996094 L 13.839844 17.527344 L 14.09375 18.082031 L 14.695312 18.53125 L 17.519531 18.972656 L 18.160156 18.730469 L 18.628906 18.222656 L 18.894531 16.375 L 19.039062 15.820312 L 19.039062 15.179688 L 19.179688 14.625 L 19.410156 12.195312 L 19.613281 11.621094 L 19.726562 11.058594 L 19.726562 10.421875 L 19.882812 9.773438 L 19.839844 9.222656 L 20.183594 7.480469 L 20.226562 6.542969 L 20.648438 4.476562 L 20.433594 3.867188 L 19.800781 3.414062 L 19.199219 3.355469 L 17.722656 3.082031 L 16.789062 3.007812 L 16.214844 3.199219 L 15.839844 3.691406 L 15.816406 4.292969 L 15.347656 7.113281 L 14.964844 7.636719 L 14.324219 7.875 L 13.378906 7.679688 L 12.539062 7.617188 L 11.886719 7.492188 L 11.289062 7.4375 L 10.464844 7.257812 L 6.015625 6.703125 L 5.429688 6.558594 L 3.023438 6.179688 L 2.390625 6.148438 L 0.667969 5.871094 L 0.113281 5.726562 L -0.597656 6.019531 L -1.019531 6.839844 Z M -1.183594 7.757812" transform="translate(299.64 195.209)"/></g></g></g><g fill="#FFF4E6"><g><g><path d="M -4.128906 11.335938 L -4.703125 13.960938 L -4.714844 15.160156 L -4.40625 18.078125 L -3.148438 20.707031 L -2.757812 21.246094 L -1.148438 23.007812 L -0.671875 23.382812 L -0.128906 23.65625 L 0.273438 23.980469 L 0.863281 24.300781 L 2.816406 25.097656 L 4.835938 25.601562 L 5.964844 25.71875 L 6.640625 25.6875 L 7.34375 25.757812 L 8.457031 25.554688 L 9.035156 25.523438 L 9.644531 25.3125 L 10.097656 25.082031 L 10.734375 24.878906 L 12.253906 24.015625 L 13.644531 22.855469 L 16.042969 19.496094 L 16.511719 18.164062 L 17.050781 16.125 L 17.125 15.519531 L 17.140625 14.890625 L 17.082031 14.300781 L 17.152344 13.121094 L 16.714844 11.363281 L 16.503906 10.851562 L 16.175781 9.730469 L 15.570312 8.679688 L 14.460938 7.238281 L 14.058594 6.824219 L 12.664062 5.765625 L 11.511719 5.132812 L 8.234375 3.933594 L 6.332031 3.65625 L 5.21875 3.769531 L 4.5625 3.742188 L 3.957031 3.859375 L 1.6875 4.601562 L 0.652344 5.148438 L 0.101562 5.382812 L -1.5625 6.988281 L -1.96875 7.453125 L -3.480469 9.648438 Z M 1.164062 12.183594 L 1.550781 11.679688 L 1.777344 11.183594 L 2.609375 10.378906 L 3.671875 9.746094 L 4.164062 9.59375 L 4.6875 9.351562 L 6.464844 9.332031 L 7.941406 9.660156 L 8.789062 9.96875 L 9.78125 10.515625 L 10.238281 10.855469 L 10.523438 11.328125 L 10.925781 11.746094 L 11.261719 12.265625 L 11.492188 12.816406 L 11.792969 13.832031 L 11.882812 14.429688 L 11.828125 15.078125 L 11.511719 16.429688 L 10.976562 17.773438 L 9.820312 19.074219 L 8.875 19.742188 L 7.6875 20.082031 L 7.097656 20.140625 L 6.472656 20.125 L 5.890625 20.15625 L 4.625 19.867188 L 3.253906 19.230469 L 2.164062 18.585938 L 1.839844 18.132812 L 1.496094 17.734375 L 1.09375 17.222656 L 0.699219 16.113281 L 0.636719 15.523438 L 0.53125 14.984375 L 0.640625 14.449219 L 0.675781 13.859375 Z M 1.164062 12.183594" transform="translate(297.776 210.926)"/></g></g></g><g fill="#FFF4E6"><g><g><path d="M -0.296875 2.511719 L -1.070312 2.273438 L -1.628906 2.597656 L -2 3.078125 L -2.59375 4.195312 L -3.265625 5.15625 L -3.824219 6.15625 L -4.203125 6.59375 L -4.503906 7.183594 L -7.691406 12.214844 L -7.738281 12.855469 L -7.125 13.632812 L -5.042969 14.898438 L -4.136719 15.148438 L -3.542969 14.882812 L -3.257812 14.316406 L -3.058594 13.769531 L -2.644531 13.28125 L -2.015625 12.21875 L -1.59375 11.773438 L -1.382812 11.269531 L -0.710938 10.304688 L -0.425781 9.738281 L 0.0976562 9.359375 L 0.734375 9.472656 L 9.355469 14.910156 L 10 15.242188 L 10.984375 15.933594 L 12.484375 16.765625 L 12.953125 17.09375 L 13.675781 17.191406 L 14.300781 16.875 L 14.921875 15.878906 L 15.140625 15.308594 L 15.878906 14.351562 L 16.105469 13.820312 L 16.238281 13.15625 L 15.820312 12.578125 L 12.253906 10.339844 L 11.800781 9.988281 L 11.261719 9.71875 L 10.367188 9.050781 L 9.789062 8.726562 L 9.273438 8.472656 Z M -0.296875 2.511719" transform="translate(286.774 240.143)"/></g></g></g><g fill="#FFF4E6"><g><g><path d="M -8.335938 8.722656 L -9.917969 10.894531 L -10.410156 11.988281 L -11.300781 14.785156 L -11.203125 17.695312 L -11.0625 18.347656 L -10.296875 20.605469 L -10.011719 21.144531 L -9.625 21.613281 L -9.386719 22.066406 L -8.972656 22.597656 L -7.503906 24.113281 L -5.859375 25.386719 L -4.871094 25.949219 L -4.238281 26.191406 L -3.625 26.539062 L -2.523438 26.796875 L -1.980469 27.003906 L -1.339844 27.050781 L -0.828125 27.023438 L -0.164062 27.09375 L 1.570312 26.914062 L 3.308594 26.414062 L 6.855469 24.300781 L 7.820312 23.269531 L 9.136719 21.621094 L 9.445312 21.089844 L 9.714844 20.523438 L 9.894531 19.960938 L 10.433594 18.90625 L 10.738281 17.125 L 10.753906 16.570312 L 10.902344 15.410156 L 10.769531 14.203125 L 10.332031 12.441406 L 10.132812 11.898438 L 9.28125 10.367188 L 8.476562 9.328125 L 5.960938 6.910156 L 4.328125 5.894531 L 3.265625 5.546875 L 2.675781 5.261719 L 2.070312 5.125 L -0.304688 4.894531 L -1.472656 4.980469 L -2.066406 4.96875 L -4.238281 5.769531 L -4.796875 6.035156 L -7.0625 7.4375 Z M -3.828125 11.625 L -3.273438 11.316406 L -2.867188 10.953125 L -1.78125 10.554688 L -0.554688 10.402344 L -0.0390625 10.457031 L 0.535156 10.445312 L 2.167969 11.144531 L 3.390625 12.035156 L 4.042969 12.660156 L 4.730469 13.558594 L 5.011719 14.054688 L 5.085938 14.601562 L 5.285156 15.144531 L 5.382812 15.757812 L 5.375 16.355469 L 5.242188 17.40625 L 5.082031 17.988281 L 4.773438 18.558594 L 3.9375 19.671875 L 2.910156 20.6875 L 1.332031 21.410156 L 0.195312 21.644531 L -1.027344 21.476562 L -1.59375 21.296875 L -2.160156 21.027344 L -2.703125 20.824219 L -3.75 20.050781 L -4.746094 18.914062 L -5.484375 17.890625 L -5.601562 17.34375 L -5.757812 16.839844 L -5.917969 16.210938 L -5.835938 15.035156 L -5.652344 14.472656 L -5.535156 13.933594 L -5.21875 13.488281 L -4.949219 12.964844 Z M -3.828125 11.625" transform="translate(279.055 253.26)"/></g></g></g><g fill="#FFF4E6"><g><g><path d="M -8.535156 6.007812 L -10.941406 7.808594 L -12.425781 9.59375 L -13.488281 11.738281 L -13.800781 12.875 L -13.875 13.53125 L -14.019531 14.089844 L -14.054688 14.640625 L -13.992188 15.230469 L -13.882812 15.828125 L -13.917969 16.378906 L -13.339844 18.160156 L -12.847656 19.21875 L -12.566406 19.648438 L -12.335938 20.152344 L -11.976562 20.632812 L -11.683594 21.128906 L -10.949219 22.007812 L -10.402344 22.234375 L -9.765625 22.132812 L -9.242188 21.78125 L -8.683594 21.472656 L -5.484375 18.972656 L -3.96875 17.988281 L -3.109375 17.230469 L -2.808594 16.628906 L -2.933594 16.011719 L -4.644531 13.722656 L -5.148438 13.5 L -5.78125 13.558594 L -6.515625 14.03125 L -7.644531 15.027344 L -8.132812 15.28125 L -8.621094 15.382812 L -9 15.027344 L -9.0625 14.4375 L -9.007812 13.757812 L -8.871094 13.242188 L -8.308594 12.335938 L -7.53125 11.414062 L -6.925781 10.921875 L -5.589844 10.148438 L -3.890625 9.707031 L -2.664062 9.839844 L -2.148438 9.980469 L -1.042969 10.503906 L -0.328125 11.058594 L 0.367188 11.738281 L 1.4375 13.117188 L 1.972656 14.183594 L 2.234375 15.335938 L 2.332031 17.027344 L 1.941406 18.257812 L 1.695312 18.78125 L 1.273438 19.171875 L 1.007812 19.671875 L -0.425781 20.816406 L -1.496094 21.242188 L -2.097656 21.394531 L -2.789062 21.421875 L -3.3125 21.324219 L -3.933594 21.148438 L -4.742188 21.117188 L -5.449219 21.382812 L -6.210938 21.917969 L -6.863281 22.554688 L -8.070312 23.34375 L -8.476562 24.058594 L -8.3125 24.578125 L -7.238281 25.3125 L -6.699219 25.585938 L -4.691406 26.261719 L -3.835938 26.296875 L -3.179688 26.371094 L -2.605469 26.390625 L -0.253906 26.019531 L 0.324219 25.738281 L 1.691406 25.203125 L 4.003906 23.625 L 4.464844 23.242188 L 4.765625 22.792969 L 5.207031 22.425781 L 6.558594 20.363281 L 7.269531 18.554688 L 7.625 16.824219 L 7.652344 16.203125 L 7.742188 15.574219 L 7.738281 15.015625 L 7.277344 12.542969 L 5.929688 9.835938 L 5.375 9.046875 L 3.996094 7.449219 L 1.628906 5.691406 L 0.582031 5.195312 L -0.582031 4.792969 L -2.304688 4.5 L -3.511719 4.542969 L -5.894531 4.820312 L -6.394531 5.007812 L -7.945312 5.792969 Z M -8.535156 6.007812" transform="translate(263.85 270.343)"/></g></g></g><g fill="#FFF4E6"><g><g><path d="M -8.960938 4.601562 L -9.996094 5.21875 L -10.332031 5.734375 L -10.332031 6.382812 L -8.941406 9.011719 L -8.355469 9.347656 L -7.617188 9.332031 L -7.058594 9.039062 L -6.308594 8.914062 L -5.664062 9.355469 L -5.476562 9.902344 L -3.90625 12.8125 L -3.648438 13.425781 L -2.53125 15.28125 L -1.21875 18.023438 L -1.082031 18.734375 L -1.539062 19.28125 L -2.027344 19.644531 L -2.472656 20.152344 L -2.515625 20.714844 L -1.148438 23.363281 L -0.5625 23.699219 L 0.0703125 23.738281 L 3.285156 22.039062 L 3.792969 21.835938 L 4.265625 21.449219 L 6.445312 20.296875 L 6.996094 20.109375 L 7.605469 19.785156 L 7.996094 19.238281 L 7.925781 18.460938 L 6.804688 16.535156 L 6.589844 16.003906 L 6.019531 15.625 L 5.277344 15.644531 L 4.746094 15.925781 L 4.074219 15.871094 L 3.453125 15.28125 L -0.941406 7.164062 L -1.070312 6.210938 L 0.402344 4.753906 L 0.445312 4.117188 L -0.769531 1.632812 L -1.414062 1.054688 L -2.074219 1.097656 L -2.578125 1.363281 L -3.054688 1.683594 L -3.882812 1.984375 L -4.691406 2.445312 L -5.195312 2.78125 L -6.316406 3.238281 L -7.054688 3.765625 L -8.359375 4.453125 Z M -8.960938 4.601562" transform="translate(245.93 283.375)"/></g></g></g><g fill="#FFF4E6"><g><g><path d="M -16.605469 6.265625 L -17.527344 6.078125 L -18.351562 6.265625 L -18.910156 6.679688 L -19 7.347656 L -15.476562 17.742188 L -15.226562 18.195312 L -14.253906 21.011719 L -14.105469 21.722656 L -12.65625 25.644531 L -12.175781 26.113281 L -11.5 26.230469 L -7.984375 24.984375 L -7.550781 24.488281 L -7.445312 23.78125 L -7.625 23.175781 L -7.863281 22.75 L -8.191406 21.527344 L -8.464844 20.921875 L -10.164062 15.8125 L -10.160156 15.273438 L -9.664062 15.324219 L -6.949219 16.644531 L -5.9375 16.996094 L 1.613281 20.722656 L 2.15625 20.914062 L 2.929688 21.03125 L 3.851562 20.9375 L 4.40625 20.425781 L 4.476562 19.796875 L 1.503906 11.1875 L 1.367188 10.691406 L 0.90625 9.546875 L 0.824219 9.035156 L -0.839844 4.390625 L -0.96875 3.832031 L -1.847656 1.464844 L -2.289062 1.011719 L -2.957031 1.019531 L -4.140625 1.363281 L -4.746094 1.636719 L -5.886719 1.933594 L -6.472656 2.167969 L -6.941406 2.648438 L -6.921875 3.628906 L -4.472656 10.828125 L -4.332031 11.417969 L -4.363281 11.96875 L -4.78125 11.953125 L -5.320312 11.597656 L -8.003906 10.363281 L -8.519531 10.0625 L -9.109375 9.917969 L -15.027344 7.058594 L -16.050781 6.488281 Z M -16.605469 6.265625" transform="translate(234.767 289.743)"/></g></g></g><g fill="#FFF4E6"><g><g><path d="M -2.816406 12.058594 L -3.402344 12.214844 L -4.113281 13.714844 L -4.25 14.09375 L -4.667969 14.140625 L -5.011719 13.789062 L -5.203125 13.445312 L -5.785156 12.847656 L -6.066406 12.484375 L -6.617188 12.425781 L -7.777344 13.675781 L -8.140625 13.957031 L -8.4375 14.265625 L -8.769531 14.542969 L -8.734375 15.117188 L -8.433594 15.382812 L -8.035156 15.671875 L -7.128906 16.476562 L -7.144531 16.871094 L -7.546875 17.070312 L -7.992188 17.148438 L -8.394531 17.347656 L -9.210938 17.589844 L -9.398438 18.09375 L -9.234375 18.46875 L -9.152344 18.914062 L -8.929688 19.28125 L -8.828125 19.664062 L -8.609375 19.972656 L -8.503906 20.382812 L -8.253906 20.71875 L -7.742188 20.964844 L -7.378906 20.710938 L -6.601562 20.351562 L -6.238281 20.097656 L -5.859375 19.964844 L -5.480469 20.105469 L -5.566406 20.929688 L -5.480469 21.707031 L -5.53125 22.078125 L -5.09375 22.449219 L -2.9375 22.238281 L -2.558594 22.132812 L -2.015625 22.105469 L -1.761719 21.683594 L -1.839844 21.265625 L -1.878906 20.910156 L -2.011719 20.53125 L -2.1875 19.792969 L -1.890625 19.457031 L -1.046875 19.695312 L -0.585938 19.765625 L -0.261719 19.9375 L 0.234375 20.066406 L 0.621094 19.71875 L 0.695312 19.316406 L 0.835938 18.9375 L 1.011719 18.101562 L 1.03125 17.734375 L 1.105469 17.335938 L 1.238281 16.894531 L 0.863281 16.515625 L 0.402344 16.445312 L 0.03125 16.367188 L -0.460938 16.300781 L -0.792969 16.308594 L -1.257812 16.207031 L -1.417969 15.863281 L -1.15625 15.5 L -0.859375 15.195312 L -0.625 14.867188 L -0.453125 14.515625 L -0.128906 14.144531 L -0.253906 13.585938 L -0.667969 13.390625 L -0.964844 13.179688 L -1.777344 12.695312 L -2.433594 12.226562 Z M -2.816406 12.058594" transform="translate(205.987 298.192)"/></g></g></g><g clip-path="url(#a)"><path fill="#FFF4E6" d="M 187.378906 256.144531 C 186.207031 256.144531 185.035156 256.113281 183.863281 256.058594 C 182.691406 256 181.523438 255.914062 180.359375 255.796875 C 179.191406 255.683594 178.027344 255.539062 176.867188 255.367188 C 175.707031 255.195312 174.554688 254.996094 173.40625 254.765625 C 172.253906 254.539062 171.113281 254.28125 169.972656 253.996094 C 168.835938 253.710938 167.707031 253.398438 166.585938 253.058594 C 165.464844 252.71875 164.351562 252.351562 163.25 251.957031 C 162.144531 251.5625 161.050781 251.140625 159.96875 250.691406 C 158.886719 250.242188 157.8125 249.765625 156.753906 249.265625 C 155.695312 248.765625 154.648438 248.238281 153.613281 247.6875 C 152.582031 247.132812 151.5625 246.554688 150.554688 245.953125 C 149.550781 245.351562 148.558594 244.722656 147.585938 244.070312 C 146.609375 243.421875 145.652344 242.746094 144.710938 242.046875 C 143.769531 241.347656 142.84375 240.628906 141.941406 239.886719 C 141.035156 239.140625 140.144531 238.375 139.277344 237.589844 C 138.410156 236.800781 137.558594 235.992188 136.730469 235.164062 C 135.902344 234.335938 135.09375 233.488281 134.308594 232.617188 C 133.519531 231.75 132.753906 230.863281 132.011719 229.957031 C 131.265625 229.050781 130.546875 228.125 129.847656 227.183594 C 129.148438 226.242188 128.476562 225.285156 127.824219 224.3125 C 127.171875 223.335938 126.546875 222.347656 125.941406 221.339844 C 125.339844 220.335938 124.761719 219.316406 124.210938 218.28125 C 123.65625 217.25 123.128906 216.203125 122.628906 215.140625 C 122.128906 214.082031 121.652344 213.011719 121.203125 211.929688 C 120.757812 210.84375 120.335938 209.75 119.941406 208.648438 C 119.542969 207.542969 119.175781 206.429688 118.835938 205.308594 C 118.496094 204.1875 118.183594 203.058594 117.898438 201.921875 C 117.613281 200.785156 117.359375 199.640625 117.128906 198.492188 C 116.902344 197.34375 116.699219 196.1875 116.527344 195.027344 C 116.355469 193.867188 116.210938 192.707031 116.097656 191.539062 C 115.984375 190.371094 115.898438 189.203125 115.839844 188.03125 C 115.78125 186.863281 115.753906 185.691406 115.753906 184.519531 C 115.753906 183.347656 115.78125 182.175781 115.839844 181.003906 C 115.898438 179.832031 115.984375 178.664062 116.097656 177.496094 C 116.210938 176.332031 116.355469 175.167969 116.527344 174.007812 C 116.699219 172.847656 116.902344 171.695312 117.128906 170.542969 C 117.359375 169.394531 117.613281 168.25 117.898438 167.113281 C 118.183594 165.976562 118.496094 164.847656 118.835938 163.726562 C 119.175781 162.605469 119.542969 161.492188 119.941406 160.386719 C 120.335938 159.285156 120.757812 158.191406 121.203125 157.109375 C 121.652344 156.027344 122.128906 154.953125 122.628906 153.894531 C 123.128906 152.835938 123.65625 151.789062 124.210938 150.753906 C 124.761719 149.71875 125.339844 148.699219 125.941406 147.695312 C 126.546875 146.691406 127.171875 145.699219 127.824219 144.726562 C 128.476562 143.75 129.148438 142.792969 129.847656 141.851562 C 130.546875 140.910156 131.265625 139.984375 132.011719 139.078125 C 132.753906 138.171875 133.519531 137.285156 134.308594 136.417969 C 135.09375 135.550781 135.902344 134.699219 136.730469 133.871094 C 137.558594 133.042969 138.410156 132.234375 139.277344 131.449219 C 140.144531 130.660156 141.035156 129.894531 141.941406 129.152344 C 142.84375 128.40625 143.769531 127.6875 144.710938 126.988281 C 145.652344 126.289062 146.609375 125.617188 147.585938 124.964844 C 148.558594 124.3125 149.550781 123.6875 150.554688 123.082031 C 151.5625 122.480469 152.582031 121.902344 153.613281 121.351562 C 154.648438 120.796875 155.695312 120.269531 156.753906 119.769531 C 157.8125 119.269531 158.886719 118.792969 159.96875 118.34375 C 161.050781 117.898438 162.144531 117.476562 163.25 117.082031 C 164.351562 116.683594 165.464844 116.316406 166.585938 115.976562 C 167.707031 115.636719 168.835938 115.324219 169.972656 115.039062 C 171.113281 114.753906 172.253906 114.5 173.40625 114.269531 C 174.554688 114.039062 175.707031 113.839844 176.867188 113.667969 C 178.027344 113.496094 179.191406 113.351562 180.359375 113.238281 C 181.523438 113.125 182.691406 113.035156 183.863281 112.980469 C 185.035156 112.921875 186.207031 112.894531 187.378906 112.894531 C 188.550781 112.894531 189.722656 112.921875 190.890625 112.980469 C 192.0625 113.035156 193.230469 113.125 194.398438 113.238281 C 195.566406 113.351562 196.726562 113.496094 197.886719 113.667969 C 199.046875 113.839844 200.203125 114.039062 201.351562 114.269531 C 202.5 114.5 203.644531 114.753906 204.78125 115.039062 C 205.917969 115.324219 207.046875 115.636719 208.167969 115.976562 C 209.292969 116.316406 210.402344 116.683594 211.507812 117.082031 C 212.609375 117.476562 213.703125 117.898438 214.789062 118.34375 C 215.871094 118.792969 216.941406 119.269531 218 119.769531 C 219.0625 120.269531 220.109375 120.796875 221.140625 121.351562 C 222.175781 121.902344 223.195312 122.480469 224.199219 123.082031 C 225.207031 123.6875 226.195312 124.3125 227.171875 124.964844 C 228.144531 125.617188 229.101562 126.289062 230.042969 126.988281 C 230.988281 127.6875 231.910156 128.40625 232.816406 129.152344 C 233.722656 129.894531 234.609375 130.660156 235.476562 131.449219 C 236.347656 132.234375 237.195312 133.042969 238.023438 133.871094 C 238.851562 134.699219 239.660156 135.550781 240.449219 136.417969 C 241.234375 137.285156 242 138.171875 242.746094 139.078125 C 243.488281 139.984375 244.210938 140.910156 244.90625 141.851562 C 245.605469 142.792969 246.28125 143.75 246.933594 144.726562 C 247.582031 145.699219 248.210938 146.691406 248.8125 147.695312 C 249.414062 148.699219 249.992188 149.71875 250.546875 150.753906 C 251.097656 151.789062 251.625 152.835938 252.125 153.894531 C 252.628906 154.953125 253.101562 156.027344 253.550781 157.109375 C 254 158.191406 254.421875 159.285156 254.816406 160.386719 C 255.210938 161.492188 255.578125 162.605469 255.917969 163.726562 C 256.257812 164.847656 256.570312 165.976562 256.855469 167.113281 C 257.140625 168.25 257.398438 169.394531 257.625 170.542969 C 257.855469 171.695312 258.054688 172.847656 258.226562 174.007812 C 258.398438 175.167969 258.542969 176.332031 258.65625 177.496094 C 258.773438 178.664062 258.859375 179.832031 258.917969 181.003906 C 258.972656 182.175781 259.003906 183.347656 259.003906 184.519531 C 259 185.691406 258.972656 186.859375 258.914062 188.03125 C 258.855469 189.203125 258.765625 190.371094 258.652344 191.535156 C 258.535156 192.703125 258.390625 193.863281 258.214844 195.023438 C 258.042969 196.183594 257.84375 197.335938 257.613281 198.484375 C 257.382812 199.636719 257.125 200.777344 256.839844 201.914062 C 256.554688 203.050781 256.242188 204.179688 255.898438 205.300781 C 255.558594 206.421875 255.191406 207.535156 254.796875 208.636719 C 254.398438 209.738281 253.976562 210.832031 253.527344 211.914062 C 253.078125 212.996094 252.605469 214.066406 252.101562 215.128906 C 251.601562 216.1875 251.074219 217.230469 250.519531 218.265625 C 249.96875 219.296875 249.390625 220.316406 248.789062 221.324219 C 248.183594 222.328125 247.558594 223.316406 246.90625 224.292969 C 246.253906 225.265625 245.582031 226.222656 244.882812 227.164062 C 244.183594 228.105469 243.460938 229.027344 242.71875 229.933594 C 241.976562 230.839844 241.210938 231.726562 240.421875 232.59375 C 239.636719 233.464844 238.828125 234.3125 238 235.140625 C 237.171875 235.96875 236.324219 236.777344 235.453125 237.5625 C 234.585938 238.351562 233.699219 239.117188 232.792969 239.859375 C 231.886719 240.601562 230.964844 241.324219 230.023438 242.023438 C 229.082031 242.71875 228.125 243.394531 227.152344 244.046875 C 226.175781 244.699219 225.1875 245.324219 224.183594 245.925781 C 223.175781 246.53125 222.160156 247.109375 221.125 247.660156 C 220.09375 248.214844 219.046875 248.742188 217.988281 249.242188 C 216.925781 249.746094 215.855469 250.21875 214.773438 250.667969 C 213.691406 251.117188 212.597656 251.539062 211.496094 251.9375 C 210.394531 252.332031 209.28125 252.699219 208.160156 253.039062 C 207.039062 253.382812 205.910156 253.695312 204.773438 253.980469 C 203.636719 254.265625 202.496094 254.523438 201.34375 254.753906 C 200.195312 254.984375 199.042969 255.183594 197.882812 255.355469 C 196.722656 255.53125 195.5625 255.675781 194.394531 255.789062 C 193.230469 255.90625 192.0625 255.996094 190.890625 256.054688 C 189.722656 256.113281 188.550781 256.140625 187.378906 256.144531 Z M 187.378906 118.863281 C 186.304688 118.863281 185.230469 118.886719 184.15625 118.941406 C 183.082031 118.992188 182.011719 119.074219 180.941406 119.179688 C 179.875 119.285156 178.808594 119.414062 177.742188 119.574219 C 176.679688 119.730469 175.621094 119.914062 174.570312 120.125 C 173.515625 120.332031 172.46875 120.570312 171.425781 120.828125 C 170.382812 121.089844 169.347656 121.378906 168.320312 121.6875 C 167.289062 122 166.269531 122.339844 165.257812 122.699219 C 164.246094 123.0625 163.246094 123.449219 162.253906 123.859375 C 161.257812 124.269531 160.277344 124.707031 159.304688 125.164062 C 158.335938 125.625 157.375 126.109375 156.429688 126.613281 C 155.480469 127.121094 154.546875 127.652344 153.625 128.203125 C 152.703125 128.753906 151.792969 129.328125 150.902344 129.925781 C 150.007812 130.523438 149.128906 131.140625 148.265625 131.78125 C 147.402344 132.421875 146.554688 133.082031 145.726562 133.765625 C 144.894531 134.445312 144.082031 135.148438 143.285156 135.871094 C 142.488281 136.589844 141.710938 137.332031 140.953125 138.09375 C 140.191406 138.851562 139.453125 139.628906 138.730469 140.425781 C 138.007812 141.222656 137.304688 142.035156 136.625 142.867188 C 135.941406 143.695312 135.28125 144.542969 134.640625 145.40625 C 134.003906 146.269531 133.382812 147.148438 132.785156 148.042969 C 132.191406 148.933594 131.613281 149.84375 131.0625 150.765625 C 130.511719 151.6875 129.980469 152.621094 129.472656 153.566406 C 128.96875 154.515625 128.484375 155.476562 128.023438 156.445312 C 127.566406 157.417969 127.128906 158.398438 126.71875 159.394531 C 126.308594 160.386719 125.921875 161.386719 125.558594 162.398438 C 125.199219 163.410156 124.859375 164.429688 124.546875 165.460938 C 124.238281 166.488281 123.949219 167.523438 123.6875 168.566406 C 123.429688 169.605469 123.191406 170.65625 122.984375 171.710938 C 122.773438 172.761719 122.589844 173.820312 122.433594 174.882812 C 122.273438 175.949219 122.144531 177.011719 122.039062 178.082031 C 121.933594 179.152344 121.851562 180.222656 121.800781 181.296875 C 121.746094 182.371094 121.722656 183.445312 121.722656 184.519531 C 121.722656 185.59375 121.746094 186.667969 121.800781 187.738281 C 121.851562 188.8125 121.933594 189.882812 122.039062 190.953125 C 122.144531 192.023438 122.273438 193.089844 122.433594 194.152344 C 122.589844 195.214844 122.773438 196.273438 122.984375 197.328125 C 123.191406 198.382812 123.429688 199.429688 123.6875 200.472656 C 123.949219 201.511719 124.238281 202.550781 124.546875 203.578125 C 124.859375 204.605469 125.199219 205.625 125.558594 206.636719 C 125.921875 207.648438 126.308594 208.652344 126.71875 209.644531 C 127.128906 210.636719 127.566406 211.617188 128.023438 212.589844 C 128.484375 213.5625 128.96875 214.519531 129.472656 215.46875 C 129.980469 216.414062 130.511719 217.351562 131.0625 218.273438 C 131.613281 219.195312 132.191406 220.101562 132.785156 220.996094 C 133.382812 221.886719 134.003906 222.765625 134.640625 223.628906 C 135.28125 224.492188 135.941406 225.339844 136.625 226.171875 C 137.304688 227 138.007812 227.8125 138.730469 228.609375 C 139.453125 229.40625 140.191406 230.183594 140.953125 230.945312 C 141.710938 231.703125 142.488281 232.445312 143.285156 233.167969 C 144.082031 233.886719 144.894531 234.589844 145.726562 235.269531 C 146.554688 235.953125 147.402344 236.613281 148.265625 237.253906 C 149.128906 237.894531 150.007812 238.511719 150.902344 239.109375 C 151.792969 239.707031 152.703125 240.28125 153.625 240.832031 C 154.546875 241.386719 155.480469 241.914062 156.429688 242.421875 C 157.375 242.929688 158.335938 243.410156 159.304688 243.871094 C 160.277344 244.332031 161.257812 244.765625 162.253906 245.175781 C 163.246094 245.585938 164.246094 245.972656 165.257812 246.335938 C 166.269531 246.699219 167.289062 247.035156 168.320312 247.347656 C 169.347656 247.660156 170.382812 247.945312 171.425781 248.207031 C 172.46875 248.46875 173.515625 248.703125 174.570312 248.914062 C 175.621094 249.121094 176.679688 249.304688 177.742188 249.464844 C 178.808594 249.621094 179.875 249.753906 180.941406 249.859375 C 182.011719 249.964844 183.082031 250.042969 184.15625 250.09375 C 185.230469 250.148438 186.304688 250.175781 187.378906 250.175781 C 188.453125 250.175781 189.527344 250.148438 190.597656 250.09375 C 191.671875 250.042969 192.742188 249.964844 193.8125 249.859375 C 194.882812 249.753906 195.949219 249.621094 197.011719 249.464844 C 198.074219 249.304688 199.132812 249.121094 200.1875 248.914062 C 201.242188 248.703125 202.289062 248.46875 203.332031 248.207031 C 204.375 247.945312 205.410156 247.660156 206.4375 247.347656 C 207.464844 247.035156 208.484375 246.699219 209.496094 246.335938 C 210.507812 245.972656 211.511719 245.585938 212.503906 245.175781 C 213.496094 244.765625 214.476562 244.332031 215.449219 243.871094 C 216.421875 243.410156 217.378906 242.929688 218.328125 242.421875 C 219.277344 241.914062 220.210938 241.386719 221.132812 240.832031 C 222.054688 240.28125 222.960938 239.707031 223.855469 239.109375 C 224.746094 238.511719 225.625 237.894531 226.488281 237.253906 C 227.351562 236.613281 228.199219 235.953125 229.03125 235.269531 C 229.859375 234.589844 230.671875 233.886719 231.46875 233.167969 C 232.265625 232.445312 233.042969 231.703125 233.804688 230.945312 C 234.5625 230.183594 235.304688 229.40625 236.027344 228.609375 C 236.746094 227.8125 237.449219 227 238.132812 226.171875 C 238.8125 225.339844 239.472656 224.492188 240.113281 223.628906 C 240.753906 222.765625 241.371094 221.886719 241.96875 220.996094 C 242.566406 220.101562 243.140625 219.195312 243.691406 218.273438 C 244.246094 217.351562 244.773438 216.414062 245.28125 215.46875 C 245.789062 214.519531 246.269531 213.5625 246.730469 212.589844 C 247.191406 211.617188 247.625 210.636719 248.035156 209.644531 C 248.449219 208.652344 248.835938 207.648438 249.195312 206.636719 C 249.558594 205.625 249.894531 204.605469 250.207031 203.578125 C 250.519531 202.550781 250.804688 201.511719 251.066406 200.472656 C 251.328125 199.429688 251.5625 198.382812 251.773438 197.328125 C 251.980469 196.273438 252.164062 195.214844 252.324219 194.152344 C 252.480469 193.089844 252.613281 192.023438 252.71875 190.953125 C 252.824219 189.882812 252.902344 188.8125 252.953125 187.738281 C 253.007812 186.667969 253.035156 185.59375 253.035156 184.519531 C 253.03125 183.445312 253.003906 182.371094 252.953125 181.296875 C 252.898438 180.226562 252.816406 179.152344 252.710938 178.085938 C 252.605469 177.015625 252.472656 175.949219 252.3125 174.886719 C 252.15625 173.824219 251.972656 172.769531 251.761719 171.714844 C 251.550781 170.660156 251.3125 169.613281 251.050781 168.570312 C 250.789062 167.53125 250.503906 166.496094 250.191406 165.46875 C 249.878906 164.441406 249.539062 163.421875 249.175781 162.410156 C 248.816406 161.398438 248.429688 160.394531 248.015625 159.402344 C 247.605469 158.410156 247.167969 157.429688 246.710938 156.460938 C 246.25 155.488281 245.765625 154.53125 245.257812 153.582031 C 244.753906 152.636719 244.222656 151.703125 243.671875 150.78125 C 243.117188 149.859375 242.542969 148.953125 241.945312 148.058594 C 241.347656 147.167969 240.730469 146.289062 240.089844 145.425781 C 239.449219 144.5625 238.789062 143.714844 238.109375 142.886719 C 237.425781 142.054688 236.726562 141.242188 236.003906 140.445312 C 235.28125 139.652344 234.542969 138.875 233.78125 138.113281 C 233.023438 137.355469 232.246094 136.613281 231.449219 135.890625 C 230.652344 135.171875 229.839844 134.46875 229.007812 133.789062 C 228.179688 133.105469 227.332031 132.445312 226.46875 131.804688 C 225.609375 131.164062 224.730469 130.546875 223.835938 129.949219 C 222.945312 129.351562 222.035156 128.777344 221.117188 128.226562 C 220.195312 127.671875 219.261719 127.144531 218.3125 126.636719 C 217.367188 126.128906 216.40625 125.644531 215.4375 125.1875 C 214.464844 124.726562 213.484375 124.292969 212.492188 123.878906 C 211.5 123.46875 210.5 123.082031 209.488281 122.71875 C 208.476562 122.355469 207.457031 122.019531 206.429688 121.707031 C 205.402344 121.394531 204.367188 121.105469 203.324219 120.84375 C 202.28125 120.582031 201.234375 120.347656 200.179688 120.136719 C 199.128906 119.925781 198.070312 119.742188 197.007812 119.582031 C 195.945312 119.421875 194.878906 119.292969 193.8125 119.183594 C 192.742188 119.078125 191.671875 119 190.597656 118.945312 C 189.527344 118.890625 188.453125 118.863281 187.378906 118.863281 Z M 187.378906 118.863281"/></g><path fill="#FFF4E6" d="M 187.378906 229.285156 C 165.984375 229.285156 148.582031 214.554688 148.582031 196.457031 L 154.550781 196.457031 C 154.550781 211.265625 169.277344 223.316406 187.378906 223.316406 C 205.476562 223.316406 220.207031 211.265625 220.207031 196.457031 L 226.175781 196.457031 C 226.175781 214.554688 208.769531 229.285156 187.378906 229.285156 Z M 187.378906 229.285156"/><path fill="#FFF4E6" d="M 175.441406 175.566406 L 169.472656 175.566406 C 169.472656 168.980469 165.453125 163.628906 160.519531 163.628906 C 155.582031 163.628906 151.566406 168.980469 151.566406 175.566406 L 145.597656 175.566406 C 145.597656 165.691406 152.289062 157.660156 160.519531 157.660156 C 168.746094 157.660156 175.441406 165.691406 175.441406 175.566406 Z M 175.441406 175.566406"/><path fill="#FFF4E6" d="M 229.160156 175.566406 L 223.191406 175.566406 C 223.191406 168.980469 219.171875 163.628906 214.238281 163.628906 C 209.300781 163.628906 205.285156 168.980469 205.285156 175.566406 L 199.316406 175.566406 C 199.316406 165.691406 206.007812 157.660156 214.238281 157.660156 C 222.464844 157.660156 229.160156 165.691406 229.160156 175.566406 Z M 229.160156 175.566406"/></svg>