<svg xmlns="http://www.w3.org/2000/svg" width="375" viewBox="0 0 375 375" height="375" version="1.0"><defs><clipPath id="a"><path d="M 59.160156 123 L 73 123 L 73 206 L 59.160156 206 Z M 59.160156 123"/></clipPath><clipPath id="b"><path d="M 148 238 L 206 238 L 206 297.808594 L 148 297.808594 Z M 148 238"/></clipPath></defs><g clip-path="url(#a)"><path fill="#5CE1E6" d="M 32.230469 145.582031 C 32.257812 145.808594 32.289062 146.039062 32.320312 146.265625 C 32.289062 146.039062 32.257812 145.808594 32.230469 145.582031 Z M 53.335938 123.824219 C 51.007812 124.46875 48.984375 126.027344 47.769531 128.109375 C 47.453125 128.851562 47.140625 129.597656 46.828125 130.339844 C 46.382812 131.992188 46.382812 133.644531 46.828125 135.296875 C 47.398438 138.679688 47.921875 142.074219 48.398438 145.472656 C 49.136719 151.144531 49.78125 156.824219 50.410156 162.507812 C 51.117188 168.90625 51.96875 175.285156 52.789062 181.671875 C 53.300781 185.660156 53.847656 189.648438 54.394531 193.636719 C 54.429688 193.894531 54.464844 194.160156 54.5 194.421875 C 54.648438 195.535156 54.757812 196.730469 54.988281 197.859375 C 55.039062 198.09375 55.09375 198.289062 55.175781 198.515625 C 55.441406 199.289062 55.757812 200.039062 56.121094 200.777344 C 56.628906 201.464844 57.152344 202.136719 57.691406 202.800781 C 58.785156 203.890625 60.074219 204.640625 61.558594 205.058594 C 63.113281 205.476562 64.664062 205.476562 66.21875 205.058594 C 67.707031 204.640625 68.996094 203.890625 70.089844 202.800781 C 71.175781 201.707031 71.929688 200.414062 72.347656 198.925781 C 73.0625 196.804688 72.75 194.585938 72.550781 192.425781 C 72.410156 190.933594 72.265625 189.441406 72.113281 187.949219 C 71.785156 184.832031 71.460938 181.714844 71.09375 178.601562 C 70.339844 172.089844 69.539062 165.582031 68.789062 159.070312 C 67.679688 149.464844 66.410156 139.871094 64.796875 130.339844 C 64.484375 129.597656 64.171875 128.851562 63.851562 128.109375 C 63.027344 126.707031 61.914062 125.59375 60.511719 124.765625 C 59.082031 123.925781 57.441406 123.496094 55.792969 123.496094 C 54.96875 123.496094 54.136719 123.601562 53.335938 123.824219"/></g><path fill="#5CE1E6" d="M 226.480469 85.878906 C 222.183594 90.179688 222.246094 97.269531 226.480469 101.578125 C 230.886719 106.0625 235.253906 110.550781 239.863281 114.824219 C 244.535156 119.148438 249.261719 123.378906 254.21875 127.378906 C 256.28125 129.042969 258.324219 130.730469 260.332031 132.460938 C 261.328125 133.328125 262.328125 134.199219 263.320312 135.066406 C 263.777344 135.472656 264.230469 135.875 264.683594 136.28125 C 264.875 136.453125 265.066406 136.632812 265.253906 136.808594 C 266.144531 137.621094 267.148438 138.292969 268.105469 139.015625 C 269.90625 140.378906 272.398438 140.496094 274.496094 140.722656 C 276.710938 140.714844 278.777344 140.15625 280.6875 139.046875 C 282.53125 137.953125 283.996094 136.484375 285.089844 134.640625 C 287.285156 130.882812 287.339844 126 285.089844 122.246094 C 284 120.4375 282.945312 118.621094 281.847656 116.8125 C 279.617188 113.144531 275.644531 110.929688 271.46875 110.996094 C 269.097656 109.25 266.695312 107.554688 264.335938 105.789062 C 256.539062 99.601562 249.152344 92.980469 242.171875 85.878906 C 240.058594 83.730469 237.207031 82.671875 234.359375 82.671875 C 231.488281 82.671875 228.613281 83.746094 226.480469 85.878906"/><g clip-path="url(#b)"><path fill="#5CE1E6" d="M 188.011719 242.414062 C 183.511719 246.914062 179.0625 251.453125 174.621094 256.015625 C 170.195312 260.566406 165.679688 265.03125 161.222656 269.550781 C 159.277344 271.523438 157.316406 273.488281 155.378906 275.464844 C 154.453125 276.410156 153.550781 277.371094 152.65625 278.339844 C 152.179688 278.859375 151.714844 279.375 151.246094 279.898438 C 150.996094 280.171875 150.785156 280.441406 150.578125 280.746094 C 150.101562 281.484375 149.628906 282.21875 149.15625 282.953125 C 148.40625 284.558594 148.089844 286.246094 148.203125 288.011719 C 148.203125 288.113281 148.203125 288.207031 148.203125 288.308594 C 148.175781 290.847656 149.777344 293.539062 151.652344 295.132812 C 153.601562 296.785156 156.148438 297.605469 158.695312 297.433594 C 160.609375 297.304688 162.566406 296.777344 164.125 295.59375 C 165.101562 294.847656 165.984375 293.992188 166.867188 293.136719 C 167.386719 292.621094 167.914062 292.117188 168.4375 291.605469 C 169.539062 290.53125 170.640625 289.457031 171.738281 288.363281 C 173.859375 286.246094 175.898438 284.027344 177.949219 281.835938 C 182.246094 277.238281 186.484375 272.582031 190.832031 268.027344 C 194.917969 263.742188 199.152344 259.597656 203.34375 255.40625 C 205.105469 253.632812 205.863281 250.625 205.691406 248.207031 C 205.507812 245.519531 204.21875 242.972656 202.164062 241.234375 C 200.179688 239.550781 197.566406 238.699219 194.972656 238.878906 C 194.121094 239.054688 193.273438 239.226562 192.421875 239.394531 C 191.546875 239.703125 190.75 240.105469 190.007812 240.609375 C 189.273438 241.109375 188.609375 241.714844 188.011719 242.414062"/></g><path fill="#5CE1E6" d="M 133.980469 163.976562 C 131.585938 165.378906 129.230469 168.042969 128.695312 170.859375 C 127.355469 177.917969 126.980469 185.097656 126.152344 192.222656 C 125.996094 193.261719 125.824219 194.296875 125.640625 195.332031 C 125.339844 197.023438 124.925781 198.691406 124.621094 200.382812 C 124.480469 201.417969 124.34375 202.453125 124.207031 203.484375 C 124.210938 205.589844 124.742188 207.550781 125.796875 209.371094 C 127.316406 211.972656 129.847656 213.921875 132.753906 214.726562 C 135.757812 215.554688 139.035156 215.128906 141.730469 213.554688 C 144.203125 212.101562 146.464844 209.457031 147.078125 206.585938 C 147.707031 203.640625 147.851562 200.546875 148.183594 197.539062 C 148.679688 194.050781 149.214844 190.570312 149.636719 187.066406 C 149.953125 184.449219 150.191406 181.820312 150.492188 179.195312 C 150.613281 178.457031 150.742188 177.722656 150.882812 176.984375 C 151.023438 175.964844 151.15625 174.941406 151.296875 173.921875 C 151.285156 171.84375 150.765625 169.902344 149.726562 168.105469 C 148.21875 165.53125 145.722656 163.609375 142.847656 162.8125 C 141.855469 162.539062 140.828125 162.40625 139.808594 162.40625 C 137.773438 162.40625 135.75 162.941406 133.980469 163.976562"/><path fill="#FFDE59" d="M 185.886719 134.097656 C 183.480469 135.507812 181.679688 137.847656 180.9375 140.539062 C 180.8125 141.496094 180.683594 142.453125 180.554688 143.402344 C 180.558594 145.351562 181.050781 147.164062 182.023438 148.84375 C 183.015625 150.824219 183.941406 152.828125 184.828125 154.851562 C 187.082031 160.59375 189.09375 166.414062 190.992188 172.285156 C 192.902344 178.203125 194.601562 184.1875 196.625 190.078125 C 197.554688 192.792969 198.386719 195.769531 199.816406 198.25 C 202.453125 202.820312 208.046875 205.0625 213.121094 203.667969 C 219.3125 201.957031 223.046875 195.355469 221.351562 189.160156 C 220.839844 187.289062 219.914062 185.59375 219.117188 183.835938 C 218.960938 183.492188 218.808594 183.144531 218.65625 182.796875 C 216.445312 177.382812 214.4375 171.894531 212.417969 166.40625 C 210.1875 160.34375 207.835938 154.328125 205.359375 148.367188 C 203.894531 144.84375 202.335938 141.375 200.625 137.964844 C 199.40625 135.542969 196.734375 133.714844 194.1875 133.011719 C 193.257812 132.753906 192.300781 132.628906 191.34375 132.628906 C 189.441406 132.628906 187.546875 133.128906 185.886719 134.097656"/><path fill="#FF66C4" d="M 156.566406 82.910156 C 154.371094 83.523438 152.46875 84.632812 150.851562 86.242188 C 150.425781 86.601562 150 86.957031 149.570312 87.316406 C 144.597656 90.8125 139.304688 93.8125 134.054688 96.882812 C 128.566406 100.09375 123.152344 103.425781 117.78125 106.828125 C 116 107.960938 114.230469 109.113281 112.472656 110.277344 C 111.570312 110.878906 110.667969 111.484375 109.785156 112.109375 C 107.3125 113.847656 104.695312 115.503906 103.269531 118.300781 C 102.121094 120.292969 101.539062 122.441406 101.53125 124.746094 C 101.539062 127.050781 102.121094 129.199219 103.269531 131.191406 C 105.53125 135.054688 109.796875 137.546875 114.285156 137.515625 C 115.5625 137.507812 116.542969 137.460938 118.019531 137.050781 C 118.847656 136.824219 120.292969 136.09375 121.382812 135.628906 C 121.683594 135.496094 121.96875 135.34375 122.257812 135.203125 C 122.914062 134.875 123.554688 134.53125 124.199219 134.1875 C 125.535156 133.476562 126.839844 132.695312 128.148438 131.921875 C 130.800781 130.335938 133.347656 128.5625 135.910156 126.832031 C 141.375 123.148438 146.960938 119.671875 152.585938 116.242188 C 154.984375 114.773438 157.363281 113.277344 159.726562 111.742188 C 163.042969 109.59375 166.152344 107.128906 169.160156 104.5625 C 169.832031 103.6875 170.507812 102.816406 171.183594 101.941406 C 172.351562 99.921875 172.945312 97.738281 172.949219 95.40625 C 172.949219 91.976562 171.574219 88.660156 169.160156 86.242188 C 166.738281 83.824219 163.425781 82.445312 160.007812 82.445312 C 158.859375 82.601562 157.710938 82.753906 156.566406 82.910156"/><path fill="#FF5757" d="M 72.042969 232.398438 C 70.160156 234.03125 68.988281 236.375 68.808594 238.863281 C 68.648438 241.160156 69.371094 244.070312 71.089844 245.722656 C 75.609375 250.058594 79.609375 254.894531 83.753906 259.578125 C 85.84375 261.9375 87.921875 264.300781 89.941406 266.714844 C 91.839844 268.988281 93.6875 271.3125 95.597656 273.574219 C 95.875 273.902344 96.148438 274.234375 96.410156 274.574219 C 97.132812 275.652344 97.867188 276.535156 99.164062 277.375 C 102.972656 279.820312 107.90625 279.6875 111.382812 276.675781 C 112.707031 275.511719 113.671875 274.105469 114.261719 272.445312 C 114.445312 271.570312 114.628906 270.691406 114.808594 269.8125 C 114.929688 268.007812 114.597656 266.292969 113.804688 264.671875 C 112.773438 263.105469 112.015625 261.570312 110.277344 260.625 C 110.089844 260.523438 109.902344 260.417969 109.71875 260.300781 C 109.648438 260.257812 109.578125 260.210938 109.507812 260.164062 C 107.71875 258.332031 106.136719 256.296875 104.539062 254.300781 C 102.585938 251.863281 100.597656 249.457031 98.507812 247.140625 C 94.335938 242.507812 90.082031 237.894531 85.585938 233.570312 C 85.507812 233.496094 85.429688 233.421875 85.347656 233.351562 C 84.75 232.816406 84.152344 232.277344 83.550781 231.742188 C 82.144531 230.785156 80.589844 230.246094 78.894531 230.113281 C 78.671875 230.101562 78.449219 230.09375 78.234375 230.09375 C 75.96875 230.09375 73.757812 230.910156 72.042969 232.398438"/><path fill="#FF5757" d="M 239.082031 147.71875 C 237.195312 149.355469 236.027344 151.699219 235.847656 154.179688 C 235.683594 156.476562 236.410156 159.390625 238.128906 161.039062 C 242.644531 165.378906 246.644531 170.214844 250.792969 174.898438 C 252.882812 177.257812 254.960938 179.621094 256.980469 182.035156 C 258.878906 184.3125 260.726562 186.632812 262.636719 188.894531 C 262.914062 189.226562 263.1875 189.554688 263.449219 189.894531 C 264.167969 190.96875 264.902344 191.855469 266.203125 192.691406 C 270.003906 195.136719 274.945312 195.003906 278.417969 191.992188 C 279.746094 190.835938 280.707031 189.425781 281.300781 187.765625 C 281.484375 186.886719 281.667969 186.007812 281.847656 185.132812 C 281.96875 183.328125 281.636719 181.609375 280.84375 179.988281 C 279.8125 178.425781 279.054688 176.886719 277.316406 175.941406 C 277.125 175.839844 276.941406 175.734375 276.757812 175.621094 C 276.6875 175.578125 276.617188 175.53125 276.546875 175.480469 C 274.757812 173.652344 273.175781 171.613281 271.578125 169.621094 C 269.625 167.179688 267.636719 164.78125 265.546875 162.457031 C 261.367188 157.824219 257.117188 153.214844 252.625 148.890625 C 252.542969 148.820312 252.464844 148.746094 252.386719 148.671875 C 251.789062 148.132812 251.1875 147.597656 250.589844 147.0625 C 249.183594 146.105469 247.625 145.5625 245.933594 145.433594 C 245.710938 145.417969 245.488281 145.410156 245.273438 145.410156 C 243.007812 145.410156 240.796875 146.230469 239.082031 147.71875"/><path fill="#FFDE59" d="M 292.042969 219.398438 C 289.433594 221.15625 286.839844 222.929688 284.316406 224.808594 C 281.796875 226.679688 279.355469 228.660156 276.898438 230.628906 C 272.082031 234.496094 267.222656 238.3125 262.429688 242.214844 C 261.421875 243.035156 260.429688 243.875 259.429688 244.703125 C 257.265625 246.511719 254.71875 248.113281 253.5 250.757812 C 252.515625 252.921875 252.203125 255.1875 252.957031 257.488281 C 253.640625 259.570312 255.199219 261.519531 257.195312 262.476562 C 258.605469 263.15625 260.296875 263.746094 261.910156 263.558594 C 262.867188 263.445312 263.878906 263.425781 264.757812 263.027344 C 265.738281 262.578125 266.722656 262.128906 267.664062 261.597656 C 268.335938 261.21875 269.003906 260.8125 269.65625 260.40625 C 270.964844 259.582031 272.257812 258.742188 273.5625 257.921875 C 276.140625 256.304688 278.695312 254.640625 281.234375 252.964844 C 283.824219 251.25 286.34375 249.4375 288.90625 247.675781 C 291.464844 245.921875 294.082031 244.257812 296.628906 242.484375 C 299.027344 240.816406 301.425781 239.160156 303.847656 237.523438 C 308.726562 234.238281 310.257812 227.542969 307 222.550781 C 304.960938 219.429688 301.398438 217.660156 297.820312 217.660156 C 295.8125 217.660156 293.796875 218.214844 292.042969 219.398438"/></svg>