<svg xmlns="http://www.w3.org/2000/svg" width="375" viewBox="0 0 375 375" height="375" version="1.0"><defs><clipPath id="a"><path d="M 115.753906 112.894531 L 259.003906 112.894531 L 259.003906 256.144531 L 115.753906 256.144531 Z M 115.753906 112.894531"/></clipPath></defs><g fill="#FFC0CB"><g><g><path d="M -7.667969 -1.679688 L -9.648438 -2.035156 L -10.566406 -1.921875 L -11.03125 -1.160156 L -11.445312 0.351562 L -11.589844 1.488281 L -11.78125 2.09375 L -12 3.277344 L -12.171875 3.792969 L -12.21875 4.460938 L -13.277344 9.183594 L -13.316406 9.820312 L -13.945312 12.359375 L -14.367188 13.195312 L -15 13.429688 L -16.160156 13.246094 L -17.21875 12.871094 L -17.855469 12.828125 L -18.378906 12.6875 L -18.945312 12.90625 L -19.4375 13.476562 L -20.054688 16.265625 L -19.855469 16.921875 L -19.378906 17.421875 L -17.554688 17.808594 L -17.007812 17.984375 L -16.371094 18.027344 L -15.824219 18.203125 L -13.417969 18.589844 L -12.851562 18.828125 L -12.300781 18.976562 L -11.664062 19.019531 L -11.027344 19.214844 L -10.472656 19.207031 L -8.757812 19.664062 L -7.828125 19.765625 L -5.792969 20.320312 L -5.171875 20.144531 L -4.675781 19.539062 L -4.582031 18.945312 L -4.210938 17.488281 L -4.078125 16.5625 L -4.230469 15.976562 L -4.699219 15.570312 L -5.300781 15.507812 L -8.082031 14.859375 L -8.578125 14.445312 L -8.777344 13.789062 L -8.519531 12.859375 L -8.40625 12.023438 L -8.238281 11.382812 L -8.144531 10.789062 L -7.914062 9.976562 L -7.074219 5.574219 L -6.894531 5 L -6.359375 2.621094 L -6.289062 1.992188 L -5.898438 0.292969 L -5.722656 -0.253906 L -5.96875 -0.984375 L -6.761719 -1.457031 Z M -7.667969 -1.679688" transform="translate(172.709 298.887)"/></g></g></g><g fill="#FFC0CB"><g><g><path d="M -16.195312 -7.238281 L -17.277344 -7.621094 L -17.773438 -7.90625 L -18.640625 -8.257812 L -19.46875 -8.460938 L -19.84375 -7.835938 L -19.933594 -7.117188 L -19.96875 -5.917969 L -19.859375 -4.160156 L -19.925781 -2.972656 L -19.816406 -1.738281 L -19.878906 1.222656 L -19.785156 1.757812 L -19.742188 2.402344 L -19.847656 3.082031 L -19.78125 3.601562 L -19.8125 4.117188 L -19.683594 5.386719 L -19.746094 6.050781 L -19.625 10.675781 L -19.703125 11.296875 L -19.621094 11.925781 L -19.675781 12.496094 L -19.578125 13.6875 L -19.332031 14.390625 L -18.546875 15.066406 L -17.53125 15.15625 L -16.832031 14.90625 L -16.375 14.550781 L -15.941406 14.085938 L -15.523438 13.808594 L -13.300781 11.765625 L -12.816406 11.488281 L -12.4375 11 L -11.902344 10.613281 L -11.519531 10.191406 L -6.109375 5.546875 L -5.675781 5.015625 L -5.21875 4.726562 L -4.78125 4.261719 L -3.898438 3.601562 L -2.996094 2.683594 L -2.523438 2.433594 L -2.167969 2 L -1.132812 1.144531 L -0.722656 0.667969 L -0.554688 -0.0820312 L -1.03125 -0.488281 L -2.128906 -0.910156 L -2.65625 -1.207031 L -4.21875 -1.835938 L -4.9375 -1.921875 L -5.675781 -1.660156 L -6.574219 -0.972656 L -7.328125 -0.679688 L -8.039062 -0.632812 L -8.523438 -0.949219 L -9.726562 -1.347656 L -10.1875 -1.652344 L -12.894531 -2.816406 L -13.363281 -3.089844 L -14.003906 -3.277344 L -14.476562 -3.847656 L -14.804688 -4.519531 L -14.820312 -5.148438 L -14.765625 -5.71875 L -15.132812 -6.375 L -15.640625 -6.929688 Z M -12.988281 2.371094 L -12.484375 2.722656 L -11.828125 2.949219 L -11.476562 3.335938 L -11.679688 3.871094 L -14.285156 6.265625 L -14.699219 6.378906 L -14.984375 5.988281 L -14.9375 2.394531 L -14.609375 1.949219 L -14.097656 1.910156 Z M -12.988281 2.371094" transform="translate(152.208 294.382)"/></g></g></g><g fill="#FFC0CB"><g><g><path d="M -3.183594 -2.472656 L -4.402344 -3.300781 L -4.816406 -3.648438 L -5.410156 -4.011719 L -6.058594 -4.195312 L -6.652344 -3.847656 L -6.988281 -3.347656 L -7.40625 -2.835938 L -8.019531 -1.90625 L -8.410156 -1.484375 L -8.796875 -0.910156 L -9.335938 -0.636719 L -10.089844 -0.78125 L -10.65625 -1.128906 L -11.089844 -1.601562 L -13.722656 -3.253906 L -16.695312 -4.035156 L -17.273438 -4.015625 L -17.898438 -3.878906 L -18.445312 -3.800781 L -19.027344 -3.667969 L -20.109375 -3.273438 L -21.21875 -2.636719 L -21.683594 -2.160156 L -22.117188 -1.878906 L -23.632812 0.0664062 L -23.839844 0.546875 L -24.164062 1.132812 L -24.535156 2.242188 L -24.6875 3.402344 L -24.699219 4.628906 L -24.308594 6.375 L -23.90625 7.5 L -23.15625 8.503906 L -22.871094 8.980469 L -22.386719 9.335938 L -22.03125 9.863281 L -21.324219 10.425781 L -20.53125 10.976562 L -19.949219 11.296875 L -18.492188 12.414062 L -18.0625 12.84375 L -16.496094 13.859375 L -15.980469 14.277344 L -15.601562 14.671875 L -15.019531 14.949219 L -14.316406 15.0625 L -13.8125 14.835938 L -11.667969 11.894531 L -10.855469 11.003906 L -10.5625 10.507812 L -5.902344 4.269531 L -5.609375 3.777344 L -2.269531 -0.671875 L -2.195312 -1.328125 L -2.765625 -2.125 Z M -12.929688 3.097656 L -12.664062 3.746094 L -12.75 4.320312 L -14.128906 6.328125 L -14.554688 6.800781 L -15.289062 7.789062 L -15.871094 8.070312 L -16.554688 7.933594 L -19.011719 6 L -19.335938 5.425781 L -19.523438 4.871094 L -19.605469 4.324219 L -19.488281 3.664062 L -19.238281 3.175781 L -18.785156 2.460938 L -18.253906 1.847656 L -17.761719 1.539062 L -17.257812 1.3125 L -16.65625 1.160156 L -16.054688 1.15625 L -15.582031 1.320312 L -14.761719 1.78125 L -13.546875 2.71875 Z M -12.929688 3.097656" transform="translate(128.783 283.393)"/></g></g></g><g fill="#FFC0CB"><g><g><path d="M -4.472656 -6.449219 L -5.679688 -8.0625 L -6.429688 -8.601562 L -7.289062 -8.363281 L -8.621094 -7.535156 L -9.503906 -6.804688 L -10.054688 -6.488281 L -11.019531 -5.769531 L -11.496094 -5.507812 L -11.984375 -5.054688 L -15.976562 -2.316406 L -16.441406 -1.878906 L -18.628906 -0.445312 L -19.507812 -0.121094 L -20.128906 -0.378906 L -20.855469 -1.304688 L -21.375 -2.300781 L -21.8125 -2.765625 L -22.097656 -3.222656 L -22.664062 -3.453125 L -23.410156 -3.367188 L -25.761719 -1.746094 L -26.066406 -1.128906 L -26.054688 -0.4375 L -24.980469 1.085938 L -24.703125 1.589844 L -24.265625 2.054688 L -23.984375 2.554688 L -22.484375 4.476562 L -22.234375 5.039062 L -21.929688 5.523438 L -21.492188 5.984375 L -21.160156 6.5625 L -20.75 6.933594 L -19.804688 8.4375 L -19.191406 9.148438 L -18.078125 10.9375 L -17.503906 11.230469 L -16.730469 11.125 L -16.253906 10.757812 L -14.992188 9.9375 L -14.265625 9.351562 L -13.976562 8.820312 L -14.042969 8.203125 L -14.441406 7.746094 L -16.035156 5.378906 L -16.121094 4.738281 L -15.820312 4.121094 L -14.996094 3.617188 L -14.34375 3.082031 L -13.785156 2.726562 L -13.3125 2.355469 L -12.589844 1.917969 L -8.976562 -0.734375 L -8.453125 -1.03125 L -6.445312 -2.410156 L -5.960938 -2.824219 L -4.519531 -3.804688 L -4.019531 -4.082031 L -3.703125 -4.785156 L -3.957031 -5.671875 Z M -4.472656 -6.449219" transform="translate(100.829 258.906)"/></g></g></g><g fill="#FFC0CB"><g><g><path d="M -4.285156 -11.277344 L -5.5625 -13.640625 L -6.335938 -14.558594 L -8.476562 -16.5625 L -11.148438 -17.730469 L -11.796875 -17.882812 L -14.164062 -18.164062 L -14.773438 -18.140625 L -15.363281 -17.992188 L -15.875 -17.972656 L -16.53125 -17.828125 L -18.53125 -17.15625 L -20.390625 -16.21875 L -21.324219 -15.566406 L -21.8125 -15.101562 L -22.394531 -14.699219 L -23.101562 -13.816406 L -23.519531 -13.414062 L -23.839844 -12.855469 L -24.035156 -12.382812 L -24.382812 -11.816406 L -24.96875 -10.167969 L -25.265625 -8.382812 L -24.886719 -4.273438 L -24.367188 -2.957031 L -23.445312 -1.0625 L -23.105469 -0.554688 L -22.707031 -0.0703125 L -22.273438 0.339844 L -21.558594 1.277344 L -20.078125 2.320312 L -19.582031 2.570312 L -18.601562 3.203125 L -17.457031 3.605469 L -15.675781 3.96875 L -15.101562 4.023438 L -13.355469 3.914062 L -12.070312 3.636719 L -8.804688 2.402344 L -7.183594 1.371094 L -6.414062 0.558594 L -5.898438 0.148438 L -5.515625 -0.335938 L -4.285156 -2.382812 L -3.859375 -3.472656 L -3.59375 -4.007812 L -3.382812 -6.308594 L -3.382812 -6.929688 L -3.671875 -9.578125 Z M -8.84375 -8.460938 L -8.804688 -7.824219 L -8.652344 -7.304688 L -8.757812 -6.152344 L -9.148438 -4.976562 L -9.421875 -4.539062 L -9.660156 -4.015625 L -10.992188 -2.839844 L -12.320312 -2.121094 L -13.167969 -1.800781 L -14.273438 -1.566406 L -14.84375 -1.527344 L -15.371094 -1.695312 L -15.945312 -1.75 L -16.539062 -1.925781 L -17.074219 -2.191406 L -17.964844 -2.765625 L -18.425781 -3.160156 L -18.804688 -3.683594 L -19.449219 -4.914062 L -19.921875 -6.28125 L -19.898438 -8.015625 L -19.621094 -9.144531 L -18.941406 -10.175781 L -18.535156 -10.605469 L -18.050781 -11.003906 L -17.632812 -11.40625 L -16.484375 -12.015625 L -15.027344 -12.429688 L -13.785156 -12.652344 L -13.242188 -12.523438 L -12.722656 -12.445312 L -12.082031 -12.320312 L -11.058594 -11.738281 L -10.628906 -11.332031 L -10.191406 -10.992188 L -9.929688 -10.515625 L -9.570312 -10.046875 Z M -8.84375 -8.460938" transform="translate(88.824 241.776)"/></g></g></g><g fill="#FFC0CB"><g><g><path d="M -0.128906 -8.089844 L -0.1875 -10.46875 L -0.277344 -11.066406 L -0.457031 -11.65625 L -0.574219 -12.253906 L -0.84375 -12.84375 L -0.933594 -13.378906 L -1.230469 -13.9375 L -2.5625 -15.917969 L -3.507812 -16.746094 L -3.941406 -17.023438 L -4.617188 -17.324219 L -5.167969 -17.476562 L -5.6875 -17.632812 L -7.199219 -17.738281 L -8.15625 -17.628906 L -9.875 -17.09375 L -10.339844 -16.738281 L -11.203125 -15.914062 L -11.65625 -15.347656 L -11.871094 -14.855469 L -12.175781 -14.300781 L -12.78125 -11.921875 L -12.839844 -11.316406 L -12.84375 -10.714844 L -12.929688 -10.078125 L -12.886719 -9.207031 L -13.140625 -7.597656 L -13.625 -6.460938 L -14.023438 -5.992188 L -14.917969 -5.824219 L -15.738281 -5.9375 L -16.144531 -6.277344 L -16.496094 -6.710938 L -16.792969 -7.179688 L -16.9375 -7.714844 L -17.015625 -8.671875 L -16.941406 -9.640625 L -16.820312 -10.1875 L -16.484375 -10.746094 L -16.089844 -11.277344 L -15.511719 -11.757812 L -15.15625 -12.4375 L -15.34375 -13.84375 L -15.324219 -14.65625 L -15.355469 -15.257812 L -15.320312 -15.800781 L -15.769531 -16.351562 L -16.292969 -16.566406 L -16.855469 -16.417969 L -17.425781 -16.328125 L -18.945312 -15.410156 L -19.8125 -14.707031 L -21.097656 -12.65625 L -21.582031 -10.945312 L -21.765625 -9.761719 L -21.710938 -7.445312 L -21.5 -6.796875 L -21.4375 -6.195312 L -21.324219 -5.660156 L -20.90625 -4.535156 L -20.253906 -3.546875 L -19.191406 -2.152344 L -17.730469 -1.171875 L -16.050781 -0.710938 L -14.574219 -0.695312 L -13.644531 -0.769531 L -12.453125 -1.039062 L -11.425781 -1.574219 L -10.101562 -2.753906 L -9.089844 -4.847656 L -8.78125 -5.949219 L -8.476562 -10.691406 L -8.019531 -11.796875 L -7.675781 -12.203125 L -6.933594 -12.421875 L -6.171875 -12.21875 L -5.703125 -11.851562 L -5.203125 -10.851562 L -5.097656 -9.921875 L -4.980469 -9.386719 L -5.054688 -7.847656 L -5.300781 -7.324219 L -5.605469 -6.796875 L -6.636719 -5.753906 L -6.847656 -5.140625 L -6.761719 -4.601562 L -6.820312 -4.027344 L -6.585938 -1.722656 L -6.320312 -1.191406 L -5.679688 -0.984375 L -5.082031 -1.105469 L -4.488281 -1.253906 L -3.957031 -1.460938 L -2.871094 -2.085938 L -2.503906 -2.527344 L -2.070312 -2.9375 L -1.464844 -4.023438 L -1.035156 -4.464844 L -0.792969 -5.046875 L -0.640625 -5.65625 L -0.277344 -6.851562 Z M -0.128906 -8.089844" transform="translate(76.136 202.576)"/></g></g></g><g fill="#FFC0CB"><g><g><path d="M 1.484375 -9.964844 L 1.589844 -11.164062 L 1.363281 -11.738281 L 0.839844 -12.117188 L -2.109375 -12.519531 L -2.726562 -12.238281 L -3.140625 -11.628906 L -3.226562 -11.003906 L -3.5625 -10.320312 L -4.296875 -10.058594 L -4.851562 -10.222656 L -8.132812 -10.644531 L -8.78125 -10.792969 L -10.941406 -10.964844 L -13.933594 -11.496094 L -14.589844 -11.800781 L -14.769531 -12.492188 L -14.777344 -13.101562 L -14.929688 -13.757812 L -15.363281 -14.121094 L -18.308594 -14.554688 L -18.925781 -14.273438 L -19.324219 -13.785156 L -19.820312 -10.179688 L -19.953125 -9.652344 L -19.914062 -9.039062 L -20.25 -6.597656 L -20.417969 -6.042969 L -20.511719 -5.359375 L -20.292969 -4.722656 L -19.621094 -4.324219 L -17.402344 -4.113281 L -16.84375 -3.976562 L -16.203125 -4.222656 L -15.785156 -4.832031 L -15.707031 -5.429688 L -15.269531 -5.945312 L -14.429688 -6.101562 L -5.273438 -4.941406 L -4.421875 -4.488281 L -4.097656 -2.441406 L -3.605469 -2.042969 L -0.875 -1.578125 L -0.03125 -1.765625 L 0.316406 -2.324219 L 0.394531 -2.890625 L 0.414062 -3.464844 L 0.652344 -4.3125 L 0.746094 -5.238281 L 0.769531 -5.84375 L 1.050781 -7.019531 L 1.054688 -7.929688 L 1.253906 -9.386719 Z M 1.484375 -9.964844" transform="translate(75.636 179.022)"/></g></g></g><g fill="#FFC0CB"><g><g><path d="M 3.734375 -9.746094 L 4.730469 -12.582031 L 4.964844 -14.890625 L 4.652344 -17.261719 L 4.277344 -18.382812 L 3.972656 -18.964844 L 3.78125 -19.511719 L 3.503906 -19.992188 L 3.121094 -20.445312 L 2.699219 -20.878906 L 2.421875 -21.359375 L 0.945312 -22.511719 L -0.0507812 -23.117188 L -0.523438 -23.316406 L -0.996094 -23.609375 L -1.5625 -23.808594 L -2.082031 -24.050781 L -3.179688 -24.375 L -3.761719 -24.257812 L -4.234375 -23.820312 L -4.472656 -23.234375 L -4.765625 -22.667969 L -6.023438 -18.808594 L -6.734375 -17.144531 L -7.027344 -16.035156 L -6.941406 -15.371094 L -6.492188 -14.925781 L -3.796875 -13.980469 L -3.253906 -14.078125 L -2.761719 -14.476562 L -2.417969 -15.28125 L -2.035156 -16.738281 L -1.769531 -17.21875 L -1.421875 -17.574219 L -0.910156 -17.492188 L -0.527344 -17.039062 L -0.191406 -16.445312 L -0.0195312 -15.9375 L 0.0195312 -14.871094 L -0.113281 -13.675781 L -0.34375 -12.929688 L -1.019531 -11.542969 L -2.179688 -10.226562 L -3.273438 -9.65625 L -3.78125 -9.480469 L -4.992188 -9.300781 L -5.894531 -9.363281 L -6.851562 -9.539062 L -8.507812 -10.085938 L -9.542969 -10.675781 L -10.40625 -11.484375 L -11.433594 -12.832031 L -11.792969 -14.074219 L -11.878906 -14.648438 L -11.746094 -15.207031 L -11.804688 -15.769531 L -11.253906 -17.519531 L -10.601562 -18.46875 L -10.1875 -18.929688 L -9.628906 -19.339844 L -9.140625 -19.550781 L -8.527344 -19.75 L -7.835938 -20.175781 L -7.402344 -20.789062 L -7.0625 -21.65625 L -6.878906 -22.546875 L -6.316406 -23.878906 L -6.378906 -24.699219 L -6.800781 -25.039062 L -8.105469 -25.050781 L -8.707031 -24.972656 L -10.75 -24.414062 L -11.476562 -23.96875 L -12.0625 -23.664062 L -12.554688 -23.359375 L -14.300781 -21.742188 L -14.621094 -21.183594 L -15.457031 -19.980469 L -16.496094 -17.382812 L -16.667969 -16.804688 L -16.664062 -16.261719 L -16.828125 -15.710938 L -16.796875 -13.25 L -16.378906 -11.351562 L -15.710938 -9.714844 L -15.386719 -9.1875 L -15.109375 -8.609375 L -14.792969 -8.148438 L -13.035156 -6.355469 L -10.402344 -4.859375 L -9.507812 -4.511719 L -7.46875 -3.957031 L -4.523438 -3.816406 L -3.378906 -3.988281 L -2.1875 -4.304688 L -0.597656 -5.019531 L 0.382812 -5.726562 L 2.203125 -7.289062 L 2.515625 -7.722656 L 3.367188 -9.238281 Z M 3.734375 -9.746094" transform="translate(78.028 161.244)"/></g></g></g><g fill="#FFC0CB"><g><g><path d="M 9.21875 -15.164062 L 10.066406 -15.582031 L 10.597656 -16.242188 L 10.78125 -16.910156 L 10.441406 -17.488281 L 1.265625 -23.511719 L 0.785156 -23.710938 L -1.710938 -25.332031 L -2.269531 -25.800781 L -5.824219 -27.996094 L -6.492188 -28.070312 L -7.097656 -27.746094 L -9.097656 -24.601562 L -9.132812 -23.941406 L -8.78125 -23.320312 L -8.269531 -22.953125 L -7.816406 -22.765625 L -6.804688 -22.003906 L -6.21875 -21.695312 L -1.734375 -18.71875 L -1.402344 -18.289062 L -1.824219 -18.023438 L -4.777344 -17.394531 L -5.789062 -17.046875 L -14.035156 -15.332031 L -14.582031 -15.148438 L -15.261719 -14.765625 L -15.929688 -14.121094 L -16.050781 -13.378906 L -15.71875 -12.839844 L -8.074219 -7.886719 L -7.664062 -7.582031 L -6.59375 -6.960938 L -6.214844 -6.609375 L -2.042969 -3.976562 L -1.597656 -3.617188 L 0.554688 -2.292969 L 1.179688 -2.207031 L 1.699219 -2.625 L 2.421875 -3.625 L 2.730469 -4.214844 L 3.445312 -5.148438 L 3.761719 -5.695312 L 3.835938 -6.363281 L 3.21875 -7.121094 L -3.148438 -11.285156 L -3.621094 -11.664062 L -3.933594 -12.117188 L -3.59375 -12.363281 L -2.953125 -12.414062 L -0.078125 -13.09375 L 0.515625 -13.175781 L 1.070312 -13.425781 L 7.488281 -14.816406 L 8.648438 -15 Z M 9.21875 -15.164062" transform="translate(87.395 136.006)"/></g></g></g><g fill="#FFC0CB"><g><g><path d="M 8.476562 -5.941406 L 9.140625 -6.558594 L 9.613281 -6.878906 L 11.117188 -8.777344 L 11.636719 -9.886719 L 12.027344 -11.011719 L 12.1875 -12.191406 L 12.101562 -13.449219 L 11.882812 -14.035156 L 11.8125 -14.625 L 11.265625 -15.792969 L 10.511719 -17.035156 L 5.605469 -23.503906 L 5.210938 -23.921875 L 4.859375 -24.484375 L 4.519531 -24.832031 L 3.011719 -26.820312 L 2.722656 -27.351562 L 2.027344 -27.621094 L 1.375 -27.386719 L -0.0976562 -26.195312 L -1.160156 -25.503906 L -1.480469 -24.882812 L -1.34375 -24.15625 L 5.863281 -14.753906 L 6.824219 -13.140625 L 6.953125 -12.671875 L 7.050781 -11.996094 L 6.863281 -11.398438 L 6.261719 -10.449219 L 4.824219 -9.359375 L 4.183594 -9.0625 L 3.59375 -8.992188 L 2.992188 -8.988281 L 2.414062 -9.152344 L 1.925781 -9.5 L 0.726562 -10.78125 L -5.054688 -18.546875 L -5.375 -18.871094 L -5.90625 -19.671875 L -6.484375 -20.332031 L -7.171875 -20.640625 L -7.835938 -20.472656 L -8.292969 -20.128906 L -8.714844 -19.695312 L -9.820312 -19.007812 L -10.265625 -18.554688 L -10.625 -17.980469 L -10.589844 -17.289062 L -10.179688 -16.847656 L -9.742188 -16.273438 L -9.5 -15.851562 L -6.882812 -12.554688 L -6.59375 -12.019531 L -6.199219 -11.601562 L -3.34375 -7.691406 L -1.746094 -5.882812 L -0.761719 -5.082031 L 0.238281 -4.558594 L 1.445312 -4.117188 L 1.984375 -4 L 2.582031 -3.960938 L 3.730469 -4.039062 L 4.371094 -4.1875 L 4.894531 -4.242188 L 6.113281 -4.527344 L 7.195312 -5.042969 L 7.671875 -5.40625 Z M 8.476562 -5.941406" transform="translate(111.6 104.434)"/></g></g></g><g fill="#FFC0CB"><g><g><path d="M 3.695312 -1.605469 L 5.007812 -2.277344 L 5.511719 -2.476562 L 6.117188 -2.820312 L 6.589844 -3.304688 L 6.570312 -3.992188 L 6.289062 -4.523438 L 6.039062 -5.136719 L 5.519531 -6.125 L 5.335938 -6.667969 L 5.019531 -7.28125 L 5.035156 -7.886719 L 5.527344 -8.476562 L 6.101562 -8.808594 L 6.726562 -8.964844 L 9.4375 -10.480469 L 11.550781 -12.714844 L 11.808594 -13.230469 L 11.992188 -13.84375 L 12.179688 -14.363281 L 12.347656 -14.9375 L 12.519531 -16.074219 L 12.492188 -17.351562 L 12.296875 -17.992188 L 12.257812 -18.503906 L 11.277344 -20.769531 L 10.957031 -21.179688 L 10.597656 -21.746094 L 9.804688 -22.601562 L 8.855469 -23.292969 L 7.785156 -23.890625 L 6.066406 -24.390625 L 4.886719 -24.574219 L 3.644531 -24.398438 L 3.089844 -24.375 L 2.546875 -24.121094 L 1.910156 -24.0625 L 1.078125 -23.710938 L 0.21875 -23.28125 L -0.34375 -22.921875 L -2.023438 -22.179688 L -2.605469 -22.011719 L -4.25 -21.121094 L -4.863281 -20.871094 L -5.390625 -20.726562 L -5.914062 -20.351562 L -6.347656 -19.785156 L -6.390625 -19.238281 L -4.839844 -15.945312 L -4.445312 -14.804688 L -4.152344 -14.308594 L -0.917969 -7.226562 L -0.621094 -6.734375 L 1.679688 -1.667969 L 2.21875 -1.289062 L 3.191406 -1.40625 Z M 3.484375 -12.832031 L 2.785156 -12.910156 L 2.324219 -13.257812 L 1.222656 -15.433594 L 1.015625 -16.03125 L 0.496094 -17.152344 L 0.53125 -17.796875 L 0.976562 -18.332031 L 3.855469 -19.5625 L 4.515625 -19.566406 L 5.089844 -19.46875 L 5.609375 -19.277344 L 6.132812 -18.855469 L 6.441406 -18.402344 L 6.851562 -17.664062 L 7.136719 -16.902344 L 7.171875 -16.324219 L 7.125 -15.773438 L 6.972656 -15.171875 L 6.6875 -14.644531 L 6.3125 -14.304688 L 5.519531 -13.804688 L 4.113281 -13.191406 Z M 3.484375 -12.832031" transform="translate(131.678 89.822)"/></g></g></g><g fill="#FFC0CB"><g><g><path d="M 2.558594 -12.113281 L 3.144531 -12.285156 L 3.820312 -13.800781 L 3.953125 -14.183594 L 4.367188 -14.238281 L 4.71875 -13.890625 L 4.914062 -13.554688 L 5.511719 -12.964844 L 5.800781 -12.609375 L 6.351562 -12.5625 L 7.488281 -13.835938 L 7.84375 -14.128906 L 8.132812 -14.441406 L 8.460938 -14.726562 L 8.414062 -15.296875 L 8.105469 -15.558594 L 7.703125 -15.839844 L 6.777344 -16.625 L 6.785156 -17.019531 L 7.183594 -17.226562 L 7.625 -17.316406 L 8.023438 -17.519531 L 8.839844 -17.78125 L 9.011719 -18.289062 L 8.839844 -18.660156 L 8.75 -19.105469 L 8.519531 -19.46875 L 8.410156 -19.847656 L 8.1875 -20.152344 L 8.070312 -20.558594 L 7.8125 -20.890625 L 7.296875 -21.125 L 6.9375 -20.863281 L 6.167969 -20.488281 L 5.808594 -20.226562 L 5.433594 -20.085938 L 5.054688 -20.214844 L 5.125 -21.042969 L 5.019531 -21.820312 L 5.0625 -22.1875 L 4.617188 -22.554688 L 2.46875 -22.296875 L 2.089844 -22.183594 L 1.546875 -22.140625 L 1.300781 -21.714844 L 1.386719 -21.300781 L 1.4375 -20.945312 L 1.578125 -20.566406 L 1.765625 -19.835938 L 1.480469 -19.492188 L 0.628906 -19.710938 L 0.167969 -19.773438 L -0.160156 -19.941406 L -0.660156 -20.054688 L -1.035156 -19.703125 L -1.105469 -19.296875 L -1.234375 -18.917969 L -1.394531 -18.074219 L -1.40625 -17.710938 L -1.472656 -17.308594 L -1.597656 -16.867188 L -1.210938 -16.492188 L -0.75 -16.433594 L -0.375 -16.363281 L 0.117188 -16.308594 L 0.449219 -16.320312 L 0.914062 -16.230469 L 1.082031 -15.890625 L 0.828125 -15.523438 L 0.535156 -15.210938 L 0.308594 -14.875 L 0.144531 -14.519531 L -0.167969 -14.144531 L -0.0351562 -13.585938 L 0.386719 -13.398438 L 0.6875 -13.199219 L 1.507812 -12.730469 L 2.175781 -12.273438 Z M 2.558594 -12.113281" transform="translate(166.796 77.156)"/></g></g></g><g fill="#FFC0CB"><g><g><path d="M 7.746094 1.257812 L 9.746094 1.507812 L 10.652344 1.34375 L 11.078125 0.554688 L 11.40625 -0.976562 L 11.492188 -2.117188 L 11.648438 -2.734375 L 11.804688 -3.925781 L 11.945312 -4.453125 L 11.957031 -5.121094 L 12.753906 -9.894531 L 12.761719 -10.53125 L 13.25 -13.105469 L 13.625 -13.957031 L 14.246094 -14.226562 L 15.414062 -14.109375 L 16.492188 -13.789062 L 17.128906 -13.78125 L 17.660156 -13.671875 L 18.214844 -13.917969 L 18.671875 -14.519531 L 19.136719 -17.335938 L 18.902344 -17.980469 L 18.398438 -18.453125 L 16.554688 -18.738281 L 16 -18.886719 L 15.363281 -18.894531 L 14.808594 -19.039062 L 12.382812 -19.292969 L 11.804688 -19.503906 L 11.246094 -19.621094 L 10.609375 -19.628906 L 9.964844 -19.789062 L 9.410156 -19.75 L 7.671875 -20.113281 L 6.734375 -20.164062 L 4.675781 -20.605469 L 4.0625 -20.394531 L 3.601562 -19.765625 L 3.539062 -19.167969 L 3.25 -17.691406 L 3.167969 -16.761719 L 3.351562 -16.183594 L 3.839844 -15.804688 L 4.445312 -15.773438 L 7.257812 -15.277344 L 7.777344 -14.894531 L 8.011719 -14.246094 L 7.804688 -13.304688 L 7.738281 -12.464844 L 7.605469 -11.816406 L 7.542969 -11.21875 L 7.355469 -10.394531 L 6.761719 -5.953125 L 6.609375 -5.367188 L 6.207031 -2.964844 L 6.171875 -2.332031 L 5.875 -0.613281 L 5.730469 -0.0585938 L 6.015625 0.65625 L 6.828125 1.085938 Z M 7.746094 1.257812" transform="translate(196.438 75.397)"/></g></g></g><g fill="#FFC0CB"><g><g><path d="M 16.566406 6.34375 L 17.667969 6.664062 L 18.179688 6.925781 L 19.0625 7.226562 L 19.902344 7.386719 L 20.242188 6.742188 L 20.289062 6.019531 L 20.261719 4.820312 L 20.058594 3.070312 L 20.058594 1.882812 L 19.882812 0.65625 L 19.78125 -2.308594 L 19.660156 -2.835938 L 19.582031 -3.476562 L 19.648438 -4.160156 L 19.554688 -4.675781 L 19.558594 -5.191406 L 19.359375 -6.453125 L 19.386719 -7.121094 L 19.015625 -11.730469 L 19.058594 -12.355469 L 18.941406 -12.980469 L 18.964844 -13.550781 L 18.804688 -14.738281 L 18.515625 -15.425781 L 17.695312 -16.058594 L 16.679688 -16.089844 L 15.992188 -15.804688 L 15.558594 -15.421875 L 15.148438 -14.933594 L 14.746094 -14.636719 L 12.640625 -12.476562 L 12.171875 -12.171875 L 11.816406 -11.660156 L 11.304688 -11.246094 L 10.945312 -10.804688 L 5.796875 -5.875 L 5.394531 -5.320312 L 4.953125 -5.003906 L 4.542969 -4.515625 L 3.695312 -3.808594 L 2.847656 -2.84375 L 2.386719 -2.566406 L 2.054688 -2.113281 L 1.066406 -1.203125 L 0.683594 -0.703125 L 0.558594 0.0507812 L 1.058594 0.433594 L 2.175781 0.792969 L 2.714844 1.0625 L 4.3125 1.601562 L 5.035156 1.652344 L 5.757812 1.347656 L 6.617188 0.613281 L 7.355469 0.28125 L 8.0625 0.195312 L 8.5625 0.480469 L 9.789062 0.816406 L 10.261719 1.09375 L 13.027344 2.109375 L 13.511719 2.359375 L 14.164062 2.507812 L 14.664062 3.050781 L 15.027344 3.703125 L 15.078125 4.332031 L 15.054688 4.902344 L 15.457031 5.539062 L 15.996094 6.066406 Z M 12.839844 -3.074219 L 12.320312 -3.402344 L 11.652344 -3.589844 L 11.277344 -3.957031 L 11.449219 -4.5 L 13.921875 -7.039062 L 14.328125 -7.171875 L 14.636719 -6.796875 L 14.785156 -3.207031 L 14.480469 -2.742188 L 13.972656 -2.675781 Z M 12.839844 -3.074219" transform="translate(217.162 78.776)"/></g></g></g><g fill="#FFC0CB"><g><g><path d="M 3.3125 2.296875 L 4.574219 3.058594 L 5.011719 3.378906 L 5.621094 3.710938 L 6.28125 3.859375 L 6.851562 3.480469 L 7.160156 2.960938 L 7.550781 2.425781 L 8.113281 1.464844 L 8.476562 1.023438 L 8.832031 0.429688 L 9.355469 0.125 L 10.117188 0.230469 L 10.703125 0.546875 L 11.164062 0.992188 L 13.878906 2.5 L 16.890625 3.121094 L 17.46875 3.066406 L 18.082031 2.898438 L 18.625 2.789062 L 19.199219 2.625 L 20.257812 2.171875 L 21.328125 1.472656 L 21.769531 0.972656 L 22.183594 0.671875 L 23.59375 -1.355469 L 23.777344 -1.847656 L 24.066406 -2.449219 L 24.375 -3.574219 L 24.464844 -4.742188 L 24.40625 -5.96875 L 23.925781 -7.695312 L 23.460938 -8.792969 L 22.65625 -9.757812 L 22.347656 -10.214844 L 21.84375 -10.542969 L 21.457031 -11.050781 L 20.722656 -11.574219 L 19.902344 -12.078125 L 19.300781 -12.367188 L 17.789062 -13.402344 L 17.335938 -13.8125 L 15.714844 -14.738281 L 15.179688 -15.128906 L 14.777344 -15.5 L 14.183594 -15.75 L 13.472656 -15.820312 L 12.984375 -15.566406 L 11.003906 -12.515625 L 10.238281 -11.578125 L 9.976562 -11.066406 L 5.660156 -4.585938 L 5.394531 -4.078125 L 2.304688 0.546875 L 2.265625 1.207031 L 2.878906 1.972656 Z M 12.742188 -3.800781 L 12.441406 -4.433594 L 12.496094 -5.007812 L 13.761719 -7.089844 L 14.160156 -7.585938 L 14.839844 -8.613281 L 15.40625 -8.925781 L 16.097656 -8.828125 L 18.65625 -7.027344 L 19.011719 -6.472656 L 19.230469 -5.929688 L 19.339844 -5.386719 L 19.261719 -4.722656 L 19.035156 -4.21875 L 18.625 -3.484375 L 18.125 -2.839844 L 17.652344 -2.503906 L 17.160156 -2.25 L 16.570312 -2.066406 L 15.96875 -2.03125 L 15.484375 -2.167969 L 14.640625 -2.582031 L 13.378906 -3.453125 Z M 12.742188 -3.800781" transform="translate(241.144 88.471)"/></g></g></g><g fill="#FFC0CB"><g><g><path d="M 4.816406 6.195312 L 6.113281 7.738281 L 6.886719 8.238281 L 7.734375 7.953125 L 9.019531 7.054688 L 9.859375 6.273438 L 10.390625 5.929688 L 11.316406 5.160156 L 11.78125 4.875 L 12.242188 4.394531 L 16.078125 1.441406 L 16.519531 0.976562 L 18.628906 -0.574219 L 19.484375 -0.941406 L 20.121094 -0.71875 L 20.894531 0.164062 L 21.46875 1.128906 L 21.929688 1.570312 L 22.242188 2.015625 L 22.816406 2.210938 L 23.558594 2.082031 L 25.820312 0.335938 L 26.085938 -0.296875 L 26.039062 -0.988281 L 24.882812 -2.449219 L 24.578125 -2.933594 L 24.117188 -3.375 L 23.808594 -3.859375 L 22.203125 -5.695312 L 21.925781 -6.242188 L 21.597656 -6.710938 L 21.132812 -7.148438 L 20.769531 -7.707031 L 20.339844 -8.058594 L 19.3125 -9.503906 L 18.664062 -10.179688 L 17.453125 -11.90625 L 16.863281 -12.167969 L 16.097656 -12.023438 L 15.644531 -11.625 L 14.425781 -10.742188 L 13.734375 -10.117188 L 13.476562 -9.570312 L 13.574219 -8.957031 L 13.996094 -8.523438 L 15.71875 -6.246094 L 15.835938 -5.609375 L 15.570312 -4.976562 L 14.777344 -4.429688 L 14.152344 -3.859375 L 13.617188 -3.472656 L 13.164062 -3.078125 L 12.464844 -2.601562 L 9.003906 0.246094 L 8.496094 0.570312 L 6.566406 2.054688 L 6.109375 2.496094 L 4.71875 3.550781 L 4.234375 3.859375 L 3.957031 4.574219 L 4.261719 5.445312 Z M 4.816406 6.195312" transform="translate(270.392 111.396)"/></g></g></g><g fill="#FFC0CB"><g><g><path d="M 4.894531 11.027344 L 6.300781 13.320312 L 7.121094 14.191406 L 9.371094 16.078125 L 12.097656 17.09375 L 12.757812 17.210938 L 15.132812 17.367188 L 15.742188 17.304688 L 16.320312 17.125 L 16.832031 17.078125 L 17.480469 16.898438 L 19.441406 16.121094 L 21.242188 15.082031 L 22.140625 14.382812 L 22.605469 13.890625 L 23.164062 13.453125 L 23.820312 12.535156 L 24.214844 12.109375 L 24.507812 11.535156 L 24.675781 11.054688 L 24.992188 10.464844 L 25.484375 8.792969 L 25.683594 6.992188 L 25.082031 2.910156 L 24.492188 1.625 L 23.46875 -0.21875 L 23.097656 -0.707031 L 22.675781 -1.171875 L 22.222656 -1.554688 L 21.457031 -2.449219 L 19.921875 -3.414062 L 19.414062 -3.636719 L 18.398438 -4.214844 L 17.234375 -4.550781 L 15.4375 -4.820312 L 14.859375 -4.839844 L 13.121094 -4.636719 L 11.851562 -4.289062 L 8.660156 -2.882812 L 7.097656 -1.757812 L 6.375 -0.910156 L 5.882812 -0.472656 L 5.527344 0.0351562 L 4.410156 2.144531 L 4.042969 3.253906 L 3.808594 3.804688 L 3.722656 6.117188 L 3.753906 6.734375 L 4.1875 9.363281 Z M 9.292969 7.964844 L 9.21875 7.332031 L 9.039062 6.820312 L 9.082031 5.664062 L 9.40625 4.472656 L 9.65625 4.019531 L 9.863281 3.484375 L 11.132812 2.234375 L 12.417969 1.445312 L 13.246094 1.082031 L 14.339844 0.785156 L 14.902344 0.714844 L 15.441406 0.855469 L 16.019531 0.878906 L 16.621094 1.019531 L 17.167969 1.257812 L 18.089844 1.78125 L 18.570312 2.148438 L 18.980469 2.652344 L 19.6875 3.84375 L 20.234375 5.183594 L 20.304688 6.917969 L 20.089844 8.058594 L 19.46875 9.128906 L 19.085938 9.578125 L 18.625 10.003906 L 18.226562 10.429688 L 17.117188 11.097656 L 15.683594 11.589844 L 14.457031 11.882812 L 13.90625 11.78125 L 13.382812 11.734375 L 12.738281 11.644531 L 11.683594 11.117188 L 11.230469 10.738281 L 10.777344 10.421875 L 10.488281 9.960938 L 10.105469 9.511719 Z M 9.292969 7.964844" transform="translate(283.322 127.845)"/></g></g></g><g fill="#FFC0CB"><g><g><path d="M 0.570312 8.074219 L 0.757812 10.441406 L 0.878906 11.03125 L 1.089844 11.617188 L 1.242188 12.203125 L 1.542969 12.777344 L 1.660156 13.308594 L 1.988281 13.851562 L 3.425781 15.753906 L 4.414062 16.527344 L 4.863281 16.785156 L 5.558594 17.042969 L 6.113281 17.167969 L 6.640625 17.292969 L 8.15625 17.316406 L 9.105469 17.160156 L 10.792969 16.527344 L 11.238281 16.148438 L 12.054688 15.277344 L 12.476562 14.691406 L 12.664062 14.1875 L 12.9375 13.613281 L 13.414062 11.207031 L 13.441406 10.597656 L 13.40625 10 L 13.460938 9.359375 L 13.371094 8.492188 L 13.535156 6.871094 L 13.957031 5.707031 L 14.328125 5.214844 L 15.214844 5.003906 L 16.035156 5.070312 L 16.464844 5.386719 L 16.839844 5.800781 L 17.15625 6.25 L 17.332031 6.777344 L 17.464844 7.730469 L 17.445312 8.699219 L 17.351562 9.253906 L 17.046875 9.832031 L 16.683594 10.382812 L 16.128906 10.894531 L 15.8125 11.589844 L 16.078125 12.984375 L 16.101562 13.796875 L 16.164062 14.398438 L 16.160156 14.941406 L 16.636719 15.464844 L 17.171875 15.652344 L 17.726562 15.472656 L 18.289062 15.355469 L 19.757812 14.355469 L 20.585938 13.601562 L 21.753906 11.484375 L 22.148438 9.75 L 22.265625 8.558594 L 22.085938 6.25 L 21.835938 5.613281 L 21.746094 5.015625 L 21.597656 4.488281 L 21.121094 3.390625 L 20.417969 2.433594 L 19.28125 1.101562 L 17.765625 0.203125 L 16.066406 -0.164062 L 14.589844 -0.101562 L 13.667969 0.0234375 L 12.492188 0.359375 L 11.496094 0.945312 L 10.234375 2.195312 L 9.339844 4.347656 L 9.09375 5.460938 L 9.046875 10.210938 L 8.648438 11.339844 L 8.332031 11.765625 L 7.601562 12.023438 L 6.832031 11.863281 L 6.339844 11.519531 L 5.785156 10.550781 L 5.628906 9.628906 L 5.484375 9.101562 L 5.472656 7.5625 L 5.691406 7.023438 L 5.964844 6.480469 L 6.941406 5.382812 L 7.117188 4.757812 L 7 4.226562 L 7.03125 3.648438 L 6.671875 1.359375 L 6.375 0.847656 L 5.722656 0.671875 L 5.132812 0.824219 L 4.550781 1.007812 L 4.03125 1.242188 L 2.980469 1.925781 L 2.636719 2.386719 L 2.230469 2.820312 L 1.679688 3.9375 L 1.277344 4.402344 L 1.066406 4.996094 L 0.949219 5.613281 L 0.652344 6.824219 Z M 0.570312 8.074219" transform="translate(298.127 166.295)"/></g></g></g><g fill="#FFC0CB"><g><g><path d="M -0.941406 10.03125 L -0.976562 11.234375 L -0.722656 11.796875 L -0.175781 12.144531 L 2.789062 12.386719 L 3.386719 12.070312 L 3.773438 11.441406 L 3.824219 10.808594 L 4.121094 10.109375 L 4.839844 9.808594 L 5.402344 9.945312 L 8.703125 10.183594 L 9.355469 10.296875 L 11.523438 10.351562 L 14.539062 10.71875 L 15.210938 10.988281 L 15.429688 11.667969 L 15.46875 12.273438 L 15.65625 12.921875 L 16.113281 13.261719 L 19.078125 13.535156 L 19.675781 13.222656 L 20.050781 12.707031 L 20.34375 9.082031 L 20.449219 8.546875 L 20.378906 7.9375 L 20.578125 5.480469 L 20.714844 4.917969 L 20.773438 4.230469 L 20.519531 3.605469 L 19.828125 3.25 L 17.601562 3.15625 L 17.035156 3.050781 L 16.410156 3.332031 L 16.027344 3.964844 L 15.976562 4.5625 L 15.570312 5.101562 L 14.742188 5.304688 L 5.535156 4.644531 L 4.660156 4.242188 L 4.222656 2.214844 L 3.710938 1.839844 L 0.960938 1.527344 L 0.128906 1.761719 L -0.191406 2.335938 L -0.238281 2.90625 L -0.222656 3.480469 L -0.414062 4.339844 L -0.460938 5.273438 L -0.449219 5.875 L -0.667969 7.066406 L -0.621094 7.972656 L -0.742188 9.441406 Z M -0.941406 10.03125" transform="translate(299.91 189.786)"/></g></g></g><g fill="#FFC0CB"><g><g><path d="M -3.199219 9.9375 L -4.035156 12.824219 L -4.144531 15.140625 L -3.703125 17.492188 L -3.269531 18.589844 L -2.933594 19.15625 L -2.710938 19.6875 L -2.40625 20.152344 L -2 20.585938 L -1.554688 20.996094 L -1.253906 21.457031 L 0.28125 22.53125 L 1.3125 23.082031 L 1.796875 23.253906 L 2.28125 23.519531 L 2.859375 23.6875 L 3.390625 23.902344 L 4.503906 24.164062 L 5.078125 24.019531 L 5.527344 23.554688 L 5.734375 22.957031 L 5.996094 22.375 L 7.039062 18.449219 L 7.660156 16.75 L 7.890625 15.628906 L 7.769531 14.96875 L 7.296875 14.546875 L 4.554688 13.753906 L 4.015625 13.878906 L 3.546875 14.304688 L 3.246094 15.125 L 2.945312 16.601562 L 2.707031 17.097656 L 2.378906 17.472656 L 1.863281 17.417969 L 1.457031 16.984375 L 1.089844 16.410156 L 0.890625 15.914062 L 0.792969 14.851562 L 0.859375 13.648438 L 1.046875 12.890625 L 1.648438 11.46875 L 2.734375 10.09375 L 3.796875 9.460938 L 4.292969 9.261719 L 5.492188 9.015625 L 6.394531 9.027344 L 7.363281 9.152344 L 9.046875 9.609375 L 10.113281 10.136719 L 11.019531 10.902344 L 12.113281 12.191406 L 12.542969 13.410156 L 12.660156 13.976562 L 12.558594 14.542969 L 12.648438 15.101562 L 12.195312 16.878906 L 11.59375 17.863281 L 11.203125 18.34375 L 10.667969 18.785156 L 10.195312 19.023438 L 9.59375 19.253906 L 8.925781 19.71875 L 8.523438 20.351562 L 8.234375 21.238281 L 8.097656 22.140625 L 7.609375 23.5 L 7.71875 24.3125 L 8.160156 24.628906 L 9.460938 24.570312 L 10.054688 24.460938 L 12.066406 23.792969 L 12.769531 23.308594 L 13.335938 22.972656 L 13.808594 22.640625 L 15.464844 20.929688 L 15.753906 20.355469 L 16.523438 19.105469 L 17.421875 16.453125 L 17.558594 15.867188 L 17.527344 15.328125 L 17.660156 14.769531 L 17.496094 12.3125 L 16.976562 10.441406 L 16.21875 8.84375 L 15.863281 8.332031 L 15.558594 7.773438 L 15.21875 7.332031 L 13.363281 5.632812 L 10.652344 4.285156 L 9.738281 3.984375 L 7.675781 3.542969 L 4.726562 3.5625 L 3.59375 3.796875 L 2.417969 4.175781 L 0.871094 4.980469 L -0.0703125 5.742188 L -1.804688 7.398438 L -2.089844 7.847656 L -2.855469 9.410156 Z M -3.199219 9.9375" transform="translate(298.489 207.669)"/></g></g></g><g fill="#FFC0CB"><g><g><path d="M -8.378906 15.644531 L -9.199219 16.109375 L -9.695312 16.796875 L -9.84375 17.472656 L -9.472656 18.035156 L 0.0195312 23.542969 L 0.507812 23.71875 L 3.089844 25.199219 L 3.671875 25.636719 L 7.34375 27.636719 L 8.015625 27.675781 L 8.601562 27.320312 L 10.429688 24.070312 L 10.425781 23.410156 L 10.042969 22.808594 L 9.507812 22.46875 L 9.046875 22.308594 L 7.996094 21.601562 L 7.390625 21.324219 L 2.753906 18.59375 L 2.398438 18.183594 L 2.804688 17.898438 L 5.71875 17.105469 L 6.710938 16.707031 L 14.847656 14.542969 L 15.386719 14.332031 L 16.042969 13.910156 L 16.675781 13.230469 L 16.757812 12.484375 L 16.398438 11.964844 L 8.492188 7.433594 L 8.0625 7.152344 L 6.964844 6.59375 L 6.566406 6.257812 L 2.257812 3.859375 L 1.792969 3.523438 L -0.429688 2.320312 L -1.058594 2.269531 L -1.554688 2.714844 L -2.21875 3.753906 L -2.496094 4.355469 L -3.160156 5.328125 L -3.445312 5.890625 L -3.484375 6.5625 L -2.824219 7.289062 L 3.757812 11.097656 L 4.25 11.449219 L 4.589844 11.882812 L 4.265625 12.148438 L 3.628906 12.234375 L 0.792969 13.070312 L 0.207031 13.183594 L -0.335938 13.460938 L -6.671875 15.203125 L -7.816406 15.449219 Z M -8.378906 15.644531" transform="translate(290.522 233.38)"/></g></g></g><g fill="#FFC0CB"><g><g><path d="M -8.140625 6.394531 L -8.769531 7.046875 L -9.222656 7.394531 L -10.621094 9.371094 L -11.078125 10.503906 L -11.40625 11.652344 L -11.503906 12.839844 L -11.351562 14.089844 L -11.097656 14.664062 L -10.996094 15.25 L -10.386719 16.386719 L -9.566406 17.582031 L -4.3125 23.773438 L -3.898438 24.171875 L -3.515625 24.714844 L -3.160156 25.042969 L -1.542969 26.945312 L -1.222656 27.460938 L -0.515625 27.6875 L 0.121094 27.421875 L 1.527344 26.148438 L 2.550781 25.402344 L 2.835938 24.765625 L 2.660156 24.046875 L -5.050781 15.050781 L -6.097656 13.496094 L -6.25 13.035156 L -6.386719 12.363281 L -6.230469 11.753906 L -5.683594 10.777344 L -4.304688 9.609375 L -3.683594 9.277344 L -3.097656 9.175781 L -2.496094 9.140625 L -1.910156 9.273438 L -1.402344 9.589844 L -0.136719 10.804688 L 6.058594 18.246094 L 6.394531 18.550781 L 6.972656 19.320312 L 7.582031 19.949219 L 8.285156 20.21875 L 8.941406 20.015625 L 9.378906 19.648438 L 9.777344 19.1875 L 10.839844 18.445312 L 11.265625 17.964844 L 11.589844 17.375 L 11.519531 16.6875 L 11.082031 16.265625 L 10.617188 15.714844 L 10.351562 15.308594 L 7.558594 12.160156 L 7.238281 11.644531 L 6.824219 11.246094 L 3.757812 7.496094 L 2.066406 5.78125 L 1.039062 5.035156 L 0.0117188 4.566406 L -1.21875 4.1875 L -1.765625 4.101562 L -2.363281 4.09375 L -3.503906 4.234375 L -4.136719 4.417969 L -4.65625 4.503906 L -5.859375 4.851562 L -6.90625 5.429688 L -7.367188 5.816406 Z M -8.140625 6.394531" transform="translate(268.067 266.226)"/></g></g></g><g fill="#FFC0CB"><g><g><path d="M -3.601562 1.804688 L -4.878906 2.546875 L -5.371094 2.773438 L -5.953125 3.152344 L -6.398438 3.660156 L -6.339844 4.34375 L -6.035156 4.863281 L -5.75 5.460938 L -5.175781 6.414062 L -4.964844 6.949219 L -4.613281 7.546875 L -4.597656 8.148438 L -5.054688 8.765625 L -5.613281 9.128906 L -6.226562 9.316406 L -8.851562 10.980469 L -10.839844 13.324219 L -11.070312 13.855469 L -11.21875 14.476562 L -11.378906 15.007812 L -11.515625 15.585938 L -11.621094 16.734375 L -11.523438 18.007812 L -11.296875 18.636719 L -11.230469 19.144531 L -10.128906 21.351562 L -9.785156 21.746094 L -9.394531 22.289062 L -8.554688 23.105469 L -7.570312 23.742188 L -6.46875 24.28125 L -4.726562 24.683594 L -3.539062 24.804688 L -2.308594 24.558594 L -1.757812 24.507812 L -1.226562 24.226562 L -0.59375 24.128906 L 0.214844 23.734375 L 1.050781 23.257812 L 1.59375 22.867188 L 3.230469 22.035156 L 3.804688 21.835938 L 5.394531 20.855469 L 5.992188 20.574219 L 6.511719 20.402344 L 7.015625 20 L 7.417969 19.410156 L 7.433594 18.859375 L 5.703125 15.65625 L 5.246094 14.539062 L 4.925781 14.0625 L 1.308594 7.164062 L 0.988281 6.6875 L -1.585938 1.757812 L -2.144531 1.410156 L -3.109375 1.578125 Z M -2.777344 13.003906 L -2.078125 13.042969 L -1.597656 13.367188 L -0.378906 15.476562 L -0.136719 16.0625 L 0.4375 17.152344 L 0.441406 17.796875 L 0.0234375 18.359375 L -2.78125 19.742188 L -3.441406 19.785156 L -4.019531 19.71875 L -4.546875 19.554688 L -5.097656 19.164062 L -5.429688 18.726562 L -5.875 18.011719 L -6.203125 17.265625 L -6.269531 16.691406 L -6.253906 16.136719 L -6.136719 15.53125 L -5.878906 14.984375 L -5.523438 14.628906 L -4.757812 14.085938 L -3.386719 13.394531 Z M -2.777344 13.003906" transform="translate(248.816 281.911)"/></g></g></g><g fill="#FFC0CB"><g><g><path d="M -1.894531 12.234375 L -2.46875 12.4375 L -3.0625 13.988281 L -3.171875 14.375 L -3.585938 14.457031 L -3.953125 14.128906 L -4.167969 13.800781 L -4.792969 13.246094 L -5.105469 12.90625 L -5.65625 12.890625 L -6.71875 14.226562 L -7.058594 14.535156 L -7.332031 14.863281 L -7.644531 15.167969 L -7.566406 15.734375 L -7.242188 15.976562 L -6.828125 16.234375 L -5.863281 16.96875 L -5.847656 17.363281 L -6.234375 17.589844 L -6.671875 17.707031 L -7.054688 17.929688 L -7.855469 18.238281 L -8 18.753906 L -7.808594 19.117188 L -7.695312 19.554688 L -7.445312 19.902344 L -7.3125 20.277344 L -7.074219 20.566406 L -6.9375 20.96875 L -6.664062 21.285156 L -6.132812 21.488281 L -5.789062 21.210938 L -5.042969 20.792969 L -4.699219 20.511719 L -4.332031 20.351562 L -3.941406 20.460938 L -3.96875 21.292969 L -3.820312 22.058594 L -3.84375 22.429688 L -3.378906 22.773438 L -1.246094 22.398438 L -0.875 22.265625 L -0.335938 22.191406 L -0.117188 21.753906 L -0.222656 21.34375 L -0.292969 20.992188 L -0.453125 20.625 L -0.683594 19.902344 L -0.414062 19.542969 L 0.445312 19.71875 L 0.910156 19.75 L 1.246094 19.902344 L 1.753906 19.988281 L 2.109375 19.617188 L 2.15625 19.207031 L 2.265625 18.820312 L 2.378906 17.972656 L 2.371094 17.605469 L 2.414062 17.199219 L 2.515625 16.753906 L 2.109375 16.402344 L 1.644531 16.367188 L 1.269531 16.316406 L 0.773438 16.289062 L 0.441406 16.320312 L -0.0273438 16.257812 L -0.214844 15.925781 L 0.0195312 15.542969 L 0.292969 15.21875 L 0.503906 14.871094 L 0.648438 14.507812 L 0.941406 14.113281 L 0.773438 13.5625 L 0.347656 13.402344 L 0.0351562 13.214844 L -0.808594 12.792969 L -1.5 12.375 Z M -1.894531 12.234375" transform="translate(214.447 296.474)"/></g></g></g><g clip-path="url(#a)"><path fill="#FFC0CB" d="M 187.378906 256.144531 C 186.207031 256.144531 185.035156 256.113281 183.863281 256.058594 C 182.691406 256 181.523438 255.914062 180.359375 255.796875 C 179.191406 255.683594 178.027344 255.539062 176.867188 255.367188 C 175.707031 255.195312 174.554688 254.996094 173.40625 254.765625 C 172.253906 254.539062 171.113281 254.28125 169.972656 253.996094 C 168.835938 253.710938 167.707031 253.398438 166.585938 253.058594 C 165.464844 252.71875 164.351562 252.351562 163.25 251.957031 C 162.144531 251.5625 161.050781 251.140625 159.96875 250.691406 C 158.886719 250.242188 157.8125 249.765625 156.753906 249.265625 C 155.695312 248.765625 154.648438 248.238281 153.613281 247.6875 C 152.582031 247.132812 151.5625 246.554688 150.554688 245.953125 C 149.550781 245.351562 148.558594 244.722656 147.585938 244.070312 C 146.609375 243.421875 145.652344 242.746094 144.710938 242.046875 C 143.769531 241.347656 142.84375 240.628906 141.941406 239.886719 C 141.035156 239.140625 140.144531 238.375 139.277344 237.589844 C 138.410156 236.800781 137.558594 235.992188 136.730469 235.164062 C 135.902344 234.335938 135.09375 233.488281 134.308594 232.617188 C 133.519531 231.75 132.753906 230.863281 132.011719 229.957031 C 131.265625 229.050781 130.546875 228.125 129.847656 227.183594 C 129.148438 226.242188 128.476562 225.285156 127.824219 224.3125 C 127.171875 223.335938 126.546875 222.347656 125.941406 221.339844 C 125.339844 220.335938 124.761719 219.316406 124.210938 218.28125 C 123.65625 217.25 123.128906 216.203125 122.628906 215.140625 C 122.128906 214.082031 121.652344 213.011719 121.203125 211.929688 C 120.757812 210.84375 120.335938 209.75 119.941406 208.648438 C 119.542969 207.542969 119.175781 206.429688 118.835938 205.308594 C 118.496094 204.1875 118.183594 203.058594 117.898438 201.921875 C 117.613281 200.785156 117.359375 199.640625 117.128906 198.492188 C 116.902344 197.34375 116.699219 196.1875 116.527344 195.027344 C 116.355469 193.867188 116.210938 192.707031 116.097656 191.539062 C 115.984375 190.371094 115.898438 189.203125 115.839844 188.03125 C 115.78125 186.863281 115.753906 185.691406 115.753906 184.519531 C 115.753906 183.347656 115.78125 182.175781 115.839844 181.003906 C 115.898438 179.832031 115.984375 178.664062 116.097656 177.496094 C 116.210938 176.332031 116.355469 175.167969 116.527344 174.007812 C 116.699219 172.847656 116.902344 171.695312 117.128906 170.542969 C 117.359375 169.394531 117.613281 168.25 117.898438 167.113281 C 118.183594 165.976562 118.496094 164.847656 118.835938 163.726562 C 119.175781 162.605469 119.542969 161.492188 119.941406 160.386719 C 120.335938 159.285156 120.757812 158.191406 121.203125 157.109375 C 121.652344 156.027344 122.128906 154.953125 122.628906 153.894531 C 123.128906 152.835938 123.65625 151.789062 124.210938 150.753906 C 124.761719 149.71875 125.339844 148.699219 125.941406 147.695312 C 126.546875 146.691406 127.171875 145.699219 127.824219 144.726562 C 128.476562 143.75 129.148438 142.792969 129.847656 141.851562 C 130.546875 140.910156 131.265625 139.984375 132.011719 139.078125 C 132.753906 138.171875 133.519531 137.285156 134.308594 136.417969 C 135.09375 135.550781 135.902344 134.699219 136.730469 133.871094 C 137.558594 133.042969 138.410156 132.234375 139.277344 131.449219 C 140.144531 130.660156 141.035156 129.894531 141.941406 129.152344 C 142.84375 128.40625 143.769531 127.6875 144.710938 126.988281 C 145.652344 126.289062 146.609375 125.617188 147.585938 124.964844 C 148.558594 124.3125 149.550781 123.6875 150.554688 123.082031 C 151.5625 122.480469 152.582031 121.902344 153.613281 121.351562 C 154.648438 120.796875 155.695312 120.269531 156.753906 119.769531 C 157.8125 119.269531 158.886719 118.792969 159.96875 118.34375 C 161.050781 117.898438 162.144531 117.476562 163.25 117.082031 C 164.351562 116.683594 165.464844 116.316406 166.585938 115.976562 C 167.707031 115.636719 168.835938 115.324219 169.972656 115.039062 C 171.113281 114.753906 172.253906 114.5 173.40625 114.269531 C 174.554688 114.039062 175.707031 113.839844 176.867188 113.667969 C 178.027344 113.496094 179.191406 113.351562 180.359375 113.238281 C 181.523438 113.125 182.691406 113.035156 183.863281 112.980469 C 185.035156 112.921875 186.207031 112.894531 187.378906 112.894531 C 188.550781 112.894531 189.722656 112.921875 190.890625 112.980469 C 192.0625 113.035156 193.230469 113.125 194.398438 113.238281 C 195.566406 113.351562 196.726562 113.496094 197.886719 113.667969 C 199.046875 113.839844 200.203125 114.039062 201.351562 114.269531 C 202.5 114.5 203.644531 114.753906 204.78125 115.039062 C 205.917969 115.324219 207.046875 115.636719 208.167969 115.976562 C 209.292969 116.316406 210.402344 116.683594 211.507812 117.082031 C 212.609375 117.476562 213.703125 117.898438 214.789062 118.34375 C 215.871094 118.792969 216.941406 119.269531 218 119.769531 C 219.0625 120.269531 220.109375 120.796875 221.140625 121.351562 C 222.175781 121.902344 223.195312 122.480469 224.199219 123.082031 C 225.207031 123.6875 226.195312 124.3125 227.171875 124.964844 C 228.144531 125.617188 229.101562 126.289062 230.042969 126.988281 C 230.988281 127.6875 231.910156 128.40625 232.816406 129.152344 C 233.722656 129.894531 234.609375 130.660156 235.476562 131.449219 C 236.347656 132.234375 237.195312 133.042969 238.023438 133.871094 C 238.851562 134.699219 239.660156 135.550781 240.449219 136.417969 C 241.234375 137.285156 242 138.171875 242.746094 139.078125 C 243.488281 139.984375 244.210938 140.910156 244.90625 141.851562 C 245.605469 142.792969 246.28125 143.75 246.933594 144.726562 C 247.582031 145.699219 248.210938 146.691406 248.8125 147.695312 C 249.414062 148.699219 249.992188 149.71875 250.546875 150.753906 C 251.097656 151.789062 251.625 152.835938 252.125 153.894531 C 252.628906 154.953125 253.101562 156.027344 253.550781 157.109375 C 254 158.191406 254.421875 159.285156 254.816406 160.386719 C 255.210938 161.492188 255.578125 162.605469 255.917969 163.726562 C 256.257812 164.847656 256.570312 165.976562 256.855469 167.113281 C 257.140625 168.25 257.398438 169.394531 257.625 170.542969 C 257.855469 171.695312 258.054688 172.847656 258.226562 174.007812 C 258.398438 175.167969 258.542969 176.332031 258.65625 177.496094 C 258.773438 178.664062 258.859375 179.832031 258.917969 181.003906 C 258.972656 182.175781 259.003906 183.347656 259.003906 184.519531 C 259 185.691406 258.972656 186.859375 258.914062 188.03125 C 258.855469 189.203125 258.765625 190.371094 258.652344 191.535156 C 258.535156 192.703125 258.390625 193.863281 258.214844 195.023438 C 258.042969 196.183594 257.84375 197.335938 257.613281 198.484375 C 257.382812 199.636719 257.125 200.777344 256.839844 201.914062 C 256.554688 203.050781 256.242188 204.179688 255.898438 205.300781 C 255.558594 206.421875 255.191406 207.535156 254.796875 208.636719 C 254.398438 209.738281 253.976562 210.832031 253.527344 211.914062 C 253.078125 212.996094 252.605469 214.066406 252.101562 215.128906 C 251.601562 216.1875 251.074219 217.230469 250.519531 218.265625 C 249.96875 219.296875 249.390625 220.316406 248.789062 221.324219 C 248.183594 222.328125 247.558594 223.316406 246.90625 224.292969 C 246.253906 225.265625 245.582031 226.222656 244.882812 227.164062 C 244.183594 228.105469 243.460938 229.027344 242.71875 229.933594 C 241.976562 230.839844 241.210938 231.726562 240.421875 232.59375 C 239.636719 233.464844 238.828125 234.3125 238 235.140625 C 237.171875 235.96875 236.324219 236.777344 235.453125 237.5625 C 234.585938 238.351562 233.699219 239.117188 232.792969 239.859375 C 231.886719 240.601562 230.964844 241.324219 230.023438 242.023438 C 229.082031 242.71875 228.125 243.394531 227.152344 244.046875 C 226.175781 244.699219 225.1875 245.324219 224.183594 245.925781 C 223.175781 246.53125 222.160156 247.109375 221.125 247.660156 C 220.09375 248.214844 219.046875 248.742188 217.988281 249.242188 C 216.925781 249.746094 215.855469 250.21875 214.773438 250.667969 C 213.691406 251.117188 212.597656 251.539062 211.496094 251.9375 C 210.394531 252.332031 209.28125 252.699219 208.160156 253.039062 C 207.039062 253.382812 205.910156 253.695312 204.773438 253.980469 C 203.636719 254.265625 202.496094 254.523438 201.34375 254.753906 C 200.195312 254.984375 199.042969 255.183594 197.882812 255.355469 C 196.722656 255.53125 195.5625 255.675781 194.394531 255.789062 C 193.230469 255.90625 192.0625 255.996094 190.890625 256.054688 C 189.722656 256.113281 188.550781 256.140625 187.378906 256.144531 Z M 187.378906 118.863281 C 186.304688 118.863281 185.230469 118.886719 184.15625 118.941406 C 183.082031 118.992188 182.011719 119.074219 180.941406 119.179688 C 179.875 119.285156 178.808594 119.414062 177.742188 119.574219 C 176.679688 119.730469 175.621094 119.914062 174.570312 120.125 C 173.515625 120.332031 172.46875 120.570312 171.425781 120.828125 C 170.382812 121.089844 169.347656 121.378906 168.320312 121.6875 C 167.289062 122 166.269531 122.339844 165.257812 122.699219 C 164.246094 123.0625 163.246094 123.449219 162.253906 123.859375 C 161.257812 124.269531 160.277344 124.707031 159.304688 125.164062 C 158.335938 125.625 157.375 126.109375 156.429688 126.613281 C 155.480469 127.121094 154.546875 127.652344 153.625 128.203125 C 152.703125 128.753906 151.792969 129.328125 150.902344 129.925781 C 150.007812 130.523438 149.128906 131.140625 148.265625 131.78125 C 147.402344 132.421875 146.554688 133.082031 145.726562 133.765625 C 144.894531 134.445312 144.082031 135.148438 143.285156 135.871094 C 142.488281 136.589844 141.710938 137.332031 140.953125 138.09375 C 140.191406 138.851562 139.453125 139.628906 138.730469 140.425781 C 138.007812 141.222656 137.304688 142.035156 136.625 142.867188 C 135.941406 143.695312 135.28125 144.542969 134.640625 145.40625 C 134.003906 146.269531 133.382812 147.148438 132.785156 148.042969 C 132.191406 148.933594 131.613281 149.84375 131.0625 150.765625 C 130.511719 151.6875 129.980469 152.621094 129.472656 153.566406 C 128.96875 154.515625 128.484375 155.476562 128.023438 156.445312 C 127.566406 157.417969 127.128906 158.398438 126.71875 159.394531 C 126.308594 160.386719 125.921875 161.386719 125.558594 162.398438 C 125.199219 163.410156 124.859375 164.429688 124.546875 165.460938 C 124.238281 166.488281 123.949219 167.523438 123.6875 168.566406 C 123.429688 169.605469 123.191406 170.65625 122.984375 171.710938 C 122.773438 172.761719 122.589844 173.820312 122.433594 174.882812 C 122.273438 175.949219 122.144531 177.011719 122.039062 178.082031 C 121.933594 179.152344 121.851562 180.222656 121.800781 181.296875 C 121.746094 182.371094 121.722656 183.445312 121.722656 184.519531 C 121.722656 185.59375 121.746094 186.667969 121.800781 187.738281 C 121.851562 188.8125 121.933594 189.882812 122.039062 190.953125 C 122.144531 192.023438 122.273438 193.089844 122.433594 194.152344 C 122.589844 195.214844 122.773438 196.273438 122.984375 197.328125 C 123.191406 198.382812 123.429688 199.429688 123.6875 200.472656 C 123.949219 201.511719 124.238281 202.550781 124.546875 203.578125 C 124.859375 204.605469 125.199219 205.625 125.558594 206.636719 C 125.921875 207.648438 126.308594 208.652344 126.71875 209.644531 C 127.128906 210.636719 127.566406 211.617188 128.023438 212.589844 C 128.484375 213.5625 128.96875 214.519531 129.472656 215.46875 C 129.980469 216.414062 130.511719 217.351562 131.0625 218.273438 C 131.613281 219.195312 132.191406 220.101562 132.785156 220.996094 C 133.382812 221.886719 134.003906 222.765625 134.640625 223.628906 C 135.28125 224.492188 135.941406 225.339844 136.625 226.171875 C 137.304688 227 138.007812 227.8125 138.730469 228.609375 C 139.453125 229.40625 140.191406 230.183594 140.953125 230.945312 C 141.710938 231.703125 142.488281 232.445312 143.285156 233.167969 C 144.082031 233.886719 144.894531 234.589844 145.726562 235.269531 C 146.554688 235.953125 147.402344 236.613281 148.265625 237.253906 C 149.128906 237.894531 150.007812 238.511719 150.902344 239.109375 C 151.792969 239.707031 152.703125 240.28125 153.625 240.832031 C 154.546875 241.386719 155.480469 241.914062 156.429688 242.421875 C 157.375 242.929688 158.335938 243.410156 159.304688 243.871094 C 160.277344 244.332031 161.257812 244.765625 162.253906 245.175781 C 163.246094 245.585938 164.246094 245.972656 165.257812 246.335938 C 166.269531 246.699219 167.289062 247.035156 168.320312 247.347656 C 169.347656 247.660156 170.382812 247.945312 171.425781 248.207031 C 172.46875 248.46875 173.515625 248.703125 174.570312 248.914062 C 175.621094 249.121094 176.679688 249.304688 177.742188 249.464844 C 178.808594 249.621094 179.875 249.753906 180.941406 249.859375 C 182.011719 249.964844 183.082031 250.042969 184.15625 250.09375 C 185.230469 250.148438 186.304688 250.175781 187.378906 250.175781 C 188.453125 250.175781 189.527344 250.148438 190.597656 250.09375 C 191.671875 250.042969 192.742188 249.964844 193.8125 249.859375 C 194.882812 249.753906 195.949219 249.621094 197.011719 249.464844 C 198.074219 249.304688 199.132812 249.121094 200.1875 248.914062 C 201.242188 248.703125 202.289062 248.46875 203.332031 248.207031 C 204.375 247.945312 205.410156 247.660156 206.4375 247.347656 C 207.464844 247.035156 208.484375 246.699219 209.496094 246.335938 C 210.507812 245.972656 211.511719 245.585938 212.503906 245.175781 C 213.496094 244.765625 214.476562 244.332031 215.449219 243.871094 C 216.421875 243.410156 217.378906 242.929688 218.328125 242.421875 C 219.277344 241.914062 220.210938 241.386719 221.132812 240.832031 C 222.054688 240.28125 222.960938 239.707031 223.855469 239.109375 C 224.746094 238.511719 225.625 237.894531 226.488281 237.253906 C 227.351562 236.613281 228.199219 235.953125 229.03125 235.269531 C 229.859375 234.589844 230.671875 233.886719 231.46875 233.167969 C 232.265625 232.445312 233.042969 231.703125 233.804688 230.945312 C 234.5625 230.183594 235.304688 229.40625 236.027344 228.609375 C 236.746094 227.8125 237.449219 227 238.132812 226.171875 C 238.8125 225.339844 239.472656 224.492188 240.113281 223.628906 C 240.753906 222.765625 241.371094 221.886719 241.96875 220.996094 C 242.566406 220.101562 243.140625 219.195312 243.691406 218.273438 C 244.246094 217.351562 244.773438 216.414062 245.28125 215.46875 C 245.789062 214.519531 246.269531 213.5625 246.730469 212.589844 C 247.191406 211.617188 247.625 210.636719 248.035156 209.644531 C 248.449219 208.652344 248.835938 207.648438 249.195312 206.636719 C 249.558594 205.625 249.894531 204.605469 250.207031 203.578125 C 250.519531 202.550781 250.804688 201.511719 251.066406 200.472656 C 251.328125 199.429688 251.5625 198.382812 251.773438 197.328125 C 251.980469 196.273438 252.164062 195.214844 252.324219 194.152344 C 252.480469 193.089844 252.613281 192.023438 252.71875 190.953125 C 252.824219 189.882812 252.902344 188.8125 252.953125 187.738281 C 253.007812 186.667969 253.035156 185.59375 253.035156 184.519531 C 253.03125 183.445312 253.003906 182.371094 252.953125 181.296875 C 252.898438 180.226562 252.816406 179.152344 252.710938 178.085938 C 252.605469 177.015625 252.472656 175.949219 252.3125 174.886719 C 252.15625 173.824219 251.972656 172.769531 251.761719 171.714844 C 251.550781 170.660156 251.3125 169.613281 251.050781 168.570312 C 250.789062 167.53125 250.503906 166.496094 250.191406 165.46875 C 249.878906 164.441406 249.539062 163.421875 249.175781 162.410156 C 248.816406 161.398438 248.429688 160.394531 248.015625 159.402344 C 247.605469 158.410156 247.167969 157.429688 246.710938 156.460938 C 246.25 155.488281 245.765625 154.53125 245.257812 153.582031 C 244.753906 152.636719 244.222656 151.703125 243.671875 150.78125 C 243.117188 149.859375 242.542969 148.953125 241.945312 148.058594 C 241.347656 147.167969 240.730469 146.289062 240.089844 145.425781 C 239.449219 144.5625 238.789062 143.714844 238.109375 142.886719 C 237.425781 142.054688 236.726562 141.242188 236.003906 140.445312 C 235.28125 139.652344 234.542969 138.875 233.78125 138.113281 C 233.023438 137.355469 232.246094 136.613281 231.449219 135.890625 C 230.652344 135.171875 229.839844 134.46875 229.007812 133.789062 C 228.179688 133.105469 227.332031 132.445312 226.46875 131.804688 C 225.609375 131.164062 224.730469 130.546875 223.835938 129.949219 C 222.945312 129.351562 222.035156 128.777344 221.117188 128.226562 C 220.195312 127.671875 219.261719 127.144531 218.3125 126.636719 C 217.367188 126.128906 216.40625 125.644531 215.4375 125.1875 C 214.464844 124.726562 213.484375 124.292969 212.492188 123.878906 C 211.5 123.46875 210.5 123.082031 209.488281 122.71875 C 208.476562 122.355469 207.457031 122.019531 206.429688 121.707031 C 205.402344 121.394531 204.367188 121.105469 203.324219 120.84375 C 202.28125 120.582031 201.234375 120.347656 200.179688 120.136719 C 199.128906 119.925781 198.070312 119.742188 197.007812 119.582031 C 195.945312 119.421875 194.878906 119.292969 193.8125 119.183594 C 192.742188 119.078125 191.671875 119 190.597656 118.945312 C 189.527344 118.890625 188.453125 118.863281 187.378906 118.863281 Z M 187.378906 118.863281"/></g><path fill="#FFC0CB" d="M 187.378906 229.285156 C 165.984375 229.285156 148.582031 214.554688 148.582031 196.457031 L 154.550781 196.457031 C 154.550781 211.265625 169.277344 223.316406 187.378906 223.316406 C 205.476562 223.316406 220.207031 211.265625 220.207031 196.457031 L 226.175781 196.457031 C 226.175781 214.554688 208.769531 229.285156 187.378906 229.285156 Z M 187.378906 229.285156"/><path fill="#FFC0CB" d="M 175.441406 175.566406 L 169.472656 175.566406 C 169.472656 168.980469 165.453125 163.628906 160.519531 163.628906 C 155.582031 163.628906 151.566406 168.980469 151.566406 175.566406 L 145.597656 175.566406 C 145.597656 165.691406 152.289062 157.660156 160.519531 157.660156 C 168.746094 157.660156 175.441406 165.691406 175.441406 175.566406 Z M 175.441406 175.566406"/><path fill="#FFC0CB" d="M 229.160156 175.566406 L 223.191406 175.566406 C 223.191406 168.980469 219.171875 163.628906 214.238281 163.628906 C 209.300781 163.628906 205.285156 168.980469 205.285156 175.566406 L 199.316406 175.566406 C 199.316406 165.691406 206.007812 157.660156 214.238281 157.660156 C 222.464844 157.660156 229.160156 165.691406 229.160156 175.566406 Z M 229.160156 175.566406"/></svg>