<svg xmlns="http://www.w3.org/2000/svg" width="375" viewBox="0 0 375 375" height="375" version="1.0"><defs><clipPath id="a"><path d="M 115.753906 112.894531 L 259.003906 112.894531 L 259.003906 256.144531 L 115.753906 256.144531 Z M 115.753906 112.894531"/></clipPath></defs><g fill="#FFF4E6"><g><g><path d="M -7.683594 -1.59375 L -9.671875 -1.929688 L -10.585938 -1.804688 L -11.046875 -1.039062 L -11.441406 0.476562 L -11.574219 1.613281 L -11.757812 2.222656 L -11.964844 3.40625 L -12.128906 3.925781 L -12.167969 4.59375 L -13.175781 9.328125 L -13.210938 9.964844 L -13.8125 12.511719 L -14.222656 13.347656 L -14.855469 13.589844 L -16.015625 13.421875 L -17.078125 13.054688 L -17.714844 13.019531 L -18.238281 12.886719 L -18.804688 13.109375 L -19.289062 13.6875 L -19.878906 16.484375 L -19.671875 17.136719 L -19.1875 17.632812 L -17.359375 17.996094 L -16.8125 18.167969 L -16.175781 18.203125 L -15.625 18.375 L -13.214844 18.734375 L -12.648438 18.96875 L -12.09375 19.109375 L -11.457031 19.144531 L -10.820312 19.332031 L -10.265625 19.320312 L -8.542969 19.757812 L -7.613281 19.851562 L -5.570312 20.382812 L -4.953125 20.199219 L -4.460938 19.589844 L -4.375 18.996094 L -4.019531 17.53125 L -3.898438 16.605469 L -4.058594 16.023438 L -4.527344 15.621094 L -5.128906 15.5625 L -7.917969 14.945312 L -8.421875 14.539062 L -8.628906 13.882812 L -8.378906 12.953125 L -8.273438 12.113281 L -8.117188 11.472656 L -8.027344 10.875 L -7.804688 10.0625 L -7.015625 5.652344 L -6.839844 5.074219 L -6.332031 2.691406 L -6.265625 2.058594 L -5.898438 0.355469 L -5.726562 -0.191406 L -5.980469 -0.917969 L -6.777344 -1.382812 Z M -7.683594 -1.59375" transform="translate(174.092 299.042)"/></g></g></g><g fill="#FFF4E6"><g><g><path d="M -16.167969 -7.300781 L -17.246094 -7.6875 L -17.742188 -7.976562 L -18.605469 -8.328125 L -19.4375 -8.535156 L -19.8125 -7.914062 L -19.90625 -7.195312 L -19.945312 -5.996094 L -19.84375 -4.238281 L -19.914062 -3.050781 L -19.808594 -1.816406 L -19.882812 1.148438 L -19.792969 1.683594 L -19.753906 2.328125 L -19.859375 3.003906 L -19.796875 3.527344 L -19.828125 4.039062 L -19.707031 5.3125 L -19.769531 5.972656 L -19.667969 10.601562 L -19.75 11.222656 L -19.667969 11.851562 L -19.722656 12.417969 L -19.632812 13.613281 L -19.386719 14.316406 L -18.605469 14.996094 L -17.589844 15.085938 L -16.886719 14.839844 L -16.433594 14.484375 L -15.996094 14.023438 L -15.574219 13.75 L -13.347656 11.714844 L -12.863281 11.4375 L -12.476562 10.953125 L -11.941406 10.566406 L -11.558594 10.144531 L -6.128906 5.523438 L -5.695312 4.996094 L -5.234375 4.707031 L -4.796875 4.242188 L -3.910156 3.585938 L -3.007812 2.671875 L -2.535156 2.421875 L -2.175781 1.992188 L -1.136719 1.140625 L -0.726562 0.664062 L -0.554688 -0.0820312 L -1.03125 -0.496094 L -2.125 -0.917969 L -2.648438 -1.21875 L -4.210938 -1.851562 L -4.929688 -1.941406 L -5.671875 -1.683594 L -6.570312 -0.996094 L -7.324219 -0.710938 L -8.035156 -0.664062 L -8.519531 -0.980469 L -9.722656 -1.386719 L -10.179688 -1.691406 L -12.882812 -2.867188 L -13.351562 -3.144531 L -13.992188 -3.332031 L -14.460938 -3.902344 L -14.785156 -4.574219 L -14.800781 -5.207031 L -14.742188 -5.773438 L -15.105469 -6.433594 L -15.617188 -6.988281 Z M -12.996094 2.320312 L -12.496094 2.675781 L -11.839844 2.902344 L -11.488281 3.292969 L -11.695312 3.824219 L -14.308594 6.210938 L -14.722656 6.324219 L -15.007812 5.933594 L -14.945312 2.335938 L -14.617188 1.890625 L -14.105469 1.855469 Z M -12.996094 2.320312" transform="translate(151.968 294.244)"/></g></g></g><g fill="#FFF4E6"><g><g><path d="M -3.136719 -2.53125 L -4.339844 -3.382812 L -4.75 -3.738281 L -5.332031 -4.113281 L -5.980469 -4.308594 L -6.582031 -3.972656 L -6.925781 -3.476562 L -7.351562 -2.972656 L -7.984375 -2.054688 L -8.378906 -1.640625 L -8.777344 -1.074219 L -9.324219 -0.808594 L -10.074219 -0.96875 L -10.632812 -1.328125 L -11.058594 -1.808594 L -13.660156 -3.507812 L -16.617188 -4.347656 L -17.195312 -4.335938 L -17.824219 -4.210938 L -18.371094 -4.140625 L -18.957031 -4.023438 L -20.042969 -3.644531 L -21.164062 -3.03125 L -21.640625 -2.5625 L -22.078125 -2.289062 L -23.628906 -0.375 L -23.847656 0.105469 L -24.179688 0.683594 L -24.574219 1.785156 L -24.746094 2.941406 L -24.777344 4.167969 L -24.421875 5.921875 L -24.042969 7.054688 L -23.308594 8.074219 L -23.035156 8.550781 L -22.558594 8.917969 L -22.210938 9.453125 L -21.511719 10.027344 L -20.734375 10.589844 L -20.152344 10.925781 L -18.71875 12.066406 L -18.296875 12.507812 L -16.75 13.550781 L -16.242188 13.976562 L -15.871094 14.378906 L -15.296875 14.667969 L -14.59375 14.792969 L -14.085938 14.578125 L -11.890625 11.675781 L -11.058594 10.796875 L -10.757812 10.308594 L -5.980469 4.160156 L -5.679688 3.671875 L -2.257812 -0.714844 L -2.171875 -1.371094 L -2.726562 -2.175781 Z M -12.984375 2.859375 L -12.730469 3.511719 L -12.828125 4.082031 L -14.242188 6.066406 L -14.675781 6.527344 L -15.429688 7.503906 L -16.015625 7.773438 L -16.699219 7.625 L -19.121094 5.644531 L -19.433594 5.0625 L -19.613281 4.507812 L -19.683594 3.960938 L -19.554688 3.300781 L -19.292969 2.816406 L -18.828125 2.113281 L -18.285156 1.507812 L -17.789062 1.207031 L -17.28125 0.992188 L -16.675781 0.847656 L -16.074219 0.855469 L -15.601562 1.03125 L -14.789062 1.503906 L -13.59375 2.464844 Z M -12.984375 2.859375" transform="translate(127.184 282.283)"/></g></g></g><g fill="#FFF4E6"><g><g><path d="M -4.15625 -6.65625 L -5.289062 -8.324219 L -6.007812 -8.898438 L -6.878906 -8.703125 L -8.25 -7.941406 L -9.164062 -7.25 L -9.730469 -6.964844 L -10.730469 -6.292969 L -11.21875 -6.054688 L -11.726562 -5.625 L -15.847656 -3.078125 L -16.332031 -2.664062 L -18.589844 -1.339844 L -19.476562 -1.058594 L -20.089844 -1.347656 L -20.769531 -2.304688 L -21.238281 -3.324219 L -21.652344 -3.808594 L -21.917969 -4.28125 L -22.472656 -4.535156 L -23.222656 -4.484375 L -25.648438 -2.980469 L -25.980469 -2.378906 L -26.003906 -1.6875 L -25.003906 -0.113281 L -24.75 0.402344 L -24.335938 0.886719 L -24.078125 1.402344 L -22.671875 3.390625 L -22.449219 3.964844 L -22.171875 4.460938 L -21.753906 4.949219 L -21.453125 5.539062 L -21.058594 5.929688 L -20.183594 7.476562 L -19.609375 8.214844 L -18.582031 10.054688 L -18.023438 10.378906 L -17.246094 10.3125 L -16.753906 9.964844 L -15.453125 9.207031 L -14.699219 8.65625 L -14.386719 8.140625 L -14.421875 7.519531 L -14.796875 7.046875 L -16.277344 4.601562 L -16.328125 3.957031 L -15.996094 3.355469 L -15.152344 2.890625 L -14.476562 2.390625 L -13.902344 2.058594 L -13.410156 1.710938 L -12.667969 1.3125 L -8.933594 -1.164062 L -8.394531 -1.4375 L -6.320312 -2.71875 L -5.820312 -3.105469 L -4.332031 -4.015625 L -3.816406 -4.273438 L -3.46875 -4.957031 L -3.683594 -5.855469 Z M -4.15625 -6.65625" transform="translate(97.672 254.657)"/></g></g></g><g fill="#FFF4E6"><g><g><path d="M -3.566406 -11.523438 L -4.699219 -13.964844 L -5.410156 -14.925781 L -7.421875 -17.0625 L -10.015625 -18.394531 L -10.652344 -18.585938 L -12.996094 -19.019531 L -13.605469 -19.03125 L -14.203125 -18.917969 L -14.71875 -18.933594 L -15.382812 -18.832031 L -17.421875 -18.285156 L -19.332031 -17.464844 L -20.304688 -16.875 L -20.824219 -16.441406 L -21.429688 -16.074219 L -22.1875 -15.238281 L -22.632812 -14.863281 L -22.988281 -14.324219 L -23.210938 -13.867188 L -23.59375 -13.320312 L -24.28125 -11.714844 L -24.6875 -9.953125 L -24.566406 -5.828125 L -24.132812 -4.480469 L -23.332031 -2.53125 L -23.023438 -2 L -22.65625 -1.492188 L -22.253906 -1.058594 L -21.59375 -0.078125 L -20.183594 1.058594 L -19.707031 1.335938 L -18.765625 2.03125 L -17.648438 2.503906 L -15.894531 2.980469 L -15.324219 3.066406 L -13.574219 3.066406 L -12.273438 2.871094 L -8.9375 1.847656 L -7.253906 0.917969 L -6.4375 0.15625 L -5.898438 -0.222656 L -5.484375 -0.683594 L -4.128906 -2.644531 L -3.636719 -3.707031 L -3.335938 -4.222656 L -2.980469 -6.507812 L -2.941406 -7.128906 L -3.0625 -9.789062 Z M -8.296875 -9 L -8.296875 -8.363281 L -8.175781 -7.832031 L -8.355469 -6.6875 L -8.816406 -5.542969 L -9.117188 -5.121094 L -9.386719 -4.613281 L -10.792969 -3.523438 L -12.164062 -2.890625 L -13.027344 -2.625 L -14.148438 -2.460938 L -14.71875 -2.453125 L -15.234375 -2.65625 L -15.804688 -2.746094 L -16.386719 -2.957031 L -16.902344 -3.257812 L -17.757812 -3.886719 L -18.191406 -4.308594 L -18.539062 -4.855469 L -19.101562 -6.125 L -19.488281 -7.515625 L -19.355469 -9.25 L -19.007812 -10.355469 L -18.265625 -11.34375 L -17.832031 -11.746094 L -17.324219 -12.113281 L -16.882812 -12.492188 L -15.699219 -13.027344 L -14.21875 -13.347656 L -12.964844 -13.492188 L -12.429688 -13.328125 L -11.917969 -13.21875 L -11.285156 -13.054688 L -10.300781 -12.410156 L -9.898438 -11.976562 L -9.484375 -11.609375 L -9.25 -11.121094 L -8.921875 -10.628906 Z M -8.296875 -9" transform="translate(85.786 235.474)"/></g></g></g><g fill="#FFF4E6"><g><g><path d="M -1.011719 -2.316406 L -0.222656 -2.503906 L 0.09375 -3.066406 L 0.171875 -3.664062 L 0.121094 -4.929688 L 0.214844 -6.101562 L 0.191406 -7.242188 L 0.300781 -7.8125 L 0.257812 -8.476562 L 0.472656 -14.425781 L 0.1875 -15.003906 L -0.734375 -15.363281 L -3.167969 -15.410156 L -4.078125 -15.164062 L -4.457031 -14.636719 L -4.414062 -14.003906 L -4.3125 -13.429688 L -4.421875 -12.800781 L -4.429688 -11.566406 L -4.566406 -10.96875 L -4.496094 -10.425781 L -4.589844 -9.253906 L -4.550781 -8.621094 L -4.808594 -8.027344 L -5.417969 -7.804688 L -15.605469 -8.148438 L -16.328125 -8.109375 L -17.527344 -8.207031 L -19.242188 -8.167969 L -19.8125 -8.214844 L -20.484375 -7.9375 L -20.863281 -7.347656 L -20.898438 -6.175781 L -20.796875 -5.570312 L -20.953125 -4.371094 L -20.878906 -3.796875 L -20.660156 -3.160156 L -20.007812 -2.867188 L -15.800781 -2.738281 L -15.230469 -2.660156 L -14.628906 -2.703125 L -13.519531 -2.578125 L -12.855469 -2.589844 L -12.28125 -2.632812 Z M -1.011719 -2.316406" transform="translate(75.501 192.122)"/></g></g></g><g fill="#FFF4E6"><g><g><path d="M 3.492188 -11.546875 L 3.917969 -14.203125 L 3.867188 -15.398438 L 3.394531 -18.296875 L 1.992188 -20.847656 L 1.570312 -21.367188 L -0.132812 -23.035156 L -0.628906 -23.386719 L -1.1875 -23.628906 L -1.605469 -23.925781 L -2.210938 -24.214844 L -4.207031 -24.902344 L -6.25 -25.292969 L -7.386719 -25.347656 L -8.058594 -25.277344 L -8.765625 -25.3125 L -9.863281 -25.042969 L -10.441406 -24.980469 L -11.035156 -24.734375 L -11.476562 -24.480469 L -12.101562 -24.242188 L -13.570312 -23.296875 L -14.894531 -22.0625 L -17.101562 -18.574219 L -17.496094 -17.21875 L -17.921875 -15.152344 L -17.960938 -14.542969 L -17.941406 -13.914062 L -17.851562 -13.328125 L -17.855469 -12.148438 L -17.320312 -10.417969 L -17.082031 -9.917969 L -16.691406 -8.816406 L -16.027344 -7.800781 L -14.839844 -6.425781 L -14.417969 -6.03125 L -12.964844 -5.050781 L -11.78125 -4.484375 L -8.441406 -3.46875 L -6.523438 -3.300781 L -5.421875 -3.472656 L -4.765625 -3.484375 L -4.164062 -3.632812 L -1.941406 -4.503906 L -0.9375 -5.105469 L -0.402344 -5.367188 L 1.171875 -7.0625 L 1.550781 -7.554688 L 2.9375 -9.828125 Z M -1.839844 -12.101562 L -2.199219 -11.574219 L -2.394531 -11.066406 L -3.183594 -10.21875 L -4.207031 -9.527344 L -4.691406 -9.34375 L -5.199219 -9.078125 L -6.972656 -8.960938 L -8.464844 -9.203125 L -9.328125 -9.464844 L -10.347656 -9.953125 L -10.824219 -10.269531 L -11.140625 -10.726562 L -11.5625 -11.121094 L -11.925781 -11.621094 L -12.1875 -12.15625 L -12.542969 -13.15625 L -12.664062 -13.75 L -12.648438 -14.398438 L -12.40625 -15.765625 L -11.945312 -17.136719 L -10.867188 -18.496094 L -9.957031 -19.21875 L -8.792969 -19.621094 L -8.207031 -19.714844 L -7.578125 -19.734375 L -7.003906 -19.796875 L -5.722656 -19.582031 L -4.316406 -19.019531 L -3.195312 -18.4375 L -2.84375 -18.003906 L -2.480469 -17.625 L -2.050781 -17.136719 L -1.59375 -16.050781 L -1.5 -15.464844 L -1.363281 -14.929688 L -1.445312 -14.390625 L -1.449219 -13.800781 Z M -1.839844 -12.101562" transform="translate(76.388 170.175)"/></g></g></g><g fill="#FFF4E6"><g><g><path d="M 5.441406 -8.90625 L 6.933594 -11.515625 L 7.585938 -13.742188 L 7.707031 -16.132812 L 7.542969 -17.300781 L 7.347656 -17.929688 L 7.257812 -18.5 L 7.074219 -19.023438 L 6.777344 -19.539062 L 6.441406 -20.042969 L 6.257812 -20.566406 L 5.015625 -21.96875 L 4.144531 -22.742188 L 3.714844 -23.023438 L 3.304688 -23.398438 L 2.78125 -23.695312 L 2.316406 -24.03125 L 1.296875 -24.546875 L 0.703125 -24.539062 L 0.15625 -24.191406 L -0.183594 -23.660156 L -0.574219 -23.15625 L -2.511719 -19.589844 L -3.511719 -18.082031 L -4 -17.046875 L -4.039062 -16.375 L -3.675781 -15.855469 L -1.199219 -14.4375 L -0.644531 -14.433594 L -0.0898438 -14.738281 L 0.394531 -15.464844 L 1.039062 -16.832031 L 1.382812 -17.253906 L 1.792969 -17.542969 L 2.28125 -17.367188 L 2.574219 -16.851562 L 2.792969 -16.207031 L 2.871094 -15.675781 L 2.71875 -14.621094 L 2.371094 -13.46875 L 2.007812 -12.777344 L 1.089844 -11.535156 L -0.289062 -10.453125 L -1.46875 -10.089844 L -1.996094 -10.011719 L -3.222656 -10.050781 L -4.097656 -10.277344 L -5.007812 -10.625 L -6.535156 -11.464844 L -7.449219 -12.230469 L -8.148438 -13.183594 L -8.914062 -14.695312 L -9.042969 -15.980469 L -9.023438 -16.558594 L -8.792969 -17.085938 L -8.746094 -17.648438 L -7.890625 -19.269531 L -7.074219 -20.085938 L -6.582031 -20.460938 L -5.960938 -20.765625 L -5.441406 -20.882812 L -4.804688 -20.96875 L -4.046875 -21.261719 L -3.507812 -21.785156 L -3.015625 -22.578125 L -2.671875 -23.421875 L -1.878906 -24.628906 L -1.792969 -25.445312 L -2.144531 -25.855469 L -3.425781 -26.105469 L -4.03125 -26.136719 L -6.140625 -25.960938 L -6.9375 -25.65625 L -7.570312 -25.460938 L -8.105469 -25.25 L -10.117188 -23.972656 L -10.535156 -23.484375 L -11.574219 -22.453125 L -13.070312 -20.085938 L -13.339844 -19.546875 L -13.4375 -19.015625 L -13.695312 -18.503906 L -14.117188 -16.078125 L -14.050781 -14.132812 L -13.6875 -12.402344 L -13.464844 -11.824219 L -13.296875 -11.210938 L -13.070312 -10.699219 L -11.664062 -8.613281 L -9.351562 -6.664062 L -8.53125 -6.160156 L -6.628906 -5.246094 L -3.757812 -4.574219 L -2.601562 -4.535156 L -1.371094 -4.628906 L 0.324219 -5.046875 L 1.417969 -5.5625 L 3.492188 -6.765625 L 3.875 -7.136719 L 4.988281 -8.472656 Z M 5.441406 -8.90625" transform="translate(84.777 141.794)"/></g></g></g><g fill="#FFF4E6"><g><g><path d="M 7.765625 -6.417969 L 8.644531 -7.242188 L 8.863281 -7.820312 L 8.722656 -8.449219 L 6.800781 -10.722656 L 6.15625 -10.925781 L 5.4375 -10.75 L 4.953125 -10.339844 L 4.25 -10.058594 L 3.527344 -10.351562 L 3.226562 -10.847656 L 1.066406 -13.351562 L 0.683594 -13.894531 L -0.808594 -15.46875 L -2.675781 -17.867188 L -2.964844 -18.527344 L -2.632812 -19.164062 L -2.234375 -19.621094 L -1.90625 -20.210938 L -1.988281 -20.773438 L -3.890625 -23.066406 L -4.535156 -23.265625 L -5.160156 -23.171875 L -7.9375 -20.820312 L -8.386719 -20.515625 L -8.769531 -20.035156 L -10.652344 -18.441406 L -11.144531 -18.140625 L -11.671875 -17.695312 L -11.9375 -17.078125 L -11.703125 -16.332031 L -10.195312 -14.691406 L -9.871094 -14.21875 L -9.230469 -13.972656 L -8.511719 -14.148438 L -8.054688 -14.535156 L -7.382812 -14.628906 L -6.652344 -14.183594 L -0.617188 -7.199219 L -0.289062 -6.296875 L -1.414062 -4.554688 L -1.316406 -3.929688 L 0.402344 -1.757812 L 1.15625 -1.332031 L 1.789062 -1.515625 L 2.226562 -1.882812 L 2.621094 -2.300781 L 3.367188 -2.769531 L 4.058594 -3.398438 L 4.476562 -3.832031 L 5.472656 -4.515625 L 6.085938 -5.191406 L 7.207031 -6.144531 Z M 7.765625 -6.417969" transform="translate(110.15 106.327)"/></g></g></g><g fill="#FFF4E6"><g><g><path d="M 15.425781 -8.773438 L 16.371094 -8.730469 L 17.15625 -9.042969 L 17.640625 -9.539062 L 17.625 -10.210938 L 12.53125 -19.933594 L 12.210938 -20.34375 L 10.8125 -22.96875 L 10.554688 -23.648438 L 8.515625 -27.300781 L 7.96875 -27.6875 L 7.28125 -27.699219 L 4.003906 -25.921875 L 3.652344 -25.363281 L 3.65625 -24.652344 L 3.925781 -24.078125 L 4.234375 -23.695312 L 4.746094 -22.539062 L 5.109375 -21.984375 L 7.578125 -17.203125 L 7.660156 -16.664062 L 7.164062 -16.640625 L 4.277344 -17.523438 L 3.222656 -17.714844 L -4.816406 -20.21875 L -5.382812 -20.324219 L -6.164062 -20.320312 L -7.058594 -20.082031 L -7.527344 -19.492188 L -7.5 -18.863281 L -3.226562 -10.816406 L -3.011719 -10.351562 L -2.378906 -9.289062 L -2.21875 -8.796875 L 0.144531 -4.46875 L 0.359375 -3.9375 L 1.597656 -1.734375 L 2.105469 -1.355469 L 2.761719 -1.464844 L 3.878906 -1.992188 L 4.433594 -2.355469 L 5.511719 -2.824219 L 6.054688 -3.148438 L 6.445312 -3.695312 L 6.273438 -4.660156 L 2.734375 -11.394531 L 2.503906 -11.953125 L 2.449219 -12.503906 L 2.867188 -12.550781 L 3.449219 -12.285156 L 6.296875 -11.480469 L 6.851562 -11.265625 L 7.457031 -11.214844 L 13.746094 -9.308594 L 14.84375 -8.90625 Z M 15.425781 -8.773438" transform="translate(125.206 93.782)"/></g></g></g><g fill="#FFF4E6"><g><g><path d="M 2.382812 -12.152344 L 2.964844 -12.328125 L 3.617188 -13.855469 L 3.742188 -14.238281 L 4.160156 -14.300781 L 4.511719 -13.957031 L 4.714844 -13.625 L 5.320312 -13.046875 L 5.613281 -12.695312 L 6.167969 -12.65625 L 7.28125 -13.945312 L 7.632812 -14.242188 L 7.921875 -14.558594 L 8.242188 -14.847656 L 8.1875 -15.417969 L 7.875 -15.675781 L 7.46875 -15.949219 L 6.53125 -16.722656 L 6.535156 -17.117188 L 6.929688 -17.328125 L 7.371094 -17.425781 L 7.765625 -17.636719 L 8.574219 -17.910156 L 8.742188 -18.421875 L 8.566406 -18.789062 L 8.46875 -19.230469 L 8.234375 -19.589844 L 8.117188 -19.96875 L 7.890625 -20.269531 L 7.765625 -20.675781 L 7.503906 -21.003906 L 6.984375 -21.226562 L 6.628906 -20.960938 L 5.867188 -20.574219 L 5.511719 -20.308594 L 5.136719 -20.164062 L 4.753906 -20.289062 L 4.8125 -21.117188 L 4.699219 -21.890625 L 4.734375 -22.261719 L 4.285156 -22.617188 L 2.140625 -22.328125 L 1.761719 -22.210938 L 1.222656 -22.160156 L 0.980469 -21.730469 L 1.074219 -21.320312 L 1.128906 -20.960938 L 1.273438 -20.589844 L 1.472656 -19.859375 L 1.191406 -19.511719 L 0.339844 -19.71875 L -0.125 -19.773438 L -0.453125 -19.9375 L -0.953125 -20.042969 L -1.328125 -19.683594 L -1.386719 -19.28125 L -1.511719 -18.894531 L -1.660156 -18.054688 L -1.667969 -17.6875 L -1.726562 -17.28125 L -1.84375 -16.839844 L -1.457031 -16.472656 L -0.992188 -16.421875 L -0.617188 -16.355469 L -0.125 -16.308594 L 0.207031 -16.324219 L 0.675781 -16.242188 L 0.847656 -15.90625 L 0.601562 -15.53125 L 0.3125 -15.214844 L 0.0898438 -14.878906 L -0.0703125 -14.519531 L -0.378906 -14.140625 L -0.234375 -13.585938 L 0.1875 -13.40625 L 0.492188 -13.207031 L 1.320312 -12.753906 L 1.992188 -12.304688 Z M 2.382812 -12.152344" transform="translate(165.348 77.475)"/></g></g></g><g fill="#FFF4E6"><g><g><path d="M 7.726562 1.371094 L 9.722656 1.648438 L 10.632812 1.5 L 11.070312 0.71875 L 11.421875 -0.808594 L 11.523438 -1.949219 L 11.6875 -2.5625 L 11.859375 -3.753906 L 12.007812 -4.277344 L 12.03125 -4.941406 L 12.898438 -9.707031 L 12.917969 -10.34375 L 13.441406 -12.90625 L 13.832031 -13.757812 L 14.453125 -14.015625 L 15.621094 -13.878906 L 16.691406 -13.546875 L 17.328125 -13.527344 L 17.859375 -13.410156 L 18.417969 -13.648438 L 18.882812 -14.242188 L 19.390625 -17.050781 L 19.164062 -17.699219 L 18.667969 -18.179688 L 16.828125 -18.492188 L 16.277344 -18.648438 L 15.640625 -18.664062 L 15.085938 -18.820312 L 12.664062 -19.109375 L 12.09375 -19.328125 L 11.535156 -19.453125 L 10.894531 -19.46875 L 10.253906 -19.640625 L 9.699219 -19.609375 L 7.964844 -19.996094 L 7.03125 -20.0625 L 4.976562 -20.535156 L 4.363281 -20.332031 L 3.890625 -19.710938 L 3.820312 -19.113281 L 3.511719 -17.640625 L 3.414062 -16.710938 L 3.589844 -16.132812 L 4.074219 -15.746094 L 4.675781 -15.707031 L 7.484375 -15.167969 L 7.996094 -14.777344 L 8.222656 -14.128906 L 8 -13.191406 L 7.917969 -12.351562 L 7.78125 -11.703125 L 7.707031 -11.105469 L 7.507812 -10.285156 L 6.847656 -5.851562 L 6.6875 -5.269531 L 6.25 -2.875 L 6.203125 -2.242188 L 5.882812 -0.527344 L 5.730469 0.0273438 L 6.003906 0.742188 L 6.8125 1.1875 Z M 7.726562 1.371094" transform="translate(198.26 75.539)"/></g></g></g><g fill="#FFF4E6"><g><g><path d="M 16.371094 6.832031 L 17.460938 7.183594 L 17.96875 7.457031 L 18.839844 7.785156 L 19.675781 7.96875 L 20.035156 7.335938 L 20.105469 6.617188 L 20.113281 5.414062 L 19.960938 3.660156 L 19.996094 2.472656 L 19.851562 1.242188 L 19.84375 -1.722656 L 19.734375 -2.253906 L 19.675781 -2.898438 L 19.761719 -3.578125 L 19.683594 -4.097656 L 19.703125 -4.613281 L 19.542969 -5.882812 L 19.589844 -6.546875 L 19.351562 -11.167969 L 19.414062 -11.789062 L 19.316406 -12.417969 L 19.355469 -12.988281 L 19.230469 -14.175781 L 18.964844 -14.871094 L 18.160156 -15.53125 L 17.144531 -15.589844 L 16.449219 -15.324219 L 16.003906 -14.957031 L 15.582031 -14.480469 L 15.167969 -14.195312 L 13.003906 -12.097656 L 12.523438 -11.808594 L 12.15625 -11.308594 L 11.632812 -10.90625 L 11.257812 -10.476562 L 5.964844 -5.699219 L 5.546875 -5.15625 L 5.097656 -4.855469 L 4.671875 -4.378906 L 3.804688 -3.699219 L 2.929688 -2.757812 L 2.460938 -2.496094 L 2.117188 -2.054688 L 1.101562 -1.171875 L 0.707031 -0.683594 L 0.558594 0.0664062 L 1.042969 0.464844 L 2.152344 0.855469 L 2.683594 1.140625 L 4.261719 1.730469 L 4.984375 1.796875 L 5.71875 1.515625 L 6.597656 0.804688 L 7.34375 0.496094 L 8.050781 0.433594 L 8.546875 0.734375 L 9.757812 1.105469 L 10.226562 1.394531 L 12.960938 2.492188 L 13.4375 2.753906 L 14.082031 2.921875 L 14.566406 3.480469 L 14.910156 4.144531 L 14.945312 4.777344 L 14.902344 5.34375 L 15.289062 5.992188 L 15.8125 6.535156 Z M 12.921875 -2.695312 L 12.414062 -3.035156 L 11.75 -3.246094 L 11.386719 -3.625 L 11.578125 -4.164062 L 14.125 -6.625 L 14.53125 -6.75 L 14.828125 -6.363281 L 14.871094 -2.769531 L 14.554688 -2.3125 L 14.046875 -2.265625 Z M 12.921875 -2.695312" transform="translate(220.521 79.693)"/></g></g></g><g fill="#FFF4E6"><g><g><path d="M 3.207031 2.441406 L 4.4375 3.257812 L 4.855469 3.597656 L 5.449219 3.957031 L 6.101562 4.132812 L 6.691406 3.78125 L 7.023438 3.277344 L 7.433594 2.757812 L 8.039062 1.820312 L 8.425781 1.394531 L 8.804688 0.816406 L 9.34375 0.539062 L 10.097656 0.675781 L 10.667969 1.015625 L 11.109375 1.484375 L 13.753906 3.109375 L 16.738281 3.863281 L 17.316406 3.835938 L 17.9375 3.695312 L 18.484375 3.605469 L 19.066406 3.472656 L 20.140625 3.0625 L 21.246094 2.414062 L 21.707031 1.933594 L 22.132812 1.648438 L 23.632812 -0.3125 L 23.832031 -0.796875 L 24.148438 -1.382812 L 24.511719 -2.496094 L 24.648438 -3.660156 L 24.648438 -4.886719 L 24.242188 -6.628906 L 23.828125 -7.746094 L 23.066406 -8.746094 L 22.777344 -9.21875 L 22.289062 -9.570312 L 21.925781 -10.09375 L 21.214844 -10.648438 L 20.417969 -11.1875 L 19.828125 -11.503906 L 18.363281 -12.605469 L 17.929688 -13.03125 L 16.347656 -14.03125 L 15.832031 -14.441406 L 15.445312 -14.832031 L 14.863281 -15.105469 L 14.160156 -15.210938 L 13.65625 -14.980469 L 11.542969 -12.015625 L 10.742188 -11.113281 L 10.453125 -10.617188 L 5.855469 -4.332031 L 5.570312 -3.835938 L 2.277344 0.648438 L 2.210938 1.304688 L 2.789062 2.097656 Z M 12.898438 -3.234375 L 12.625 -3.878906 L 12.703125 -4.453125 L 14.0625 -6.476562 L 14.480469 -6.953125 L 15.207031 -7.949219 L 15.785156 -8.234375 L 16.472656 -8.109375 L 18.949219 -6.199219 L 19.277344 -5.625 L 19.472656 -5.074219 L 19.558594 -4.53125 L 19.449219 -3.867188 L 19.203125 -3.375 L 18.757812 -2.660156 L 18.234375 -2.035156 L 17.746094 -1.722656 L 17.242188 -1.492188 L 16.644531 -1.332031 L 16.042969 -1.324219 L 15.566406 -1.484375 L 14.742188 -1.933594 L 13.515625 -2.859375 Z M 12.898438 -3.234375" transform="translate(245.635 90.93)"/></g></g></g><g fill="#FFF4E6"><g><g><path d="M 4.347656 6.535156 L 5.527344 8.167969 L 6.265625 8.722656 L 7.128906 8.5 L 8.476562 7.699219 L 9.371094 6.984375 L 9.929688 6.679688 L 10.90625 5.980469 L 11.390625 5.726562 L 11.886719 5.28125 L 15.929688 2.617188 L 16.402344 2.191406 L 18.617188 0.796875 L 19.5 0.492188 L 20.121094 0.761719 L 20.828125 1.699219 L 21.324219 2.707031 L 21.753906 3.179688 L 22.03125 3.644531 L 22.59375 3.882812 L 23.34375 3.808594 L 25.726562 2.234375 L 26.039062 1.625 L 26.042969 0.929688 L 24.996094 -0.613281 L 24.726562 -1.121094 L 24.296875 -1.59375 L 24.027344 -2.097656 L 22.5625 -4.046875 L 22.328125 -4.613281 L 22.03125 -5.105469 L 21.601562 -5.578125 L 21.28125 -6.15625 L 20.878906 -6.539062 L 19.960938 -8.058594 L 19.363281 -8.78125 L 18.28125 -10.589844 L 17.714844 -10.894531 L 16.9375 -10.808594 L 16.457031 -10.445312 L 15.179688 -9.652344 L 14.441406 -9.082031 L 14.144531 -8.554688 L 14.199219 -7.9375 L 14.585938 -7.472656 L 16.136719 -5.070312 L 16.207031 -4.429688 L 15.894531 -3.820312 L 15.0625 -3.332031 L 14.398438 -2.808594 L 13.835938 -2.464844 L 13.355469 -2.101562 L 12.621094 -1.679688 L 8.960938 0.90625 L 8.429688 1.191406 L 6.398438 2.53125 L 5.90625 2.9375 L 4.445312 3.890625 L 3.941406 4.160156 L 3.609375 4.855469 L 3.851562 5.746094 Z M 4.347656 6.535156" transform="translate(275.935 117.689)"/></g></g></g><g fill="#FFF4E6"><g><g><path d="M 3.902344 11.414062 L 5.101562 13.824219 L 5.84375 14.761719 L 7.914062 16.839844 L 10.542969 18.097656 L 11.1875 18.269531 L 13.542969 18.632812 L 14.152344 18.628906 L 14.746094 18.5 L 15.261719 18.496094 L 15.921875 18.375 L 17.945312 17.773438 L 19.832031 16.898438 L 20.785156 16.277344 L 21.292969 15.828125 L 21.886719 15.445312 L 22.621094 14.585938 L 23.054688 14.199219 L 23.394531 13.652344 L 23.601562 13.1875 L 23.972656 12.628906 L 24.609375 11.007812 L 24.96875 9.230469 L 24.726562 5.109375 L 24.253906 3.777344 L 23.398438 1.851562 L 23.070312 1.332031 L 22.691406 0.835938 L 22.273438 0.414062 L 21.589844 -0.550781 L 20.144531 -1.644531 L 19.660156 -1.910156 L 18.699219 -2.574219 L 17.570312 -3.015625 L 15.800781 -3.4375 L 15.226562 -3.511719 L 13.480469 -3.460938 L 12.183594 -3.226562 L 8.878906 -2.105469 L 7.226562 -1.125 L 6.429688 -0.34375 L 5.902344 0.0507812 L 5.503906 0.523438 L 4.203125 2.523438 L 3.742188 3.601562 L 3.457031 4.125 L 3.167969 6.421875 L 3.144531 7.039062 L 3.347656 9.695312 Z M 8.550781 8.753906 L 8.535156 8.117188 L 8.402344 7.589844 L 8.546875 6.441406 L 8.976562 5.285156 L 9.261719 4.855469 L 9.519531 4.339844 L 10.890625 3.210938 L 12.242188 2.535156 L 13.097656 2.246094 L 14.210938 2.046875 L 14.78125 2.027344 L 15.304688 2.214844 L 15.878906 2.285156 L 16.464844 2.480469 L 16.992188 2.765625 L 17.863281 3.367188 L 18.308594 3.777344 L 18.671875 4.316406 L 19.273438 5.566406 L 19.699219 6.949219 L 19.617188 8.683594 L 19.300781 9.800781 L 18.589844 10.808594 L 18.167969 11.226562 L 17.667969 11.605469 L 17.238281 11.996094 L 16.070312 12.566406 L 14.601562 12.929688 L 13.351562 13.113281 L 12.8125 12.960938 L 12.296875 12.867188 L 11.660156 12.722656 L 10.65625 12.105469 L 10.238281 11.683594 L 9.816406 11.332031 L 9.570312 10.847656 L 9.226562 10.363281 Z M 8.550781 8.753906" transform="translate(288.381 136.519)"/></g></g></g><g fill="#FFF4E6"><g><g><path d="M 1.078125 2.285156 L 0.296875 2.496094 L -0.00390625 3.066406 L -0.0664062 3.667969 L 0.0234375 4.929688 L -0.0390625 6.105469 L 0.0195312 7.246094 L -0.0742188 7.816406 L -0.0117188 8.480469 L -0.0507812 14.433594 L 0.246094 15.003906 L 1.179688 15.335938 L 3.613281 15.308594 L 4.515625 15.039062 L 4.878906 14.5 L 4.820312 13.867188 L 4.699219 13.296875 L 4.792969 12.664062 L 4.761719 11.433594 L 4.882812 10.832031 L 4.792969 10.289062 L 4.855469 9.117188 L 4.796875 8.488281 L 5.039062 7.886719 L 5.640625 7.644531 L 15.832031 7.691406 L 16.554688 7.632812 L 17.757812 7.695312 L 19.472656 7.605469 L 20.042969 7.636719 L 20.707031 7.339844 L 21.066406 6.738281 L 21.070312 5.566406 L 20.949219 4.964844 L 21.070312 3.761719 L 20.980469 3.191406 L 20.742188 2.558594 L 20.082031 2.285156 L 15.871094 2.28125 L 15.300781 2.21875 L 14.699219 2.277344 L 13.585938 2.1875 L 12.925781 2.214844 L 12.355469 2.273438 Z M 1.078125 2.285156" transform="translate(299.91 179.554)"/></g></g></g><g fill="#FFF4E6"><g><g><path d="M -3.152344 11.644531 L -3.507812 14.308594 L -3.417969 15.503906 L -2.863281 18.386719 L -1.386719 20.898438 L -0.949219 21.402344 L 0.800781 23.019531 L 1.308594 23.355469 L 1.871094 23.582031 L 2.296875 23.871094 L 2.914062 24.140625 L 4.929688 24.769531 L 6.980469 25.101562 L 8.121094 25.121094 L 8.789062 25.035156 L 9.496094 25.046875 L 10.585938 24.746094 L 11.164062 24.667969 L 11.75 24.40625 L 12.183594 24.136719 L 12.800781 23.878906 L 14.238281 22.890625 L 15.527344 21.621094 L 17.632812 18.070312 L 17.988281 16.703125 L 18.355469 14.628906 L 18.375 14.015625 L 18.339844 13.386719 L 18.230469 12.804688 L 18.199219 11.625 L 17.617188 9.910156 L 17.363281 9.417969 L 16.941406 8.328125 L 16.25 7.332031 L 15.019531 5.992188 L 14.585938 5.609375 L 13.105469 4.675781 L 11.90625 4.140625 L 8.539062 3.222656 L 6.617188 3.109375 L 5.519531 3.3125 L 4.863281 3.34375 L 4.269531 3.511719 L 2.070312 4.445312 L 1.085938 5.078125 L 0.558594 5.351562 L -0.964844 7.09375 L -1.332031 7.59375 L -2.652344 9.910156 Z M 2.191406 12.042969 L 2.53125 11.503906 L 2.714844 10.992188 L 3.476562 10.121094 L 4.480469 9.402344 L 4.960938 9.207031 L 5.460938 8.921875 L 7.230469 8.753906 L 8.726562 8.953125 L 9.597656 9.191406 L 10.632812 9.652344 L 11.117188 9.949219 L 11.445312 10.398438 L 11.878906 10.78125 L 12.257812 11.269531 L 12.535156 11.800781 L 12.921875 12.785156 L 13.058594 13.375 L 13.058594 14.023438 L 12.859375 15.398438 L 12.4375 16.78125 L 11.398438 18.171875 L 10.511719 18.921875 L 9.359375 19.359375 L 8.777344 19.46875 L 8.148438 19.507812 L 7.574219 19.585938 L 6.289062 19.40625 L 4.867188 18.882812 L 3.730469 18.335938 L 3.367188 17.914062 L 2.988281 17.546875 L 2.546875 17.070312 L 2.058594 15.996094 L 1.949219 15.414062 L 1.796875 14.882812 L 1.863281 14.34375 L 1.847656 13.753906 Z M 2.191406 12.042969" transform="translate(299.67 201.518)"/></g></g></g><g fill="#FFF4E6"><g><g><path d="M -5.179688 9.0625 L -6.597656 11.714844 L -7.183594 13.957031 L -7.234375 16.351562 L -7.035156 17.511719 L -6.824219 18.136719 L -6.71875 18.703125 L -6.519531 19.222656 L -6.207031 19.726562 L -5.859375 20.222656 L -5.65625 20.738281 L -4.375 22.105469 L -3.480469 22.855469 L -3.046875 23.121094 L -2.625 23.484375 L -2.09375 23.765625 L -1.617188 24.089844 L -0.582031 24.574219 L 0.0117188 24.550781 L 0.542969 24.1875 L 0.867188 23.644531 L 1.246094 23.128906 L 3.078125 19.507812 L 4.035156 17.972656 L 4.492188 16.921875 L 4.511719 16.25 L 4.136719 15.742188 L 1.617188 14.394531 L 1.0625 14.410156 L 0.515625 14.730469 L 0.0546875 15.46875 L -0.550781 16.851562 L -0.882812 17.289062 L -1.28125 17.585938 L -1.773438 17.425781 L -2.085938 16.917969 L -2.324219 16.28125 L -2.414062 15.753906 L -2.292969 14.695312 L -1.980469 13.53125 L -1.636719 12.828125 L -0.757812 11.5625 L 0.59375 10.441406 L 1.761719 10.042969 L 2.289062 9.949219 L 3.511719 9.953125 L 4.394531 10.152344 L 5.3125 10.472656 L 6.867188 11.269531 L 7.800781 12.007812 L 8.527344 12.941406 L 9.335938 14.429688 L 9.503906 15.710938 L 9.5 16.289062 L 9.285156 16.824219 L 9.257812 17.386719 L 8.445312 19.03125 L 7.65625 19.871094 L 7.175781 20.261719 L 6.558594 20.582031 L 6.046875 20.71875 L 5.410156 20.820312 L 4.664062 21.136719 L 4.136719 21.675781 L 3.671875 22.480469 L 3.351562 23.335938 L 2.59375 24.566406 L 2.53125 25.382812 L 2.894531 25.785156 L 4.179688 25.992188 L 4.785156 26.011719 L 6.890625 25.769531 L 7.679688 25.441406 L 8.304688 25.230469 L 8.835938 25.003906 L 10.808594 23.671875 L 11.210938 23.171875 L 12.222656 22.109375 L 13.644531 19.699219 L 13.902344 19.152344 L 13.984375 18.617188 L 14.226562 18.097656 L 14.574219 15.660156 L 14.453125 13.71875 L 14.042969 12 L 13.800781 11.429688 L 13.617188 10.820312 L 13.375 10.316406 L 11.910156 8.269531 L 9.539062 6.390625 L 8.703125 5.910156 L 6.777344 5.050781 L 3.886719 4.464844 L 2.730469 4.457031 L 1.503906 4.585938 L -0.175781 5.054688 L -1.253906 5.601562 L -3.292969 6.867188 L -3.664062 7.246094 L -4.738281 8.617188 Z M -5.179688 9.0625" transform="translate(292.1 230.13)"/></g></g></g><g fill="#FFF4E6"><g><g><path d="M -7.574219 6.640625 L -8.429688 7.488281 L -8.632812 8.074219 L -8.472656 8.699219 L -6.484375 10.914062 L -5.835938 11.097656 L -5.121094 10.902344 L -4.652344 10.480469 L -3.953125 10.175781 L -3.222656 10.449219 L -2.910156 10.9375 L -0.675781 13.378906 L -0.28125 13.910156 L 1.253906 15.441406 L 3.195312 17.78125 L 3.5 18.433594 L 3.1875 19.078125 L 2.800781 19.546875 L 2.492188 20.148438 L 2.589844 20.707031 L 4.554688 22.941406 L 5.207031 23.125 L 5.832031 23.011719 L 8.539062 20.582031 L 8.980469 20.261719 L 9.347656 19.773438 L 11.183594 18.125 L 11.667969 17.808594 L 12.183594 17.347656 L 12.429688 16.722656 L 12.171875 15.984375 L 10.617188 14.390625 L 10.28125 13.925781 L 9.632812 13.699219 L 8.917969 13.894531 L 8.472656 14.296875 L 7.804688 14.410156 L 7.0625 13.984375 L 0.828125 7.175781 L 0.472656 6.285156 L 1.546875 4.511719 L 1.429688 3.886719 L -0.351562 1.769531 L -1.117188 1.367188 L -1.746094 1.566406 L -2.171875 1.949219 L -2.554688 2.375 L -3.285156 2.867188 L -3.957031 3.511719 L -4.363281 3.960938 L -5.339844 4.671875 L -5.929688 5.367188 L -7.027344 6.351562 Z M -7.574219 6.640625" transform="translate(267.77 266.318)"/></g></g></g><g fill="#FFF4E6"><g><g><path d="M -15.167969 9.214844 L -16.109375 9.199219 L -16.886719 9.539062 L -17.355469 10.046875 L -17.320312 10.71875 L -11.945312 20.289062 L -11.617188 20.6875 L -10.144531 23.273438 L -9.863281 23.945312 L -7.71875 27.535156 L -7.160156 27.910156 L -6.476562 27.898438 L -3.25 26.027344 L -2.917969 25.457031 L -2.941406 24.746094 L -3.226562 24.183594 L -3.542969 23.808594 L -4.089844 22.667969 L -4.46875 22.121094 L -7.078125 17.414062 L -7.171875 16.878906 L -6.675781 16.839844 L -3.765625 17.640625 L -2.707031 17.800781 L 5.398438 20.070312 L 5.96875 20.160156 L 6.75 20.132812 L 7.636719 19.871094 L 8.089844 19.265625 L 8.042969 18.636719 L 3.539062 10.71875 L 3.3125 10.257812 L 2.648438 9.214844 L 2.476562 8.726562 L -0.015625 4.472656 L -0.246094 3.945312 L -1.546875 1.78125 L -2.066406 1.417969 L -2.71875 1.546875 L -3.820312 2.105469 L -4.363281 2.484375 L -5.429688 2.984375 L -5.960938 3.324219 L -6.335938 3.882812 L -6.136719 4.839844 L -2.402344 11.46875 L -2.15625 12.019531 L -2.085938 12.566406 L -2.5 12.628906 L -3.09375 12.378906 L -5.960938 11.65625 L -6.523438 11.460938 L -7.128906 11.425781 L -13.46875 9.703125 L -14.582031 9.332031 Z M -15.167969 9.214844" transform="translate(253.09 279.295)"/></g></g></g><g fill="#FFF4E6"><g><g><path d="M -2.027344 12.214844 L -2.605469 12.410156 L -3.214844 13.953125 L -3.328125 14.339844 L -3.742188 14.414062 L -4.105469 14.082031 L -4.316406 13.753906 L -4.9375 13.195312 L -5.242188 12.851562 L -5.796875 12.828125 L -6.875 14.152344 L -7.214844 14.457031 L -7.496094 14.78125 L -7.808594 15.082031 L -7.734375 15.648438 L -7.417969 15.898438 L -7.003906 16.160156 L -6.046875 16.90625 L -6.035156 17.300781 L -6.421875 17.523438 L -6.863281 17.632812 L -7.25 17.855469 L -8.050781 18.148438 L -8.203125 18.667969 L -8.015625 19.03125 L -7.90625 19.46875 L -7.660156 19.820312 L -7.535156 20.195312 L -7.296875 20.488281 L -7.164062 20.894531 L -6.894531 21.210938 L -6.367188 21.421875 L -6.019531 21.144531 L -5.265625 20.738281 L -4.917969 20.460938 L -4.550781 20.304688 L -4.164062 20.417969 L -4.199219 21.246094 L -4.0625 22.015625 L -4.085938 22.386719 L -3.628906 22.734375 L -1.492188 22.382812 L -1.117188 22.253906 L -0.578125 22.1875 L -0.351562 21.75 L -0.457031 21.339844 L -0.519531 20.984375 L -0.675781 20.617188 L -0.898438 19.894531 L -0.625 19.539062 L 0.230469 19.722656 L 0.699219 19.761719 L 1.03125 19.914062 L 1.535156 20.007812 L 1.898438 19.636719 L 1.945312 19.230469 L 2.0625 18.84375 L 2.183594 17.996094 L 2.179688 17.632812 L 2.230469 17.226562 L 2.332031 16.78125 L 1.933594 16.421875 L 1.46875 16.382812 L 1.089844 16.328125 L 0.597656 16.296875 L 0.265625 16.324219 L -0.203125 16.257812 L -0.386719 15.921875 L -0.148438 15.542969 L 0.128906 15.21875 L 0.34375 14.875 L 0.492188 14.511719 L 0.789062 14.125 L 0.628906 13.570312 L 0.199219 13.402344 L -0.109375 13.214844 L -0.949219 12.785156 L -1.636719 12.359375 Z M -2.027344 12.214844" transform="translate(213.435 296.76)"/></g></g></g><g clip-path="url(#a)"><path fill="#FFF4E6" d="M 187.378906 256.144531 C 186.207031 256.144531 185.035156 256.113281 183.863281 256.058594 C 182.691406 256 181.523438 255.914062 180.359375 255.796875 C 179.191406 255.683594 178.027344 255.539062 176.867188 255.367188 C 175.707031 255.195312 174.554688 254.996094 173.40625 254.765625 C 172.253906 254.539062 171.113281 254.28125 169.972656 253.996094 C 168.835938 253.710938 167.707031 253.398438 166.585938 253.058594 C 165.464844 252.71875 164.351562 252.351562 163.25 251.957031 C 162.144531 251.5625 161.050781 251.140625 159.96875 250.691406 C 158.886719 250.242188 157.8125 249.765625 156.753906 249.265625 C 155.695312 248.765625 154.648438 248.238281 153.613281 247.6875 C 152.582031 247.132812 151.5625 246.554688 150.554688 245.953125 C 149.550781 245.351562 148.558594 244.722656 147.585938 244.070312 C 146.609375 243.421875 145.652344 242.746094 144.710938 242.046875 C 143.769531 241.347656 142.84375 240.628906 141.941406 239.886719 C 141.035156 239.140625 140.144531 238.375 139.277344 237.589844 C 138.410156 236.800781 137.558594 235.992188 136.730469 235.164062 C 135.902344 234.335938 135.09375 233.488281 134.308594 232.617188 C 133.519531 231.75 132.753906 230.863281 132.011719 229.957031 C 131.265625 229.050781 130.546875 228.125 129.847656 227.183594 C 129.148438 226.242188 128.476562 225.285156 127.824219 224.3125 C 127.171875 223.335938 126.546875 222.347656 125.941406 221.339844 C 125.339844 220.335938 124.761719 219.316406 124.210938 218.28125 C 123.65625 217.25 123.128906 216.203125 122.628906 215.140625 C 122.128906 214.082031 121.652344 213.011719 121.203125 211.929688 C 120.757812 210.84375 120.335938 209.75 119.941406 208.648438 C 119.542969 207.542969 119.175781 206.429688 118.835938 205.308594 C 118.496094 204.1875 118.183594 203.058594 117.898438 201.921875 C 117.613281 200.785156 117.359375 199.640625 117.128906 198.492188 C 116.902344 197.34375 116.699219 196.1875 116.527344 195.027344 C 116.355469 193.867188 116.210938 192.707031 116.097656 191.539062 C 115.984375 190.371094 115.898438 189.203125 115.839844 188.03125 C 115.78125 186.863281 115.753906 185.691406 115.753906 184.519531 C 115.753906 183.347656 115.78125 182.175781 115.839844 181.003906 C 115.898438 179.832031 115.984375 178.664062 116.097656 177.496094 C 116.210938 176.332031 116.355469 175.167969 116.527344 174.007812 C 116.699219 172.847656 116.902344 171.695312 117.128906 170.542969 C 117.359375 169.394531 117.613281 168.25 117.898438 167.113281 C 118.183594 165.976562 118.496094 164.847656 118.835938 163.726562 C 119.175781 162.605469 119.542969 161.492188 119.941406 160.386719 C 120.335938 159.285156 120.757812 158.191406 121.203125 157.109375 C 121.652344 156.027344 122.128906 154.953125 122.628906 153.894531 C 123.128906 152.835938 123.65625 151.789062 124.210938 150.753906 C 124.761719 149.71875 125.339844 148.699219 125.941406 147.695312 C 126.546875 146.691406 127.171875 145.699219 127.824219 144.726562 C 128.476562 143.75 129.148438 142.792969 129.847656 141.851562 C 130.546875 140.910156 131.265625 139.984375 132.011719 139.078125 C 132.753906 138.171875 133.519531 137.285156 134.308594 136.417969 C 135.09375 135.550781 135.902344 134.699219 136.730469 133.871094 C 137.558594 133.042969 138.410156 132.234375 139.277344 131.449219 C 140.144531 130.660156 141.035156 129.894531 141.941406 129.152344 C 142.84375 128.40625 143.769531 127.6875 144.710938 126.988281 C 145.652344 126.289062 146.609375 125.617188 147.585938 124.964844 C 148.558594 124.3125 149.550781 123.6875 150.554688 123.082031 C 151.5625 122.480469 152.582031 121.902344 153.613281 121.351562 C 154.648438 120.796875 155.695312 120.269531 156.753906 119.769531 C 157.8125 119.269531 158.886719 118.792969 159.96875 118.34375 C 161.050781 117.898438 162.144531 117.476562 163.25 117.082031 C 164.351562 116.683594 165.464844 116.316406 166.585938 115.976562 C 167.707031 115.636719 168.835938 115.324219 169.972656 115.039062 C 171.113281 114.753906 172.253906 114.5 173.40625 114.269531 C 174.554688 114.039062 175.707031 113.839844 176.867188 113.667969 C 178.027344 113.496094 179.191406 113.351562 180.359375 113.238281 C 181.523438 113.125 182.691406 113.035156 183.863281 112.980469 C 185.035156 112.921875 186.207031 112.894531 187.378906 112.894531 C 188.550781 112.894531 189.722656 112.921875 190.890625 112.980469 C 192.0625 113.035156 193.230469 113.125 194.398438 113.238281 C 195.566406 113.351562 196.726562 113.496094 197.886719 113.667969 C 199.046875 113.839844 200.203125 114.039062 201.351562 114.269531 C 202.5 114.5 203.644531 114.753906 204.78125 115.039062 C 205.917969 115.324219 207.046875 115.636719 208.167969 115.976562 C 209.292969 116.316406 210.402344 116.683594 211.507812 117.082031 C 212.609375 117.476562 213.703125 117.898438 214.789062 118.34375 C 215.871094 118.792969 216.941406 119.269531 218 119.769531 C 219.0625 120.269531 220.109375 120.796875 221.140625 121.351562 C 222.175781 121.902344 223.195312 122.480469 224.199219 123.082031 C 225.207031 123.6875 226.195312 124.3125 227.171875 124.964844 C 228.144531 125.617188 229.101562 126.289062 230.042969 126.988281 C 230.988281 127.6875 231.910156 128.40625 232.816406 129.152344 C 233.722656 129.894531 234.609375 130.660156 235.476562 131.449219 C 236.347656 132.234375 237.195312 133.042969 238.023438 133.871094 C 238.851562 134.699219 239.660156 135.550781 240.449219 136.417969 C 241.234375 137.285156 242 138.171875 242.746094 139.078125 C 243.488281 139.984375 244.210938 140.910156 244.90625 141.851562 C 245.605469 142.792969 246.28125 143.75 246.933594 144.726562 C 247.582031 145.699219 248.210938 146.691406 248.8125 147.695312 C 249.414062 148.699219 249.992188 149.71875 250.546875 150.753906 C 251.097656 151.789062 251.625 152.835938 252.125 153.894531 C 252.628906 154.953125 253.101562 156.027344 253.550781 157.109375 C 254 158.191406 254.421875 159.285156 254.816406 160.386719 C 255.210938 161.492188 255.578125 162.605469 255.917969 163.726562 C 256.257812 164.847656 256.570312 165.976562 256.855469 167.113281 C 257.140625 168.25 257.398438 169.394531 257.625 170.542969 C 257.855469 171.695312 258.054688 172.847656 258.226562 174.007812 C 258.398438 175.167969 258.542969 176.332031 258.65625 177.496094 C 258.773438 178.664062 258.859375 179.832031 258.917969 181.003906 C 258.972656 182.175781 259.003906 183.347656 259.003906 184.519531 C 259 185.691406 258.972656 186.859375 258.914062 188.03125 C 258.855469 189.203125 258.765625 190.371094 258.652344 191.535156 C 258.535156 192.703125 258.390625 193.863281 258.214844 195.023438 C 258.042969 196.183594 257.84375 197.335938 257.613281 198.484375 C 257.382812 199.636719 257.125 200.777344 256.839844 201.914062 C 256.554688 203.050781 256.242188 204.179688 255.898438 205.300781 C 255.558594 206.421875 255.191406 207.535156 254.796875 208.636719 C 254.398438 209.738281 253.976562 210.832031 253.527344 211.914062 C 253.078125 212.996094 252.605469 214.066406 252.101562 215.128906 C 251.601562 216.1875 251.074219 217.230469 250.519531 218.265625 C 249.96875 219.296875 249.390625 220.316406 248.789062 221.324219 C 248.183594 222.328125 247.558594 223.316406 246.90625 224.292969 C 246.253906 225.265625 245.582031 226.222656 244.882812 227.164062 C 244.183594 228.105469 243.460938 229.027344 242.71875 229.933594 C 241.976562 230.839844 241.210938 231.726562 240.421875 232.59375 C 239.636719 233.464844 238.828125 234.3125 238 235.140625 C 237.171875 235.96875 236.324219 236.777344 235.453125 237.5625 C 234.585938 238.351562 233.699219 239.117188 232.792969 239.859375 C 231.886719 240.601562 230.964844 241.324219 230.023438 242.023438 C 229.082031 242.71875 228.125 243.394531 227.152344 244.046875 C 226.175781 244.699219 225.1875 245.324219 224.183594 245.925781 C 223.175781 246.53125 222.160156 247.109375 221.125 247.660156 C 220.09375 248.214844 219.046875 248.742188 217.988281 249.242188 C 216.925781 249.746094 215.855469 250.21875 214.773438 250.667969 C 213.691406 251.117188 212.597656 251.539062 211.496094 251.9375 C 210.394531 252.332031 209.28125 252.699219 208.160156 253.039062 C 207.039062 253.382812 205.910156 253.695312 204.773438 253.980469 C 203.636719 254.265625 202.496094 254.523438 201.34375 254.753906 C 200.195312 254.984375 199.042969 255.183594 197.882812 255.355469 C 196.722656 255.53125 195.5625 255.675781 194.394531 255.789062 C 193.230469 255.90625 192.0625 255.996094 190.890625 256.054688 C 189.722656 256.113281 188.550781 256.140625 187.378906 256.144531 Z M 187.378906 118.863281 C 186.304688 118.863281 185.230469 118.886719 184.15625 118.941406 C 183.082031 118.992188 182.011719 119.074219 180.941406 119.179688 C 179.875 119.285156 178.808594 119.414062 177.742188 119.574219 C 176.679688 119.730469 175.621094 119.914062 174.570312 120.125 C 173.515625 120.332031 172.46875 120.570312 171.425781 120.828125 C 170.382812 121.089844 169.347656 121.378906 168.320312 121.6875 C 167.289062 122 166.269531 122.339844 165.257812 122.699219 C 164.246094 123.0625 163.246094 123.449219 162.253906 123.859375 C 161.257812 124.269531 160.277344 124.707031 159.304688 125.164062 C 158.335938 125.625 157.375 126.109375 156.429688 126.613281 C 155.480469 127.121094 154.546875 127.652344 153.625 128.203125 C 152.703125 128.753906 151.792969 129.328125 150.902344 129.925781 C 150.007812 130.523438 149.128906 131.140625 148.265625 131.78125 C 147.402344 132.421875 146.554688 133.082031 145.726562 133.765625 C 144.894531 134.445312 144.082031 135.148438 143.285156 135.871094 C 142.488281 136.589844 141.710938 137.332031 140.953125 138.09375 C 140.191406 138.851562 139.453125 139.628906 138.730469 140.425781 C 138.007812 141.222656 137.304688 142.035156 136.625 142.867188 C 135.941406 143.695312 135.28125 144.542969 134.640625 145.40625 C 134.003906 146.269531 133.382812 147.148438 132.785156 148.042969 C 132.191406 148.933594 131.613281 149.84375 131.0625 150.765625 C 130.511719 151.6875 129.980469 152.621094 129.472656 153.566406 C 128.96875 154.515625 128.484375 155.476562 128.023438 156.445312 C 127.566406 157.417969 127.128906 158.398438 126.71875 159.394531 C 126.308594 160.386719 125.921875 161.386719 125.558594 162.398438 C 125.199219 163.410156 124.859375 164.429688 124.546875 165.460938 C 124.238281 166.488281 123.949219 167.523438 123.6875 168.566406 C 123.429688 169.605469 123.191406 170.65625 122.984375 171.710938 C 122.773438 172.761719 122.589844 173.820312 122.433594 174.882812 C 122.273438 175.949219 122.144531 177.011719 122.039062 178.082031 C 121.933594 179.152344 121.851562 180.222656 121.800781 181.296875 C 121.746094 182.371094 121.722656 183.445312 121.722656 184.519531 C 121.722656 185.59375 121.746094 186.667969 121.800781 187.738281 C 121.851562 188.8125 121.933594 189.882812 122.039062 190.953125 C 122.144531 192.023438 122.273438 193.089844 122.433594 194.152344 C 122.589844 195.214844 122.773438 196.273438 122.984375 197.328125 C 123.191406 198.382812 123.429688 199.429688 123.6875 200.472656 C 123.949219 201.511719 124.238281 202.550781 124.546875 203.578125 C 124.859375 204.605469 125.199219 205.625 125.558594 206.636719 C 125.921875 207.648438 126.308594 208.652344 126.71875 209.644531 C 127.128906 210.636719 127.566406 211.617188 128.023438 212.589844 C 128.484375 213.5625 128.96875 214.519531 129.472656 215.46875 C 129.980469 216.414062 130.511719 217.351562 131.0625 218.273438 C 131.613281 219.195312 132.191406 220.101562 132.785156 220.996094 C 133.382812 221.886719 134.003906 222.765625 134.640625 223.628906 C 135.28125 224.492188 135.941406 225.339844 136.625 226.171875 C 137.304688 227 138.007812 227.8125 138.730469 228.609375 C 139.453125 229.40625 140.191406 230.183594 140.953125 230.945312 C 141.710938 231.703125 142.488281 232.445312 143.285156 233.167969 C 144.082031 233.886719 144.894531 234.589844 145.726562 235.269531 C 146.554688 235.953125 147.402344 236.613281 148.265625 237.253906 C 149.128906 237.894531 150.007812 238.511719 150.902344 239.109375 C 151.792969 239.707031 152.703125 240.28125 153.625 240.832031 C 154.546875 241.386719 155.480469 241.914062 156.429688 242.421875 C 157.375 242.929688 158.335938 243.410156 159.304688 243.871094 C 160.277344 244.332031 161.257812 244.765625 162.253906 245.175781 C 163.246094 245.585938 164.246094 245.972656 165.257812 246.335938 C 166.269531 246.699219 167.289062 247.035156 168.320312 247.347656 C 169.347656 247.660156 170.382812 247.945312 171.425781 248.207031 C 172.46875 248.46875 173.515625 248.703125 174.570312 248.914062 C 175.621094 249.121094 176.679688 249.304688 177.742188 249.464844 C 178.808594 249.621094 179.875 249.753906 180.941406 249.859375 C 182.011719 249.964844 183.082031 250.042969 184.15625 250.09375 C 185.230469 250.148438 186.304688 250.175781 187.378906 250.175781 C 188.453125 250.175781 189.527344 250.148438 190.597656 250.09375 C 191.671875 250.042969 192.742188 249.964844 193.8125 249.859375 C 194.882812 249.753906 195.949219 249.621094 197.011719 249.464844 C 198.074219 249.304688 199.132812 249.121094 200.1875 248.914062 C 201.242188 248.703125 202.289062 248.46875 203.332031 248.207031 C 204.375 247.945312 205.410156 247.660156 206.4375 247.347656 C 207.464844 247.035156 208.484375 246.699219 209.496094 246.335938 C 210.507812 245.972656 211.511719 245.585938 212.503906 245.175781 C 213.496094 244.765625 214.476562 244.332031 215.449219 243.871094 C 216.421875 243.410156 217.378906 242.929688 218.328125 242.421875 C 219.277344 241.914062 220.210938 241.386719 221.132812 240.832031 C 222.054688 240.28125 222.960938 239.707031 223.855469 239.109375 C 224.746094 238.511719 225.625 237.894531 226.488281 237.253906 C 227.351562 236.613281 228.199219 235.953125 229.03125 235.269531 C 229.859375 234.589844 230.671875 233.886719 231.46875 233.167969 C 232.265625 232.445312 233.042969 231.703125 233.804688 230.945312 C 234.5625 230.183594 235.304688 229.40625 236.027344 228.609375 C 236.746094 227.8125 237.449219 227 238.132812 226.171875 C 238.8125 225.339844 239.472656 224.492188 240.113281 223.628906 C 240.753906 222.765625 241.371094 221.886719 241.96875 220.996094 C 242.566406 220.101562 243.140625 219.195312 243.691406 218.273438 C 244.246094 217.351562 244.773438 216.414062 245.28125 215.46875 C 245.789062 214.519531 246.269531 213.5625 246.730469 212.589844 C 247.191406 211.617188 247.625 210.636719 248.035156 209.644531 C 248.449219 208.652344 248.835938 207.648438 249.195312 206.636719 C 249.558594 205.625 249.894531 204.605469 250.207031 203.578125 C 250.519531 202.550781 250.804688 201.511719 251.066406 200.472656 C 251.328125 199.429688 251.5625 198.382812 251.773438 197.328125 C 251.980469 196.273438 252.164062 195.214844 252.324219 194.152344 C 252.480469 193.089844 252.613281 192.023438 252.71875 190.953125 C 252.824219 189.882812 252.902344 188.8125 252.953125 187.738281 C 253.007812 186.667969 253.035156 185.59375 253.035156 184.519531 C 253.03125 183.445312 253.003906 182.371094 252.953125 181.296875 C 252.898438 180.226562 252.816406 179.152344 252.710938 178.085938 C 252.605469 177.015625 252.472656 175.949219 252.3125 174.886719 C 252.15625 173.824219 251.972656 172.769531 251.761719 171.714844 C 251.550781 170.660156 251.3125 169.613281 251.050781 168.570312 C 250.789062 167.53125 250.503906 166.496094 250.191406 165.46875 C 249.878906 164.441406 249.539062 163.421875 249.175781 162.410156 C 248.816406 161.398438 248.429688 160.394531 248.015625 159.402344 C 247.605469 158.410156 247.167969 157.429688 246.710938 156.460938 C 246.25 155.488281 245.765625 154.53125 245.257812 153.582031 C 244.753906 152.636719 244.222656 151.703125 243.671875 150.78125 C 243.117188 149.859375 242.542969 148.953125 241.945312 148.058594 C 241.347656 147.167969 240.730469 146.289062 240.089844 145.425781 C 239.449219 144.5625 238.789062 143.714844 238.109375 142.886719 C 237.425781 142.054688 236.726562 141.242188 236.003906 140.445312 C 235.28125 139.652344 234.542969 138.875 233.78125 138.113281 C 233.023438 137.355469 232.246094 136.613281 231.449219 135.890625 C 230.652344 135.171875 229.839844 134.46875 229.007812 133.789062 C 228.179688 133.105469 227.332031 132.445312 226.46875 131.804688 C 225.609375 131.164062 224.730469 130.546875 223.835938 129.949219 C 222.945312 129.351562 222.035156 128.777344 221.117188 128.226562 C 220.195312 127.671875 219.261719 127.144531 218.3125 126.636719 C 217.367188 126.128906 216.40625 125.644531 215.4375 125.1875 C 214.464844 124.726562 213.484375 124.292969 212.492188 123.878906 C 211.5 123.46875 210.5 123.082031 209.488281 122.71875 C 208.476562 122.355469 207.457031 122.019531 206.429688 121.707031 C 205.402344 121.394531 204.367188 121.105469 203.324219 120.84375 C 202.28125 120.582031 201.234375 120.347656 200.179688 120.136719 C 199.128906 119.925781 198.070312 119.742188 197.007812 119.582031 C 195.945312 119.421875 194.878906 119.292969 193.8125 119.183594 C 192.742188 119.078125 191.671875 119 190.597656 118.945312 C 189.527344 118.890625 188.453125 118.863281 187.378906 118.863281 Z M 187.378906 118.863281"/></g><path fill="#FFF4E6" d="M 187.378906 229.285156 C 165.984375 229.285156 148.582031 214.554688 148.582031 196.457031 L 154.550781 196.457031 C 154.550781 211.265625 169.277344 223.316406 187.378906 223.316406 C 205.476562 223.316406 220.207031 211.265625 220.207031 196.457031 L 226.175781 196.457031 C 226.175781 214.554688 208.769531 229.285156 187.378906 229.285156 Z M 187.378906 229.285156"/><path fill="#FFF4E6" d="M 175.441406 175.566406 L 169.472656 175.566406 C 169.472656 168.980469 165.453125 163.628906 160.519531 163.628906 C 155.582031 163.628906 151.566406 168.980469 151.566406 175.566406 L 145.597656 175.566406 C 145.597656 165.691406 152.289062 157.660156 160.519531 157.660156 C 168.746094 157.660156 175.441406 165.691406 175.441406 175.566406 Z M 175.441406 175.566406"/><path fill="#FFF4E6" d="M 229.160156 175.566406 L 223.191406 175.566406 C 223.191406 168.980469 219.171875 163.628906 214.238281 163.628906 C 209.300781 163.628906 205.285156 168.980469 205.285156 175.566406 L 199.316406 175.566406 C 199.316406 165.691406 206.007812 157.660156 214.238281 157.660156 C 222.464844 157.660156 229.160156 165.691406 229.160156 175.566406 Z M 229.160156 175.566406"/></svg>